G04*
G04 #@! TF.GenerationSoftware,Altium Limited,Altium Designer,26.3.0 (6)*
G04*
G04 Layer_Physical_Order=1*
G04 Layer_Color=255*
%FSLAX44Y44*%
%MOMM*%
G71*
G04*
G04 #@! TF.SameCoordinates,C73D5564-9998-425E-B212-E170596909CB*
G04*
G04*
G04 #@! TF.FilePolarity,Positive*
G04*
G01*
G75*
%ADD13C,0.2500*%
%ADD14C,0.2000*%
%ADD23R,1.6986X0.9906*%
%ADD24R,0.9620X0.7620*%
%ADD25R,0.9906X1.6986*%
%ADD26R,0.7620X0.9620*%
%ADD37C,1.0000*%
%ADD71C,0.2700*%
%ADD72C,0.2546*%
%ADD84C,0.6604*%
%ADD89R,1.0000X0.7000*%
%ADD90R,0.5000X0.2000*%
%ADD91R,0.2000X0.5000*%
%ADD92R,3.0480X1.2192*%
%ADD93R,1.2192X3.0480*%
%ADD94R,0.5580X0.9723*%
%ADD95R,0.9723X0.5580*%
%ADD96R,1.0500X0.5000*%
%ADD97R,0.8000X0.8000*%
%ADD98R,0.8000X0.8000*%
%ADD99R,1.0160X1.0160*%
%ADD100R,1.0160X1.0160*%
%ADD101R,1.3000X1.8000*%
%ADD102R,1.8000X1.3000*%
%ADD103R,1.1000X1.4000*%
%ADD104R,0.3000X2.4000*%
%ADD105R,1.1620X0.3056*%
%ADD106R,0.3056X1.1620*%
%ADD107R,3.9116X3.9500*%
%ADD108R,0.9080X0.2548*%
%ADD109R,0.9000X1.5000*%
%ADD110R,0.9000X0.9000*%
%ADD111R,5.2000X14.0000*%
%ADD112R,1.4500X0.4000*%
%ADD113R,1.6764X1.6764*%
%ADD114R,0.2500X0.6000*%
%ADD115R,1.6800X1.6800*%
%ADD116R,3.1500X3.1500*%
%ADD117O,0.6000X0.2400*%
%ADD118R,2.1000X0.4000*%
%ADD119R,0.2500X0.6000*%
%ADD120R,0.6000X0.2500*%
%ADD121R,0.6000X0.2400*%
%AMCUSTOMSHAPE122*
4,1,16,-0.1200,-1.1750,-0.1650,-1.1750,-0.1650,1.1750,-0.1200,1.1750,-0.1200,1.6500,-0.0700,1.7000,0.0700,1.7000,0.1200,1.6500,0.1200,1.1750,0.1650,1.1750,0.1650,-1.1750,0.1200,-1.1750,0.1200,-1.6500,0.0700,-1.7000,-0.0700,-1.7000,-0.1200,-1.6500,-0.1200,-1.1750,0.0*%
%ADD122CUSTOMSHAPE122*%

%ADD123R,0.2400X0.6000*%
%ADD124R,0.1270X0.1270*%
%ADD125R,2.7432X2.7432*%
%ADD126R,0.8572X0.2548*%
%ADD127R,0.2548X0.8572*%
%ADD128R,0.3048X1.1430*%
%ADD129R,4.0000X4.9000*%
%ADD130R,0.7000X0.4200*%
%ADD131R,0.2400X3.4000*%
%AMCUSTOMSHAPE132*
4,1,11,0.4000,0.1500,0.1000,0.1500,0.1000,0.4500,0.0500,0.5000,-0.1000,0.5000,-0.1500,0.4500,-0.1500,-0.1000,-0.1000,-0.1500,0.4000,-0.1500,0.4500,-0.1000,0.4500,0.1000,0.4000,0.1500,0.0*%
%ADD132CUSTOMSHAPE132*%

%AMCUSTOMSHAPE133*
4,1,11,0.4000,-0.1000,0.1000,-0.1000,0.1000,-0.4000,0.0500,-0.4500,-0.1000,-0.4500,-0.1500,-0.4000,-0.1500,0.1500,-0.1000,0.2000,0.4000,0.2000,0.4500,0.1500,0.4500,-0.0500,0.4000,-0.1000,0.0*%
%ADD133CUSTOMSHAPE133*%

%AMCUSTOMSHAPE134*
4,1,11,-0.4000,-0.1000,-0.1000,-0.1000,-0.1000,-0.4000,-0.0500,-0.4500,0.1000,-0.4500,0.1500,-0.4000,0.1500,0.1500,0.1000,0.2000,-0.4000,0.2000,-0.4500,0.1500,-0.4500,-0.0500,-0.4000,-0.1000,0.0*%
%ADD134CUSTOMSHAPE134*%

%AMCUSTOMSHAPE135*
4,1,11,-0.4000,0.1500,-0.1000,0.1500,-0.1000,0.4500,-0.0500,0.5000,0.1000,0.5000,0.1500,0.4500,0.1500,-0.1000,0.1000,-0.1500,-0.4000,-0.1500,-0.4500,-0.1000,-0.4500,0.1000,-0.4000,0.1500,0.0*%
%ADD135CUSTOMSHAPE135*%

%AMCUSTOMSHAPE136*
4,1,11,-0.4000,-0.1500,-0.1000,-0.1500,-0.1000,-0.4500,-0.0500,-0.5000,0.1000,-0.5000,0.1500,-0.4500,0.1500,0.1000,0.1000,0.1500,-0.4000,0.1500,-0.4500,0.1000,-0.4500,-0.1000,-0.4000,-0.1500,0.0*%
%ADD136CUSTOMSHAPE136*%

%AMCUSTOMSHAPE137*
4,1,11,-0.4000,0.1000,-0.1000,0.1000,-0.1000,0.4000,-0.0500,0.4500,0.1000,0.4500,0.1500,0.4000,0.1500,-0.1500,0.1000,-0.2000,-0.4000,-0.2000,-0.4500,-0.1500,-0.4500,0.0500,-0.4000,0.1000,0.0*%
%ADD137CUSTOMSHAPE137*%

%AMCUSTOMSHAPE138*
4,1,11,0.4000,0.1000,0.1000,0.1000,0.1000,0.4000,0.0500,0.4500,-0.1000,0.4500,-0.1500,0.4000,-0.1500,-0.1500,-0.1000,-0.2000,0.4000,-0.2000,0.4500,-0.1500,0.4500,0.0500,0.4000,0.1000,0.0*%
%ADD138CUSTOMSHAPE138*%

%AMCUSTOMSHAPE139*
4,1,11,0.4000,-0.1500,0.1000,-0.1500,0.1000,-0.4500,0.0500,-0.5000,-0.1000,-0.5000,-0.1500,-0.4500,-0.1500,0.1000,-0.1000,0.1500,0.4000,0.1500,0.4500,0.1000,0.4500,-0.1000,0.4000,-0.1500,0.0*%
%ADD139CUSTOMSHAPE139*%

%ADD140R,0.6000X0.2500*%
%ADD141R,1.7000X0.2500*%
%AMCUSTOMSHAPE142*
4,1,26,0.9000,-0.1100,0.9000,0.1900,0.8500,0.2400,-1.1500,0.2400,-1.2000,0.1900,-1.2000,-0.1600,-1.1750,-0.1600,-1.1750,-0.6700,-1.1250,-0.7200,-0.9750,-0.7200,-0.9250,-0.6700,-0.9250,-0.1600,-0.6750,-0.1600,-0.6750,-0.6700,-0.6250,-0.7200,-0.4750,-0.7200,-0.4250,-0.6700,-0.4250,-0.1600,-0.1750,-0.1600,-0.1750,-0.6700,-0.1250,-0.7200,0.0250,-0.7200,0.0750,-0.6700,0.0750,-0.2100,0.1250,-0.1600,0.8500,-0.1600,0.9000,-0.1100,0.0*%
%ADD142CUSTOMSHAPE142*%

%ADD143R,2.2606X3.5052*%
%ADD144R,1.9500X1.7000*%
%ADD145R,0.8500X1.4500*%
%ADD146O,0.2400X0.6000*%
%ADD147R,0.2548X0.9080*%
%ADD148R,2.4000X0.3000*%
%ADD149R,1.0500X1.4500*%
%ADD150R,2.0000X1.0000*%
%ADD151R,1.5000X0.9000*%
%ADD152C,0.4000*%
%ADD153C,0.6000*%
%ADD154C,0.3000*%
%ADD155C,0.5000*%
%ADD156C,2.0000*%
%ADD157R,2.6500X2.3750*%
%ADD158C,1.9500*%
%ADD159C,1.3716*%
%ADD160C,1.6510*%
%ADD161R,1.6510X1.6510*%
%ADD162C,6.0000*%
%ADD163O,0.9906X2.1082*%
%ADD164O,0.9906X1.8034*%
%ADD165R,6.0000X6.0000*%
%ADD166C,0.6500*%
%ADD167C,0.7000*%
%ADD168C,0.8500*%
%ADD169C,0.8000*%
%ADD170C,5.0000*%
G36*
X858422Y6578D02*
X642500D01*
Y84402D01*
X430000D01*
Y7000D01*
X4078D01*
Y245005D01*
X5066Y246596D01*
X6078Y246596D01*
X12821D01*
Y256351D01*
Y266106D01*
X6078D01*
X5066Y266106D01*
X4078Y267696D01*
Y276969D01*
X6078Y277367D01*
X6300Y276831D01*
X7864Y274793D01*
X9902Y273230D01*
X12275Y272247D01*
X12821Y272175D01*
Y281751D01*
Y291327D01*
X12275Y291255D01*
X9902Y290272D01*
X7864Y288708D01*
X6300Y286670D01*
X6078Y286135D01*
X4078Y286532D01*
Y302369D01*
X6078Y302767D01*
X6300Y302231D01*
X7864Y300193D01*
X9902Y298630D01*
X12275Y297647D01*
X12821Y297575D01*
Y307151D01*
Y316726D01*
X12275Y316654D01*
X9902Y315672D01*
X7864Y314108D01*
X6300Y312070D01*
X6078Y311535D01*
X4078Y311932D01*
Y327769D01*
X6078Y328167D01*
X6300Y327631D01*
X7864Y325593D01*
X9902Y324030D01*
X12275Y323047D01*
X12821Y322975D01*
Y332551D01*
Y342127D01*
X12275Y342054D01*
X9902Y341072D01*
X7864Y339508D01*
X6300Y337470D01*
X6078Y336935D01*
X4078Y337332D01*
Y353169D01*
X6078Y353567D01*
X6300Y353031D01*
X7864Y350993D01*
X9902Y349430D01*
X12275Y348447D01*
X12821Y348375D01*
Y357951D01*
Y367527D01*
X12275Y367454D01*
X9902Y366472D01*
X7864Y364908D01*
X6300Y362870D01*
X6078Y362335D01*
X4078Y362732D01*
Y378569D01*
X6078Y378967D01*
X6300Y378431D01*
X7864Y376393D01*
X9902Y374830D01*
X12275Y373847D01*
X12821Y373775D01*
Y383351D01*
Y392926D01*
X12275Y392854D01*
X9902Y391872D01*
X7864Y390308D01*
X6300Y388270D01*
X6078Y387735D01*
X4078Y388132D01*
Y403969D01*
X6078Y404367D01*
X6300Y403831D01*
X7864Y401793D01*
X9902Y400230D01*
X12275Y399247D01*
X12821Y399175D01*
Y408751D01*
Y418326D01*
X12275Y418255D01*
X9902Y417272D01*
X7864Y415708D01*
X6300Y413670D01*
X6078Y413135D01*
X4078Y413532D01*
Y429369D01*
X6078Y429767D01*
X6300Y429231D01*
X7864Y427193D01*
X9902Y425630D01*
X12275Y424647D01*
X12821Y424575D01*
Y434151D01*
Y443727D01*
X12275Y443655D01*
X9902Y442672D01*
X7864Y441108D01*
X6300Y439070D01*
X6078Y438535D01*
X4078Y438932D01*
Y454218D01*
X4219Y454344D01*
X6078Y455103D01*
X7561Y454113D01*
X10000Y453628D01*
X12439Y454113D01*
X14506Y455494D01*
X15887Y457561D01*
X16372Y460000D01*
X15887Y462439D01*
X14506Y464506D01*
X12439Y465887D01*
X10000Y466372D01*
X7561Y465887D01*
X6078Y464897D01*
X4219Y465656D01*
X4078Y465782D01*
Y607500D01*
X8500D01*
X10500Y607500D01*
X10500Y605500D01*
Y596500D01*
X24500D01*
X24500Y605740D01*
X26500Y606707D01*
X27500Y605914D01*
Y235000D01*
X145000D01*
Y181000D01*
X116000D01*
X109000Y174000D01*
Y126000D01*
X112975Y122025D01*
X112547Y120993D01*
X112547D01*
Y113000D01*
X119000D01*
Y111000D01*
X121000D01*
Y101007D01*
X124000D01*
Y97000D01*
X131390Y89000D01*
X134062Y86107D01*
X134038Y85986D01*
X134173D01*
Y74556D01*
X134038D01*
X134170Y73893D01*
X132256Y73513D01*
X130503Y72341D01*
X129331Y70587D01*
X128919Y68518D01*
X129331Y66449D01*
X130503Y64696D01*
X132256Y63524D01*
X134173Y63143D01*
Y60000D01*
X192077D01*
Y63073D01*
X192125Y63112D01*
X194194Y63524D01*
X195948Y64696D01*
X197120Y66449D01*
X197531Y68518D01*
X197120Y70587D01*
X195948Y72341D01*
X194194Y73513D01*
X193948Y73562D01*
X192212Y74556D01*
X192077D01*
Y85986D01*
X192212D01*
X192190Y86099D01*
X194091Y88000D01*
X220941D01*
Y77080D01*
X216920D01*
Y62920D01*
X231080D01*
Y72981D01*
X232928Y73747D01*
X236837Y69837D01*
X236837Y69837D01*
X237829Y69174D01*
X239000Y68941D01*
X253941D01*
Y63080D01*
X249920D01*
Y48920D01*
X264080D01*
Y63080D01*
X260059D01*
Y70828D01*
X260059Y70828D01*
X259826Y71999D01*
X259163Y72991D01*
X259163Y72991D01*
X257991Y74163D01*
X256999Y74826D01*
X255828Y75059D01*
X255828Y75059D01*
X240267D01*
X232803Y82523D01*
Y85379D01*
X235824D01*
Y91959D01*
X239824D01*
Y85379D01*
X244404D01*
Y88000D01*
X249992D01*
Y84879D01*
X264152D01*
Y99038D01*
X262500D01*
Y102500D01*
X270000Y107500D01*
X290645D01*
X291220Y107116D01*
X292000Y106961D01*
X312000D01*
X312780Y107116D01*
X313355Y107500D01*
X315895D01*
X316470Y107116D01*
X317250Y106961D01*
X414172D01*
X415647Y105555D01*
X415843Y105094D01*
X415845Y105086D01*
X415768Y104689D01*
X415494Y104506D01*
X414113Y102439D01*
X413628Y100000D01*
X414113Y97561D01*
X415494Y95494D01*
X417561Y94113D01*
X420000Y93628D01*
X422439Y94113D01*
X424506Y95494D01*
X425887Y97561D01*
X426372Y100000D01*
X425887Y102439D01*
X424506Y104506D01*
X423619Y105098D01*
X424226Y107099D01*
X435774D01*
X436381Y105098D01*
X435494Y104506D01*
X434113Y102439D01*
X433628Y100000D01*
X434113Y97561D01*
X435494Y95494D01*
X437561Y94113D01*
X440000Y93628D01*
X442439Y94113D01*
X444506Y95494D01*
X445887Y97561D01*
X446372Y100000D01*
X445887Y102439D01*
X444506Y104506D01*
X443619Y105098D01*
X444226Y107099D01*
X455774D01*
X456381Y105098D01*
X455494Y104506D01*
X454113Y102439D01*
X453628Y100000D01*
X454113Y97561D01*
X455494Y95494D01*
X457561Y94113D01*
X460000Y93628D01*
X462439Y94113D01*
X464506Y95494D01*
X465887Y97561D01*
X466372Y100000D01*
X465887Y102439D01*
X464506Y104506D01*
X463619Y105098D01*
X464226Y107099D01*
X468114D01*
X468311Y107138D01*
X468512D01*
X468698Y107214D01*
X468895Y107254D01*
X469062Y107365D01*
X469247Y107442D01*
X469305Y107500D01*
X476695D01*
X476753Y107442D01*
X476938Y107365D01*
X477105Y107254D01*
X477302Y107214D01*
X477488Y107138D01*
X477689D01*
X477886Y107099D01*
X480774D01*
X481381Y105098D01*
X480494Y104506D01*
X479113Y102439D01*
X478628Y100000D01*
X479113Y97561D01*
X480494Y95494D01*
X482561Y94113D01*
X485000Y93628D01*
X487439Y94113D01*
X489506Y95494D01*
X490887Y97561D01*
X491372Y100000D01*
X490887Y102439D01*
X489506Y104506D01*
X489162Y107019D01*
X489340Y107278D01*
X489607Y107500D01*
X495695D01*
X495753Y107442D01*
X495938Y107365D01*
X496105Y107254D01*
X496302Y107214D01*
X496488Y107138D01*
X496689D01*
X496886Y107099D01*
X500774D01*
X501381Y105098D01*
X500494Y104506D01*
X499113Y102439D01*
X498628Y100000D01*
X499113Y97561D01*
X500494Y95494D01*
X502561Y94113D01*
X505000Y93628D01*
X507439Y94113D01*
X509506Y95494D01*
X510887Y97561D01*
X511372Y100000D01*
X510887Y102439D01*
X509506Y104506D01*
X508619Y105098D01*
X509226Y107099D01*
X512469D01*
X513737Y105553D01*
X513628Y105000D01*
X514113Y102561D01*
X514461Y102040D01*
Y89000D01*
X514616Y88220D01*
X515058Y87558D01*
X515720Y87116D01*
X516500Y86961D01*
X595000D01*
X595780Y87116D01*
X596442Y87558D01*
X596884Y88220D01*
X597039Y89000D01*
Y90935D01*
X597976Y92547D01*
X598892Y92547D01*
X605969D01*
Y99000D01*
Y105453D01*
X599039D01*
X597976Y105453D01*
X597862Y105650D01*
X597500Y107500D01*
X597500D01*
Y172500D01*
X672500D01*
Y212500D01*
X560000D01*
Y325525D01*
X573653Y345731D01*
X575565Y345145D01*
Y344500D01*
X590305D01*
Y350096D01*
X578734D01*
X577795Y351862D01*
X599671Y384238D01*
X599689Y384282D01*
X599722Y384318D01*
X599843Y384647D01*
X599979Y384971D01*
X599979Y385020D01*
X599996Y385065D01*
X602515Y401210D01*
X602508Y401368D01*
X602539Y401524D01*
Y401735D01*
X602584Y401958D01*
X602667Y402186D01*
X603122Y405101D01*
X604624Y413631D01*
X605596Y415477D01*
X607645Y415885D01*
X609381Y417045D01*
X610542Y418782D01*
X610949Y420830D01*
X610824Y421461D01*
X611942Y422529D01*
X611961Y422556D01*
X611989Y422575D01*
X612189Y422881D01*
X612399Y423180D01*
X612407Y423213D01*
X612425Y423240D01*
X612493Y423599D01*
X612573Y423956D01*
X612567Y423989D01*
X612573Y424022D01*
X612564Y425080D01*
X613972Y426500D01*
X617200D01*
Y430000D01*
X617350D01*
Y433750D01*
X620650D01*
Y430000D01*
X620800D01*
Y426500D01*
X625560D01*
Y423527D01*
X625560Y423527D01*
X625715Y422747D01*
X626157Y422085D01*
X626157Y422085D01*
X632104Y416138D01*
X632766Y415696D01*
X632793Y415691D01*
Y406794D01*
X632948Y406014D01*
X633390Y405352D01*
X633390Y405352D01*
X634961Y403782D01*
Y332259D01*
X635116Y331478D01*
X635558Y330817D01*
X636220Y330375D01*
X636726Y330274D01*
Y299763D01*
X636220Y299663D01*
X635558Y299221D01*
X635116Y298559D01*
X634961Y297779D01*
Y292314D01*
X635116Y291533D01*
X635558Y290872D01*
X636220Y290430D01*
X637000Y290275D01*
X732500D01*
X733280Y290430D01*
X733942Y290872D01*
X734384Y291533D01*
X734539Y292314D01*
Y348727D01*
X736539Y349796D01*
X737561Y349113D01*
X740000Y348628D01*
X742439Y349113D01*
X743526Y349839D01*
X745000Y350330D01*
X746474Y349839D01*
X747561Y349113D01*
X750000Y348628D01*
X752439Y349113D01*
X754506Y350494D01*
X755887Y352561D01*
X756373Y355000D01*
X755887Y357439D01*
X754510Y359500D01*
X755887Y361561D01*
X756373Y364000D01*
X755887Y366439D01*
X754506Y368506D01*
X752439Y369887D01*
X750000Y370373D01*
X747561Y369887D01*
X746474Y369161D01*
X745000Y368670D01*
X743526Y369161D01*
X742439Y369887D01*
X740000Y370373D01*
X737561Y369887D01*
X736539Y369204D01*
X734539Y370274D01*
Y375000D01*
X734384Y375780D01*
X733942Y376442D01*
X733280Y376884D01*
X732500Y377039D01*
X705833D01*
X681427Y400956D01*
X681104Y401168D01*
X680780Y401384D01*
X680770Y401386D01*
X680761Y401392D01*
X680381Y401463D01*
X680000Y401539D01*
X665500D01*
Y402500D01*
X664548D01*
X654560Y415647D01*
X654667Y416571D01*
X655012Y417875D01*
X656537Y418894D01*
X657697Y420631D01*
X658105Y422679D01*
X657697Y424728D01*
X656971Y425815D01*
X656537Y426464D01*
X657313Y428244D01*
X657357Y428321D01*
X658479Y430000D01*
X661858D01*
Y418715D01*
X676018D01*
Y430000D01*
X681106D01*
Y418715D01*
X695266D01*
Y423441D01*
X704956D01*
Y420046D01*
X719116D01*
Y430000D01*
X722160D01*
Y470000D01*
X703819D01*
X697000Y476819D01*
Y582000D01*
X650000D01*
Y535000D01*
X590000D01*
Y580883D01*
X589745Y582000D01*
Y675679D01*
X590294Y676078D01*
X591745Y676564D01*
X592329Y676174D01*
X593500Y675941D01*
X593500Y675941D01*
X604597D01*
X604597Y675941D01*
X605420Y675266D01*
Y665420D01*
X619580D01*
Y670097D01*
X625250D01*
Y663825D01*
X630422D01*
Y658689D01*
X628311Y656578D01*
X619580D01*
Y660332D01*
X605420D01*
Y646172D01*
X619580D01*
Y648422D01*
X630000D01*
X630000Y648422D01*
X631561Y648732D01*
X632884Y649616D01*
X637384Y654116D01*
X637384Y654116D01*
X638268Y655439D01*
X638578Y657000D01*
Y663825D01*
X643750D01*
Y670175D01*
Y676525D01*
Y682875D01*
Y689225D01*
Y695575D01*
Y701925D01*
Y708275D01*
Y714625D01*
Y720975D01*
Y727325D01*
Y733675D01*
Y740025D01*
Y746375D01*
Y752725D01*
Y759075D01*
Y765425D01*
Y771775D01*
Y778125D01*
Y784475D01*
Y790825D01*
Y798825D01*
X634345D01*
X634000Y798894D01*
X628583D01*
X628466Y798972D01*
X627323Y799199D01*
X624922Y801600D01*
Y812920D01*
X627832D01*
Y827080D01*
X627102D01*
X627039Y827156D01*
Y839851D01*
X627399Y840137D01*
X629039Y840737D01*
X629220Y840616D01*
X630000Y840461D01*
X672500D01*
X673280Y840616D01*
X673942Y841058D01*
X674384Y841720D01*
X674539Y842500D01*
Y874620D01*
X674384Y875400D01*
X673942Y876062D01*
X673280Y876504D01*
X672500Y876659D01*
X630000D01*
X629220Y876504D01*
X629039Y876384D01*
X627399Y876983D01*
X627039Y877270D01*
Y879500D01*
X626884Y880280D01*
X626442Y880942D01*
X626415Y881207D01*
X643086Y897961D01*
X805000D01*
X805780Y898116D01*
X806442Y898558D01*
X806884Y899220D01*
X807039Y900000D01*
Y929500D01*
X806884Y930280D01*
X806442Y930942D01*
X805780Y931384D01*
X805000Y931539D01*
X607039D01*
Y1049961D01*
X805000D01*
X805780Y1050116D01*
X806442Y1050558D01*
X806884Y1051220D01*
X807039Y1052000D01*
Y1090000D01*
X806884Y1090780D01*
X806442Y1091442D01*
X805780Y1091884D01*
X805000Y1092039D01*
X650845D01*
X641836Y1101048D01*
X658455Y1117667D01*
X727217D01*
X727998Y1117822D01*
X728659Y1118264D01*
X728694Y1118316D01*
X730670Y1118521D01*
X730997Y1118437D01*
X731506Y1118098D01*
X732286Y1117942D01*
X769000D01*
X769780Y1118098D01*
X770442Y1118540D01*
X770884Y1119201D01*
X771039Y1119981D01*
Y1140000D01*
X770884Y1140780D01*
X770442Y1141442D01*
X769780Y1141884D01*
X769000Y1142039D01*
X732286D01*
X731506Y1141884D01*
X730870Y1141459D01*
X730825Y1141442D01*
X728678D01*
X728633Y1141459D01*
X727998Y1141884D01*
X727217Y1142039D01*
X655845D01*
X646442Y1151442D01*
X645780Y1151884D01*
X645000Y1152039D01*
X620189D01*
X619582Y1154039D01*
X620260Y1154492D01*
X632134Y1166366D01*
X632388Y1166747D01*
X634500D01*
X634894Y1166825D01*
X643750D01*
Y1173175D01*
Y1179525D01*
Y1185875D01*
Y1192225D01*
Y1198575D01*
Y1204925D01*
Y1211275D01*
Y1217625D01*
Y1223975D01*
Y1230325D01*
Y1236675D01*
Y1243025D01*
Y1249375D01*
Y1255725D01*
Y1262075D01*
Y1268425D01*
Y1274775D01*
Y1281125D01*
Y1287475D01*
Y1293825D01*
Y1301825D01*
X625250D01*
Y1301394D01*
X617244D01*
Y1314697D01*
X618478Y1315932D01*
X623920D01*
Y1312420D01*
X638080D01*
Y1326580D01*
X623920D01*
Y1323069D01*
X617000D01*
X615634Y1322797D01*
X614477Y1322023D01*
X611152Y1318698D01*
X610378Y1317541D01*
X610106Y1316175D01*
Y1299582D01*
X610378Y1298217D01*
X610790Y1297601D01*
X609236Y1296326D01*
X578413Y1327149D01*
X577421Y1327812D01*
X576250Y1328045D01*
X576250Y1328045D01*
X574280D01*
X573785Y1328785D01*
X573059Y1329270D01*
Y1333296D01*
X577080D01*
Y1347456D01*
X562920D01*
Y1333296D01*
X566941D01*
Y1329270D01*
X566215Y1328785D01*
X565055Y1327048D01*
X564647Y1325000D01*
X564757Y1324447D01*
X564584Y1324014D01*
X563095Y1322559D01*
X551270D01*
X550785Y1323285D01*
X549048Y1324445D01*
X547000Y1324853D01*
X544952Y1324445D01*
X543215Y1323285D01*
X542055Y1321548D01*
X541647Y1319500D01*
X542055Y1317452D01*
X543215Y1315715D01*
X544952Y1314555D01*
X547000Y1314147D01*
X549048Y1314555D01*
X550785Y1315715D01*
X551270Y1316441D01*
X562733D01*
X569115Y1310059D01*
X568287Y1308059D01*
X514258D01*
X514257Y1308059D01*
X513087Y1307826D01*
X512094Y1307163D01*
X500337Y1295405D01*
X499674Y1294413D01*
X499441Y1293243D01*
X499441Y1293242D01*
Y1290727D01*
X496355Y1287080D01*
X495420D01*
Y1283059D01*
X491172D01*
X491172Y1283059D01*
X490001Y1282826D01*
X489009Y1282163D01*
X489009Y1282163D01*
X487837Y1280991D01*
X487174Y1279999D01*
X486941Y1278829D01*
X486941Y1278828D01*
Y1253767D01*
X483424Y1250250D01*
X404028D01*
X403826Y1250489D01*
X403143Y1252250D01*
X403945Y1253452D01*
X404353Y1255500D01*
X404162Y1256460D01*
X442122Y1294420D01*
X451956D01*
Y1308580D01*
X437796D01*
Y1298746D01*
X435552Y1296502D01*
X433704Y1297267D01*
Y1308580D01*
X430193D01*
Y1322146D01*
X433478Y1325432D01*
X459500D01*
X460866Y1325703D01*
X462023Y1326477D01*
X474523Y1338977D01*
X475297Y1340134D01*
X475569Y1341500D01*
Y1349447D01*
X477781Y1350363D01*
X480235Y1352246D01*
X482118Y1354701D01*
X483302Y1357559D01*
X483706Y1360626D01*
X483302Y1363694D01*
X482118Y1366552D01*
X480235Y1369007D01*
X477781Y1370890D01*
X474922Y1372074D01*
X471855Y1372478D01*
X468788Y1372074D01*
X465929Y1370890D01*
X463475Y1369007D01*
X461591Y1366552D01*
X460407Y1363694D01*
X460004Y1360626D01*
X460407Y1357559D01*
X461591Y1354701D01*
X463475Y1352246D01*
X465929Y1350363D01*
X468431Y1349326D01*
Y1342978D01*
X458022Y1332569D01*
X432000D01*
X430634Y1332297D01*
X429477Y1331523D01*
X424101Y1326147D01*
X423327Y1324990D01*
X423055Y1323624D01*
Y1308580D01*
X419544D01*
Y1294420D01*
X430857D01*
X431622Y1292572D01*
X405791Y1266741D01*
X403475Y1267253D01*
X402785Y1268285D01*
X402767Y1268297D01*
Y1270703D01*
X402785Y1270715D01*
X403945Y1272452D01*
X404353Y1274500D01*
X403945Y1276548D01*
X402785Y1278285D01*
X402059Y1278770D01*
Y1281233D01*
X409539Y1288713D01*
X409539Y1288713D01*
X410202Y1289705D01*
X410435Y1290876D01*
Y1294420D01*
X414456D01*
Y1308580D01*
X400296D01*
Y1294420D01*
X404317D01*
Y1292143D01*
X396837Y1284663D01*
X396174Y1283671D01*
X395941Y1282500D01*
X395941Y1282500D01*
Y1278770D01*
X395215Y1278285D01*
X394055Y1276548D01*
X393647Y1274500D01*
X394055Y1272452D01*
X395215Y1270715D01*
X394810Y1268903D01*
X393539Y1267559D01*
X391328D01*
Y1271580D01*
X378934D01*
X378533Y1271950D01*
X377570Y1273580D01*
X377853Y1275000D01*
X377445Y1277048D01*
X376285Y1278785D01*
X375559Y1279270D01*
Y1294420D01*
X376956D01*
Y1308580D01*
X362796D01*
Y1294420D01*
X369441D01*
Y1279270D01*
X368715Y1278785D01*
X367555Y1277048D01*
X367147Y1275000D01*
X367529Y1273080D01*
X367526Y1272905D01*
X367000Y1272053D01*
Y1264500D01*
X365000D01*
Y1262500D01*
X358420D01*
Y1257920D01*
X356673Y1257309D01*
X354517D01*
X334811Y1277015D01*
Y1294420D01*
X338832D01*
Y1308580D01*
X324672D01*
Y1294420D01*
X328693D01*
Y1275748D01*
X328693Y1275748D01*
X328926Y1274578D01*
X329589Y1273585D01*
X350924Y1252250D01*
X350845Y1251565D01*
X350237Y1250250D01*
X161977D01*
X161285Y1251285D01*
X160689Y1251684D01*
Y1254461D01*
X165000D01*
X165780Y1254616D01*
X166442Y1255058D01*
X166884Y1255720D01*
X167039Y1256500D01*
Y1264000D01*
X167025Y1264072D01*
X167034Y1264145D01*
X166948Y1264460D01*
X166884Y1264780D01*
X166843Y1264841D01*
X166824Y1264912D01*
X166623Y1265170D01*
X166581Y1265234D01*
X166702Y1265448D01*
X166884Y1265720D01*
X166898Y1265791D01*
X166935Y1265855D01*
X166975Y1266179D01*
X167039Y1266500D01*
Y1277500D01*
X166884Y1278280D01*
X166442Y1278942D01*
X165780Y1279384D01*
X165000Y1279539D01*
X163351D01*
X162336Y1281539D01*
X162945Y1282452D01*
X163353Y1284500D01*
X162945Y1286548D01*
X161785Y1288285D01*
X160048Y1289445D01*
X158000Y1289853D01*
X155952Y1289445D01*
X154215Y1288285D01*
X153055Y1286548D01*
X152647Y1284500D01*
X153055Y1282452D01*
X153664Y1281539D01*
X152649Y1279539D01*
X150000D01*
X149220Y1279384D01*
X148558Y1278942D01*
X148116Y1278280D01*
X147961Y1277500D01*
Y1266500D01*
X148025Y1266179D01*
X148065Y1265855D01*
X148102Y1265791D01*
X148116Y1265720D01*
X148298Y1265448D01*
X148419Y1265234D01*
X148377Y1265170D01*
X148176Y1264912D01*
X148157Y1264841D01*
X148116Y1264780D01*
X148052Y1264460D01*
X147966Y1264145D01*
X147975Y1264072D01*
X147961Y1264000D01*
Y1256500D01*
X148116Y1255720D01*
X148558Y1255058D01*
X149220Y1254616D01*
X150000Y1254461D01*
X154061D01*
Y1251516D01*
X153715Y1251285D01*
X152555Y1249548D01*
X152147Y1247500D01*
X152234Y1247064D01*
X96327Y1219518D01*
X95456Y1219089D01*
X95250Y1218750D01*
Y1198000D01*
X47250D01*
X42000Y1192750D01*
Y1186000D01*
X41500D01*
Y1174000D01*
X42000D01*
Y1163500D01*
X41500D01*
Y1151500D01*
X42000D01*
Y1143500D01*
X41500D01*
Y1131500D01*
X42000D01*
Y1125000D01*
X17975D01*
X17785Y1125285D01*
X16048Y1126445D01*
X14000Y1126853D01*
X11952Y1126445D01*
X10215Y1125285D01*
X10024Y1125000D01*
X4078D01*
Y1398422D01*
X858422D01*
X858422Y6578D01*
D02*
G37*
G36*
X165000Y1266500D02*
X157500Y1269000D01*
X150000Y1266500D01*
Y1277500D01*
X165000D01*
Y1266500D01*
D02*
G37*
G36*
Y1264000D02*
Y1256500D01*
X150000D01*
Y1264000D01*
X157500Y1266500D01*
X165000Y1264000D01*
D02*
G37*
G36*
X769000Y1119981D02*
X732286D01*
Y1122148D01*
X729827Y1129524D01*
X732286Y1136900D01*
Y1140000D01*
X769000D01*
Y1119981D01*
D02*
G37*
G36*
X565400Y1112500D02*
Y1109500D01*
X568400D01*
X568900Y1109000D01*
Y1107500D01*
X568400Y1107000D01*
X562900D01*
X562400Y1107500D01*
X562400Y1112500D01*
X562900Y1113000D01*
X564900D01*
X565400Y1112500D01*
D02*
G37*
G36*
X551400D02*
X551400Y1107500D01*
X550900Y1107000D01*
X545400Y1107000D01*
X544900Y1107500D01*
Y1109000D01*
X545400Y1109500D01*
X548400Y1109500D01*
Y1112500D01*
X548900Y1113000D01*
X550900D01*
X551400Y1112500D01*
D02*
G37*
G36*
X645000Y1150000D02*
X655000Y1140000D01*
X727217D01*
Y1137024D01*
X729827D01*
X727327Y1129524D01*
X729827Y1122024D01*
X727217D01*
Y1119706D01*
X657610D01*
X640000Y1102096D01*
X590900D01*
Y1102039D01*
X568720D01*
X568524Y1102000D01*
X567900D01*
Y1104961D01*
X568400D01*
X568400Y1104961D01*
X569181Y1105116D01*
X569711Y1105470D01*
X569842Y1105558D01*
Y1105558D01*
X569842D01*
X570342Y1106058D01*
X570342Y1106058D01*
X570784Y1106720D01*
Y1106720D01*
X570784Y1106720D01*
X570878Y1107190D01*
X570939Y1107500D01*
Y1108039D01*
X572400Y1109500D01*
Y1135096D01*
X543900D01*
X541400Y1132596D01*
Y1109500D01*
X542861Y1108039D01*
Y1107500D01*
X542861Y1107500D01*
X543016Y1106720D01*
X543016Y1106720D01*
Y1106720D01*
X543458Y1106058D01*
X543458Y1106058D01*
X543958Y1105558D01*
X543958Y1105558D01*
X544487Y1105205D01*
X544620Y1105116D01*
X544620D01*
X544620Y1105116D01*
X545090Y1105023D01*
X545400Y1104961D01*
X545400D01*
X545400D01*
X545900D01*
Y1102000D01*
X545571D01*
X545374Y1102039D01*
X522900D01*
X493539Y1102039D01*
Y1150000D01*
X645000Y1150000D01*
D02*
G37*
G36*
X546262Y1098000D02*
X545401Y1097040D01*
X545400Y1097039D01*
X544620Y1096884D01*
X543958Y1096442D01*
X543458Y1095942D01*
X543458Y1095942D01*
X543016Y1095280D01*
X542861Y1094500D01*
Y1093961D01*
X541400Y1092500D01*
X538980D01*
Y1092704D01*
X524820D01*
Y1092500D01*
X522900D01*
Y1059500D01*
X524820D01*
Y1059296D01*
X538980D01*
Y1059500D01*
X541400D01*
X542861Y1058039D01*
Y1057500D01*
X542861Y1057500D01*
X543016Y1056720D01*
X543458Y1056058D01*
X543458Y1056058D01*
X543958Y1055558D01*
X543958Y1055558D01*
X544620Y1055116D01*
X545400Y1054961D01*
X546261Y1054000D01*
X545374Y1052000D01*
X493313D01*
X493313Y1100000D01*
X522900Y1100000D01*
X545374D01*
X546262Y1098000D01*
D02*
G37*
G36*
X568900Y1094500D02*
Y1093000D01*
X568400Y1092500D01*
X565400Y1092500D01*
Y1089500D01*
X564900Y1089000D01*
X562900D01*
X562400Y1089500D01*
X562400Y1094500D01*
X562900Y1095000D01*
X568400D01*
X568900Y1094500D01*
D02*
G37*
G36*
X551400D02*
X551400Y1089500D01*
X550900Y1089000D01*
X548900D01*
X548400Y1089500D01*
Y1092500D01*
X545400Y1092500D01*
X544900Y1093000D01*
Y1094500D01*
X545400Y1095000D01*
X550900D01*
X551400Y1094500D01*
D02*
G37*
G36*
X650000Y1090000D02*
X805000D01*
Y1052000D01*
X591185D01*
Y1052035D01*
X577025D01*
Y1052000D01*
X568720D01*
X567747Y1054000D01*
X568258Y1054752D01*
X568527Y1054986D01*
X569181Y1055116D01*
X569842Y1055558D01*
X570342Y1056058D01*
X570342Y1056058D01*
X570784Y1056720D01*
X570939Y1057500D01*
Y1058039D01*
X572400Y1059500D01*
X577320D01*
Y1059296D01*
X591480D01*
X591480Y1059296D01*
X593480Y1059363D01*
X595021Y1059056D01*
X597070Y1059464D01*
X598806Y1060624D01*
X599966Y1062361D01*
X600374Y1064409D01*
X599966Y1066458D01*
X598806Y1068194D01*
X597070Y1069355D01*
X595021Y1069762D01*
X593480Y1069456D01*
X591480Y1070580D01*
Y1073456D01*
X590900D01*
Y1078544D01*
X591480D01*
Y1092704D01*
X577320D01*
Y1092500D01*
X572400D01*
X570939Y1093961D01*
Y1094500D01*
X570939Y1094500D01*
X570784Y1095280D01*
X570342Y1095942D01*
X570342Y1095942D01*
X569842Y1096442D01*
X569842Y1096442D01*
X569181Y1096884D01*
X568527Y1097014D01*
X568258Y1097248D01*
X567747Y1098000D01*
X568720Y1100000D01*
X640000D01*
X650000Y1090000D01*
D02*
G37*
G36*
X565400Y1062500D02*
Y1059500D01*
X568400Y1059500D01*
X568900Y1059000D01*
Y1057500D01*
X568400Y1057000D01*
X562900D01*
X562400Y1057500D01*
X562400Y1062500D01*
X562900Y1063000D01*
X564900D01*
X565400Y1062500D01*
D02*
G37*
G36*
X551400D02*
X551400Y1057500D01*
X550900Y1057000D01*
X545400D01*
X544900Y1057500D01*
Y1059000D01*
X545400Y1059500D01*
X548400Y1059500D01*
Y1062500D01*
X548900Y1063000D01*
X550900D01*
X551400Y1062500D01*
D02*
G37*
G36*
X545900Y1047039D02*
X545400D01*
X545400Y1047039D01*
X544620Y1046884D01*
X544090Y1046530D01*
X543958Y1046442D01*
Y1046442D01*
X543958D01*
X543458Y1045942D01*
X543458Y1045942D01*
X543016Y1045280D01*
Y1045280D01*
X543016Y1045280D01*
X542923Y1044810D01*
X542861Y1044500D01*
Y1043961D01*
X541400Y1042500D01*
X541500D01*
Y1017500D01*
X549605D01*
X549900Y1017441D01*
X560340D01*
X560340Y1017441D01*
X560635Y1017500D01*
X572400D01*
Y1042500D01*
X570939Y1043961D01*
Y1044500D01*
X570939Y1044500D01*
X570784Y1045280D01*
X570784Y1045280D01*
Y1045280D01*
X570342Y1045942D01*
X570342Y1045942D01*
X569842Y1046442D01*
X569842Y1046442D01*
X569314Y1046795D01*
X569181Y1046884D01*
X569181D01*
X569181Y1046884D01*
X568711Y1046977D01*
X568400Y1047039D01*
X568400D01*
X568400D01*
X567900D01*
Y1050000D01*
X568523D01*
X568720Y1049961D01*
X577025D01*
X577202Y1049996D01*
X591008D01*
X591185Y1049961D01*
X605000D01*
Y931539D01*
X591330D01*
X591133Y931500D01*
X590898D01*
Y931471D01*
X577515D01*
X577170Y931539D01*
X568000D01*
X567898Y931519D01*
Y934461D01*
X568500D01*
X568500Y934461D01*
X569280Y934616D01*
X569810Y934970D01*
X569942Y935058D01*
Y935058D01*
X569942D01*
X570442Y935558D01*
X570442Y935558D01*
X570884Y936220D01*
Y936220D01*
X570884Y936220D01*
X570977Y936690D01*
X571039Y937000D01*
Y937611D01*
X572400Y938972D01*
Y967500D01*
X541500D01*
Y939000D01*
X542961Y937539D01*
Y937000D01*
X542961Y937000D01*
X543116Y936220D01*
X543116Y936220D01*
Y936220D01*
X543558Y935558D01*
X543558Y935558D01*
X544058Y935058D01*
X544058Y935058D01*
X544586Y934705D01*
X544720Y934616D01*
X544720D01*
X544720Y934616D01*
X545190Y934523D01*
X545500Y934461D01*
X545500D01*
X545500D01*
X546000D01*
Y931539D01*
X538320D01*
X538000Y931603D01*
X537680Y931539D01*
X523000D01*
X493248Y931539D01*
Y935356D01*
X493785Y935715D01*
X494945Y937452D01*
X495353Y939500D01*
X494945Y941548D01*
X493785Y943285D01*
X493248Y943644D01*
Y1049974D01*
X493313Y1049961D01*
X545374D01*
X545571Y1050000D01*
X545900D01*
Y1047039D01*
D02*
G37*
G36*
X568900Y1044500D02*
Y1043000D01*
X568400Y1042500D01*
X565400Y1042500D01*
Y1039500D01*
X564900Y1039000D01*
X562900D01*
X562400Y1039500D01*
X562400Y1044500D01*
X562900Y1045000D01*
X568400Y1045000D01*
X568900Y1044500D01*
D02*
G37*
G36*
X551400D02*
X551400Y1039500D01*
X550900Y1039000D01*
X548900D01*
X548400Y1039500D01*
Y1042500D01*
X545400D01*
X544900Y1043000D01*
Y1044500D01*
X545400Y1045000D01*
X550900D01*
X551400Y1044500D01*
D02*
G37*
G36*
X565500Y942000D02*
Y939000D01*
X568500D01*
X569000Y938500D01*
Y937000D01*
X568500Y936500D01*
X563000D01*
X562500Y937000D01*
X562500Y942000D01*
X563000Y942500D01*
X565000D01*
X565500Y942000D01*
D02*
G37*
G36*
X551500D02*
X551500Y937000D01*
X551000Y936500D01*
X545500Y936500D01*
X545000Y937000D01*
Y938500D01*
X545500Y939000D01*
X548500Y939000D01*
Y942000D01*
X549000Y942500D01*
X551000D01*
X551500Y942000D01*
D02*
G37*
G36*
X546000Y926539D02*
X545500D01*
X545500Y926539D01*
X544720Y926384D01*
X544190Y926030D01*
X544058Y925942D01*
Y925942D01*
X544058D01*
X543558Y925442D01*
X543558Y925442D01*
X543116Y924780D01*
Y924780D01*
X543116Y924780D01*
X543023Y924310D01*
X542961Y924000D01*
Y923461D01*
X541500Y922000D01*
X539080D01*
Y922204D01*
X524920D01*
Y922000D01*
X523000D01*
Y889000D01*
X524920D01*
Y888796D01*
X539080D01*
Y889000D01*
X541500D01*
X542961Y887539D01*
Y887000D01*
X542961Y887000D01*
X543116Y886220D01*
X543116Y886220D01*
Y886220D01*
X543558Y885558D01*
X543558Y885558D01*
X544058Y885058D01*
X544058Y885058D01*
X544586Y884705D01*
X544720Y884616D01*
X544720D01*
X544720Y884616D01*
X545190Y884523D01*
X545500Y884461D01*
X545500D01*
X545500D01*
X546000D01*
Y881500D01*
X543000D01*
Y881500D01*
X493059D01*
Y929500D01*
X523000Y929500D01*
X546000D01*
Y926539D01*
D02*
G37*
G36*
X569000Y924000D02*
Y922500D01*
X568500Y922000D01*
X565500Y922000D01*
Y919000D01*
X565000Y918500D01*
X563000D01*
X562500Y919000D01*
X562500Y924000D01*
X563000Y924500D01*
X568500D01*
X569000Y924000D01*
D02*
G37*
G36*
X551500D02*
X551500Y919000D01*
X551000Y918500D01*
X549000D01*
X548500Y919000D01*
Y922000D01*
X545500Y922000D01*
X545000Y922500D01*
Y924000D01*
X545500Y924500D01*
X551000D01*
X551500Y924000D01*
D02*
G37*
G36*
X577170Y929500D02*
Y929422D01*
X591330D01*
Y929500D01*
X805000D01*
Y900000D01*
X642239D01*
X623830Y881500D01*
X571000Y881500D01*
D01*
X568000D01*
Y884461D01*
X568500D01*
X568500Y884461D01*
X569280Y884616D01*
X569810Y884970D01*
X569942Y885058D01*
Y885058D01*
X569942D01*
X570442Y885558D01*
X570442Y885558D01*
X570884Y886220D01*
Y886220D01*
X570884Y886220D01*
X570977Y886690D01*
X571039Y887000D01*
Y887539D01*
X572500Y889000D01*
X577420D01*
Y888796D01*
X591580D01*
Y902956D01*
X591000D01*
Y908044D01*
X591580D01*
Y922204D01*
X577420D01*
Y922000D01*
X572500D01*
X571039Y923461D01*
Y924000D01*
X571039Y924000D01*
X570884Y924780D01*
X570884Y924780D01*
Y924780D01*
X570442Y925442D01*
X570442Y925442D01*
X569942Y925942D01*
X569942Y925942D01*
X569414Y926295D01*
X569280Y926384D01*
X569280D01*
X569280Y926384D01*
X568811Y926478D01*
X568500Y926539D01*
X568500D01*
X568500D01*
X568000D01*
Y929500D01*
X577170D01*
D02*
G37*
G36*
X565500Y892000D02*
Y889000D01*
X568500Y889000D01*
X569000Y888500D01*
Y887000D01*
X568500Y886500D01*
X563000D01*
X562500Y887000D01*
X562500Y892000D01*
X563000Y892500D01*
X565000D01*
X565500Y892000D01*
D02*
G37*
G36*
X551500D02*
X551500Y887000D01*
X551000Y886500D01*
X545500D01*
X545000Y887000D01*
Y888500D01*
X545500Y889000D01*
X548500Y889000D01*
Y892000D01*
X549000Y892500D01*
X551000D01*
X551500Y892000D01*
D02*
G37*
G36*
X625000Y863250D02*
X627500D01*
X625000Y855750D01*
X627500Y848250D01*
X625000D01*
Y827156D01*
X515000Y827156D01*
X493059Y846995D01*
Y879461D01*
X543000D01*
X543000Y879461D01*
X546000D01*
Y876539D01*
X545500D01*
X545500Y876539D01*
X544720Y876384D01*
X544190Y876030D01*
X544058Y875942D01*
Y875942D01*
X544058D01*
X543558Y875442D01*
X543558Y875442D01*
X543116Y874780D01*
Y874780D01*
X543116Y874780D01*
X543023Y874310D01*
X542961Y874000D01*
Y873461D01*
X541500Y872000D01*
Y848904D01*
X544000Y846404D01*
X572500D01*
Y872000D01*
X571039Y873461D01*
Y874000D01*
X571039Y874000D01*
X570884Y874780D01*
X570884Y874780D01*
Y874780D01*
X570442Y875442D01*
X570442Y875442D01*
X569942Y875942D01*
X569942Y875942D01*
X569414Y876295D01*
X569280Y876384D01*
X569280D01*
X569280Y876384D01*
X568811Y876478D01*
X568500Y876539D01*
X568500D01*
X568500D01*
X568000D01*
Y879461D01*
X571000D01*
X623830Y879461D01*
X623833Y879461D01*
X623835Y879461D01*
X624030Y879500D01*
X625000D01*
Y863250D01*
D02*
G37*
G36*
X569000Y874000D02*
Y872500D01*
X568500Y872000D01*
X565500Y872000D01*
Y869000D01*
X565000Y868500D01*
X563000D01*
X562500Y869000D01*
X562500Y874000D01*
X563000Y874500D01*
X568500Y874500D01*
X569000Y874000D01*
D02*
G37*
G36*
X551500D02*
X551500Y869000D01*
X551000Y868500D01*
X549000D01*
X548500Y869000D01*
Y872000D01*
X545500D01*
X545000Y872500D01*
Y874000D01*
X545500Y874500D01*
X551000D01*
X551500Y874000D01*
D02*
G37*
G36*
X672500Y842500D02*
X630000D01*
Y848250D01*
X627500Y855750D01*
X630000Y863250D01*
Y874620D01*
X672500D01*
Y842500D01*
D02*
G37*
G36*
X377000Y779000D02*
X372500D01*
X365000Y781500D01*
X357500Y779000D01*
X353000Y779000D01*
Y810000D01*
X377000D01*
Y779000D01*
D02*
G37*
G36*
X118000Y716500D02*
X65000D01*
Y769500D01*
X118000D01*
Y716500D01*
D02*
G37*
G36*
X511941Y762497D02*
Y669000D01*
X459786D01*
X457870Y674365D01*
X459022Y676000D01*
X475500D01*
Y691750D01*
X485000D01*
Y761500D01*
X443879D01*
X442853Y762750D01*
X442445Y764798D01*
X441285Y766535D01*
X439548Y767695D01*
X437500Y768103D01*
X435452Y767695D01*
X433715Y766535D01*
X432555Y764798D01*
X432147Y762750D01*
X431121Y761500D01*
X425099D01*
X424327Y761820D01*
X422500Y762060D01*
X420673Y761820D01*
X419901Y761500D01*
X415000D01*
Y696500D01*
X383000D01*
Y780000D01*
X494438D01*
X511941Y762497D01*
D02*
G37*
G36*
X443750Y674000D02*
X448250Y669500D01*
X454750D01*
Y667250D01*
X430250D01*
Y676500D01*
X443750D01*
Y674000D01*
D02*
G37*
G36*
X372500Y776500D02*
Y775000D01*
X377000D01*
Y654000D01*
X376000Y653000D01*
X353000D01*
Y775000D01*
X357500D01*
Y776500D01*
X365000Y779000D01*
X372500Y776500D01*
D02*
G37*
G36*
X444000Y650000D02*
X438000D01*
Y663125D01*
X444000D01*
Y650000D01*
D02*
G37*
G36*
X511941Y627500D02*
X450000D01*
Y664475D01*
X511941D01*
Y627500D01*
D02*
G37*
G36*
X454944Y516500D02*
X429944D01*
X394944Y481500D01*
Y473500D01*
X391985Y470456D01*
X388139Y466500D01*
X386800D01*
Y465123D01*
X385222Y463500D01*
X383750D01*
Y467825D01*
X384451Y468526D01*
X385250Y470456D01*
Y472544D01*
X384451Y474474D01*
X383750Y475175D01*
Y484825D01*
X384451Y485526D01*
X385250Y487456D01*
Y489544D01*
X384451Y491474D01*
X383750Y492175D01*
Y530500D01*
X408944D01*
X414944Y536500D01*
X454944D01*
Y516500D01*
D02*
G37*
G36*
X351000Y530500D02*
X376194D01*
Y492119D01*
X375549Y491474D01*
X374750Y489544D01*
Y487456D01*
X375549Y485526D01*
X376194Y484881D01*
Y475119D01*
X375549Y474474D01*
X374750Y472544D01*
Y470456D01*
X375549Y468526D01*
X376194Y467881D01*
Y463500D01*
X374722D01*
X373200Y465066D01*
Y466500D01*
X371806D01*
X365000Y473500D01*
Y481500D01*
X330000Y516500D01*
X305000D01*
Y536500D01*
X345000D01*
X351000Y530500D01*
D02*
G37*
G36*
X635002Y464090D02*
X635108Y462550D01*
X635137Y462490D01*
X635169Y462469D01*
X632831D01*
X632863Y462490D01*
X632892Y462550D01*
X632917Y462649D01*
X632939Y462789D01*
X632958Y462970D01*
X632993Y463750D01*
X633000Y464469D01*
X635000D01*
X635002Y464090D01*
D02*
G37*
G36*
X693925Y514379D02*
X668925D01*
X633926Y479379D01*
Y471379D01*
X627237Y464500D01*
X625800D01*
Y463022D01*
X625176Y462379D01*
X622731D01*
Y466571D01*
X623436Y467276D01*
X624235Y469206D01*
Y471294D01*
X623436Y473224D01*
X622731Y473929D01*
Y482822D01*
X623436Y483527D01*
X624235Y485456D01*
Y487545D01*
X623436Y489474D01*
X622731Y490179D01*
Y528379D01*
X647925D01*
X653925Y534379D01*
X693925D01*
Y514379D01*
D02*
G37*
G36*
X589981Y528379D02*
X615176D01*
Y490116D01*
X614534Y489474D01*
X613735Y487545D01*
Y485456D01*
X614534Y483527D01*
X615176Y482886D01*
Y473865D01*
X614534Y473224D01*
X613735Y471294D01*
Y469206D01*
X614534Y467276D01*
X615176Y466635D01*
Y462379D01*
X612731D01*
X612200Y462926D01*
Y464500D01*
X610669D01*
X603981Y471379D01*
Y479379D01*
X568981Y514379D01*
X543981D01*
Y534379D01*
X583981D01*
X589981Y528379D01*
D02*
G37*
G36*
X381635Y459000D02*
X378365D01*
Y485750D01*
X381635D01*
Y459000D01*
D02*
G37*
G36*
X620621Y457250D02*
X617350D01*
Y484000D01*
X620621D01*
Y457250D01*
D02*
G37*
G36*
X391800Y458335D02*
Y456500D01*
X394369D01*
X398250Y453728D01*
Y440978D01*
X394599Y438500D01*
X391800D01*
Y436601D01*
X390000Y435379D01*
Y459621D01*
X391800Y458335D01*
D02*
G37*
G36*
X370000Y435357D02*
X368200Y436643D01*
Y438500D01*
X365600D01*
X361750Y441250D01*
Y454000D01*
X365434Y456500D01*
X368200D01*
Y458377D01*
X370000Y459598D01*
Y435357D01*
D02*
G37*
G36*
X630800Y456201D02*
Y454500D01*
X633181D01*
X637231Y451607D01*
Y438857D01*
X633758Y436500D01*
X630800D01*
Y434493D01*
X628981Y433259D01*
Y457500D01*
X630800Y456201D01*
D02*
G37*
G36*
X608981Y433237D02*
X607200Y434509D01*
Y436500D01*
X604412D01*
X601078Y438881D01*
X601011Y439218D01*
X600731Y439638D01*
Y451879D01*
X604593Y454500D01*
X607200D01*
Y456269D01*
X608981Y457477D01*
Y433237D01*
D02*
G37*
G36*
X371765Y426327D02*
X364695Y419580D01*
X362920D01*
Y412046D01*
X362129Y407556D01*
X361652Y404500D01*
X361500D01*
Y403524D01*
X359173Y388608D01*
X311750Y330396D01*
Y258250D01*
X302495Y258500D01*
Y258493D01*
X294995Y260993D01*
X287495Y258493D01*
Y258500D01*
X275000D01*
Y365250D01*
X312250Y402500D01*
X327667D01*
X346666Y422857D01*
X351881Y424150D01*
X362152D01*
X362152Y424150D01*
X363322Y424383D01*
X364315Y425046D01*
X366363Y427094D01*
X366363Y427094D01*
X367026Y428087D01*
X367108Y428500D01*
X368200D01*
Y430408D01*
X368272Y430500D01*
X371728D01*
X371765Y426327D01*
D02*
G37*
G36*
X381650Y428899D02*
X381800D01*
Y428500D01*
X386211D01*
Y424750D01*
X386276Y424421D01*
X386321Y424089D01*
X386353Y424033D01*
X386366Y423970D01*
X386552Y423691D01*
X386721Y423401D01*
X386920Y423175D01*
X386971Y423136D01*
X387007Y423083D01*
X387946Y422143D01*
X388035Y422010D01*
X388204Y421720D01*
X391115Y418421D01*
X391166Y418382D01*
X391202Y418328D01*
X391481Y418142D01*
X391748Y417938D01*
X391810Y417922D01*
X391864Y417886D01*
X392193Y417821D01*
X392517Y417735D01*
X393631Y416341D01*
X393696Y416012D01*
X393741Y415680D01*
X393773Y415624D01*
X393785Y415564D01*
X395000Y406605D01*
Y300000D01*
X399404D01*
Y297370D01*
X415596D01*
Y300000D01*
X471904D01*
Y297370D01*
X488096D01*
Y300000D01*
X517500D01*
Y262500D01*
X511500D01*
X511500Y212500D01*
X415000D01*
Y190000D01*
X362500Y190000D01*
X352500Y180000D01*
Y160000D01*
X350000Y157500D01*
X334680D01*
Y160054D01*
X324687D01*
Y162053D01*
X322687D01*
Y168506D01*
X315000D01*
Y200000D01*
X305000Y210000D01*
X298697D01*
X298500Y210039D01*
X254000Y210039D01*
X252500D01*
Y303685D01*
X252826Y304173D01*
X253059Y305343D01*
X253059Y305343D01*
Y428899D01*
X338388D01*
X339073Y426898D01*
X338694Y426331D01*
X338660Y426159D01*
X333704Y421203D01*
X331704Y422032D01*
Y422080D01*
X317544D01*
Y407920D01*
X327427D01*
X328224Y406086D01*
X326781Y404539D01*
X312250D01*
X312250Y404539D01*
X311470Y404384D01*
X310808Y403942D01*
X273558Y366692D01*
X273116Y366030D01*
X272961Y365250D01*
Y258500D01*
X273116Y257720D01*
X273432Y257246D01*
X273116Y256773D01*
X272961Y255993D01*
Y220000D01*
X273116Y219220D01*
X273558Y218558D01*
X274220Y218116D01*
X275000Y217961D01*
X311750D01*
X312530Y218116D01*
X313192Y218558D01*
X313634Y219220D01*
X313789Y220000D01*
Y255993D01*
X313634Y256773D01*
X313401Y257121D01*
X313612Y257419D01*
X313618Y257446D01*
X313634Y257470D01*
X313706Y257833D01*
X313789Y258195D01*
X313784Y258223D01*
X313789Y258250D01*
Y329670D01*
X333746Y354167D01*
X335630Y353497D01*
Y350956D01*
X350370D01*
Y356552D01*
X338018D01*
X337160Y358358D01*
X360754Y387320D01*
X360819Y387443D01*
X360914Y387546D01*
X361004Y387792D01*
X361126Y388023D01*
X361139Y388162D01*
X361188Y388293D01*
X363515Y403209D01*
X363508Y403368D01*
X363539Y403524D01*
Y403734D01*
X363584Y403958D01*
X363667Y404186D01*
X364141Y407221D01*
X364928Y411692D01*
X364924Y411871D01*
X364959Y412046D01*
Y417593D01*
X365062Y417614D01*
X365431Y417678D01*
X365451Y417691D01*
X365475Y417696D01*
X365787Y417904D01*
X366103Y418105D01*
X373172Y424851D01*
X373192Y424879D01*
X373219Y424897D01*
X373420Y425203D01*
X373630Y425502D01*
X373637Y425535D01*
X373655Y425563D01*
X373723Y425922D01*
X373803Y426279D01*
X373798Y426312D01*
X373804Y426344D01*
X373797Y427080D01*
X375205Y428500D01*
X378200D01*
Y428899D01*
X378350D01*
Y435750D01*
X381650D01*
Y428899D01*
D02*
G37*
G36*
X610534Y424004D02*
X603802Y417580D01*
X602920D01*
Y415710D01*
X601981Y410379D01*
X601110Y405435D01*
X600652Y402500D01*
X600500D01*
Y401524D01*
X597981Y385379D01*
X557504Y325474D01*
X557161Y324966D01*
X556951Y325474D01*
X555474Y326951D01*
X553544Y327750D01*
X551456D01*
X549526Y326951D01*
X548049Y325474D01*
X547250Y323544D01*
Y321456D01*
X548049Y319526D01*
X549526Y318049D01*
X551456Y317250D01*
X553544D01*
X555474Y318049D01*
X556951Y319526D01*
X557000Y319645D01*
Y260993D01*
X542500D01*
Y258493D01*
X535000Y260993D01*
X527500Y258493D01*
Y260993D01*
X521000D01*
Y334904D01*
X535695D01*
Y342500D01*
Y350096D01*
X521000D01*
Y405435D01*
X570645D01*
X578617Y418573D01*
X596631D01*
X596632Y418573D01*
X597802Y418806D01*
X598795Y419469D01*
X601848Y422522D01*
X602613Y422674D01*
X603605Y423337D01*
X605363Y425094D01*
X605363Y425094D01*
X605924Y425934D01*
X606208Y426002D01*
X606465Y426500D01*
X607200D01*
Y427926D01*
X607798Y429086D01*
X610490D01*
X610534Y424004D01*
D02*
G37*
G36*
X391800Y430583D02*
Y428500D01*
X392892D01*
X392974Y428087D01*
X393637Y427094D01*
X396206Y424526D01*
X396206Y424526D01*
X397198Y423863D01*
X397717Y423760D01*
X398750Y422726D01*
Y421976D01*
X399549Y420046D01*
X401026Y418569D01*
X402956Y417770D01*
X405044D01*
X406974Y418569D01*
X408151Y419747D01*
X413000Y417750D01*
X443434Y378250D01*
X506225D01*
X506250Y327250D01*
X506039Y305649D01*
X488096D01*
Y309610D01*
X480000D01*
X471904D01*
Y305649D01*
X415596D01*
Y309610D01*
X407500D01*
X399404D01*
Y305649D01*
X397750D01*
Y401500D01*
X397500Y403344D01*
Y404500D01*
X397343D01*
X395750Y416250D01*
X395670Y416341D01*
Y419770D01*
X392644D01*
X389733Y423069D01*
X389612Y423362D01*
X388449Y424525D01*
X388250Y424750D01*
Y431000D01*
X391500D01*
X391800Y430583D01*
D02*
G37*
G36*
X630800Y428657D02*
Y426500D01*
X631892D01*
X631974Y426087D01*
X632637Y425094D01*
X634496Y423236D01*
X634496Y423236D01*
X635091Y422838D01*
X635488Y422573D01*
X636659Y422340D01*
X640340D01*
X642250Y421250D01*
X644313Y416314D01*
X646813Y416064D01*
X652063Y415564D01*
X664266Y399500D01*
X680000D01*
X705000Y375000D01*
X732500D01*
Y292314D01*
X637000D01*
Y297779D01*
X639822D01*
Y315019D01*
Y332259D01*
X637000D01*
Y404626D01*
X634832Y406794D01*
Y417580D01*
X633546D01*
X627599Y423527D01*
Y428814D01*
X630596D01*
X630800Y428657D01*
D02*
G37*
G36*
X542500Y255993D02*
Y255000D01*
X557000D01*
Y222974D01*
X513750D01*
Y255000D01*
X527500D01*
Y255993D01*
X535000Y258493D01*
X542500Y255993D01*
D02*
G37*
G36*
X302495D02*
X311750D01*
Y220000D01*
X275000D01*
Y255993D01*
X287495D01*
X294995Y258493D01*
X302495Y255993D01*
D02*
G37*
G36*
X227953Y214100D02*
Y190400D01*
X212459Y190400D01*
Y214100D01*
X227953Y214100D01*
D02*
G37*
G36*
X196041Y214100D02*
Y190400D01*
X180547Y190400D01*
Y214100D01*
X196041Y214100D01*
D02*
G37*
G36*
X670000Y176000D02*
X590000D01*
X578000Y188000D01*
X576657Y188657D01*
X563870D01*
X563785Y188785D01*
X562048Y189945D01*
X560000Y190353D01*
X557952Y189945D01*
X556215Y188785D01*
X554430Y188798D01*
X554333Y188828D01*
X554249Y188884D01*
X553955Y188942D01*
X553669Y189029D01*
X553568Y189020D01*
X553469Y189039D01*
X516500D01*
X515720Y188884D01*
X515381Y188657D01*
X514422D01*
Y168497D01*
X514342Y168420D01*
X513320Y168031D01*
X511539Y169397D01*
Y169500D01*
X511539Y169500D01*
X511500Y169697D01*
Y170000D01*
X511417Y170115D01*
X511384Y170280D01*
X510942Y170942D01*
X510488Y171395D01*
X508969Y173491D01*
X502343Y173499D01*
X500646Y174633D01*
X498597Y175041D01*
X496549Y174633D01*
X494866Y173509D01*
X492619Y173511D01*
X491464Y174283D01*
X489415Y174691D01*
X487367Y174283D01*
X486223Y173519D01*
X484500Y173521D01*
Y171432D01*
X484470Y171387D01*
X484062Y169338D01*
X484470Y167290D01*
X484500Y167244D01*
Y144177D01*
X492241Y144164D01*
X492558Y142573D01*
X493718Y140837D01*
X495455Y139676D01*
X497503Y139269D01*
X499552Y139676D01*
X501288Y140837D01*
X502449Y142573D01*
X502762Y144147D01*
X506683Y144141D01*
X506720Y144116D01*
X507500Y143961D01*
X507500Y143961D01*
X509000D01*
X509780Y144116D01*
X510442Y144558D01*
X510442Y144558D01*
X510942Y145058D01*
X511384Y145720D01*
X511462Y146112D01*
X511500Y146138D01*
Y146303D01*
X511539Y146500D01*
X511539Y146500D01*
Y152000D01*
X511500Y152197D01*
Y163803D01*
X511539Y164000D01*
Y165792D01*
X512942Y167136D01*
X512960D01*
X514422Y165775D01*
Y141127D01*
X514397Y141000D01*
X514422Y140873D01*
Y133127D01*
X514397Y133000D01*
X514422Y132873D01*
Y125127D01*
X514397Y125000D01*
X514422Y124873D01*
Y117127D01*
X514397Y117000D01*
X514422Y116873D01*
Y109138D01*
X496886D01*
X495785Y110785D01*
X494048Y111945D01*
X492000Y112353D01*
X489952Y111945D01*
X488215Y110785D01*
X487114Y109138D01*
X477886D01*
X476785Y110785D01*
X475048Y111945D01*
X473000Y112353D01*
X470952Y111945D01*
X469215Y110785D01*
X468114Y109138D01*
X419000D01*
X419000Y144000D01*
X419000D01*
Y165951D01*
X419120Y166045D01*
X420252Y166416D01*
X421634Y165382D01*
X421961Y165050D01*
Y164000D01*
X421993Y163839D01*
X421976Y152074D01*
X421961Y152000D01*
Y146500D01*
X421961Y146500D01*
X421967Y146468D01*
X421967Y146046D01*
X422070Y145949D01*
X422116Y145720D01*
X422558Y145058D01*
X423058Y144558D01*
X423058Y144558D01*
X423720Y144116D01*
X424500Y143961D01*
X426000D01*
X426000Y143961D01*
X426780Y144116D01*
X426813Y144138D01*
X443500D01*
X448000Y148638D01*
Y150043D01*
X448685Y151067D01*
X449092Y153116D01*
X448685Y155164D01*
X448000Y156189D01*
Y165962D01*
X448777Y166481D01*
X449937Y168218D01*
X450344Y170266D01*
X449937Y172314D01*
X448777Y174051D01*
X447040Y175211D01*
X444991Y175619D01*
X442943Y175211D01*
X441333Y174136D01*
X438006Y174095D01*
X436459Y175128D01*
X434411Y175536D01*
X432362Y175128D01*
X430680Y174004D01*
X425806Y173944D01*
X423820Y171904D01*
X423720Y171884D01*
X423058Y171442D01*
X423058Y171442D01*
X422558Y170942D01*
X422116Y170280D01*
X422084Y170121D01*
X421967Y170000D01*
X421967Y169533D01*
X421961Y169500D01*
X421961Y169500D01*
Y168481D01*
X420558Y167138D01*
X420541D01*
X419000Y168324D01*
Y210138D01*
X670000D01*
Y176000D01*
D02*
G37*
G36*
X416961Y169055D02*
X416502Y168506D01*
X415220Y167697D01*
X414039Y168270D01*
Y169500D01*
X414039Y169500D01*
X414000Y169697D01*
Y170000D01*
X413925Y170075D01*
X413884Y170280D01*
X413442Y170942D01*
X412942Y171442D01*
X412942Y171442D01*
X412280Y171884D01*
X412075Y171925D01*
X412000Y172000D01*
X411697D01*
X411500Y172039D01*
X410000D01*
X410000Y172039D01*
X409803Y172000D01*
X404845D01*
X404359Y172325D01*
X403188Y172558D01*
X403188Y172558D01*
X398011D01*
X396840Y172325D01*
X396354Y172000D01*
X395000D01*
X392000Y169000D01*
Y167721D01*
X391524Y167008D01*
X391394Y166356D01*
X391117Y165942D01*
X390884Y164771D01*
X390884Y164771D01*
Y151196D01*
X390884Y151196D01*
X391117Y150026D01*
X391780Y149033D01*
X392000Y148813D01*
Y147000D01*
X393808Y145192D01*
X394055Y143952D01*
X395215Y142215D01*
X396952Y141055D01*
X399000Y140647D01*
X401048Y141055D01*
X402463Y142000D01*
X410000D01*
X412075Y144075D01*
X412280Y144116D01*
X412942Y144558D01*
X412942Y144558D01*
X413442Y145058D01*
X413884Y145720D01*
X413925Y145925D01*
X414000Y146000D01*
Y146303D01*
X414039Y146500D01*
X414039Y146500D01*
Y149000D01*
X416961D01*
Y144000D01*
X416961Y144000D01*
X416961Y111000D01*
X415018Y109000D01*
X317250D01*
Y127250D01*
X314750D01*
X317250Y134750D01*
X314750Y142250D01*
X317250D01*
Y155000D01*
X351000D01*
X355000Y159000D01*
Y176000D01*
X366000Y187000D01*
X416961D01*
Y169055D01*
D02*
G37*
G36*
X176021Y197000D02*
X168000D01*
Y196600D01*
X167000D01*
Y188400D01*
X168000D01*
Y156000D01*
Y154697D01*
X152275Y154697D01*
X152275Y205275D01*
X161284Y214284D01*
X176021D01*
Y197000D01*
D02*
G37*
G36*
X137229Y145000D02*
X144000D01*
Y123745D01*
X124310D01*
Y126621D01*
X119000D01*
Y128621D01*
X117000D01*
Y134931D01*
X115000D01*
Y163000D01*
X121153Y169153D01*
X137229D01*
Y145000D01*
D02*
G37*
G36*
X195000Y92953D02*
X192024Y89976D01*
X190173Y88126D01*
Y86666D01*
X190038Y85986D01*
X190173D01*
Y74556D01*
X184077D01*
Y85986D01*
X184149D01*
Y87986D01*
X184077D01*
Y100923D01*
X183355Y101645D01*
Y103143D01*
X182556Y105072D01*
X181079Y106549D01*
X179149Y107348D01*
X177061D01*
X175131Y106549D01*
X174140Y105559D01*
X155694D01*
X154523Y105326D01*
X154035Y105000D01*
X147500D01*
X142173Y99673D01*
Y87986D01*
X142101D01*
Y85986D01*
X142173D01*
Y74556D01*
X136077D01*
Y85986D01*
X136212D01*
X136077Y86666D01*
Y88126D01*
X130000Y94203D01*
Y117578D01*
X157293D01*
Y116534D01*
X158093Y114604D01*
X159570Y113127D01*
X161499Y112328D01*
X163588D01*
X165517Y113127D01*
X166994Y114604D01*
X167793Y116534D01*
Y117578D01*
X195000D01*
Y92953D01*
D02*
G37*
G36*
X298500Y208000D02*
X312000Y197200D01*
Y167363D01*
X309066D01*
Y162053D01*
Y156743D01*
X312000D01*
Y142250D01*
X312250D01*
X314750Y134750D01*
X312250Y127250D01*
X312000D01*
Y109000D01*
X292000D01*
Y175000D01*
X279000Y188000D01*
X232000D01*
Y207900D01*
X241500D01*
Y208000D01*
X254000D01*
X298500Y208000D01*
D02*
G37*
G36*
X554737Y185454D02*
X554647Y185000D01*
X555055Y182952D01*
X556215Y181215D01*
X557952Y180055D01*
X560000Y179647D01*
X562048Y180055D01*
X563785Y181215D01*
X564945Y182952D01*
X565353Y185000D01*
X566890Y186344D01*
X568279Y186398D01*
X578500Y176177D01*
Y159177D01*
X582500Y155177D01*
X595000D01*
Y89000D01*
X516500D01*
Y167177D01*
X516500D01*
Y187000D01*
X553469D01*
X554737Y185454D01*
D02*
G37*
%LPC*%
G36*
X570161Y1379867D02*
X568112Y1379460D01*
X566376Y1378299D01*
X565215Y1376562D01*
X564808Y1374514D01*
X565215Y1372466D01*
X566376Y1370729D01*
X566592Y1370584D01*
Y1366704D01*
X562920D01*
Y1352544D01*
X577080D01*
Y1366704D01*
X573730D01*
Y1370584D01*
X573946Y1370729D01*
X575106Y1372466D01*
X575514Y1374514D01*
X575106Y1376562D01*
X573946Y1378299D01*
X572209Y1379460D01*
X570161Y1379867D01*
D02*
G37*
G36*
X605000Y1379853D02*
X602952Y1379445D01*
X601215Y1378285D01*
X600055Y1376548D01*
X599647Y1374500D01*
X600037Y1372539D01*
X600046Y1372436D01*
X598927Y1370539D01*
X597500D01*
X596720Y1370384D01*
X596058Y1369942D01*
X595616Y1369280D01*
X595461Y1368500D01*
Y1361000D01*
X595475Y1360928D01*
X595466Y1360856D01*
X595552Y1360540D01*
X595616Y1360220D01*
X595657Y1360159D01*
X595676Y1360088D01*
X595877Y1359830D01*
X595919Y1359766D01*
X595798Y1359552D01*
X595616Y1359280D01*
X595602Y1359209D01*
X595565Y1359145D01*
X595525Y1358821D01*
X595461Y1358500D01*
Y1347500D01*
X595616Y1346720D01*
X596058Y1346058D01*
X596720Y1345616D01*
X597500Y1345461D01*
X601681D01*
Y1341757D01*
X601953Y1340392D01*
X602727Y1339234D01*
X604984Y1336977D01*
X606142Y1336203D01*
X607507Y1335931D01*
X621070D01*
X621215Y1335715D01*
X622952Y1334555D01*
X625000Y1334147D01*
X627048Y1334555D01*
X628785Y1335715D01*
X628930Y1335931D01*
X640000D01*
X641366Y1336203D01*
X642523Y1336977D01*
X647523Y1341977D01*
X648297Y1343134D01*
X648569Y1344500D01*
Y1345711D01*
X652250D01*
X653030Y1345866D01*
X653692Y1346308D01*
X654134Y1346970D01*
X654289Y1347750D01*
Y1358750D01*
X654225Y1359071D01*
X654184Y1359395D01*
X654148Y1359458D01*
X654134Y1359530D01*
X654000Y1359731D01*
Y1370000D01*
X635361D01*
X635157Y1358750D01*
X635211D01*
Y1347750D01*
X635366Y1346970D01*
X635808Y1346308D01*
X636470Y1345866D01*
X637008Y1345759D01*
X637485Y1345065D01*
X637976Y1343711D01*
X637498Y1343069D01*
X628930D01*
X628785Y1343285D01*
X627048Y1344445D01*
X625000Y1344853D01*
X622952Y1344445D01*
X621215Y1343285D01*
X621070Y1343069D01*
X608986D01*
X608819Y1343236D01*
Y1345461D01*
X612500D01*
X613280Y1345616D01*
X613942Y1346058D01*
X614384Y1346720D01*
X614539Y1347500D01*
Y1358500D01*
X614475Y1358821D01*
X614435Y1359145D01*
X614398Y1359209D01*
X614384Y1359280D01*
X614202Y1359552D01*
X614081Y1359766D01*
X614123Y1359830D01*
X614324Y1360088D01*
X614343Y1360159D01*
X614384Y1360220D01*
X614448Y1360540D01*
X614534Y1360856D01*
X614525Y1360928D01*
X614539Y1361000D01*
Y1368500D01*
X614384Y1369280D01*
X613942Y1369942D01*
X613280Y1370384D01*
X612500Y1370539D01*
X611073D01*
X609955Y1372436D01*
X609963Y1372539D01*
X610353Y1374500D01*
X609945Y1376548D01*
X608785Y1378285D01*
X607048Y1379445D01*
X605000Y1379853D01*
D02*
G37*
G36*
X656828Y1326080D02*
X652248D01*
Y1321500D01*
X656828D01*
Y1326080D01*
D02*
G37*
G36*
X648248D02*
X643668D01*
Y1321500D01*
X648248D01*
Y1326080D01*
D02*
G37*
G36*
X656828Y1317500D02*
X652248D01*
Y1312920D01*
X656828D01*
Y1317500D01*
D02*
G37*
G36*
X648248D02*
X643668D01*
Y1312920D01*
X648248D01*
Y1317500D01*
D02*
G37*
G36*
X421855Y1372478D02*
X418788Y1372074D01*
X415929Y1370890D01*
X413475Y1369007D01*
X411591Y1366552D01*
X410407Y1363694D01*
X410004Y1360626D01*
X410407Y1357559D01*
X411591Y1354701D01*
X413475Y1352246D01*
X415929Y1350363D01*
X418431Y1349326D01*
Y1342978D01*
X386601Y1311147D01*
X385827Y1309990D01*
X385555Y1308624D01*
Y1308580D01*
X382044D01*
Y1294420D01*
X396204D01*
Y1308580D01*
X396204D01*
X395596Y1310049D01*
X424523Y1338977D01*
X425297Y1340134D01*
X425569Y1341500D01*
Y1349447D01*
X427781Y1350363D01*
X430235Y1352246D01*
X432118Y1354701D01*
X433302Y1357559D01*
X433706Y1360626D01*
X433302Y1363694D01*
X432118Y1366552D01*
X430235Y1369007D01*
X427781Y1370890D01*
X424922Y1372074D01*
X421855Y1372478D01*
D02*
G37*
G36*
X521855D02*
X518788Y1372074D01*
X515929Y1370890D01*
X513475Y1369007D01*
X511591Y1366552D01*
X510407Y1363694D01*
X510004Y1360626D01*
X510407Y1357559D01*
X511591Y1354701D01*
X513475Y1352246D01*
X515929Y1350363D01*
X518431Y1349326D01*
Y1340478D01*
X503022Y1325069D01*
X467000D01*
X465634Y1324797D01*
X464477Y1324023D01*
X461601Y1321147D01*
X460827Y1319990D01*
X460555Y1318624D01*
Y1308580D01*
X457044D01*
Y1294420D01*
X471204D01*
Y1308580D01*
X467693D01*
Y1317146D01*
X468478Y1317932D01*
X504500D01*
X505866Y1318203D01*
X507023Y1318977D01*
X524523Y1336477D01*
X525297Y1337634D01*
X525569Y1339000D01*
Y1349447D01*
X527781Y1350363D01*
X530235Y1352246D01*
X532118Y1354701D01*
X533302Y1357559D01*
X533706Y1360626D01*
X533302Y1363694D01*
X532118Y1366552D01*
X530235Y1369007D01*
X527781Y1370890D01*
X524922Y1372074D01*
X521855Y1372478D01*
D02*
G37*
G36*
X371855D02*
X368788Y1372074D01*
X365929Y1370890D01*
X363475Y1369007D01*
X361591Y1366552D01*
X360407Y1363694D01*
X360004Y1360626D01*
X360407Y1357559D01*
X361591Y1354701D01*
X363475Y1352246D01*
X365929Y1350363D01*
X368431Y1349326D01*
Y1337978D01*
X348477Y1318023D01*
X347703Y1316866D01*
X347431Y1315500D01*
Y1308580D01*
X343920D01*
Y1294420D01*
X358080D01*
Y1308580D01*
X354568D01*
Y1314022D01*
X374523Y1333977D01*
X375297Y1335134D01*
X375569Y1336500D01*
Y1349447D01*
X377781Y1350363D01*
X380235Y1352246D01*
X382118Y1354701D01*
X383302Y1357559D01*
X383706Y1360626D01*
X383302Y1363694D01*
X382118Y1366552D01*
X380235Y1369007D01*
X377781Y1370890D01*
X374922Y1372074D01*
X371855Y1372478D01*
D02*
G37*
G36*
X321855D02*
X318788Y1372074D01*
X315929Y1370890D01*
X313475Y1369007D01*
X311591Y1366552D01*
X310407Y1363694D01*
X310004Y1360626D01*
X310407Y1357559D01*
X311591Y1354701D01*
X313475Y1352246D01*
X315929Y1350363D01*
X316431Y1350155D01*
Y1323478D01*
X311225Y1318271D01*
X310451Y1317114D01*
X310180Y1315748D01*
Y1308580D01*
X306668D01*
Y1294420D01*
X320828D01*
Y1308580D01*
X317317D01*
Y1314270D01*
X322523Y1319477D01*
X323297Y1320634D01*
X323569Y1322000D01*
Y1349001D01*
X324922Y1349179D01*
X327781Y1350363D01*
X330235Y1352246D01*
X332118Y1354701D01*
X333302Y1357559D01*
X333706Y1360626D01*
X333302Y1363694D01*
X332118Y1366552D01*
X330235Y1369007D01*
X327781Y1370890D01*
X324922Y1372074D01*
X321855Y1372478D01*
D02*
G37*
G36*
X271855D02*
X268788Y1372074D01*
X265929Y1370890D01*
X263475Y1369007D01*
X261591Y1366552D01*
X260407Y1363694D01*
X260004Y1360626D01*
X260407Y1357559D01*
X261591Y1354701D01*
X263475Y1352246D01*
X265929Y1350363D01*
X268431Y1349326D01*
Y1329000D01*
X268703Y1327634D01*
X269477Y1326477D01*
X272680Y1323274D01*
Y1308580D01*
X269168D01*
Y1294420D01*
X283328D01*
Y1308580D01*
X279817D01*
Y1324752D01*
X279545Y1326118D01*
X278771Y1327275D01*
X275569Y1330478D01*
Y1349447D01*
X277781Y1350363D01*
X280235Y1352246D01*
X282118Y1354701D01*
X283302Y1357559D01*
X283706Y1360626D01*
X283302Y1363694D01*
X282118Y1366552D01*
X280235Y1369007D01*
X277781Y1370890D01*
X274922Y1372074D01*
X271855Y1372478D01*
D02*
G37*
G36*
X221855D02*
X218788Y1372074D01*
X215929Y1370890D01*
X213475Y1369007D01*
X211591Y1366552D01*
X210407Y1363694D01*
X210004Y1360626D01*
X210407Y1357559D01*
X211591Y1354701D01*
X213475Y1352246D01*
X215929Y1350363D01*
X218431Y1349326D01*
Y1327978D01*
X216977Y1326523D01*
X216203Y1325366D01*
X215931Y1324000D01*
Y1308580D01*
X212420D01*
Y1294420D01*
X226580D01*
Y1308580D01*
X223069D01*
Y1322522D01*
X224523Y1323977D01*
X225297Y1325134D01*
X225569Y1326500D01*
Y1349447D01*
X227781Y1350363D01*
X230235Y1352246D01*
X232118Y1354701D01*
X233302Y1357559D01*
X233706Y1360626D01*
X233302Y1363694D01*
X232118Y1366552D01*
X230235Y1369007D01*
X227781Y1370890D01*
X224922Y1372074D01*
X221855Y1372478D01*
D02*
G37*
G36*
X171855D02*
X168788Y1372074D01*
X165929Y1370890D01*
X163475Y1369007D01*
X161591Y1366552D01*
X160407Y1363694D01*
X160004Y1360626D01*
X160407Y1357559D01*
X161591Y1354701D01*
X163475Y1352246D01*
X165929Y1350363D01*
X168431Y1349326D01*
Y1339000D01*
X168703Y1337634D01*
X169477Y1336477D01*
X177807Y1328146D01*
Y1308580D01*
X174296D01*
Y1294420D01*
X188456D01*
Y1308580D01*
X184944D01*
Y1329624D01*
X184673Y1330990D01*
X183899Y1332148D01*
X175569Y1340478D01*
Y1349447D01*
X177781Y1350363D01*
X180235Y1352246D01*
X182118Y1354701D01*
X183302Y1357559D01*
X183706Y1360626D01*
X183302Y1363694D01*
X182118Y1366552D01*
X180235Y1369007D01*
X177781Y1370890D01*
X174922Y1372074D01*
X171855Y1372478D01*
D02*
G37*
G36*
X207704Y1308580D02*
X193544D01*
Y1294420D01*
X197666D01*
X197865Y1293421D01*
X198528Y1292429D01*
X203694Y1287262D01*
X204055Y1285452D01*
X205215Y1283715D01*
X206952Y1282555D01*
X209000Y1282147D01*
X211048Y1282555D01*
X212785Y1283715D01*
X213945Y1285452D01*
X215908Y1285538D01*
Y1285538D01*
X215908Y1285538D01*
D01*
X216000Y1285529D01*
X216000Y1285500D01*
Y1283500D01*
X220000D01*
Y1287500D01*
X216232D01*
X216232Y1287500D01*
Y1287500D01*
X216232D01*
D01*
X216000D01*
X214238Y1288076D01*
X213945Y1289548D01*
X212785Y1291285D01*
X211048Y1292445D01*
X209000Y1292853D01*
X208517Y1292757D01*
X207704Y1294634D01*
Y1308580D01*
D02*
G37*
G36*
X264080D02*
X249920D01*
Y1294420D01*
X253941D01*
Y1291770D01*
X253215Y1291285D01*
X252055Y1289548D01*
X251647Y1287500D01*
X252055Y1285452D01*
X253215Y1283715D01*
X254951Y1282555D01*
X257000Y1282147D01*
X259048Y1282555D01*
X260785Y1283715D01*
X261945Y1285452D01*
X262353Y1287500D01*
X261945Y1289548D01*
X260785Y1291285D01*
X260059Y1291770D01*
Y1294420D01*
X264080D01*
Y1308580D01*
D02*
G37*
G36*
X245828D02*
X231668D01*
Y1294420D01*
X231668Y1294420D01*
X231070Y1292668D01*
X229952Y1292445D01*
X228215Y1291285D01*
X227055Y1289548D01*
X226647Y1287500D01*
X227055Y1285452D01*
X228215Y1283715D01*
X229952Y1282555D01*
X232000Y1282147D01*
X234048Y1282555D01*
X235785Y1283715D01*
X236945Y1285452D01*
X237353Y1287500D01*
X237182Y1288357D01*
X240911Y1292085D01*
X240911Y1292085D01*
X241574Y1293078D01*
X241807Y1294248D01*
Y1294420D01*
X245828D01*
Y1308580D01*
D02*
G37*
G36*
X301580D02*
X287420D01*
Y1294420D01*
X291441D01*
Y1274049D01*
X287872Y1270480D01*
X286000Y1270853D01*
X283951Y1270445D01*
X282215Y1269285D01*
X280210Y1269884D01*
X279424Y1270409D01*
X277376Y1270817D01*
X275327Y1270409D01*
X274080Y1269576D01*
X272421Y1270188D01*
X272080Y1270462D01*
Y1272080D01*
X257920D01*
Y1257920D01*
X272080D01*
Y1260466D01*
X272421Y1260740D01*
X274080Y1261352D01*
X275327Y1260519D01*
X277376Y1260111D01*
X279424Y1260519D01*
X281161Y1261679D01*
X283166Y1261080D01*
X283951Y1260555D01*
X286000Y1260147D01*
X288048Y1260555D01*
X289785Y1261715D01*
X290945Y1263452D01*
X291306Y1265262D01*
X296663Y1270619D01*
X297326Y1271612D01*
X297559Y1272782D01*
Y1294420D01*
X301580D01*
Y1308580D01*
D02*
G37*
G36*
X725000Y1304372D02*
X722561Y1303887D01*
X720494Y1302506D01*
X720091Y1301903D01*
X709500D01*
X709106Y1301825D01*
X700250D01*
Y1293825D01*
X709106D01*
X709500Y1293747D01*
X720325D01*
X720494Y1293494D01*
X721785Y1292632D01*
X722109Y1290671D01*
X720814Y1289185D01*
X702000D01*
X701700Y1289125D01*
X700250D01*
Y1288126D01*
X700116Y1287926D01*
X699961Y1287145D01*
Y1270500D01*
X700116Y1269720D01*
X700250Y1269519D01*
Y1269126D01*
X700116Y1268926D01*
X699961Y1268145D01*
Y1251500D01*
X700116Y1250720D01*
X700250Y1250519D01*
Y1249375D01*
X718163D01*
X718656Y1248868D01*
X719082Y1248095D01*
X719237Y1247461D01*
X719116Y1247280D01*
X718961Y1246500D01*
Y1245619D01*
X718750D01*
X717970Y1245463D01*
X717372Y1245064D01*
X709894D01*
X709697Y1245025D01*
X709496D01*
X709299Y1244986D01*
X702047D01*
X701267Y1244831D01*
X701034Y1244675D01*
X700250D01*
Y1243857D01*
X700163Y1243727D01*
X700008Y1242947D01*
Y1232053D01*
X700163Y1231273D01*
X700250Y1231143D01*
Y1230325D01*
X701034D01*
X701267Y1230169D01*
X702047Y1230014D01*
X709299D01*
X709496Y1229975D01*
X709697D01*
X709894Y1229936D01*
X716865D01*
X716866Y1229932D01*
X717308Y1229270D01*
X717308Y1229270D01*
X718521Y1228058D01*
X717717Y1226190D01*
X717374Y1225781D01*
X702189D01*
X701408Y1225626D01*
X701407Y1225625D01*
X700250D01*
Y1224247D01*
X700150Y1223742D01*
Y1207096D01*
X700250Y1206591D01*
Y1198575D01*
Y1192225D01*
Y1185875D01*
X702007D01*
X702307Y1185815D01*
X717818D01*
X718584Y1183968D01*
X717308Y1182692D01*
X716866Y1182030D01*
X716768Y1181539D01*
X709768D01*
X709571Y1181500D01*
X709370D01*
X709299Y1181486D01*
X702000D01*
X701220Y1181331D01*
X700987Y1181175D01*
X700250D01*
Y1180428D01*
X700116Y1180227D01*
X699961Y1179447D01*
Y1174825D01*
X700116Y1174045D01*
X700250Y1173844D01*
Y1166825D01*
X706674D01*
Y1161360D01*
X704007D01*
Y1147200D01*
X718167D01*
Y1161360D01*
X714830D01*
Y1166825D01*
X718750D01*
Y1172461D01*
X720961D01*
Y1147500D01*
X721116Y1146720D01*
X721558Y1146058D01*
X722220Y1145616D01*
X723000Y1145461D01*
X737000D01*
X737780Y1145616D01*
X738442Y1146058D01*
X738884Y1146720D01*
X739039Y1147500D01*
Y1185815D01*
X739038Y1185823D01*
X739780Y1185971D01*
X740442Y1186413D01*
X740884Y1187074D01*
X740900Y1187152D01*
X741059D01*
Y1191807D01*
X743059Y1192205D01*
X743827Y1190350D01*
X745750Y1187844D01*
X748257Y1185920D01*
X751176Y1184711D01*
X754309Y1184299D01*
X763584D01*
X807896Y1139986D01*
Y1130000D01*
X808309Y1126867D01*
X809518Y1123948D01*
X811441Y1121441D01*
X813948Y1119518D01*
X816867Y1118309D01*
X820000Y1117896D01*
X823133Y1118309D01*
X826052Y1119518D01*
X828559Y1121441D01*
X830482Y1123948D01*
X831691Y1126867D01*
X832104Y1130000D01*
Y1145000D01*
X831691Y1148133D01*
X830482Y1151052D01*
X828559Y1153559D01*
X815340Y1166777D01*
X816473Y1168472D01*
X816867Y1168309D01*
X820000Y1167896D01*
X823133Y1168309D01*
X826052Y1169518D01*
X828559Y1171441D01*
X830482Y1173948D01*
X831691Y1176867D01*
X832104Y1180000D01*
X831691Y1183133D01*
X830482Y1186052D01*
X828559Y1188559D01*
X788145Y1228972D01*
X785638Y1230895D01*
X782719Y1232104D01*
X779587Y1232517D01*
X754154D01*
X751021Y1232104D01*
X748102Y1230895D01*
X745595Y1228972D01*
X743672Y1226465D01*
X743039Y1224937D01*
X741039Y1225335D01*
Y1227500D01*
X740904Y1228180D01*
Y1229663D01*
X736883D01*
X735814Y1231663D01*
X735869Y1231745D01*
X736354Y1234184D01*
X735869Y1236622D01*
X735039Y1237863D01*
Y1246500D01*
X735039Y1246500D01*
X734884Y1247280D01*
X734763Y1247461D01*
X735363Y1249100D01*
X735649Y1249461D01*
X738693D01*
X739473Y1249616D01*
X740135Y1250058D01*
X740555Y1250687D01*
X741035D01*
Y1255342D01*
X743035Y1255740D01*
X743803Y1253886D01*
X745726Y1251379D01*
X748233Y1249455D01*
X751152Y1248246D01*
X754285Y1247834D01*
X768139D01*
X768518Y1247884D01*
X784999D01*
X811441Y1221441D01*
X813948Y1219518D01*
X816867Y1218309D01*
X820000Y1217896D01*
X823133Y1218309D01*
X826052Y1219518D01*
X828559Y1221441D01*
X830482Y1223948D01*
X831691Y1226867D01*
X832104Y1230000D01*
X831691Y1233133D01*
X830482Y1236052D01*
X828559Y1238559D01*
X798571Y1268546D01*
X796276Y1270307D01*
X796300Y1271029D01*
X796840Y1272307D01*
X810576D01*
X811441Y1271441D01*
X813948Y1269518D01*
X816867Y1268309D01*
X820000Y1267896D01*
X823133Y1268309D01*
X826052Y1269518D01*
X828559Y1271441D01*
X830482Y1273948D01*
X831691Y1276867D01*
X832104Y1280000D01*
X831691Y1283133D01*
X830482Y1286052D01*
X828559Y1288559D01*
X824148Y1292969D01*
X821641Y1294893D01*
X818722Y1296102D01*
X815589Y1296514D01*
X754154D01*
X751021Y1296102D01*
X748102Y1294893D01*
X745595Y1292969D01*
X743672Y1290463D01*
X742904Y1288609D01*
X740904Y1289006D01*
Y1293661D01*
X739782D01*
X739592Y1293788D01*
X738811Y1293943D01*
X732028D01*
X730963Y1295943D01*
X731373Y1298000D01*
X730887Y1300439D01*
X729506Y1302506D01*
X727439Y1303887D01*
X725000Y1304372D01*
D02*
G37*
G36*
X252332Y1271580D02*
X247752D01*
Y1267000D01*
X252332D01*
Y1271580D01*
D02*
G37*
G36*
X243752D02*
X239172D01*
Y1267000D01*
X243752D01*
Y1271580D01*
D02*
G37*
G36*
X363000Y1271080D02*
X358420D01*
Y1266500D01*
X363000D01*
Y1271080D01*
D02*
G37*
G36*
X45810Y1284351D02*
X42743Y1283948D01*
X39885Y1282764D01*
X37430Y1280880D01*
X35547Y1278426D01*
X34363Y1275567D01*
X33959Y1272500D01*
X34363Y1269433D01*
X35547Y1266574D01*
X37430Y1264120D01*
X39885Y1262236D01*
X42743Y1261052D01*
X45810Y1260649D01*
X48878Y1261052D01*
X51736Y1262236D01*
X54191Y1264120D01*
X56074Y1266574D01*
X57258Y1269433D01*
X57662Y1272500D01*
X57258Y1275567D01*
X56074Y1278426D01*
X54191Y1280880D01*
X51736Y1282764D01*
X48878Y1283948D01*
X45810Y1284351D01*
D02*
G37*
G36*
X252332Y1263000D02*
X247752D01*
Y1258420D01*
X252332D01*
Y1263000D01*
D02*
G37*
G36*
X243752D02*
X239172D01*
Y1258420D01*
X243752D01*
Y1263000D01*
D02*
G37*
G36*
X50810Y1233147D02*
Y1227500D01*
X56457D01*
X56074Y1228426D01*
X54191Y1230880D01*
X51736Y1232764D01*
X50810Y1233147D01*
D02*
G37*
G36*
X40810Y1233147D02*
X39885Y1232764D01*
X37430Y1230880D01*
X35547Y1228426D01*
X35163Y1227500D01*
X40810D01*
Y1233147D01*
D02*
G37*
G36*
Y1217500D02*
X35163D01*
X35547Y1216574D01*
X37430Y1214120D01*
X39885Y1212236D01*
X40810Y1211853D01*
Y1217500D01*
D02*
G37*
G36*
X56457D02*
X50810D01*
Y1211853D01*
X51736Y1212236D01*
X54191Y1214120D01*
X56074Y1216574D01*
X56457Y1217500D01*
D02*
G37*
G36*
X38000Y1185500D02*
X34500D01*
Y1182000D01*
X38000D01*
Y1185500D01*
D02*
G37*
G36*
X30500D02*
X27000D01*
Y1182000D01*
X30500D01*
Y1185500D01*
D02*
G37*
G36*
X38000Y1178000D02*
X34500D01*
Y1174500D01*
X38000D01*
Y1178000D01*
D02*
G37*
G36*
X30500D02*
X27000D01*
Y1174500D01*
X30500D01*
Y1178000D01*
D02*
G37*
G36*
X38000Y1163000D02*
X34500D01*
Y1159500D01*
X38000D01*
Y1163000D01*
D02*
G37*
G36*
X30500D02*
X27000D01*
Y1159500D01*
X30500D01*
Y1163000D01*
D02*
G37*
G36*
X38000Y1155500D02*
X34500D01*
Y1152000D01*
X38000D01*
Y1155500D01*
D02*
G37*
G36*
X30500D02*
X27000D01*
Y1152000D01*
X30500D01*
Y1155500D01*
D02*
G37*
G36*
X38000Y1143000D02*
X34500D01*
Y1139500D01*
X38000D01*
Y1143000D01*
D02*
G37*
G36*
X30500D02*
X27000D01*
Y1139500D01*
X30500D01*
Y1143000D01*
D02*
G37*
G36*
X38000Y1135500D02*
X34500D01*
Y1132000D01*
X38000D01*
Y1135500D01*
D02*
G37*
G36*
X30500D02*
X27000D01*
Y1132000D01*
X30500D01*
Y1135500D01*
D02*
G37*
G36*
X795000Y1027329D02*
Y1025000D01*
X797329D01*
X796318Y1026318D01*
X795000Y1027329D01*
D02*
G37*
G36*
X785000D02*
X783682Y1026318D01*
X782671Y1025000D01*
X785000D01*
Y1027329D01*
D02*
G37*
G36*
X680000D02*
Y1025000D01*
X682329D01*
X681318Y1026318D01*
X680000Y1027329D01*
D02*
G37*
G36*
X670000Y1027329D02*
X668682Y1026318D01*
X667671Y1025000D01*
X670000D01*
Y1027329D01*
D02*
G37*
G36*
X682329Y1015000D02*
X680000D01*
Y1012671D01*
X681318Y1013682D01*
X682329Y1015000D01*
D02*
G37*
G36*
X797329Y1015000D02*
X795000D01*
Y1012671D01*
X796318Y1013682D01*
X797329Y1015000D01*
D02*
G37*
G36*
X785000D02*
X782671D01*
X783682Y1013682D01*
X785000Y1012671D01*
Y1015000D01*
D02*
G37*
G36*
X670000Y1015000D02*
X667671D01*
X668682Y1013682D01*
X670000Y1012671D01*
Y1015000D01*
D02*
G37*
G36*
X680000Y967329D02*
Y965000D01*
X682329D01*
X681318Y966318D01*
X680000Y967329D01*
D02*
G37*
G36*
X670000Y967329D02*
X668682Y966318D01*
X667671Y965000D01*
X670000D01*
Y967329D01*
D02*
G37*
G36*
X795000Y967329D02*
Y965000D01*
X797329D01*
X796318Y966318D01*
X795000Y967329D01*
D02*
G37*
G36*
X785000D02*
X783682Y966318D01*
X782671Y965000D01*
X785000D01*
Y967329D01*
D02*
G37*
G36*
X682329Y955000D02*
X680000D01*
Y952671D01*
X681318Y953682D01*
X682329Y955000D01*
D02*
G37*
G36*
X797329Y955000D02*
X795000D01*
Y952671D01*
X796318Y953682D01*
X797329Y955000D01*
D02*
G37*
G36*
X785000D02*
X782671D01*
X783682Y953682D01*
X785000Y952671D01*
Y955000D01*
D02*
G37*
G36*
X670000Y955000D02*
X667671D01*
X668682Y953682D01*
X670000Y952671D01*
Y955000D01*
D02*
G37*
G36*
X762500Y866373D02*
X760061Y865887D01*
X758974Y865161D01*
X757500Y864670D01*
X756026Y865161D01*
X754939Y865887D01*
X752500Y866373D01*
X750061Y865887D01*
X747994Y864506D01*
X746613Y862439D01*
X746127Y860000D01*
X746613Y857561D01*
X747339Y856474D01*
X747830Y855000D01*
X747339Y853526D01*
X746613Y852439D01*
X746127Y850000D01*
X746613Y847561D01*
X747994Y845494D01*
X750061Y844113D01*
X752500Y843627D01*
X754939Y844113D01*
X756026Y844839D01*
X757500Y845330D01*
X758974Y844839D01*
X760061Y844113D01*
X762500Y843627D01*
X764939Y844113D01*
X767006Y845494D01*
X768387Y847561D01*
X768873Y850000D01*
X768387Y852439D01*
X767661Y853526D01*
X767170Y855000D01*
X767661Y856474D01*
X768387Y857561D01*
X768873Y860000D01*
X768387Y862439D01*
X767006Y864506D01*
X764939Y865887D01*
X762500Y866373D01*
D02*
G37*
G36*
X646580Y826580D02*
X642000D01*
Y822000D01*
X646580D01*
Y826580D01*
D02*
G37*
G36*
X638000D02*
X633420D01*
Y822000D01*
X638000D01*
Y826580D01*
D02*
G37*
G36*
X646580Y818000D02*
X642000D01*
Y813420D01*
X646580D01*
Y818000D01*
D02*
G37*
G36*
X638000D02*
X633420D01*
Y813420D01*
X638000D01*
Y818000D01*
D02*
G37*
G36*
X820000Y852104D02*
X816867Y851691D01*
X813948Y850482D01*
X811441Y848559D01*
X809518Y846052D01*
X808309Y843133D01*
X807896Y840000D01*
Y827317D01*
X774183Y793604D01*
X754250D01*
X751117Y793191D01*
X748198Y791982D01*
X745692Y790059D01*
X743768Y787552D01*
X743000Y785698D01*
X741000Y786096D01*
Y790750D01*
X739648D01*
X739592Y790788D01*
X738811Y790943D01*
X732028D01*
X730963Y792943D01*
X731373Y795000D01*
X730887Y797439D01*
X729506Y799506D01*
X727439Y800887D01*
X725000Y801373D01*
X722561Y800887D01*
X720494Y799506D01*
X720091Y798903D01*
X709500D01*
X709106Y798825D01*
X700250D01*
Y790825D01*
X709106D01*
X709500Y790747D01*
X720325D01*
X720494Y790494D01*
X721785Y789632D01*
X722109Y787671D01*
X720814Y786185D01*
X702000D01*
X701700Y786125D01*
X700250D01*
Y785126D01*
X700116Y784926D01*
X699961Y784145D01*
Y767500D01*
X700116Y766720D01*
X700250Y766519D01*
Y766126D01*
X700116Y765926D01*
X699961Y765145D01*
Y748500D01*
X700116Y747720D01*
X700250Y747519D01*
Y746375D01*
X718163D01*
X718656Y745868D01*
X719082Y745095D01*
X719237Y744461D01*
X719116Y744280D01*
X718961Y743500D01*
Y742619D01*
X718750D01*
X717970Y742464D01*
X717372Y742064D01*
X709894D01*
X709697Y742025D01*
X709496D01*
X709299Y741986D01*
X702047D01*
X701267Y741831D01*
X701034Y741675D01*
X700250D01*
Y740857D01*
X700163Y740727D01*
X700008Y739947D01*
Y729053D01*
X700163Y728273D01*
X700250Y728143D01*
Y727325D01*
X701034D01*
X701267Y727169D01*
X702047Y727014D01*
X709299D01*
X709496Y726975D01*
X709697D01*
X709894Y726936D01*
X716865D01*
X716866Y726932D01*
X717308Y726271D01*
X717308Y726270D01*
X718521Y725058D01*
X717717Y723190D01*
X717374Y722781D01*
X702189D01*
X701408Y722626D01*
X701407Y722625D01*
X700250D01*
Y721247D01*
X700150Y720742D01*
Y704096D01*
X700250Y703591D01*
Y695575D01*
Y689225D01*
Y682875D01*
X702007D01*
X702307Y682815D01*
X717818D01*
X718584Y680968D01*
X717308Y679692D01*
X716866Y679030D01*
X716768Y678539D01*
X709768D01*
X709571Y678500D01*
X709370D01*
X709299Y678486D01*
X702000D01*
X701220Y678331D01*
X700987Y678175D01*
X700250D01*
Y677428D01*
X700116Y677227D01*
X699961Y676447D01*
Y671825D01*
X700116Y671045D01*
X700250Y670844D01*
Y663825D01*
X708611D01*
Y661387D01*
X705609D01*
Y647227D01*
X719769D01*
Y661387D01*
X716767D01*
Y663825D01*
X718750D01*
Y669461D01*
X722211D01*
Y648500D01*
X722366Y647720D01*
X722808Y647058D01*
X723470Y646616D01*
X724250Y646461D01*
X725357D01*
X726137Y646616D01*
X726799Y647058D01*
X726912Y647227D01*
X739017D01*
Y660776D01*
X739039Y660887D01*
Y682815D01*
X739038Y682823D01*
X739780Y682971D01*
X740442Y683413D01*
X740884Y684074D01*
X741039Y684855D01*
Y688206D01*
X743039Y688604D01*
X743518Y687448D01*
X745442Y684941D01*
X747948Y683018D01*
X750867Y681809D01*
X754000Y681396D01*
X763360D01*
X764565Y681238D01*
X811707D01*
X813948Y679518D01*
X816867Y678309D01*
X820000Y677896D01*
X823133Y678309D01*
X826052Y679518D01*
X828559Y681441D01*
X830482Y683948D01*
X831691Y686867D01*
X832104Y690000D01*
X831691Y693133D01*
X830482Y696052D01*
X828559Y698559D01*
X825217Y701900D01*
X822710Y703823D01*
X819791Y705032D01*
X816659Y705445D01*
X804878D01*
X803990Y707237D01*
X804004Y707445D01*
X806403Y709286D01*
X828559Y731441D01*
X830482Y733948D01*
X831691Y736867D01*
X832104Y740000D01*
X831691Y743133D01*
X830482Y746052D01*
X828559Y748559D01*
X826052Y750482D01*
X823133Y751691D01*
X820000Y752104D01*
X816867Y751691D01*
X813948Y750482D01*
X811441Y748559D01*
X792831Y729948D01*
X754595D01*
X751462Y729536D01*
X748543Y728327D01*
X746036Y726403D01*
X745692Y726059D01*
X743768Y723552D01*
X743039Y721792D01*
X741039Y722190D01*
Y724500D01*
X741000Y724697D01*
Y726750D01*
X737798D01*
X737011Y728223D01*
X736925Y728750D01*
X737373Y731000D01*
X736887Y733439D01*
X735506Y735506D01*
X735039Y735818D01*
Y743500D01*
X735039Y743500D01*
X734884Y744280D01*
X734763Y744461D01*
X735363Y746100D01*
X735649Y746461D01*
X738693D01*
X739473Y746616D01*
X740135Y747058D01*
X740263Y747250D01*
X740750D01*
Y751905D01*
X742750Y752302D01*
X743518Y750448D01*
X745442Y747942D01*
X745871Y747512D01*
X748378Y745589D01*
X751297Y744379D01*
X754429Y743967D01*
X786070D01*
X789203Y744379D01*
X792122Y745589D01*
X794629Y747512D01*
X828559Y781441D01*
X830482Y783948D01*
X831691Y786867D01*
X832104Y790000D01*
X831691Y793133D01*
X830482Y796052D01*
X828559Y798559D01*
X826052Y800482D01*
X823133Y801691D01*
X820000Y802104D01*
X819707Y802065D01*
X818773Y803959D01*
X828559Y813745D01*
X830482Y816252D01*
X831691Y819171D01*
X832104Y822303D01*
Y840000D01*
X831691Y843133D01*
X830482Y846052D01*
X828559Y848559D01*
X826052Y850482D01*
X823133Y851691D01*
X820000Y852104D01*
D02*
G37*
G36*
X24000Y570000D02*
X19500D01*
Y567000D01*
X24000D01*
Y570000D01*
D02*
G37*
G36*
X15500D02*
X11000D01*
Y567000D01*
X15500D01*
Y570000D01*
D02*
G37*
G36*
X24000Y563000D02*
X19500D01*
Y560000D01*
X24000D01*
Y563000D01*
D02*
G37*
G36*
X15500D02*
X11000D01*
Y560000D01*
X15500D01*
Y563000D01*
D02*
G37*
G36*
X24500Y549000D02*
X10500D01*
Y538000D01*
X24500D01*
Y549000D01*
D02*
G37*
G36*
X824999Y535648D02*
Y530001D01*
X830647D01*
X830263Y530927D01*
X828380Y533381D01*
X825925Y535265D01*
X824999Y535648D01*
D02*
G37*
G36*
X814999Y535648D02*
X814074Y535265D01*
X811619Y533381D01*
X809736Y530927D01*
X809352Y530001D01*
X814999D01*
Y535648D01*
D02*
G37*
G36*
X830647Y520001D02*
X824999D01*
Y514354D01*
X825925Y514737D01*
X828380Y516621D01*
X830263Y519075D01*
X830647Y520001D01*
D02*
G37*
G36*
X814999D02*
X809352D01*
X809736Y519075D01*
X811619Y516621D01*
X814074Y514737D01*
X814999Y514354D01*
Y520001D01*
D02*
G37*
G36*
X24000Y511500D02*
X19500D01*
Y508500D01*
X24000D01*
Y511500D01*
D02*
G37*
G36*
X15500D02*
X11000D01*
Y508500D01*
X15500D01*
Y511500D01*
D02*
G37*
G36*
X720000Y506372D02*
X717561Y505887D01*
X716474Y505161D01*
X715000Y504670D01*
X713526Y505161D01*
X712439Y505887D01*
X710000Y506372D01*
X707561Y505887D01*
X705494Y504506D01*
X704113Y502439D01*
X703627Y500000D01*
X704113Y497561D01*
X704839Y496474D01*
X705330Y495000D01*
X704839Y493526D01*
X704113Y492439D01*
X703627Y490000D01*
X704113Y487561D01*
X705494Y485494D01*
X707561Y484113D01*
X710000Y483628D01*
X712439Y484113D01*
X713526Y484839D01*
X715000Y485330D01*
X716474Y484839D01*
X717561Y484113D01*
X720000Y483628D01*
X722439Y484113D01*
X724506Y485494D01*
X725887Y487561D01*
X726373Y490000D01*
X725887Y492439D01*
X725161Y493526D01*
X724670Y495000D01*
X725161Y496474D01*
X725887Y497561D01*
X726373Y500000D01*
X725887Y502439D01*
X724506Y504506D01*
X722439Y505887D01*
X720000Y506372D01*
D02*
G37*
G36*
X24000Y504500D02*
X19500D01*
Y501500D01*
X24000D01*
Y504500D01*
D02*
G37*
G36*
X15500D02*
X11000D01*
Y501500D01*
X15500D01*
Y504500D01*
D02*
G37*
G36*
X819999Y486852D02*
X816932Y486448D01*
X814074Y485265D01*
X811619Y483381D01*
X809736Y480927D01*
X808552Y478068D01*
X808148Y475001D01*
X808552Y471934D01*
X809736Y469075D01*
X811619Y466621D01*
X814074Y464737D01*
X816932Y463553D01*
X819999Y463149D01*
X823067Y463553D01*
X825925Y464737D01*
X828380Y466621D01*
X830263Y469075D01*
X831447Y471934D01*
X831851Y475001D01*
X831447Y478068D01*
X830263Y480927D01*
X828380Y483381D01*
X825925Y485265D01*
X823067Y486448D01*
X819999Y486852D01*
D02*
G37*
G36*
X16821Y443727D02*
Y436151D01*
X24397D01*
X24325Y436697D01*
X23342Y439070D01*
X21779Y441108D01*
X19741Y442672D01*
X17368Y443655D01*
X16821Y443727D01*
D02*
G37*
G36*
X825000Y435647D02*
Y430000D01*
X830647D01*
X830264Y430926D01*
X828380Y433380D01*
X825926Y435264D01*
X825000Y435647D01*
D02*
G37*
G36*
X815000Y435647D02*
X814074Y435264D01*
X811620Y433380D01*
X809736Y430926D01*
X809353Y430000D01*
X815000D01*
Y435647D01*
D02*
G37*
G36*
X24397Y432151D02*
X16821D01*
Y424575D01*
X17368Y424647D01*
X19741Y425630D01*
X21779Y427193D01*
X23342Y429231D01*
X24325Y431604D01*
X24397Y432151D01*
D02*
G37*
G36*
X815000Y420000D02*
X809353D01*
X809736Y419074D01*
X811620Y416620D01*
X814074Y414736D01*
X815000Y414353D01*
Y420000D01*
D02*
G37*
G36*
X830647D02*
X825000D01*
Y414353D01*
X825926Y414736D01*
X828380Y416620D01*
X830264Y419074D01*
X830647Y420000D01*
D02*
G37*
G36*
X16821Y418326D02*
Y410751D01*
X24397D01*
X24325Y411297D01*
X23342Y413670D01*
X21779Y415708D01*
X19741Y417272D01*
X17368Y418255D01*
X16821Y418326D01*
D02*
G37*
G36*
X24397Y406751D02*
X16821D01*
Y399175D01*
X17368Y399247D01*
X19741Y400230D01*
X21779Y401793D01*
X23342Y403831D01*
X24325Y406204D01*
X24397Y406751D01*
D02*
G37*
G36*
X16821Y392926D02*
Y385351D01*
X24397D01*
X24325Y385897D01*
X23342Y388270D01*
X21779Y390308D01*
X19741Y391872D01*
X17368Y392854D01*
X16821Y392926D01*
D02*
G37*
G36*
X24397Y381351D02*
X16821D01*
Y373775D01*
X17368Y373847D01*
X19741Y374830D01*
X21779Y376393D01*
X23342Y378431D01*
X24325Y380804D01*
X24397Y381351D01*
D02*
G37*
G36*
X820000Y386851D02*
X816933Y386448D01*
X814074Y385264D01*
X811620Y383380D01*
X809736Y380926D01*
X808552Y378067D01*
X808149Y375000D01*
X808552Y371933D01*
X809736Y369074D01*
X811620Y366620D01*
X814074Y364736D01*
X816933Y363553D01*
X820000Y363149D01*
X823067Y363553D01*
X825926Y364736D01*
X828380Y366620D01*
X830264Y369074D01*
X831448Y371933D01*
X831851Y375000D01*
X831448Y378067D01*
X830264Y380926D01*
X828380Y383380D01*
X825926Y385264D01*
X823067Y386448D01*
X820000Y386851D01*
D02*
G37*
G36*
X16821Y367527D02*
Y359951D01*
X24397D01*
X24325Y360497D01*
X23342Y362870D01*
X21779Y364908D01*
X19741Y366472D01*
X17368Y367454D01*
X16821Y367527D01*
D02*
G37*
G36*
X24397Y355951D02*
X16821D01*
Y348375D01*
X17368Y348447D01*
X19741Y349430D01*
X21779Y350993D01*
X23342Y353031D01*
X24325Y355404D01*
X24397Y355951D01*
D02*
G37*
G36*
X609045Y350096D02*
X594305D01*
Y344500D01*
X609045D01*
Y350096D01*
D02*
G37*
G36*
Y340500D02*
X594305D01*
Y334904D01*
X609045D01*
Y340500D01*
D02*
G37*
G36*
X590305D02*
X575565D01*
Y336691D01*
X575565Y335191D01*
X574126Y333549D01*
X573788Y333616D01*
X572500Y333872D01*
X570061Y333387D01*
X567994Y332006D01*
X566613Y329939D01*
X566128Y327500D01*
X566613Y325061D01*
X567994Y322994D01*
X569441Y322027D01*
Y282500D01*
X569441Y282500D01*
X569674Y281329D01*
X570337Y280337D01*
X577318Y273357D01*
X577147Y272500D01*
X577555Y270452D01*
X578715Y268715D01*
X580452Y267555D01*
X582500Y267147D01*
X584548Y267555D01*
X586285Y268715D01*
X587445Y270452D01*
X587853Y272500D01*
X587445Y274548D01*
X586285Y276285D01*
X584548Y277445D01*
X582500Y277853D01*
X581643Y277682D01*
X575559Y283767D01*
Y322027D01*
X577006Y322994D01*
X578387Y325061D01*
X578872Y327500D01*
X578387Y329939D01*
X577006Y332006D01*
X575662Y332904D01*
X576269Y334904D01*
X577419Y334904D01*
X577419Y334904D01*
X577446Y334904D01*
X590305D01*
Y340500D01*
D02*
G37*
G36*
X16821Y342127D02*
Y334551D01*
X24397D01*
X24325Y335097D01*
X23342Y337470D01*
X21779Y339508D01*
X19741Y341072D01*
X17368Y342054D01*
X16821Y342127D01*
D02*
G37*
G36*
X825000Y335647D02*
Y330000D01*
X830647D01*
X830264Y330926D01*
X828380Y333380D01*
X825926Y335264D01*
X825000Y335647D01*
D02*
G37*
G36*
X815000Y335647D02*
X814074Y335264D01*
X811620Y333380D01*
X809736Y330926D01*
X809353Y330000D01*
X815000D01*
Y335647D01*
D02*
G37*
G36*
X24397Y330551D02*
X16821D01*
Y322975D01*
X17368Y323047D01*
X19741Y324030D01*
X21779Y325593D01*
X23342Y327631D01*
X24325Y330004D01*
X24397Y330551D01*
D02*
G37*
G36*
X815000Y320000D02*
X809353D01*
X809736Y319074D01*
X811620Y316620D01*
X814074Y314736D01*
X815000Y314353D01*
Y320000D01*
D02*
G37*
G36*
X830647D02*
X825000D01*
Y314353D01*
X825926Y314736D01*
X828380Y316620D01*
X830264Y319074D01*
X830647Y320000D01*
D02*
G37*
G36*
X16821Y316726D02*
Y309151D01*
X24397D01*
X24325Y309697D01*
X23342Y312070D01*
X21779Y314108D01*
X19741Y315672D01*
X17368Y316654D01*
X16821Y316726D01*
D02*
G37*
G36*
X24397Y305151D02*
X16821D01*
Y297575D01*
X17368Y297647D01*
X19741Y298630D01*
X21779Y300193D01*
X23342Y302231D01*
X24325Y304604D01*
X24397Y305151D01*
D02*
G37*
G36*
X16821Y291327D02*
Y283751D01*
X24397D01*
X24325Y284297D01*
X23342Y286670D01*
X21779Y288708D01*
X19741Y290272D01*
X17368Y291255D01*
X16821Y291327D01*
D02*
G37*
G36*
X24397Y279751D02*
X16821D01*
Y272175D01*
X17368Y272247D01*
X19741Y273230D01*
X21779Y274793D01*
X23342Y276831D01*
X24325Y279204D01*
X24397Y279751D01*
D02*
G37*
G36*
X725455Y278806D02*
X722359D01*
Y266566D01*
X725455D01*
Y278806D01*
D02*
G37*
G36*
X712359D02*
X709263D01*
Y266566D01*
X712359D01*
Y278806D01*
D02*
G37*
G36*
X652918Y277649D02*
X649822D01*
Y265409D01*
X652918D01*
Y277649D01*
D02*
G37*
G36*
X639822D02*
X636726D01*
Y265409D01*
X639822D01*
Y277649D01*
D02*
G37*
G36*
X820000Y286851D02*
X816933Y286448D01*
X814074Y285264D01*
X811620Y283380D01*
X809736Y280926D01*
X808552Y278067D01*
X808149Y275000D01*
X808552Y271933D01*
X809736Y269074D01*
X811620Y266620D01*
X814074Y264736D01*
X816933Y263552D01*
X820000Y263149D01*
X823067Y263552D01*
X825926Y264736D01*
X828380Y266620D01*
X830264Y269074D01*
X831448Y271933D01*
X831851Y275000D01*
X831448Y278067D01*
X830264Y280926D01*
X828380Y283380D01*
X825926Y285264D01*
X823067Y286448D01*
X820000Y286851D01*
D02*
G37*
G36*
X16821Y266106D02*
Y258351D01*
X24576D01*
Y266106D01*
X16821D01*
D02*
G37*
G36*
X24576Y254351D02*
X16821D01*
Y246596D01*
X24576D01*
Y254351D01*
D02*
G37*
G36*
X725455Y256567D02*
X722359D01*
Y244326D01*
X725455D01*
Y256567D01*
D02*
G37*
G36*
X712359D02*
X709263D01*
Y244326D01*
X712359D01*
Y256567D01*
D02*
G37*
G36*
X625000Y256373D02*
X622561Y255887D01*
X620494Y254506D01*
X619113Y252439D01*
X618628Y250000D01*
X619113Y247561D01*
X620494Y245494D01*
X622561Y244113D01*
X625000Y243628D01*
X627439Y244113D01*
X629506Y245494D01*
X630887Y247561D01*
X631372Y250000D01*
X630887Y252439D01*
X629506Y254506D01*
X627439Y255887D01*
X625000Y256373D01*
D02*
G37*
G36*
X652918Y255409D02*
X649822D01*
Y243169D01*
X652918D01*
Y255409D01*
D02*
G37*
G36*
X639822D02*
X636726D01*
Y243169D01*
X639822D01*
Y255409D01*
D02*
G37*
G36*
X66141Y211434D02*
X63828Y211130D01*
X61674Y210238D01*
X59823Y208818D01*
X58403Y206967D01*
X57511Y204812D01*
X57206Y202500D01*
X57511Y200188D01*
X58403Y198033D01*
X59823Y196182D01*
X61674Y194763D01*
X63828Y193870D01*
X66141Y193566D01*
X68453Y193870D01*
X70608Y194763D01*
X72458Y196182D01*
X73878Y198033D01*
X74771Y200188D01*
X75075Y202500D01*
X74771Y204812D01*
X73878Y206967D01*
X72458Y208818D01*
X70608Y210238D01*
X68453Y211130D01*
X66141Y211434D01*
D02*
G37*
G36*
X68141Y160667D02*
Y154500D01*
X74308D01*
X74284Y154682D01*
X73442Y156715D01*
X72102Y158461D01*
X70356Y159801D01*
X68323Y160643D01*
X68141Y160667D01*
D02*
G37*
G36*
X64141D02*
X63959Y160643D01*
X61926Y159801D01*
X60180Y158461D01*
X58840Y156715D01*
X57998Y154682D01*
X57974Y154500D01*
X64141D01*
Y160667D01*
D02*
G37*
G36*
X617000Y153167D02*
Y147000D01*
X623167D01*
X623143Y147182D01*
X622301Y149215D01*
X620961Y150961D01*
X619215Y152301D01*
X617182Y153143D01*
X617000Y153167D01*
D02*
G37*
G36*
X613000D02*
X612818Y153143D01*
X610785Y152301D01*
X609039Y150961D01*
X607699Y149215D01*
X606857Y147182D01*
X606833Y147000D01*
X613000D01*
Y153167D01*
D02*
G37*
G36*
X64141Y150500D02*
X57974D01*
X57998Y150318D01*
X58840Y148285D01*
X60180Y146539D01*
X61926Y145199D01*
X63959Y144357D01*
X64141Y144333D01*
Y150500D01*
D02*
G37*
G36*
X74308D02*
X68141D01*
Y144333D01*
X68323Y144357D01*
X70356Y145199D01*
X72102Y146539D01*
X73442Y148285D01*
X74284Y150318D01*
X74308Y150500D01*
D02*
G37*
G36*
X623167Y143000D02*
X617000D01*
Y136833D01*
X617182Y136857D01*
X619215Y137699D01*
X620961Y139039D01*
X622301Y140785D01*
X623143Y142818D01*
X623167Y143000D01*
D02*
G37*
G36*
X613000D02*
X606833D01*
X606857Y142818D01*
X607699Y140785D01*
X609039Y139039D01*
X610785Y137699D01*
X612818Y136857D01*
X613000Y136833D01*
Y143000D01*
D02*
G37*
G36*
X117000Y109000D02*
X112547D01*
Y101007D01*
X117000D01*
Y109000D01*
D02*
G37*
G36*
X609969Y105453D02*
Y101000D01*
X617962D01*
Y105453D01*
X609969D01*
D02*
G37*
G36*
X617962Y97000D02*
X609969D01*
Y92547D01*
X617962D01*
Y97000D01*
D02*
G37*
G36*
X400000Y56851D02*
X396933Y56448D01*
X394074Y55264D01*
X391620Y53380D01*
X389736Y50926D01*
X388552Y48067D01*
X388149Y45000D01*
X388552Y41933D01*
X389736Y39074D01*
X391620Y36620D01*
X394074Y34736D01*
X396933Y33552D01*
X400000Y33149D01*
X403067Y33552D01*
X405926Y34736D01*
X408380Y36620D01*
X410264Y39074D01*
X411447Y41933D01*
X411851Y45000D01*
X411447Y48067D01*
X410264Y50926D01*
X408380Y53380D01*
X405926Y55264D01*
X403067Y56448D01*
X400000Y56851D01*
D02*
G37*
G36*
X263956Y37580D02*
X259376D01*
Y33000D01*
X263956D01*
Y37580D01*
D02*
G37*
G36*
X255376D02*
X250796D01*
Y33000D01*
X255376D01*
Y37580D01*
D02*
G37*
G36*
X231080Y57832D02*
X216920D01*
Y43672D01*
X220941D01*
Y37428D01*
X217854D01*
Y25428D01*
X229855D01*
Y37428D01*
X227059D01*
Y43672D01*
X231080D01*
Y57832D01*
D02*
G37*
G36*
X263956Y29000D02*
X259376D01*
Y24420D01*
X263956D01*
Y29000D01*
D02*
G37*
G36*
X255376D02*
X250796D01*
Y24420D01*
X255376D01*
Y29000D01*
D02*
G37*
G36*
X276248Y75401D02*
X274200Y74994D01*
X272463Y73834D01*
X271303Y72097D01*
X270895Y70049D01*
X271303Y68000D01*
X272463Y66263D01*
X273189Y65778D01*
Y63080D01*
X269168D01*
Y48920D01*
X273189D01*
Y38080D01*
X269544D01*
Y23920D01*
X283704D01*
Y38080D01*
X279307D01*
Y48920D01*
X283328D01*
Y63080D01*
X279307D01*
Y65778D01*
X280033Y66263D01*
X281194Y68000D01*
X281601Y70049D01*
X281194Y72097D01*
X280033Y73834D01*
X278297Y74994D01*
X276248Y75401D01*
D02*
G37*
G36*
X229354Y21928D02*
X225854D01*
Y18428D01*
X229354D01*
Y21928D01*
D02*
G37*
G36*
X221854D02*
X218354D01*
Y18428D01*
X221854D01*
Y21928D01*
D02*
G37*
G36*
X229354Y14428D02*
X225854D01*
Y10928D01*
X229354D01*
Y14428D01*
D02*
G37*
G36*
X221854D02*
X218354D01*
Y10928D01*
X221854D01*
Y14428D01*
D02*
G37*
%LPD*%
G36*
X652250Y1361250D02*
X644750Y1358750D01*
X637250Y1361250D01*
Y1368750D01*
X652250D01*
Y1361250D01*
D02*
G37*
G36*
X612500Y1361000D02*
X605000Y1358500D01*
X597500Y1361000D01*
Y1368500D01*
X612500D01*
Y1361000D01*
D02*
G37*
G36*
X652250Y1347750D02*
X637250D01*
Y1358750D01*
X644750Y1356250D01*
X652250Y1358750D01*
Y1347750D01*
D02*
G37*
G36*
X612500Y1347500D02*
X597500D01*
Y1358500D01*
X605000Y1356000D01*
X612500Y1358500D01*
Y1347500D01*
D02*
G37*
G36*
X738811Y1287264D02*
X738693Y1287145D01*
Y1270500D01*
X702000D01*
Y1287145D01*
X722053D01*
X726811Y1291904D01*
X738811D01*
Y1287264D01*
D02*
G37*
G36*
X738693Y1251500D02*
X702000D01*
Y1268145D01*
X738693D01*
Y1251500D01*
D02*
G37*
G36*
X733000Y1246500D02*
Y1231500D01*
X731163Y1229663D01*
X726404D01*
Y1229539D01*
X726000D01*
X726000Y1229539D01*
X725803Y1229500D01*
X719962D01*
X718750Y1230712D01*
Y1231975D01*
X709894D01*
X709500Y1232053D01*
X702047D01*
Y1242947D01*
X709500D01*
X709894Y1243025D01*
X718750D01*
Y1243579D01*
X720011D01*
X721000Y1244569D01*
Y1246500D01*
X723000Y1248500D01*
X731000D01*
X733000Y1246500D01*
D02*
G37*
G36*
X739000Y1223860D02*
Y1207096D01*
X702189D01*
Y1223742D01*
X722242D01*
X726000Y1227500D01*
X739000D01*
Y1223860D01*
D02*
G37*
G36*
Y1187855D02*
X702307D01*
Y1204500D01*
X739000D01*
Y1187855D01*
D02*
G37*
G36*
X737000Y1147500D02*
X723000D01*
Y1174500D01*
X718750D01*
Y1174825D01*
X711146D01*
X710752Y1174903D01*
X709500D01*
X709106Y1174825D01*
X702000D01*
Y1179447D01*
X709500D01*
X709768Y1179500D01*
X717000D01*
X717025Y1179525D01*
X718750D01*
Y1181250D01*
X723315Y1185815D01*
X737000D01*
Y1147500D01*
D02*
G37*
%LPC*%
G36*
X736915Y1160860D02*
X732335D01*
Y1156280D01*
X736915D01*
Y1160860D01*
D02*
G37*
G36*
X728335D02*
X723755D01*
Y1156280D01*
X728335D01*
Y1160860D01*
D02*
G37*
G36*
X736915Y1152280D02*
X732335D01*
Y1147700D01*
X736915D01*
Y1152280D01*
D02*
G37*
G36*
X728335D02*
X723755D01*
Y1147700D01*
X728335D01*
Y1152280D01*
D02*
G37*
%LPD*%
G36*
X738811Y784264D02*
X738693Y784145D01*
Y767500D01*
X702000D01*
Y784145D01*
X722053D01*
X726811Y788904D01*
X738811D01*
Y784264D01*
D02*
G37*
G36*
X738693Y748500D02*
X702000D01*
Y765145D01*
X738693D01*
Y748500D01*
D02*
G37*
G36*
X733000Y743500D02*
Y728500D01*
X731250Y726750D01*
X726500D01*
Y726539D01*
X726000D01*
X726000Y726539D01*
X725803Y726500D01*
X719962D01*
X718750Y727712D01*
Y728975D01*
X709894D01*
X709500Y729053D01*
X702047D01*
Y739947D01*
X709500D01*
X709894Y740025D01*
X718750D01*
Y740580D01*
X720011D01*
X721000Y741569D01*
Y743500D01*
X723000Y745500D01*
X731000D01*
X733000Y743500D01*
D02*
G37*
G36*
X739000Y720860D02*
Y704096D01*
X702189D01*
Y720742D01*
X722242D01*
X726000Y724500D01*
X739000D01*
Y720860D01*
D02*
G37*
G36*
Y684855D02*
X702307D01*
Y701500D01*
X739000D01*
Y684855D01*
D02*
G37*
G36*
X737000Y660887D02*
X733937D01*
Y654307D01*
X731937D01*
Y652307D01*
X725357D01*
Y648500D01*
X724250D01*
Y671500D01*
X718750D01*
Y671825D01*
X713083D01*
X712689Y671903D01*
X709500D01*
X709106Y671825D01*
X702000D01*
Y676447D01*
X709500D01*
X709768Y676500D01*
X717000D01*
X717025Y676525D01*
X718750D01*
Y678250D01*
X723315Y682815D01*
X737000D01*
Y660887D01*
D02*
G37*
%LPC*%
G36*
X729937D02*
X725357D01*
Y656307D01*
X729937D01*
Y660887D01*
D02*
G37*
G36*
X588036Y1137222D02*
X587946Y1137204D01*
X580956D01*
Y1123044D01*
X595116D01*
Y1125026D01*
X596052D01*
X597389Y1124133D01*
X599827Y1123648D01*
X602266Y1124133D01*
X604333Y1125515D01*
X605715Y1127582D01*
X606200Y1130021D01*
X605715Y1132459D01*
X604333Y1134527D01*
X602266Y1135908D01*
X599827Y1136393D01*
X597389Y1135908D01*
X596362Y1135222D01*
X595116D01*
Y1137204D01*
X588126D01*
X588036Y1137222D01*
D02*
G37*
G36*
X680000Y1077329D02*
Y1075000D01*
X682329D01*
X681318Y1076318D01*
X680000Y1077329D01*
D02*
G37*
G36*
X670000Y1077329D02*
X668682Y1076318D01*
X667671Y1075000D01*
X670000D01*
Y1077329D01*
D02*
G37*
G36*
X795000Y1077329D02*
Y1075000D01*
X797329D01*
X796318Y1076318D01*
X795000Y1077329D01*
D02*
G37*
G36*
X785000D02*
X783682Y1076318D01*
X782671Y1075000D01*
X785000D01*
Y1077329D01*
D02*
G37*
G36*
X682329Y1065000D02*
X680000D01*
Y1062671D01*
X681318Y1063682D01*
X682329Y1065000D01*
D02*
G37*
G36*
X797329Y1065000D02*
X795000D01*
Y1062671D01*
X796318Y1063682D01*
X797329Y1065000D01*
D02*
G37*
G36*
X785000D02*
X782671D01*
X783682Y1063682D01*
X785000Y1062671D01*
Y1065000D01*
D02*
G37*
G36*
X670000Y1065000D02*
X667671D01*
X668682Y1063682D01*
X670000Y1062671D01*
Y1065000D01*
D02*
G37*
G36*
X591185Y1032787D02*
X577025D01*
Y1018627D01*
X591185D01*
Y1020506D01*
X592225D01*
X593561Y1019613D01*
X596000Y1019128D01*
X598439Y1019613D01*
X600506Y1020994D01*
X601887Y1023061D01*
X602373Y1025500D01*
X601887Y1027939D01*
X600506Y1030006D01*
X598439Y1031387D01*
X596000Y1031872D01*
X593561Y1031387D01*
X592535Y1030702D01*
X591185D01*
Y1032787D01*
D02*
G37*
G36*
X591330Y962830D02*
X577170D01*
Y948670D01*
X591330D01*
Y950652D01*
X592266D01*
X593603Y949759D01*
X596041Y949274D01*
X598480Y949759D01*
X600547Y951141D01*
X601929Y953208D01*
X602414Y955647D01*
X601929Y958085D01*
X600547Y960153D01*
X598480Y961534D01*
X596041Y962019D01*
X593603Y961534D01*
X592576Y960848D01*
X591330D01*
Y962830D01*
D02*
G37*
G36*
X795000Y917329D02*
Y915000D01*
X797329D01*
X796318Y916318D01*
X795000Y917329D01*
D02*
G37*
G36*
X785000D02*
X783682Y916318D01*
X782671Y915000D01*
X785000D01*
Y917329D01*
D02*
G37*
G36*
X680000D02*
Y915000D01*
X682329D01*
X681318Y916318D01*
X680000Y917329D01*
D02*
G37*
G36*
X670000Y917329D02*
X668682Y916318D01*
X667671Y915000D01*
X670000D01*
Y917329D01*
D02*
G37*
G36*
X682329Y905000D02*
X680000D01*
Y902671D01*
X681318Y903682D01*
X682329Y905000D01*
D02*
G37*
G36*
X797329Y905000D02*
X795000D01*
Y902671D01*
X796318Y903682D01*
X797329Y905000D01*
D02*
G37*
G36*
X785000D02*
X782671D01*
X783682Y903682D01*
X785000Y902671D01*
Y905000D01*
D02*
G37*
G36*
X670000Y905000D02*
X667671D01*
X668682Y903682D01*
X670000Y902671D01*
Y905000D01*
D02*
G37*
G36*
X594080Y858332D02*
X579920D01*
Y844172D01*
X594080D01*
Y846154D01*
X595016D01*
X596353Y845261D01*
X598791Y844776D01*
X601230Y845261D01*
X603297Y846642D01*
X604679Y848710D01*
X605164Y851148D01*
X604679Y853587D01*
X603297Y855654D01*
X601230Y857036D01*
X598791Y857521D01*
X596353Y857036D01*
X595326Y856350D01*
X594080D01*
Y858332D01*
D02*
G37*
G36*
X314500Y356552D02*
X299760D01*
Y350956D01*
X314500D01*
Y356552D01*
D02*
G37*
G36*
X295760D02*
X281020D01*
Y350956D01*
X295760D01*
Y356552D01*
D02*
G37*
G36*
X314500Y346955D02*
X299760D01*
Y341359D01*
X314500D01*
Y346955D01*
D02*
G37*
G36*
X295760D02*
X281020D01*
Y341359D01*
X295760D01*
Y346955D01*
D02*
G37*
G36*
X311956Y421580D02*
X307376D01*
Y417000D01*
X311956D01*
Y421580D01*
D02*
G37*
G36*
X303376D02*
X298796D01*
Y417000D01*
X303376D01*
Y421580D01*
D02*
G37*
G36*
X311956Y413000D02*
X307376D01*
Y408420D01*
X311956D01*
Y413000D01*
D02*
G37*
G36*
X303376D02*
X298796D01*
Y408420D01*
X303376D01*
Y413000D01*
D02*
G37*
G36*
X369110Y356552D02*
X354370D01*
Y350956D01*
X369110D01*
Y356552D01*
D02*
G37*
G36*
Y346955D02*
X354370D01*
Y341359D01*
X369110D01*
Y346955D01*
D02*
G37*
G36*
X350370D02*
X335630D01*
Y341359D01*
X350370D01*
Y346955D01*
D02*
G37*
G36*
X415596Y277240D02*
X412500D01*
Y265000D01*
X415596D01*
Y277240D01*
D02*
G37*
G36*
X488096D02*
X485000D01*
Y265000D01*
X488096D01*
Y277240D01*
D02*
G37*
G36*
X402500D02*
X399404D01*
Y265000D01*
X402500D01*
Y277240D01*
D02*
G37*
G36*
X475000D02*
X471904D01*
Y265000D01*
X475000D01*
Y277240D01*
D02*
G37*
G36*
X488096Y255000D02*
X485000D01*
Y242760D01*
X488096D01*
Y255000D01*
D02*
G37*
G36*
X475000D02*
X471904D01*
Y242760D01*
X475000D01*
Y255000D01*
D02*
G37*
G36*
X415596D02*
X412500D01*
Y242760D01*
X415596D01*
Y255000D01*
D02*
G37*
G36*
X402500D02*
X399404D01*
Y242760D01*
X402500D01*
Y255000D01*
D02*
G37*
G36*
X334680Y168506D02*
X326687D01*
Y164053D01*
X334680D01*
Y168506D01*
D02*
G37*
G36*
X554435Y350096D02*
X539695D01*
Y344500D01*
X554435D01*
Y350096D01*
D02*
G37*
G36*
Y340500D02*
X539695D01*
Y334904D01*
X554435D01*
Y340500D01*
D02*
G37*
G36*
X488096Y331850D02*
X485000D01*
Y319610D01*
X488096D01*
Y331850D01*
D02*
G37*
G36*
X415596D02*
X412500D01*
Y319610D01*
X415596D01*
Y331850D01*
D02*
G37*
G36*
X475000D02*
X471904D01*
Y319610D01*
X475000D01*
Y331850D01*
D02*
G37*
G36*
X402500D02*
X399404D01*
Y319610D01*
X402500D01*
Y331850D01*
D02*
G37*
G36*
X725455Y333416D02*
X722359D01*
Y321176D01*
X725455D01*
Y333416D01*
D02*
G37*
G36*
X712359D02*
X709263D01*
Y321176D01*
X712359D01*
Y333416D01*
D02*
G37*
G36*
X652918Y332259D02*
X649822D01*
Y320019D01*
X652918D01*
Y332259D01*
D02*
G37*
G36*
X725455Y311176D02*
X722359D01*
Y298937D01*
X725455D01*
Y311176D01*
D02*
G37*
G36*
X712359D02*
X709263D01*
Y298937D01*
X712359D01*
Y311176D01*
D02*
G37*
G36*
X652918Y310019D02*
X649822D01*
Y297779D01*
X652918D01*
Y310019D01*
D02*
G37*
G36*
X124310Y134931D02*
X121000D01*
Y130621D01*
X124310D01*
Y134931D01*
D02*
G37*
G36*
X305066Y167363D02*
X300756D01*
Y164053D01*
X305066D01*
Y167363D01*
D02*
G37*
G36*
Y160054D02*
X300756D01*
Y156743D01*
X305066D01*
Y160054D01*
D02*
G37*
G36*
X535313Y172792D02*
X535313Y172792D01*
X527086D01*
X527086Y172792D01*
X525916Y172560D01*
X525343Y172177D01*
X521500D01*
X521182Y171859D01*
X520558Y171442D01*
X520558Y171442D01*
X520058Y170942D01*
X519641Y170318D01*
X519500Y170177D01*
Y169698D01*
X519461Y169500D01*
X519461Y169500D01*
X519461Y164000D01*
X519500Y163804D01*
X519500Y155177D01*
Y152500D01*
X519500Y152500D01*
X519461Y152000D01*
Y146500D01*
X519461Y146500D01*
X519500Y146302D01*
Y146177D01*
X519531Y146146D01*
X519616Y145720D01*
X520058Y145058D01*
X520558Y144558D01*
X520558Y144558D01*
X521220Y144116D01*
X521646Y144031D01*
X523500Y142177D01*
X536500D01*
X538058Y143735D01*
X538702Y143305D01*
X540750Y142897D01*
X542798Y143305D01*
X544535Y144465D01*
X545695Y146202D01*
X546103Y148250D01*
X545695Y150298D01*
X544578Y151971D01*
Y161481D01*
X544578Y161481D01*
X544345Y162652D01*
X543682Y163644D01*
X543682Y163644D01*
X543000Y164326D01*
Y167677D01*
X538500Y172177D01*
X537057D01*
X536484Y172560D01*
X535313Y172792D01*
D02*
G37*
%LPD*%
D13*
X298815Y961442D02*
X300257Y960000D01*
X288933Y961442D02*
X298815D01*
X300257Y960000D02*
X318500D01*
X286750Y948250D02*
X307503D01*
X269500Y965500D02*
X286750Y948250D01*
X198294Y964206D02*
Y1130206D01*
X183000Y1145500D02*
X198294Y1130206D01*
X319308Y921250D02*
X325000Y926942D01*
X313750Y921250D02*
X319308D01*
X310000Y917500D02*
X313750Y921250D01*
X614253Y775775D02*
X634500D01*
X604528Y785500D02*
X614253Y775775D01*
X348000Y627000D02*
Y823000D01*
X373000Y848000D01*
X348000Y627000D02*
X375000Y600000D01*
X328391Y439424D02*
X328968Y440000D01*
X356000D01*
X351000Y471500D02*
X353500Y469000D01*
X363535D02*
X365000Y467536D01*
Y461500D02*
Y467536D01*
X353500Y469000D02*
X363535D01*
X421826Y416670D02*
X423330D01*
X419000Y419496D02*
X421826Y416670D01*
X412500Y440000D02*
X419000Y433500D01*
X423330Y416670D02*
X433732Y406268D01*
X419000Y419496D02*
Y433500D01*
X576795Y739705D02*
X589084D01*
X476516Y839984D02*
X576795Y739705D01*
X589084D02*
X592790Y735999D01*
X603471Y737675D02*
X634500D01*
X592790Y735999D02*
X601795D01*
X603471Y737675D01*
X307503Y948250D02*
X309203Y949950D01*
X316750D01*
X251044Y975431D02*
X282724Y943750D01*
X310617Y945000D02*
X318500D01*
X282724Y943750D02*
X309367D01*
X310617Y945000D01*
X269500Y965500D02*
Y982500D01*
X320008Y1033008D02*
X321508D01*
X269500Y982500D02*
X320008Y1033008D01*
X233894Y958281D02*
X251044Y975431D01*
X321508Y1033008D02*
X370750Y1082250D01*
X233894Y957525D02*
Y958281D01*
X292433Y1016820D02*
X294851D01*
X304669Y1026638D01*
X251044Y975431D02*
X292433Y1016820D01*
X360000Y1084034D02*
Y1084500D01*
X304669Y1026638D02*
Y1028703D01*
X360000Y1084034D01*
X280999Y1094001D02*
X370750D01*
Y1082250D02*
Y1094001D01*
X397792D01*
X234500Y1140500D02*
X280999Y1094001D01*
X385001Y1083999D02*
X397791D01*
X385000Y1084000D02*
X385001Y1083999D01*
X397791D02*
X397792Y1083998D01*
X214899Y1205730D02*
X215605Y1205024D01*
X219821Y1210000D02*
X226792D01*
X215605Y1205024D02*
X226768D01*
X214622Y1214225D02*
X215596D01*
X219821Y1210000D01*
X226768Y1205024D02*
X226792Y1205000D01*
X282500Y1212500D02*
X317500D01*
X257208Y1205000D02*
X275000D01*
X282500Y1212500D01*
X272500Y1210000D02*
X292500Y1230000D01*
X257208Y1210000D02*
X272500D01*
X292500Y1230000D02*
X317000D01*
X350972Y1241500D02*
X353152Y1239321D01*
X249500Y1220974D02*
X265526Y1237000D01*
X317000Y1230000D02*
X317500Y1229500D01*
X244524Y1224496D02*
X261528Y1241500D01*
X265526Y1237000D02*
X321107D01*
X261528Y1241500D02*
X350972D01*
X321107Y1237000D02*
X323286Y1234820D01*
X353152Y1239321D02*
X360536D01*
X323286Y1234820D02*
X352679D01*
X249500Y1217708D02*
Y1220974D01*
X352679Y1234820D02*
X355000Y1232500D01*
X362500Y848000D02*
Y887194D01*
X362347Y887347D02*
X362500Y887194D01*
X577445Y437950D02*
X595000D01*
X530450D02*
X577445D01*
X595000D02*
X597950D01*
X282000Y1100500D02*
X374500D01*
X375000Y1101000D01*
X239480Y1143020D02*
X282000Y1100500D01*
X443036Y1113376D02*
X455376D01*
X431585Y1132305D02*
X442717D01*
X443036Y1132624D01*
X434188Y1100490D02*
Y1111911D01*
X435653Y1113376D02*
X443036D01*
X434188Y1111911D02*
X435653Y1113376D01*
X455376D02*
X456000Y1114000D01*
X432724Y1099026D02*
X434188Y1100490D01*
X428208Y1099002D02*
X428232Y1099026D01*
X432724D01*
X373000Y848000D02*
Y858500D01*
X342500Y625000D02*
Y828000D01*
X362500Y848000D01*
X405600Y1088999D02*
X408000Y1086599D01*
X397792Y1088999D02*
X405600D01*
X408000Y1086500D02*
Y1086599D01*
X418000Y1086599D02*
X420400Y1088999D01*
X428208D01*
X300000Y582500D02*
X342500Y625000D01*
X476516Y839984D02*
Y937498D01*
X308468Y693968D02*
Y862079D01*
X310000Y863611D01*
X477500Y407732D02*
Y572500D01*
X375000Y600000D02*
X450000D01*
X477500Y572500D01*
X223186Y1231252D02*
X227830D01*
X234500Y1217708D02*
Y1224583D01*
X223058Y1231379D02*
X223186Y1231252D01*
X227830D02*
X234500Y1224583D01*
X239399Y1231098D02*
X239476Y1231021D01*
Y1217732D02*
Y1231021D01*
Y1217732D02*
X239500Y1217708D01*
X363715Y1242500D02*
X365000D01*
X244524Y1217732D02*
Y1224496D01*
X360536Y1239321D02*
X363715Y1242500D01*
X244500Y1217708D02*
X244524Y1217732D01*
X259603Y1167897D02*
X269603D01*
X270000Y1167500D01*
X249500Y1178000D02*
X259603Y1167897D01*
X355000Y1232500D02*
X377500D01*
X281186Y1200000D02*
X286186Y1205000D01*
X257208Y1200000D02*
X281186D01*
X286186Y1205000D02*
X287500D01*
X302500Y1195000D02*
X302500Y1195000D01*
X282806Y1195000D02*
X302500D01*
X244500Y1168000D02*
Y1187292D01*
Y1168000D02*
X257500Y1155000D01*
X239480Y1143020D02*
Y1171973D01*
X239500Y1171993D01*
Y1187292D01*
X116250Y847050D02*
Y871250D01*
X140000Y895000D01*
X152500Y888000D02*
Y895000D01*
X152500Y895000D01*
X128950Y864450D02*
X152500Y888000D01*
X128950Y847050D02*
Y864450D01*
X124354Y894854D02*
X125000Y895500D01*
X60000Y894854D02*
X124354D01*
X40050Y845000D02*
Y874904D01*
X60000Y894854D01*
X27350Y880150D02*
X52700Y905500D01*
X27350Y845000D02*
Y880150D01*
X294000Y679500D02*
X308468Y693968D01*
X310000Y863611D02*
Y917500D01*
X325000Y926942D02*
Y928500D01*
X540194Y785500D02*
X604528D01*
X433732Y406268D02*
X476035D01*
X477500Y407732D01*
X404000Y440000D02*
X412500D01*
X300000Y500000D02*
Y582500D01*
Y500000D02*
X345000Y455000D01*
X356000D01*
X294000Y645000D02*
Y679500D01*
Y640595D02*
Y645000D01*
X269624D02*
X294000D01*
Y633757D02*
Y640595D01*
X261243Y601000D02*
X294000Y633757D01*
X157000Y569000D02*
X189000Y601000D01*
X261243D01*
X157000Y548670D02*
Y569000D01*
X395000Y467500D02*
X397500Y470000D01*
X403496D01*
X406595Y478185D02*
X408874Y480464D01*
X403496Y470000D02*
X406595Y473098D01*
Y478185D01*
X234500Y1140500D02*
Y1187292D01*
X333988Y445000D02*
X356000D01*
X331218Y447770D02*
X333988Y445000D01*
X330000Y447770D02*
X331218D01*
X249500Y1178000D02*
Y1187292D01*
X157625Y1272750D02*
Y1284125D01*
X169248Y1147500D02*
X171248Y1145500D01*
X183000D02*
Y1190500D01*
X171248Y1145500D02*
X183000D01*
Y1190500D02*
X187500Y1195000D01*
X483263Y842431D02*
Y921500D01*
X457020Y956994D02*
X476516Y937498D01*
X483263Y842431D02*
X540194Y785500D01*
X448243Y1028500D02*
X457020Y1019723D01*
Y956994D02*
Y1019723D01*
X432000Y1028500D02*
X448243D01*
X416823Y1068500D02*
X420502D01*
Y1076292D01*
X415501Y1069822D02*
Y1076292D01*
Y1069822D02*
X416823Y1068500D01*
X415501Y1106708D02*
Y1114329D01*
X416672Y1115500D01*
X420502Y1106708D02*
Y1115500D01*
X416672D02*
X420502D01*
X52700Y905500D02*
X117000D01*
X420502Y1039998D02*
Y1068500D01*
Y1039998D02*
X432000Y1028500D01*
X187500Y1195000D02*
X226792D01*
X157375Y1247625D02*
Y1261000D01*
X257208Y1195000D02*
X282806D01*
X282806Y1195000D01*
X442839Y1094001D02*
X445828Y1091012D01*
X428208Y1094001D02*
X440839D01*
X445828Y1084672D02*
Y1091012D01*
Y1084672D02*
X447000Y1083500D01*
X453000D01*
X351000Y471500D02*
Y480500D01*
D14*
X577124Y895876D02*
X584500D01*
X575680Y897320D02*
X577124Y895876D01*
X575680Y897320D02*
Y904640D01*
X586367Y1064409D02*
X595021D01*
X584400Y1066376D02*
X586367Y1064409D01*
X291000Y969500D02*
X305160D01*
X288510Y952500D02*
X305743D01*
X276000Y965010D02*
X288510Y952500D01*
X305160Y969500D02*
X307341Y967319D01*
Y967159D02*
X309500Y965000D01*
X307341Y967159D02*
Y967319D01*
X449320Y697180D02*
Y702318D01*
Y697180D02*
X449638Y696862D01*
X445160Y706478D02*
X449320Y702318D01*
X438252Y706500D02*
X438274Y706478D01*
X445160D01*
X559250Y889500D02*
Y905750D01*
X475000Y729000D02*
X477500Y726500D01*
X150308Y500500D02*
X150500Y500308D01*
X317500Y430000D02*
X318718D01*
X309048D02*
X317500D01*
X496500Y726500D02*
X500000Y730000D01*
X185054Y954947D02*
X292000Y848000D01*
Y826000D02*
Y848000D01*
X263922Y812672D02*
X301422D01*
X258000Y735500D02*
Y806750D01*
X263922Y812672D01*
X292394Y714894D02*
Y800606D01*
X292250Y800750D02*
X292394Y800606D01*
X289729Y712229D02*
X292394Y714894D01*
X300892Y703392D02*
Y777500D01*
X285150Y687650D02*
X300892Y703392D01*
X585000Y443000D02*
X595000D01*
X583250Y444750D02*
X585000Y443000D01*
X561257Y444750D02*
X583250D01*
X561129Y444621D02*
X561257Y444750D01*
X561000D02*
X561129Y444621D01*
X651500Y465500D02*
X659523D01*
X638967Y459533D02*
Y464328D01*
X640138Y465500D02*
X651500D01*
X638967Y464328D02*
X640138Y465500D01*
X643084Y442916D02*
X648101D01*
X653720Y448535D02*
X667447D01*
X648101Y442916D02*
X653720Y448535D01*
X643000Y443000D02*
X643084Y442916D01*
X317000Y865639D02*
Y912750D01*
X615125Y782125D02*
X634500D01*
X599374Y797876D02*
X615125Y782125D01*
X564000Y797876D02*
X599374D01*
X521064Y517267D02*
Y519326D01*
X521565Y519827D01*
Y765935D01*
X520202Y516405D02*
X521064Y517267D01*
X586617Y1175722D02*
X596000Y1185105D01*
X583222Y1175722D02*
X586617D01*
X611958Y1185105D02*
X613538Y1183525D01*
X596000Y1185105D02*
X611958D01*
X582500Y1175000D02*
X583222Y1175722D01*
X613538Y1183525D02*
X634500D01*
X560000Y1175000D02*
X582500D01*
X588500Y1189375D02*
X634500D01*
X587375Y1190500D02*
X588500Y1189375D01*
X566000Y1190500D02*
X587375D01*
X566000D02*
X566625Y1189875D01*
X588000Y1215257D02*
X588018Y1215275D01*
X188250Y123672D02*
X189422Y122500D01*
X207847D01*
X188250Y123672D02*
Y140750D01*
X197008Y127500D02*
X207847D01*
X195837Y128672D02*
Y138950D01*
Y128672D02*
X197008Y127500D01*
X195837Y138950D02*
X196698Y139811D01*
X526500Y155500D02*
X532750D01*
X526250Y155750D02*
X526500Y155500D01*
X523000Y151000D02*
X525250Y148750D01*
X540250D02*
X540750Y148250D01*
X532750Y155500D02*
X533250Y155000D01*
X524500Y155750D02*
X526250D01*
X525250Y148750D02*
X540250D01*
X568548Y430244D02*
X598800D01*
X599000Y430444D02*
Y431500D01*
X555730Y430230D02*
X568520D01*
X598800Y430244D02*
X599000Y430444D01*
X568520Y430230D02*
X568534Y430244D01*
X202290Y278165D02*
Y282290D01*
X205000Y285000D01*
X199054Y274929D02*
X202290Y278165D01*
X205000Y285000D02*
X224000D01*
X100000Y257064D02*
Y263776D01*
X98000Y255064D02*
X100000Y257064D01*
X98000Y253846D02*
Y255064D01*
X100400Y303800D02*
Y314176D01*
X399113Y426689D02*
X402782Y423020D01*
X404000D01*
X398369Y426689D02*
X399113D01*
X540584Y207084D02*
Y211747D01*
X444991Y169048D02*
Y170266D01*
X438279Y160279D02*
X441502Y163502D01*
X442521Y153116D02*
X443739D01*
X503881Y151000D02*
X508000D01*
X496144Y152722D02*
X499172Y155750D01*
X427250Y156000D02*
X439637D01*
X494926Y152722D02*
X496144D01*
X497503Y144622D02*
X503881Y151000D01*
X499172Y155750D02*
X506500D01*
X439637Y156000D02*
X442521Y153116D01*
X441502Y165559D02*
X444991Y169048D01*
X441502Y163502D02*
Y165559D01*
X229744Y81256D02*
X239000Y72000D01*
X255828D01*
X229744Y81256D02*
Y89913D01*
X643996Y469500D02*
X646088Y471592D01*
X634000Y466828D02*
X636671Y469500D01*
X643996D01*
X636659Y425399D02*
X648815D01*
X634200Y428928D02*
X634800Y428329D01*
X634200Y428928D02*
Y431300D01*
X634800Y427257D02*
Y428329D01*
Y427257D02*
X636659Y425399D01*
X648815D02*
X651534Y422679D01*
X603200Y428200D02*
X603800Y428800D01*
Y431300D01*
X600500Y425500D02*
X601443D01*
X576834Y421632D02*
X596632D01*
X603800Y431300D02*
X604000Y431500D01*
X603200Y427257D02*
Y428200D01*
X596632Y421632D02*
X600500Y425500D01*
X601443D02*
X603200Y427257D01*
X587731Y449000D02*
X588731Y448000D01*
X573198Y449000D02*
X587731D01*
X570218Y451980D02*
X573198Y449000D01*
X588731Y448000D02*
X595000D01*
X569000Y451980D02*
X570218D01*
X359800Y432000D02*
X360000Y432200D01*
Y433500D01*
X318718Y430000D02*
X320718Y432000D01*
X359800D01*
X341520Y424694D02*
Y425161D01*
X333784Y416958D02*
X341520Y424694D01*
Y425161D02*
X343568Y427209D01*
X362152D01*
X364200Y430900D02*
X365000Y431700D01*
X364200Y429257D02*
Y430900D01*
X362152Y427209D02*
X364200Y429257D01*
X395800D02*
X398369Y426689D01*
X395200Y430928D02*
X395800Y430328D01*
Y429257D02*
Y430328D01*
X395200Y430928D02*
Y433300D01*
X399000Y146000D02*
X399861Y146861D01*
X405079D02*
X408718Y150500D01*
X410500D01*
X399861Y146861D02*
X405079D01*
X399000Y146000D02*
Y146139D01*
X393943Y151196D02*
X399000Y146139D01*
X393943Y151196D02*
Y164771D01*
X400193Y154759D02*
X401411D01*
X402402Y155750D02*
X409000D01*
X401411Y154759D02*
X402402Y155750D01*
X393943Y164771D02*
X394350Y165178D01*
Y165838D01*
X398011Y169499D02*
X403188D01*
X403850Y160250D02*
X409000D01*
X400851Y163249D02*
X403850Y160250D01*
X403188Y169499D02*
X407687Y165000D01*
X394350Y165838D02*
X398011Y169499D01*
X400600Y163249D02*
X400851D01*
X407687Y165000D02*
X410500D01*
X425500Y150500D02*
X433668D01*
X434418Y149750D01*
X427000Y160250D02*
X427029Y160279D01*
X438279D01*
X489415Y169338D02*
X489415D01*
X498503Y160250D02*
X506500D01*
X489415Y169338D02*
X498503Y160250D01*
X523000Y165648D02*
X527086Y169734D01*
X528523Y160500D02*
X531507Y163484D01*
X526250Y160250D02*
X526500Y160500D01*
X528523D01*
X538975Y164025D02*
Y166073D01*
X535313Y169734D02*
X538975Y166073D01*
X524500Y160250D02*
X526250D01*
X538975Y164025D02*
X541519Y161481D01*
X527086Y169734D02*
X535313D01*
X531507Y163484D02*
X532725D01*
X540750Y148250D02*
X541519Y149019D01*
X155925Y80571D02*
Y94924D01*
X156785Y94063D02*
X158315D01*
X155925Y94924D02*
X156785Y94063D01*
X158315D02*
X165149Y87229D01*
Y80747D02*
Y87229D01*
Y80747D02*
X165625Y80271D01*
X149675Y91487D02*
Y97513D01*
Y91487D02*
X150149Y91012D01*
X149675Y97513D02*
X153336Y101174D01*
X154368D01*
X150149Y80747D02*
X150625Y80271D01*
X154368Y101174D02*
X155694Y102500D01*
X150149Y80747D02*
Y91012D01*
X224000Y70000D02*
Y90000D01*
X220000Y94000D02*
X224000Y90000D01*
X225000Y94657D02*
X229744Y89913D01*
X220000Y94000D02*
Y110347D01*
X225000Y94657D02*
Y110347D01*
X270500Y117500D02*
X281000Y128000D01*
X278624Y158000D02*
X281000Y155624D01*
Y128000D02*
Y155624D01*
X247153Y132500D02*
X247427Y132226D01*
X255782Y125750D02*
X257000D01*
X254306Y127226D02*
X255782Y125750D01*
X265250Y137500D02*
X266000Y138250D01*
X247153Y127500D02*
X247427Y127226D01*
X254306D01*
X247153Y137500D02*
X265250D01*
X251611Y132000D02*
X273000D01*
X247427Y132226D02*
X251385D01*
X251611Y132000D01*
X239000Y158456D02*
Y159189D01*
X235274Y149927D02*
Y154730D01*
X239000Y158456D01*
X207847Y142500D02*
Y145981D01*
X141236Y148325D02*
Y161328D01*
X206675Y147153D02*
X207847Y145981D01*
X142408Y147153D02*
X206675D01*
X141236Y148325D02*
X142408Y147153D01*
X245000Y306000D02*
Y447500D01*
X250000Y305343D02*
Y450000D01*
X224000Y285000D02*
X245000Y306000D01*
X219500Y253672D02*
Y278447D01*
X221290Y280237D01*
X224894D01*
X250000Y305343D01*
X197500Y467500D02*
X232000Y433000D01*
X219900Y397187D02*
X232000Y409286D01*
X196615Y461000D02*
X228000Y429615D01*
X219900Y410557D02*
Y430100D01*
X232000Y409286D02*
Y433000D01*
X236000Y363500D02*
Y439000D01*
X215000Y400000D02*
X228000Y413000D01*
X214343Y405000D02*
X219900Y410557D01*
X228000Y413000D02*
Y429615D01*
X185796Y405000D02*
X214343D01*
X200500Y328000D02*
X236000Y363500D01*
X200000Y475000D02*
X236000Y439000D01*
X176500Y462172D02*
Y491330D01*
X177672Y461000D02*
X196615D01*
X176500Y462172D02*
X177672Y461000D01*
X466000Y700597D02*
Y733828D01*
X464828Y735000D02*
X466000Y733828D01*
X462500Y697248D02*
X463672Y698420D01*
X425000Y735000D02*
X464828D01*
X463823Y698420D02*
X466000Y700597D01*
X463672Y698420D02*
X463823D01*
X462500Y686000D02*
Y697248D01*
X634445Y680580D02*
X634500Y680525D01*
X606177Y680580D02*
X634445D01*
X604597Y679000D02*
X606177Y680580D01*
X542500Y730000D02*
X593500Y679000D01*
X604597D01*
X284734Y495077D02*
X286234Y496577D01*
X284734Y437266D02*
Y495077D01*
X293750Y436733D02*
X293750Y436733D01*
Y598250D01*
X414846Y454800D02*
X415646Y454000D01*
X404200Y454800D02*
X414846D01*
X404000Y455000D02*
X404200Y454800D01*
X651509Y438000D02*
X653918Y440409D01*
X643000Y438000D02*
X651509D01*
X653918Y440409D02*
X655136D01*
X425000Y835000D02*
X475000Y785000D01*
X495000D01*
X407500Y855000D02*
X425000Y837500D01*
Y835000D02*
Y837500D01*
X304080Y924145D02*
X305185Y925250D01*
X304080Y909177D02*
Y924145D01*
X261998Y925250D02*
X305185D01*
X260000Y923252D02*
X261998Y925250D01*
X305185D02*
X314858Y934923D01*
X550000Y951209D02*
X556791Y958000D01*
X550000Y941293D02*
Y951209D01*
X563598Y958000D02*
X567250Y954349D01*
X561000Y948782D02*
Y950000D01*
X556791Y958000D02*
X563598D01*
X559250Y939500D02*
Y947032D01*
X567250Y947250D02*
Y954349D01*
X559250Y947032D02*
X561000Y948782D01*
X564000Y944000D02*
X567250Y947250D01*
X564000Y938300D02*
Y944000D01*
X540980Y902126D02*
X542198D01*
X537291Y905815D02*
X540980Y902126D01*
X533229Y905815D02*
X537291D01*
X532000Y907044D02*
X533229Y905815D01*
X532000Y907044D02*
Y915124D01*
X544833Y914167D02*
X549500Y918835D01*
Y920500D01*
X333750Y901718D02*
X335000Y902968D01*
X333750Y900500D02*
Y901718D01*
X335000Y902968D02*
Y928500D01*
X282234Y603734D02*
X301000Y622500D01*
X286234Y600734D02*
X315000Y629500D01*
X301000Y622500D02*
Y678500D01*
X282234Y498234D02*
Y603734D01*
X286234Y496577D02*
Y600734D01*
X332500Y712124D02*
Y725046D01*
X322750Y627250D02*
Y735376D01*
X332500D01*
X322750D02*
Y830250D01*
X318750Y849155D02*
X340000Y870405D01*
X318750Y690593D02*
Y849155D01*
X293750Y598250D02*
X322750Y627250D01*
X315273Y680720D02*
X315520Y680966D01*
X314750Y863389D02*
X317000Y865639D01*
X315520Y680966D02*
Y687363D01*
X322750Y830250D02*
X348377Y855877D01*
X315520Y687363D02*
X318750Y690593D01*
X301000Y678500D02*
X314750Y692250D01*
Y863389D01*
X234750Y747662D02*
X234964Y747876D01*
X234750Y735250D02*
Y747662D01*
X179500Y819250D02*
X180000Y818750D01*
Y810000D02*
Y818750D01*
X141650Y771650D02*
X180000Y810000D01*
X141650Y670000D02*
Y771650D01*
X303435Y908532D02*
X304080Y909177D01*
X301422Y812672D02*
X303435Y814684D01*
Y908532D01*
X246250Y723750D02*
X258000Y735500D01*
X588018Y1215275D02*
X595232D01*
X595250Y1215257D02*
X599586D01*
X587500Y1227757D02*
X599586D01*
X595232Y1215275D02*
X595250Y1215257D01*
X531900Y1085624D02*
X535980Y1081544D01*
Y1079574D02*
X541595Y1073959D01*
X535980Y1079574D02*
Y1081544D01*
X559400Y1076000D02*
X563150D01*
X564400Y1065547D02*
X565454Y1066600D01*
Y1067818D01*
X564400Y1058500D02*
Y1065547D01*
X549400Y1089036D02*
Y1091000D01*
X544614Y1084250D02*
X549400Y1089036D01*
X366500Y960000D02*
X368408D01*
X369208Y960800D01*
X408009D01*
X408776Y961567D01*
X427030D01*
X407202Y943500D02*
X412589D01*
X416089Y940000D02*
X440000D01*
X404639Y938111D02*
X409139D01*
X412589Y943500D02*
X416089Y940000D01*
X402750Y940000D02*
X404639Y938111D01*
X389719Y955000D02*
X390719Y956000D01*
X405702Y945000D02*
X407202Y943500D01*
X366576Y950077D02*
X409464D01*
X415650Y952730D02*
X427000D01*
X366500Y940000D02*
X402750D01*
X409139Y938111D02*
X410000Y937250D01*
X409464Y950077D02*
X409791Y949750D01*
X412380Y956000D02*
X415650Y952730D01*
X366500Y945000D02*
X405702D01*
X390719Y956000D02*
X412380D01*
X335076Y976577D02*
Y983741D01*
X335730Y984395D01*
X335000Y976500D02*
X335076Y976577D01*
X329480Y982214D02*
Y994020D01*
X318000Y1005500D02*
X329480Y994020D01*
X309500Y965000D02*
X318500D01*
X305743Y952500D02*
X308243Y955000D01*
X318500D01*
X276000Y965010D02*
Y975500D01*
X210750Y1105000D02*
X292159Y1023591D01*
Y1023320D02*
Y1023591D01*
X210000Y1117500D02*
X298169Y1029331D01*
X312590Y1013910D02*
X318000Y1008500D01*
X306630Y1008838D02*
X325000Y990468D01*
X312590Y1013910D02*
Y1014898D01*
X325000Y976500D02*
Y990468D01*
X111175Y1060376D02*
X124250D01*
X80000Y1029200D02*
X111175Y1060376D01*
X331752Y1275748D02*
X353250Y1254250D01*
X371770D01*
X363339Y1207500D02*
X480000D01*
X363169Y1207331D02*
X363339Y1207500D01*
X559150Y1075750D02*
X559400Y1076000D01*
X559150Y1060000D02*
Y1075750D01*
X564213Y1109307D02*
Y1127079D01*
X557963Y1120282D02*
Y1121500D01*
Y1120282D02*
X559150Y1119095D01*
Y1110000D02*
Y1119095D01*
X562792Y1128500D02*
X564213Y1127079D01*
X599605Y1215275D02*
X634500D01*
X599586Y1215257D02*
X599605Y1215275D01*
X600113Y1227230D02*
X633755D01*
X599586Y1227757D02*
X600113Y1227230D01*
X633755D02*
X634500Y1227975D01*
X542337Y1250163D02*
Y1260589D01*
X490513Y1189500D02*
X552500Y1251487D01*
Y1278243D02*
X554257Y1280000D01*
X552500Y1251487D02*
Y1278243D01*
X542337Y1260589D02*
X542500Y1260752D01*
X531853Y1278829D02*
X533025Y1280000D01*
X542500D01*
X487050Y1199550D02*
X531853Y1244353D01*
Y1278829D01*
X606625Y1253375D02*
X634500D01*
X522500Y1288243D02*
X532741Y1298484D01*
X568106D02*
X606865Y1259725D01*
X543672Y1294484D02*
X565516D01*
X606625Y1253375D01*
X532741Y1298484D02*
X568106D01*
X554257Y1280000D02*
X562500D01*
X572500D02*
X605475Y1247025D01*
X562500Y1280000D02*
X572500D01*
X605475Y1247025D02*
X634500D01*
X570000Y1305000D02*
X608925Y1266075D01*
X514257Y1305000D02*
X570000D01*
X608925Y1266075D02*
X634500D01*
X612762Y1282500D02*
X616488Y1278775D01*
X616411Y1284825D02*
X622064D01*
X601000Y1282500D02*
X612762D01*
X564000Y1319500D02*
X601000Y1282500D01*
X570014Y1324986D02*
X576250D01*
X570000Y1325000D02*
X570014Y1324986D01*
X576250D02*
X616411Y1284825D01*
X622064D02*
X622364Y1285125D01*
X634500D01*
X362355Y823840D02*
X364832D01*
X364915Y823756D02*
X380880D01*
X361494Y824701D02*
X362355Y823840D01*
X364832D02*
X364915Y823756D01*
X380880D02*
X390000Y832876D01*
X432500Y837500D02*
X480000Y790000D01*
X432347Y837653D02*
X432653D01*
X355000Y915000D02*
X432347Y837653D01*
X355000Y915000D02*
Y928500D01*
X480000Y790000D02*
X497500D01*
X495000Y785000D02*
X515000Y765000D01*
X404624Y852124D02*
X407500Y855000D01*
X390000Y852124D02*
X404624D01*
X350000Y912500D02*
X407500Y855000D01*
X340000Y870405D02*
Y928500D01*
X315000Y679953D02*
X315520Y680473D01*
X350000Y912500D02*
Y928500D01*
X345000Y902911D02*
Y928500D01*
X348377Y855877D02*
Y899534D01*
X345000Y902911D02*
X348377Y899534D01*
X180000Y180000D02*
X192500D01*
X172500Y187500D02*
X180000Y180000D01*
X577655Y472345D02*
X590500Y459500D01*
X577655Y478393D02*
X577686Y478424D01*
X577655Y472345D02*
Y478393D01*
X336436Y473564D02*
Y474413D01*
Y473564D02*
X348500Y461500D01*
X215500Y723750D02*
X246250D01*
X217850Y700350D02*
X229729Y712229D01*
X289729D01*
X192250Y687650D02*
X285150D01*
X183259Y471741D02*
Y491071D01*
X187500Y467500D02*
X197500D01*
X183259Y471741D02*
X187500Y467500D01*
X189500Y476172D02*
X190672Y475000D01*
X200000D01*
X189500Y476172D02*
Y491330D01*
X198670Y483830D02*
X240000Y442500D01*
X198670Y483830D02*
Y500500D01*
X240000Y347500D02*
Y442500D01*
X210000Y482500D02*
Y505000D01*
Y482500D02*
X245000Y447500D01*
X215000Y485000D02*
X250000Y450000D01*
X215000Y485000D02*
Y512328D01*
X219794Y327294D02*
X240000Y347500D01*
X200500Y305696D02*
Y328000D01*
X219500Y305696D02*
X219794Y305990D01*
Y327294D01*
X224000Y31574D02*
Y50752D01*
X223855Y31428D02*
X224000Y31574D01*
X177981Y668231D02*
X179750Y670000D01*
X177981Y657555D02*
Y668231D01*
X167050Y670000D02*
X169639Y667411D01*
Y658508D02*
Y667411D01*
X210000Y1105000D02*
X210750D01*
X461902Y1052314D02*
X461964Y1052376D01*
X443705Y1052117D02*
X443964Y1052376D01*
X410000Y1155000D02*
X420000Y1145000D01*
X409866Y927227D02*
X410000Y927093D01*
Y910000D02*
Y927093D01*
X396000Y927500D02*
X437500D01*
X415504Y1035000D02*
X420502Y1039998D01*
X405000Y1035000D02*
X415504D01*
X512500Y528422D02*
X515000Y530922D01*
Y765000D01*
X497500Y790000D02*
X521565Y765935D01*
X380000Y915000D02*
X527500Y767500D01*
Y503000D02*
Y767500D01*
X452500Y850000D02*
X535000Y767500D01*
Y527500D02*
Y767500D01*
X100000Y263776D02*
X100400Y264176D01*
X207847Y132500D02*
X225000D01*
X227500Y130000D01*
X259000Y158376D02*
X259376Y158000D01*
X259000Y158376D02*
Y168000D01*
X100400Y403800D02*
Y414176D01*
Y353800D02*
Y364176D01*
X210000Y266629D02*
Y276376D01*
X150500Y491330D02*
Y500308D01*
X141330Y500500D02*
X150308D01*
X210400Y417425D02*
X210460Y417485D01*
Y427446D01*
X305376Y415000D02*
Y426328D01*
X309048Y430000D01*
X210460Y427446D02*
X210520Y427506D01*
X427000Y155750D02*
X427250Y156000D01*
X141330Y507000D02*
X157000D01*
X141330Y513500D02*
X163500D01*
X157000Y507000D02*
X163500Y513500D01*
X170000Y520000D02*
X184335D01*
X151442Y538750D02*
X170000Y520192D01*
Y520000D02*
Y520192D01*
X149500Y539500D02*
X150250Y538750D01*
X141330Y539500D02*
X149500D01*
X150250Y538750D02*
X151442D01*
X32500Y1137500D02*
Y1157500D01*
Y1180000D01*
Y1193223D01*
X134375Y1053125D02*
X135000Y1052500D01*
X134375Y1053125D02*
Y1059751D01*
X133750Y1060376D02*
X134375Y1059751D01*
X184335Y520000D02*
X198670D01*
X296000Y904748D02*
Y915500D01*
X325000Y970000D02*
X335000Y960000D01*
X318500Y970000D02*
X325000D01*
X299261Y980244D02*
X311009D01*
X335000Y960000D02*
X342500Y952500D01*
X425000Y706500D02*
X438252D01*
X232376Y1265464D02*
X245288D01*
X237000Y1207500D02*
X242000Y1202500D01*
X245288Y1265464D02*
X245752Y1265000D01*
X353000Y1264500D02*
X365000D01*
X452500Y686000D02*
Y694000D01*
X449638Y696862D02*
X452500Y694000D01*
X548080Y416500D02*
X550768Y419188D01*
X540000Y416500D02*
X548080D01*
X550768Y419188D02*
Y425268D01*
X555730Y430230D01*
X651782Y453000D02*
X653782Y455000D01*
X643000Y453000D02*
X651782D01*
X653782Y455000D02*
X655000D01*
X475000Y726124D02*
Y729000D01*
Y736500D01*
X477500Y726500D02*
X496500D01*
X554750Y910250D02*
X559250Y905750D01*
X554750Y910250D02*
Y921500D01*
X462624Y1093464D02*
X463000Y1093840D01*
Y1104500D01*
X522500Y1250000D02*
Y1260752D01*
X502500Y1250000D02*
Y1260752D01*
X554650Y1080750D02*
Y1092000D01*
Y1080750D02*
X559150Y1076250D01*
X562500Y1250000D02*
Y1260752D01*
X650248Y1319500D02*
X650748Y1320000D01*
X237824Y91959D02*
X238511Y91272D01*
Y82685D02*
Y91272D01*
X124250Y959250D02*
X208500Y875000D01*
X250000D01*
X437500Y756500D02*
Y762750D01*
X185054Y954947D02*
Y1072447D01*
X564034Y1108634D02*
Y1109129D01*
X563900Y1108500D02*
X564034Y1108634D01*
Y1109129D02*
X564213Y1109307D01*
X551072Y1128500D02*
X562792D01*
X549923Y1110381D02*
Y1125078D01*
X551652Y1126808D02*
Y1127919D01*
X549923Y1125078D02*
X551652Y1126808D01*
X551072Y1128500D02*
X551652Y1127919D01*
X490000Y845000D02*
X537124Y797876D01*
X564000D01*
X490000Y845000D02*
Y939500D01*
X527500Y503000D02*
X577500Y453000D01*
X542500Y730000D02*
Y767679D01*
X462500Y847679D02*
X542500Y767679D01*
X437500Y927500D02*
X462500Y902500D01*
Y847679D02*
Y902500D01*
X388500Y935000D02*
X396000Y927500D01*
X452500Y850000D02*
Y877500D01*
X512500Y520000D02*
Y528422D01*
X422500Y737500D02*
X425000Y735000D01*
X422500Y737500D02*
Y755000D01*
X572500Y282500D02*
Y327500D01*
Y282500D02*
X582500Y272500D01*
X175000Y937500D02*
Y1060500D01*
Y937500D02*
X192500Y920000D01*
X143250Y956750D02*
X172500Y927500D01*
X143250Y956750D02*
Y1060376D01*
X125421Y1107500D02*
X150000D01*
X185054Y1072447D01*
X147875Y1087625D02*
X175000Y1060500D01*
X217806Y1200000D02*
X226792D01*
X197000Y1201652D02*
X199172Y1199480D01*
X217286D01*
X217806Y1200000D01*
X256248Y92782D02*
Y102828D01*
Y92782D02*
X257072Y91959D01*
X240000Y105172D02*
Y110347D01*
Y105172D02*
X241172Y104000D01*
X255077D01*
X256248Y102828D01*
X427876Y440376D02*
Y448454D01*
X427683Y448647D02*
X427876Y448454D01*
X314858Y934923D02*
X318424D01*
X183911Y275479D02*
X184461Y274929D01*
X187272D01*
X199054D01*
X187124Y242500D02*
Y249624D01*
X190000Y252500D02*
X218328D01*
X187124Y249624D02*
X190000Y252500D01*
X218328D02*
X219500Y253672D01*
X87374Y1179750D02*
X87874Y1179250D01*
X110250D01*
X47500Y1180000D02*
X67876D01*
X68126Y1179750D01*
X124250Y1106328D02*
X125421Y1107500D01*
X124250Y1087625D02*
Y1106328D01*
X82500Y1077500D02*
X140637D01*
X80000Y1080000D02*
X82500Y1077500D01*
X97775Y1087625D02*
X124250D01*
X80018Y1105382D02*
X97775Y1087625D01*
X124250Y959250D02*
Y1060376D01*
X97400Y1072000D02*
X140500D01*
X80000Y1054600D02*
X97400Y1072000D01*
X134393Y1088268D02*
Y1100821D01*
X133750Y1087625D02*
X134393Y1088268D01*
X141809Y1078672D02*
Y1084112D01*
X140637Y1077500D02*
X141809Y1078672D01*
X143250Y1087625D02*
X147875D01*
X143250Y1060376D02*
Y1069250D01*
X141809Y1084112D02*
X143250Y1085553D01*
Y1087625D01*
X140500Y1072000D02*
X143250Y1069250D01*
X50000Y460000D02*
X150000D01*
X157000Y467000D02*
Y491330D01*
X150000Y460000D02*
X157000Y467000D01*
X332500Y735376D02*
X332500Y735376D01*
X125000Y601751D02*
Y615000D01*
X124749Y601500D02*
X125000Y601751D01*
X318424Y934923D02*
X318500Y935000D01*
X335406Y454847D02*
X340253Y450000D01*
X334847Y454847D02*
X335406D01*
X340253Y450000D02*
X356000D01*
X274000Y490000D02*
X282234Y498234D01*
X233000Y490000D02*
X274000D01*
X86748Y1137500D02*
X90000Y1134248D01*
Y1125500D02*
Y1134248D01*
X204800Y713050D02*
X215500Y723750D01*
X192250Y713050D02*
X204800D01*
X193320Y775480D02*
X207330D01*
X192250Y776550D02*
X193320Y775480D01*
X193614Y739814D02*
X207041D01*
X192250Y738450D02*
X193614Y739814D01*
X192312Y751088D02*
X206752D01*
X192250Y751150D02*
X192312Y751088D01*
X192594Y764194D02*
X207041D01*
X192250Y763850D02*
X192594Y764194D01*
X659523Y465500D02*
X661408Y467385D01*
X661408D02*
X668376Y474353D01*
X661408Y467385D02*
X661408D01*
X590500Y459500D02*
X599000D01*
X400029Y431671D02*
X409963D01*
X400000Y431700D02*
X400029Y431671D01*
X667447Y448535D02*
X668376Y449464D01*
X668938Y425795D02*
X670000Y426857D01*
Y447840D01*
X668376Y449464D02*
X670000Y447840D01*
X639200Y432060D02*
X653541D01*
X639200Y431611D02*
Y432060D01*
X651534Y422679D02*
X652752D01*
X634000Y431500D02*
X634200Y431300D01*
X688891Y426500D02*
X711410D01*
X712036Y427126D01*
X688186Y425795D02*
X688891Y426500D01*
X395000Y461500D02*
Y467500D01*
X348500Y461500D02*
X360000D01*
X535000Y201500D02*
X540584Y207084D01*
X532951Y227951D02*
X535000Y230000D01*
X532951Y217997D02*
Y227951D01*
X575782Y420580D02*
X576834Y421632D01*
X563328Y420580D02*
X575782D01*
X559248Y416500D02*
X563328Y420580D01*
X577500Y453000D02*
X595000D01*
X361172Y986500D02*
X369000D01*
X360000Y976500D02*
Y985328D01*
X361172Y986500D01*
X602828Y465500D02*
X604000Y464328D01*
Y459500D02*
Y464328D01*
X590000Y469500D02*
Y478500D01*
Y469500D02*
X594000Y465500D01*
X602828D01*
X634000Y459500D02*
Y466828D01*
X646088Y471592D02*
Y476678D01*
X647874Y478464D01*
X395000Y433500D02*
X395200Y433300D01*
X326582Y416958D02*
X333784D01*
X324624Y415000D02*
X326582Y416958D01*
X365000Y431700D02*
Y433500D01*
X498785Y169500D02*
X504000D01*
X498597Y169688D02*
X498785Y169500D01*
X184244Y432869D02*
X184793Y433418D01*
X199324Y419000D02*
X200000Y418325D01*
X195000Y419000D02*
X199324D01*
X195000D02*
Y422113D01*
X184244Y432869D02*
X195000Y422113D01*
X146780Y433800D02*
X165163D01*
X165545Y433418D01*
X163876Y413500D02*
X165376Y415000D01*
X147380Y413500D02*
X163876D01*
X234959Y213041D02*
Y215928D01*
Y213041D02*
X236000Y212000D01*
X231749Y219139D02*
X234959Y215928D01*
X200861Y219139D02*
X231749D01*
X200000Y220000D02*
X200861Y219139D01*
X150000Y720000D02*
X165609D01*
X171359Y725750D01*
X192250D01*
X141312Y520018D02*
X141330Y520000D01*
X110054Y520018D02*
X141312D01*
X110036Y520036D02*
X110054Y520018D01*
X198670Y513500D02*
X213828D01*
X215000Y512328D01*
X198670Y507000D02*
X208000D01*
X210000Y505000D01*
X219500Y291172D02*
Y305696D01*
X200500Y303624D02*
Y305696D01*
X183000Y491330D02*
X183259Y491071D01*
X219900Y369900D02*
Y390176D01*
Y397187D01*
X184624Y406172D02*
X185796Y405000D01*
X184624Y406172D02*
Y415000D01*
X195000Y455000D02*
X219900Y430100D01*
X175000Y455000D02*
X195000D01*
X170000Y460000D02*
X175000Y455000D01*
X170000Y460000D02*
Y491330D01*
X200000Y418325D02*
Y440000D01*
X190000Y450000D02*
X200000Y440000D01*
X170000Y450000D02*
X190000D01*
X163500Y456500D02*
X170000Y450000D01*
X163500Y456500D02*
Y491330D01*
X200900Y390176D02*
Y398828D01*
X202072Y400000D01*
X215000D01*
X194406Y375734D02*
X199110Y380438D01*
Y388386D01*
X184690Y375734D02*
X194406D01*
X210460Y380483D02*
Y390115D01*
Y380483D02*
X210520Y380423D01*
X210000Y360000D02*
X219900Y369900D01*
X199110Y388386D02*
X200900Y390176D01*
X210400D02*
X210460Y390115D01*
X196425Y360000D02*
X210000D01*
X196405Y359981D02*
X196425Y360000D01*
X193725Y359981D02*
X196405D01*
X193229Y359485D02*
X193725Y359981D01*
X188725Y359485D02*
X193229D01*
X184645Y355405D02*
X188725Y359485D01*
X148280Y382300D02*
X152700D01*
X158533Y376467D01*
X164709D02*
X165442Y375734D01*
X146780Y383800D02*
X148280Y382300D01*
X158533Y376467D02*
X164709D01*
X157241Y363065D02*
X157737D01*
X165397Y355405D01*
X156806Y363500D02*
X157241Y363065D01*
X146380Y363500D02*
X156806D01*
X185256Y318869D02*
Y333022D01*
X185062Y333216D02*
X185256Y333022D01*
Y318869D02*
X196639Y307486D01*
X198710D01*
X200500Y305696D01*
X218328Y290000D02*
X219500Y291172D01*
X185213Y290000D02*
X218328D01*
X184042Y291172D02*
X185213Y290000D01*
X184042Y291172D02*
Y304068D01*
X210000Y303624D02*
Y314131D01*
X170625Y80271D02*
Y89375D01*
X507896Y165604D02*
X507957D01*
X504000Y169500D02*
X507896Y165604D01*
X541519Y149019D02*
Y161481D01*
X523000Y165500D02*
Y165648D01*
X429243Y165000D02*
X434411Y170168D01*
Y170183D01*
X428000Y165000D02*
X429243D01*
X257000Y56000D02*
Y70828D01*
X255828Y72000D02*
X257000Y70828D01*
X276248Y31376D02*
Y56000D01*
Y31376D02*
X276624Y31000D01*
X276248Y56000D02*
Y70049D01*
X247153Y117500D02*
X270500D01*
X235000Y149653D02*
X235274Y149927D01*
X220000Y149653D02*
Y157500D01*
X205000Y172500D02*
X220000Y157500D01*
X225000Y149653D02*
Y159265D01*
X222145Y162120D02*
Y174988D01*
Y162120D02*
X225000Y159265D01*
X215000Y149653D02*
Y156328D01*
X213828Y157500D02*
X215000Y156328D01*
X156147Y162353D02*
X156500Y162000D01*
X149188Y162353D02*
X156147D01*
X148016Y161181D02*
X149188Y162353D01*
X148016Y154188D02*
Y161181D01*
Y154188D02*
X149188Y153016D01*
X188308D01*
X192792Y157500D01*
X213828D01*
X140065Y162500D02*
X141236Y161328D01*
X133500Y162500D02*
X140065D01*
X133000Y162000D02*
X133500Y162500D01*
X205000Y172500D02*
Y177500D01*
X170625Y72697D02*
Y80271D01*
X169000Y91000D02*
Y96000D01*
X155694Y102500D02*
X177703D01*
X168929Y71000D02*
X170625Y72697D01*
X160625Y72172D02*
X161797Y71000D01*
X169000Y91000D02*
X170625Y89375D01*
X155625Y80271D02*
X155925Y80571D01*
X161797Y71000D02*
X168929D01*
X160625Y72172D02*
Y80271D01*
X180339Y68854D02*
X180482Y68997D01*
Y80128D01*
X180625Y80271D01*
X177703Y102500D02*
X178105Y102099D01*
X172500Y187500D02*
Y192500D01*
X427876Y425376D02*
Y440376D01*
X418889D02*
X427876D01*
X400000Y431700D02*
Y433500D01*
X315000Y629500D02*
Y679953D01*
X326000Y911339D02*
X330000Y915339D01*
X326000Y910500D02*
Y911339D01*
X330000Y915339D02*
Y928500D01*
X329480Y982214D02*
X330000Y981694D01*
Y976500D02*
Y981694D01*
X597275Y1196225D02*
X634500D01*
X597000Y1196500D02*
X597275Y1196225D01*
X502500Y1293243D02*
X514257Y1305000D01*
X542500Y1293313D02*
X543672Y1294484D01*
X542500Y1280000D02*
Y1293313D01*
X616488Y1278775D02*
X634500D01*
X47500Y1157500D02*
X67876D01*
X99000D02*
X110000Y1168500D01*
X87124Y1157500D02*
X99000D01*
X200691Y1294592D02*
X207782Y1287500D01*
X200691Y1294592D02*
Y1301433D01*
X200624Y1301500D02*
X200691Y1301433D01*
X197000Y1201652D02*
Y1219500D01*
X157250Y1272750D02*
X157625D01*
Y1284125D02*
X158000Y1284500D01*
X128950Y670000D02*
Y799450D01*
X158000Y828500D01*
X192250Y700350D02*
X217850D01*
X78150Y835510D02*
X83160Y830500D01*
X78150Y835510D02*
Y845000D01*
X83160Y830500D02*
X139000D01*
X68861Y698639D02*
X70960D01*
X90270Y672630D02*
X90850Y672050D01*
X90270Y672630D02*
Y679329D01*
X68000Y699500D02*
X68861Y698639D01*
X70960D02*
X90270Y679329D01*
X285000Y975500D02*
X291000Y969500D01*
X240000Y914500D02*
X247000Y907500D01*
X276000D01*
X239376Y645000D02*
X250376D01*
X531900Y1066376D02*
X553479D01*
X554650Y1060000D02*
Y1065204D01*
X553479Y1066376D02*
X554650Y1065204D01*
X366500Y940000D02*
X366500Y940000D01*
X366500Y935000D02*
X388500D01*
X402500Y970000D02*
X412000Y979500D01*
X412052Y970500D02*
X427000D01*
X412000Y979500D02*
X427000D01*
X406552Y965000D02*
X412052Y970500D01*
X366500Y950000D02*
X366576Y950077D01*
X366500Y955000D02*
X389719D01*
X265000Y1265000D02*
X276912D01*
X277376Y1265464D01*
X332500Y754624D02*
Y767500D01*
X283500Y934748D02*
X296000D01*
X384248Y1264500D02*
X399000D01*
X240000Y942500D02*
X260000D01*
X307500Y935000D02*
X312500Y940000D01*
X318500D01*
X296000Y934748D02*
X296252Y935000D01*
X307500D01*
X332500Y681473D02*
Y692876D01*
X240000Y914500D02*
Y923252D01*
X154350Y697850D02*
X166000Y709500D01*
X154350Y670000D02*
Y697850D01*
X318000Y1005500D02*
Y1008500D01*
X192250Y789250D02*
X204250D01*
X212500Y797500D01*
X490000Y1252500D02*
Y1278829D01*
X491172Y1280000D02*
X502500D01*
X490000Y1278829D02*
X491172Y1280000D01*
X452500Y1215000D02*
X490000Y1252500D01*
X480000Y1207500D02*
X512500Y1240000D01*
X363500Y1215000D02*
X452500D01*
X363000Y1215500D02*
X363500Y1215000D01*
X363000Y1189500D02*
X490513D01*
X78150Y672050D02*
Y679350D01*
X59000Y698500D02*
X78150Y679350D01*
X48419Y697081D02*
X66171Y679329D01*
X44000Y697500D02*
X44419Y697081D01*
X65450Y670000D02*
X66171Y670722D01*
Y679329D01*
X44419Y697081D02*
X48419D01*
X34000Y698500D02*
X52750Y679750D01*
X29000Y698500D02*
X34000D01*
X52750Y672050D02*
Y679750D01*
X363000Y1198500D02*
X430413D01*
X431464Y1199550D02*
X487050D01*
X430413Y1198500D02*
X431464Y1199550D01*
X205000Y828522D02*
Y847500D01*
X203828Y827350D02*
X205000Y828522D01*
X192250Y827350D02*
X203828D01*
X192250Y801950D02*
X192800Y802500D01*
X207500D01*
X212500Y807500D01*
Y817500D02*
Y822500D01*
X193743Y813157D02*
X208157D01*
X212500Y817500D01*
X192250Y814650D02*
X193743Y813157D01*
X47500Y1137500D02*
X67500D01*
X360000Y928500D02*
X381000D01*
X554650Y1042000D02*
X554775Y1041875D01*
X549900Y1036500D02*
Y1043500D01*
X545900Y1032500D02*
X549900Y1036500D01*
X545900Y1024500D02*
Y1032500D01*
Y1024500D02*
X549900Y1020500D01*
X560340D01*
X563201Y1023361D01*
X563761D01*
X554775Y1027625D02*
X554900Y1027500D01*
X554775Y1027625D02*
Y1041875D01*
X365070Y965000D02*
X406552D01*
X563761Y1023361D02*
Y1025783D01*
X563900Y1025922D02*
Y1039000D01*
X563761Y1025783D02*
X563900Y1025922D01*
X364834Y970000D02*
X402500D01*
X564500Y895756D02*
X565916Y897172D01*
Y898390D01*
X564500Y888000D02*
Y895756D01*
X547000Y1319500D02*
X564000D01*
X634463Y1202538D02*
X634500Y1202575D01*
X588037Y1202038D02*
X634463D01*
X588000Y1202500D02*
X588037Y1202538D01*
X597212Y1208712D02*
X634287D01*
X597000Y1208500D02*
X597212Y1208712D01*
X634287D02*
X634500Y1208925D01*
X596997Y1221507D02*
X597057Y1221566D01*
X634441D01*
X634500Y1221625D01*
X597000Y1234500D02*
X597088Y1234413D01*
X634412D01*
X634500Y1234325D01*
X512500Y1240000D02*
Y1278243D01*
X514257Y1280000D01*
X522500D01*
X355000Y992500D02*
X355011Y992511D01*
X355000Y976500D02*
Y992500D01*
X606865Y1259725D02*
X634500D01*
X522500Y1280000D02*
Y1288243D01*
X502500Y1280000D02*
Y1293243D01*
X570000Y1325000D02*
Y1340376D01*
X157250Y1261000D02*
X157375D01*
Y1247625D02*
X157500Y1247500D01*
X372500Y1275000D02*
Y1298876D01*
X369876Y1301500D02*
X372500Y1298876D01*
X331752Y1275748D02*
Y1301500D01*
X399000Y1255500D02*
Y1255624D01*
X444876Y1301500D01*
X407376Y1290876D02*
Y1301500D01*
X399000Y1274500D02*
Y1282500D01*
X407376Y1290876D01*
X257000Y1287500D02*
Y1301500D01*
X232000Y1287500D02*
X238748Y1294248D01*
Y1301500D01*
X207782Y1287500D02*
X209000D01*
X437500Y756500D02*
X456328D01*
X457500Y745748D02*
Y755328D01*
X437500Y745748D02*
Y756500D01*
X456328D02*
X457500Y755328D01*
X559250Y916296D02*
X560422Y915124D01*
X553578Y895876D02*
X554750Y894704D01*
Y889500D02*
Y894704D01*
X559250Y916296D02*
Y921500D01*
X554750Y871500D02*
X554875Y871375D01*
X532000Y895876D02*
X553578D01*
X560422Y915124D02*
X584500D01*
X550000Y866000D02*
Y873000D01*
X554875Y857125D02*
Y871375D01*
X546000Y862000D02*
X550000Y866000D01*
Y850000D02*
X560439D01*
X546000Y854000D02*
X550000Y850000D01*
X563861Y855283D02*
X564000Y855422D01*
X563301Y852861D02*
X563861D01*
Y855283D01*
X546000Y854000D02*
Y862000D01*
X554875Y857125D02*
X555000Y857000D01*
X564000Y855422D02*
Y868500D01*
X560439Y850000D02*
X563301Y852861D01*
X559150Y1086796D02*
Y1092000D01*
Y1086796D02*
X560322Y1085624D01*
X584400D01*
X294500Y1272782D02*
Y1301500D01*
X287218Y1265500D02*
X294500Y1272782D01*
X286000Y1265500D02*
X287218D01*
X404000Y445000D02*
X414265D01*
X418889Y440376D01*
X457500Y706500D02*
Y726500D01*
X437500D02*
X457500D01*
X440000Y681550D02*
X440250Y681300D01*
X441000D01*
X469000Y691500D02*
X475000Y697500D01*
Y706876D01*
X457500Y686000D02*
Y706500D01*
X469000Y681300D02*
Y691500D01*
X440000Y681550D02*
Y691500D01*
X467243Y425752D02*
X467500D01*
X467233Y425742D02*
X467243Y425752D01*
X447500Y425000D02*
X450981D01*
X463420Y425598D02*
X467233Y425742D01*
X451580Y425598D02*
X463420D01*
X450981Y425000D02*
X451580Y425598D01*
X447500Y425000D02*
X450981D01*
X447500D02*
X450981D01*
X447500D02*
X450981D01*
X427876Y425376D02*
X428252Y425000D01*
X447500D02*
X451580Y425598D01*
D23*
X324687Y162053D02*
D03*
X607969Y99000D02*
D03*
D24*
X307066Y162053D02*
D03*
X590348Y99000D02*
D03*
D25*
X119000Y111000D02*
D03*
D26*
Y128621D02*
D03*
D37*
X422500Y755000D02*
D03*
X410000Y1155000D02*
D03*
X405000Y1035000D02*
D03*
X560000Y1175000D02*
D03*
X410000Y910000D02*
D03*
D71*
X549900Y1043500D02*
D03*
Y1058500D02*
D03*
X550000Y873000D02*
D03*
Y888000D02*
D03*
X563900Y1108500D02*
D03*
Y1093500D02*
D03*
X564000Y938000D02*
D03*
Y923000D02*
D03*
D72*
X564400Y1043500D02*
D03*
Y1058500D02*
D03*
X564500Y873000D02*
D03*
Y888000D02*
D03*
X549400Y1108500D02*
D03*
Y1093500D02*
D03*
X549500Y938000D02*
D03*
Y923000D02*
D03*
D84*
X192125Y68518D02*
D03*
X134325D02*
D03*
D89*
X77500Y506500D02*
D03*
X17500D02*
D03*
X77500Y543500D02*
D03*
X17500D02*
D03*
Y602000D02*
D03*
X77500D02*
D03*
X17500Y565000D02*
D03*
X77500D02*
D03*
D90*
X605250Y1352250D02*
D03*
Y1364000D02*
D03*
X645000Y1352500D02*
D03*
Y1364250D02*
D03*
X157250Y1261000D02*
D03*
Y1272750D02*
D03*
X294745Y264743D02*
D03*
Y252993D02*
D03*
X534750D02*
D03*
Y264743D02*
D03*
X364750Y785250D02*
D03*
Y773500D02*
D03*
D91*
X309250Y135000D02*
D03*
X321000D02*
D03*
X723577Y1129274D02*
D03*
X735327D02*
D03*
X633000Y855500D02*
D03*
X621250D02*
D03*
D92*
X352370Y348955D02*
D03*
X297760D02*
D03*
X592305Y342500D02*
D03*
X537695D02*
D03*
D93*
X480000Y260000D02*
D03*
Y314610D02*
D03*
X717359Y261567D02*
D03*
Y316176D02*
D03*
X407500Y260000D02*
D03*
Y314610D02*
D03*
X644822Y260409D02*
D03*
Y315019D02*
D03*
D94*
X200500Y276376D02*
D03*
X210000D02*
D03*
X219500D02*
D03*
Y303624D02*
D03*
X210000D02*
D03*
X200500D02*
D03*
X219900Y417425D02*
D03*
X210400D02*
D03*
X200900D02*
D03*
Y390176D02*
D03*
X210400D02*
D03*
X219900D02*
D03*
X124250Y1060376D02*
D03*
X133750D02*
D03*
X143250D02*
D03*
Y1087625D02*
D03*
X133750D02*
D03*
X124250D02*
D03*
D95*
X97500Y601500D02*
D03*
Y592000D02*
D03*
Y582500D02*
D03*
X124749D02*
D03*
Y592000D02*
D03*
Y601500D02*
D03*
D96*
X123620Y275000D02*
D03*
X146380D02*
D03*
X123620Y305000D02*
D03*
X146380D02*
D03*
X124020Y333800D02*
D03*
X146780D02*
D03*
X123620Y363500D02*
D03*
X146380D02*
D03*
X124020Y383800D02*
D03*
X146780D02*
D03*
X124620Y413500D02*
D03*
X147380D02*
D03*
X123620Y255000D02*
D03*
X146380D02*
D03*
X124020Y433800D02*
D03*
X146780D02*
D03*
D97*
X223855Y16428D02*
D03*
Y31428D02*
D03*
D98*
X32500Y1137500D02*
D03*
X47500D02*
D03*
X32500Y1157500D02*
D03*
X47500D02*
D03*
X32500Y1180000D02*
D03*
X47500D02*
D03*
D99*
X278624Y158000D02*
D03*
X259376D02*
D03*
X457500Y706500D02*
D03*
X438252D02*
D03*
X250376Y645000D02*
D03*
X269624D02*
D03*
X78505Y628895D02*
D03*
X97753D02*
D03*
X428252Y425000D02*
D03*
X447500D02*
D03*
X668938Y425795D02*
D03*
X688186D02*
D03*
X324624Y415000D02*
D03*
X305376D02*
D03*
X559248Y416500D02*
D03*
X540000D02*
D03*
X241394Y174988D02*
D03*
X222145D02*
D03*
X257000Y56000D02*
D03*
X276248D02*
D03*
X276624Y31000D02*
D03*
X257376D02*
D03*
X313748Y1301500D02*
D03*
X294500D02*
D03*
X276248D02*
D03*
X257000D02*
D03*
X181376D02*
D03*
X200624D02*
D03*
X351000D02*
D03*
X331752D02*
D03*
X389124D02*
D03*
X369876D02*
D03*
X426624D02*
D03*
X407376D02*
D03*
X464124D02*
D03*
X444876D02*
D03*
X219500D02*
D03*
X238748D02*
D03*
X150000Y1147500D02*
D03*
X169248D02*
D03*
X165545Y433418D02*
D03*
X184793D02*
D03*
X165376Y415000D02*
D03*
X184624D02*
D03*
X165442Y375734D02*
D03*
X184690D02*
D03*
X165397Y355405D02*
D03*
X184645D02*
D03*
X165814Y333216D02*
D03*
X185062D02*
D03*
X164793Y304068D02*
D03*
X184042D02*
D03*
X164663Y275479D02*
D03*
X183911D02*
D03*
X167876Y242500D02*
D03*
X187124D02*
D03*
X88624Y1137250D02*
D03*
X69376D02*
D03*
X88124Y1157500D02*
D03*
X68876D02*
D03*
X87374Y1179750D02*
D03*
X68126D02*
D03*
X351000Y480500D02*
D03*
X370248D02*
D03*
X609248Y478500D02*
D03*
X590000D02*
D03*
X408874Y480464D02*
D03*
X389626D02*
D03*
X628626Y478464D02*
D03*
X647874D02*
D03*
X370000Y412500D02*
D03*
X350752D02*
D03*
X590752Y410500D02*
D03*
X610000D02*
D03*
X388590Y412690D02*
D03*
X407838D02*
D03*
X647000Y410500D02*
D03*
X627752D02*
D03*
X446748Y475000D02*
D03*
X427500D02*
D03*
X668376Y474353D02*
D03*
X687624D02*
D03*
X711087Y1154280D02*
D03*
X730335D02*
D03*
X731937Y654307D02*
D03*
X712689D02*
D03*
X650248Y1319500D02*
D03*
X631000D02*
D03*
X620752Y820000D02*
D03*
X640000D02*
D03*
X47124Y647464D02*
D03*
X27876D02*
D03*
X121381Y628895D02*
D03*
X140629D02*
D03*
X462624Y1093464D02*
D03*
X443376D02*
D03*
X446931Y448647D02*
D03*
X427683D02*
D03*
X668376Y449464D02*
D03*
X687624D02*
D03*
X257072Y91959D02*
D03*
X237824D02*
D03*
X384248Y1264500D02*
D03*
X365000D02*
D03*
X245752Y1265000D02*
D03*
X265000D02*
D03*
X62124Y942536D02*
D03*
X42876D02*
D03*
D100*
X437500Y745748D02*
D03*
Y726500D02*
D03*
X475000Y706876D02*
D03*
Y726124D02*
D03*
X332500Y712124D02*
D03*
Y692876D02*
D03*
Y754624D02*
D03*
Y735376D02*
D03*
X502500Y1280000D02*
D03*
Y1260752D02*
D03*
X522500Y1280000D02*
D03*
Y1260752D02*
D03*
X542500Y1280000D02*
D03*
Y1260752D02*
D03*
X562500Y1280000D02*
D03*
Y1260752D02*
D03*
X570000Y1340376D02*
D03*
Y1359624D02*
D03*
X564000Y797876D02*
D03*
Y817124D02*
D03*
X100400Y433424D02*
D03*
Y414176D02*
D03*
Y383424D02*
D03*
Y364176D02*
D03*
Y333424D02*
D03*
Y314176D02*
D03*
Y283424D02*
D03*
Y264176D02*
D03*
X260000Y942500D02*
D03*
Y923252D02*
D03*
X240000Y942500D02*
D03*
Y923252D02*
D03*
X224000Y70000D02*
D03*
Y50752D02*
D03*
X531900Y1085624D02*
D03*
Y1066376D02*
D03*
X532000Y915124D02*
D03*
Y895876D02*
D03*
X584400Y1066376D02*
D03*
Y1085624D02*
D03*
X584500Y895876D02*
D03*
Y915124D02*
D03*
X390000Y832876D02*
D03*
Y852124D02*
D03*
X442838Y626159D02*
D03*
Y645407D02*
D03*
X457500Y745748D02*
D03*
Y726500D02*
D03*
X482709Y679359D02*
D03*
Y660111D02*
D03*
X606036Y1176624D02*
D03*
Y1157376D02*
D03*
X612500Y653252D02*
D03*
Y672500D02*
D03*
X299261Y960996D02*
D03*
Y980244D02*
D03*
X296000Y915500D02*
D03*
Y934748D02*
D03*
X584105Y1044955D02*
D03*
Y1025707D02*
D03*
X587000Y851252D02*
D03*
Y870500D02*
D03*
X588036Y1110876D02*
D03*
Y1130124D02*
D03*
X584250Y955750D02*
D03*
Y936502D02*
D03*
X443036Y1113376D02*
D03*
Y1132624D02*
D03*
X443964Y1052376D02*
D03*
Y1071624D02*
D03*
X461964D02*
D03*
Y1052376D02*
D03*
X467500Y445000D02*
D03*
Y425752D02*
D03*
X712036Y427126D02*
D03*
Y446374D02*
D03*
X234964Y767124D02*
D03*
Y747876D02*
D03*
X137477Y110176D02*
D03*
Y129424D02*
D03*
D101*
X418000Y393500D02*
D03*
X389000D02*
D03*
X657000Y391500D02*
D03*
X628000D02*
D03*
X418000Y369500D02*
D03*
X389000D02*
D03*
X657000Y367500D02*
D03*
X628000D02*
D03*
X418000Y345500D02*
D03*
X389000D02*
D03*
X657000Y343500D02*
D03*
X628000D02*
D03*
X362500Y755165D02*
D03*
X391500D02*
D03*
X362500Y721500D02*
D03*
X391500D02*
D03*
X167000Y1179500D02*
D03*
X196000D02*
D03*
D102*
X502500Y659500D02*
D03*
Y688500D02*
D03*
D103*
X157671Y193229D02*
D03*
X139671D02*
D03*
X369000Y395500D02*
D03*
X351000D02*
D03*
X608000Y393500D02*
D03*
X590000D02*
D03*
X46500Y627500D02*
D03*
X28500D02*
D03*
X324750Y187183D02*
D03*
X306750D02*
D03*
D104*
X518000Y158000D02*
D03*
X420500D02*
D03*
X415500D02*
D03*
X513000D02*
D03*
D105*
X141330Y520000D02*
D03*
Y526500D02*
D03*
Y533000D02*
D03*
X198670Y526500D02*
D03*
Y539500D02*
D03*
Y513500D02*
D03*
Y507000D02*
D03*
Y500500D02*
D03*
Y533000D02*
D03*
Y520000D02*
D03*
X141330Y539500D02*
D03*
Y507000D02*
D03*
Y513500D02*
D03*
Y500500D02*
D03*
D106*
X183000Y548670D02*
D03*
X176500D02*
D03*
X170000D02*
D03*
X163500D02*
D03*
X157000D02*
D03*
X150500D02*
D03*
X189500D02*
D03*
X157000Y491330D02*
D03*
X189500D02*
D03*
X183000D02*
D03*
X176500D02*
D03*
X170000D02*
D03*
X163500D02*
D03*
X150500D02*
D03*
D107*
X170000Y520000D02*
D03*
D108*
X428208Y1099002D02*
D03*
X226792Y1210000D02*
D03*
X428208Y1088999D02*
D03*
X397792D02*
D03*
Y1099002D02*
D03*
Y1094001D02*
D03*
Y1083998D02*
D03*
X428208D02*
D03*
Y1094001D02*
D03*
X257208Y1195000D02*
D03*
Y1200000D02*
D03*
Y1205000D02*
D03*
Y1210000D02*
D03*
X226792Y1205000D02*
D03*
Y1200000D02*
D03*
Y1195000D02*
D03*
D109*
X14650Y670000D02*
D03*
Y845000D02*
D03*
X116250Y670000D02*
D03*
X103550D02*
D03*
X179750D02*
D03*
X167050D02*
D03*
X154350D02*
D03*
X52750D02*
D03*
X65450D02*
D03*
X78150D02*
D03*
X90850D02*
D03*
X128950D02*
D03*
X141650D02*
D03*
X179750Y845000D02*
D03*
X167050D02*
D03*
X154350D02*
D03*
X141650D02*
D03*
X128950D02*
D03*
X116250D02*
D03*
X103550D02*
D03*
X90850D02*
D03*
X78150D02*
D03*
X65450D02*
D03*
X52750D02*
D03*
X40050D02*
D03*
X27350D02*
D03*
X40050Y670000D02*
D03*
X27350D02*
D03*
D110*
X77850Y728500D02*
D03*
X91850D02*
D03*
X105850D02*
D03*
X77850Y742500D02*
D03*
X91850D02*
D03*
X77850Y756500D02*
D03*
X91850D02*
D03*
X105850Y742500D02*
D03*
Y756500D02*
D03*
D111*
X672000Y734500D02*
D03*
Y1237500D02*
D03*
D112*
X634500Y801175D02*
D03*
X709500D02*
D03*
Y788475D02*
D03*
Y744025D02*
D03*
Y724975D02*
D03*
Y680525D02*
D03*
X634500Y1304175D02*
D03*
X709500D02*
D03*
Y1291475D02*
D03*
Y1247025D02*
D03*
Y1227975D02*
D03*
Y1183525D02*
D03*
Y1170825D02*
D03*
Y1177175D02*
D03*
Y1189875D02*
D03*
Y1196225D02*
D03*
Y1202575D02*
D03*
Y1208925D02*
D03*
Y1215275D02*
D03*
Y1221625D02*
D03*
Y1234325D02*
D03*
Y1240675D02*
D03*
Y1253375D02*
D03*
Y1259725D02*
D03*
Y1266075D02*
D03*
Y1272425D02*
D03*
Y1278775D02*
D03*
Y1285125D02*
D03*
Y1297825D02*
D03*
X634500D02*
D03*
Y1291475D02*
D03*
Y1285125D02*
D03*
Y1278775D02*
D03*
Y1272425D02*
D03*
Y1266075D02*
D03*
Y1259725D02*
D03*
Y1253375D02*
D03*
Y1247025D02*
D03*
Y1240675D02*
D03*
Y1234325D02*
D03*
Y1227975D02*
D03*
Y1221625D02*
D03*
Y1215275D02*
D03*
Y1208925D02*
D03*
Y1202575D02*
D03*
Y1196225D02*
D03*
Y1189875D02*
D03*
Y1183525D02*
D03*
Y1177175D02*
D03*
Y1170825D02*
D03*
X709500Y667825D02*
D03*
Y674175D02*
D03*
Y686875D02*
D03*
Y693225D02*
D03*
Y699575D02*
D03*
Y705925D02*
D03*
Y712275D02*
D03*
Y718625D02*
D03*
Y731325D02*
D03*
Y737675D02*
D03*
Y750375D02*
D03*
Y756725D02*
D03*
Y763075D02*
D03*
Y769425D02*
D03*
Y775775D02*
D03*
Y782125D02*
D03*
Y794825D02*
D03*
X634500D02*
D03*
Y788475D02*
D03*
Y782125D02*
D03*
Y775775D02*
D03*
Y769425D02*
D03*
Y763075D02*
D03*
Y756725D02*
D03*
Y750375D02*
D03*
Y744025D02*
D03*
Y737675D02*
D03*
Y731325D02*
D03*
Y724975D02*
D03*
Y718625D02*
D03*
Y712275D02*
D03*
Y705925D02*
D03*
Y699575D02*
D03*
Y693225D02*
D03*
Y686875D02*
D03*
Y680525D02*
D03*
Y674175D02*
D03*
Y667825D02*
D03*
D113*
X242000Y1202500D02*
D03*
D114*
X554750Y921500D02*
D03*
X554650Y1092000D02*
D03*
X559250Y889500D02*
D03*
X559150Y1060000D02*
D03*
X554650Y1042000D02*
D03*
X559150D02*
D03*
X554650Y1060000D02*
D03*
X554750Y871500D02*
D03*
X559250D02*
D03*
X554750Y889500D02*
D03*
X559150Y1110000D02*
D03*
X554650D02*
D03*
X559150Y1092000D02*
D03*
X559250Y939500D02*
D03*
X554750D02*
D03*
X559250Y921500D02*
D03*
D115*
X413000Y1091500D02*
D03*
D116*
X342500Y952500D02*
D03*
D117*
X318500Y970000D02*
D03*
X366500Y935000D02*
D03*
Y940000D02*
D03*
Y945000D02*
D03*
Y950000D02*
D03*
Y955000D02*
D03*
Y960000D02*
D03*
Y965000D02*
D03*
Y970000D02*
D03*
X318500Y965000D02*
D03*
Y960000D02*
D03*
Y955000D02*
D03*
Y950000D02*
D03*
Y945000D02*
D03*
Y940000D02*
D03*
Y935000D02*
D03*
D118*
X461500Y674100D02*
D03*
D119*
X452500Y686000D02*
D03*
X462500D02*
D03*
X457500D02*
D03*
X447500D02*
D03*
D120*
X506500Y160250D02*
D03*
X409000D02*
D03*
X427000Y155750D02*
D03*
Y160250D02*
D03*
X409000Y155750D02*
D03*
X506500D02*
D03*
X524500Y160250D02*
D03*
Y155750D02*
D03*
D121*
X643000Y453000D02*
D03*
X595000Y448000D02*
D03*
X404000Y455000D02*
D03*
X356000D02*
D03*
Y450000D02*
D03*
Y445000D02*
D03*
Y440000D02*
D03*
X404000D02*
D03*
Y445000D02*
D03*
Y450000D02*
D03*
X595000Y453000D02*
D03*
Y443000D02*
D03*
Y438000D02*
D03*
X643000D02*
D03*
Y443000D02*
D03*
Y448000D02*
D03*
D122*
X619000Y445500D02*
D03*
X380000Y447500D02*
D03*
D123*
X599000Y431500D02*
D03*
X360000Y433500D02*
D03*
X365000D02*
D03*
X395000D02*
D03*
X400000D02*
D03*
Y461500D02*
D03*
X395000D02*
D03*
X365000D02*
D03*
X360000D02*
D03*
X604000Y431500D02*
D03*
X634000D02*
D03*
X639000D02*
D03*
Y459500D02*
D03*
X634000D02*
D03*
X604000D02*
D03*
X599000D02*
D03*
D124*
X195125Y77518D02*
D03*
Y83518D02*
D03*
X131125Y77518D02*
D03*
Y83518D02*
D03*
X139125D02*
D03*
X187125D02*
D03*
X139125Y77518D02*
D03*
X187125D02*
D03*
D125*
X227500Y130000D02*
D03*
D126*
X207847Y132500D02*
D03*
Y142500D02*
D03*
Y137500D02*
D03*
Y127500D02*
D03*
Y122500D02*
D03*
Y117500D02*
D03*
X247153D02*
D03*
Y122500D02*
D03*
Y127500D02*
D03*
Y132500D02*
D03*
Y137500D02*
D03*
Y142500D02*
D03*
D127*
X215000Y110347D02*
D03*
X220000D02*
D03*
X225000D02*
D03*
X230000D02*
D03*
X235000D02*
D03*
X240000D02*
D03*
Y149653D02*
D03*
X235000D02*
D03*
X230000D02*
D03*
X225000D02*
D03*
X220000D02*
D03*
X215000D02*
D03*
D128*
X180625Y80271D02*
D03*
X160625D02*
D03*
X165625D02*
D03*
X150625D02*
D03*
X155625D02*
D03*
X170625D02*
D03*
X175625D02*
D03*
X145625D02*
D03*
D129*
X325167Y551044D02*
D03*
X435167D02*
D03*
X563846Y551685D02*
D03*
X673846D02*
D03*
D130*
X172500Y212250D02*
D03*
X199516Y199000D02*
D03*
Y205500D02*
D03*
Y212000D02*
D03*
X172500Y192500D02*
D03*
Y199000D02*
D03*
Y205500D02*
D03*
X199516Y192500D02*
D03*
X236000Y192250D02*
D03*
X208984Y205500D02*
D03*
Y199000D02*
D03*
Y192500D02*
D03*
X236000Y212000D02*
D03*
Y205500D02*
D03*
Y199000D02*
D03*
X208984Y212000D02*
D03*
D131*
X370000Y447500D02*
D03*
X375000D02*
D03*
X385000D02*
D03*
X390000D02*
D03*
X609000Y445500D02*
D03*
X614000D02*
D03*
X624000D02*
D03*
X629000D02*
D03*
D132*
X425500Y165000D02*
D03*
D133*
Y150500D02*
D03*
D134*
X410500D02*
D03*
D135*
X410500Y165000D02*
D03*
D136*
X508000Y151000D02*
D03*
D137*
Y165500D02*
D03*
D138*
X523000D02*
D03*
D139*
X523000Y151000D02*
D03*
D140*
X441000Y681300D02*
D03*
Y663300D02*
D03*
X469000Y681300D02*
D03*
D141*
X446500Y668300D02*
D03*
D142*
X463000Y662100D02*
D03*
D143*
X421444Y670500D02*
D03*
X365056D02*
D03*
D144*
X535000Y201500D02*
D03*
Y230000D02*
D03*
D145*
X156500Y162000D02*
D03*
X133000D02*
D03*
D146*
X325000Y928500D02*
D03*
X330000D02*
D03*
X335000D02*
D03*
X340000D02*
D03*
X345000D02*
D03*
X350000D02*
D03*
X355000D02*
D03*
X360000D02*
D03*
Y976500D02*
D03*
X355000D02*
D03*
X350000D02*
D03*
X345000D02*
D03*
X340000D02*
D03*
X335000D02*
D03*
X330000D02*
D03*
X325000D02*
D03*
D147*
X420502Y1106708D02*
D03*
X415501D02*
D03*
X410499D02*
D03*
X405498D02*
D03*
Y1076292D02*
D03*
X410499D02*
D03*
X415501D02*
D03*
X420502D02*
D03*
X239500Y1187292D02*
D03*
X249500Y1217708D02*
D03*
X244500D02*
D03*
X239500D02*
D03*
X234500D02*
D03*
Y1187292D02*
D03*
X244500D02*
D03*
X249500D02*
D03*
D148*
X556900Y1048500D02*
D03*
Y1053500D02*
D03*
X557000Y878000D02*
D03*
Y883000D02*
D03*
X556900Y1103500D02*
D03*
Y1098500D02*
D03*
X557000Y933000D02*
D03*
Y928000D02*
D03*
D149*
X733809Y1196402D02*
D03*
X754309D02*
D03*
X733500Y693500D02*
D03*
X754000D02*
D03*
X733654Y1220413D02*
D03*
X754154D02*
D03*
X733750Y717500D02*
D03*
X754250D02*
D03*
X733654Y1284411D02*
D03*
X754154D02*
D03*
X733750Y781500D02*
D03*
X754250D02*
D03*
X733785Y1259938D02*
D03*
X754285D02*
D03*
X733500Y756500D02*
D03*
X754000D02*
D03*
D150*
X167500Y1232500D02*
D03*
Y1207500D02*
D03*
D151*
X192250Y687650D02*
D03*
Y713050D02*
D03*
Y725750D02*
D03*
Y738450D02*
D03*
Y751150D02*
D03*
Y763850D02*
D03*
Y776550D02*
D03*
Y789250D02*
D03*
Y801950D02*
D03*
Y814650D02*
D03*
Y827350D02*
D03*
Y700350D02*
D03*
D152*
X672000Y1280175D02*
X696000Y1304175D01*
X685000Y1247025D02*
X709500D01*
X672000Y1267475D02*
X696000Y1291475D01*
X648000Y1304175D02*
X672000Y1280175D01*
X685000Y1227975D02*
X709500D01*
X696000Y724975D02*
Y744025D01*
X677500Y743750D02*
X685000Y751250D01*
X684000Y713500D02*
Y722500D01*
Y692525D02*
Y713500D01*
X687010Y473738D02*
X696500Y464248D01*
X447619Y447959D02*
X455874Y456214D01*
X684000Y692525D02*
X696000Y680525D01*
X709500D01*
X455874Y456214D02*
Y459091D01*
X456579Y459343D02*
X466908D01*
X455874Y459091D02*
X456352Y459570D01*
X456579Y459343D01*
X15371Y890289D02*
X15909Y890828D01*
X48000Y917500D02*
X155000D01*
X15909Y890828D02*
X21328D01*
X48000Y917500D01*
X617376Y1157376D02*
X629250Y1169250D01*
X606036Y1157376D02*
X617376D01*
X629250Y1169250D02*
Y1170825D01*
X634500D01*
X606036Y1176624D02*
X619639D01*
X619840Y1176825D01*
X627728D02*
X628078Y1177175D01*
X619840Y1176825D02*
X627728D01*
X628078Y1177175D02*
X634500D01*
X446931Y448647D02*
X447619Y447959D01*
X467134Y445366D02*
X467500Y445000D01*
X467134Y445366D02*
Y459117D01*
X466908Y459343D02*
X467134Y459117D01*
X455874Y460048D02*
X456352Y459570D01*
X455874Y460048D02*
Y465874D01*
X446748Y475000D02*
X455874Y465874D01*
X673750Y693750D02*
X675000Y692500D01*
X672000Y702500D02*
X673750Y700750D01*
Y693750D02*
Y700750D01*
X687624Y449464D02*
X690682Y452522D01*
X696022D01*
X696500Y453000D02*
X696980D01*
X696022Y452522D02*
X696500Y453000D01*
Y464248D01*
X711098Y456592D02*
X711567Y456123D01*
Y446843D02*
X712036Y446374D01*
X711567Y446843D02*
Y456123D01*
X696980Y453000D02*
X700863Y456883D01*
X710807D01*
X711098Y456592D01*
X687010Y473738D02*
X687624Y474353D01*
X639500Y801175D02*
X647750D01*
X634500Y1304175D02*
X648000D01*
X672000Y702500D02*
Y732500D01*
Y734500D02*
Y739500D01*
X673850Y741350D02*
Y751350D01*
X675000Y731500D02*
X684000Y722500D01*
X675000D02*
Y731500D01*
X672000Y739500D02*
X676250Y743750D01*
X672000Y734500D02*
X675000Y731500D01*
X660837Y758337D02*
X670837Y748337D01*
X647750Y801175D02*
X665000Y783925D01*
X673850Y751350D02*
X675000Y752500D01*
X685000D01*
X673850Y754025D02*
Y784025D01*
X675000Y782500D02*
X693675Y801175D01*
X675000Y722500D02*
X684000D01*
Y713500D02*
X685000Y712500D01*
X676250Y743750D02*
X677500D01*
X696000Y724975D02*
X709500D01*
X696000Y744025D02*
X709500D01*
X685000Y751250D02*
Y752500D01*
Y762500D01*
Y782500D01*
X690975Y788475D01*
X709500D01*
X693675Y801175D02*
X709500D01*
X672000Y1207525D02*
X696000Y1183525D01*
X672000Y1207525D02*
Y1215500D01*
Y1237500D02*
Y1267475D01*
X696000Y1183525D02*
X709500D01*
X696000Y1291475D02*
X709500D01*
X696000Y1304175D02*
X709500D01*
X672000Y1267475D02*
Y1280175D01*
X724825Y794825D02*
X725000Y795000D01*
X730103Y657387D02*
X733183Y654307D01*
X709500Y794825D02*
X724825D01*
X167500Y1198000D02*
Y1209500D01*
Y1198000D02*
X178000D01*
X167500Y1180000D02*
Y1198000D01*
X178000D02*
X187500Y1207500D01*
Y1237657D01*
X189843Y1240000D02*
X237534D01*
X187500Y1237657D02*
X189843Y1240000D01*
X237534D02*
X239877Y1237657D01*
Y1231576D02*
Y1237657D01*
X239399Y1231098D02*
X239877Y1231576D01*
X710752Y1154615D02*
X711087Y1154280D01*
X710752Y1154615D02*
Y1170825D01*
X709500D02*
X710752D01*
X112000Y413500D02*
X124620D01*
X112662Y363838D02*
X123282D01*
X123620Y363500D01*
X112324Y364176D02*
X112662Y363838D01*
X712689Y654307D02*
Y667825D01*
X709500D02*
X712689D01*
X155000Y917500D02*
X231188Y841312D01*
X259712D01*
X270000Y851600D01*
X236000Y192250D02*
X237400D01*
X241394Y188256D01*
Y174988D02*
Y188256D01*
X591376Y817124D02*
X592000Y816500D01*
X564000Y817124D02*
X591376D01*
X167000Y1231000D02*
X167500Y1230500D01*
X167000Y1231000D02*
Y1237500D01*
X709500Y1297825D02*
X724825D01*
X167000Y1179500D02*
X167500Y1180000D01*
X630000Y652500D02*
X634500Y657000D01*
Y667825D01*
X613252Y652500D02*
X630000D01*
X614175Y674175D02*
X634500D01*
D153*
X588036Y1132124D02*
X590036Y1130124D01*
X324750Y162117D02*
Y187183D01*
X324687Y162053D02*
X324750Y162117D01*
X17500Y506500D02*
Y520000D01*
X17500Y520000D02*
X17500Y520000D01*
Y565000D02*
Y577500D01*
X17500Y577500D02*
X17500Y577500D01*
X46500Y627500D02*
X60000D01*
X47124Y647464D02*
X59964D01*
X14650Y670000D02*
Y688615D01*
X152075Y628584D02*
X152386Y628273D01*
X140629Y628895D02*
X140940Y628584D01*
X152075D01*
X14825Y827675D02*
X15000Y827500D01*
X14825Y827675D02*
Y844825D01*
X14650Y845000D02*
X14825Y844825D01*
X607969Y47969D02*
Y99000D01*
X607000Y47000D02*
X607969Y47969D01*
X587000Y851252D02*
X598688D01*
X584105Y1025707D02*
X584209Y1025604D01*
X584250Y955750D02*
X595938D01*
X584209Y1025604D02*
X595896D01*
X596000Y1025500D01*
X590036Y1130124D02*
X599724D01*
X430009Y627491D02*
X441505D01*
X442838Y626159D01*
X421444Y636056D02*
Y670500D01*
Y636056D02*
X430009Y627491D01*
X28500Y627500D02*
Y668850D01*
X499250Y533074D02*
Y533750D01*
X495000Y528824D02*
X499250Y533074D01*
X495000Y435000D02*
Y528824D01*
X28500Y627500D02*
X28632Y627368D01*
Y613777D02*
Y627368D01*
Y613777D02*
X28764Y613645D01*
X78505Y628895D02*
X80502Y626898D01*
Y618983D02*
Y626898D01*
Y618983D02*
X80980Y618505D01*
D154*
X443705Y1052117D02*
X443870Y1051952D01*
X585000Y777500D02*
X600000D01*
X607575Y769925D02*
X634000D01*
X600000Y777500D02*
X607575Y769925D01*
X601629Y756725D02*
X634500D01*
X603877Y763075D02*
X634500D01*
X597420Y769533D02*
X603877Y763075D01*
X598400Y759953D02*
X601629Y756725D01*
X597453Y759953D02*
X598400D01*
X601575Y1241175D02*
X634000D01*
X600500Y1242250D02*
X601575Y1241175D01*
X577750Y1242250D02*
X600500D01*
X634000Y1241175D02*
X634500Y1240675D01*
X518000Y1182500D02*
X577750Y1242250D01*
X226250Y505000D02*
X255000D01*
X113972Y304975D02*
X123596D01*
X111947Y307000D02*
X113972Y304975D01*
X111000Y307000D02*
X111947D01*
X123596Y304975D02*
X123620Y305000D01*
X128544Y535456D02*
X133086D01*
X137020Y533028D02*
X141302D01*
X141330Y533000D01*
X135576Y534472D02*
X137020Y533028D01*
X120500Y543500D02*
Y554000D01*
X127250Y548262D02*
X127658Y548670D01*
X130429Y526500D02*
X141330D01*
X113250Y543679D02*
Y554250D01*
X134070Y534472D02*
X135576D01*
X133086Y535456D02*
X134070Y534472D01*
X120500Y543500D02*
X128544Y535456D01*
X113250Y543679D02*
X130429Y526500D01*
X127658Y548670D02*
X150500D01*
X97500Y582500D02*
X98790Y581210D01*
X106302D01*
X107512Y580000D02*
X109000D01*
X106302Y581210D02*
X107512Y580000D01*
X634145Y693580D02*
X634500Y693225D01*
X608895Y686852D02*
X634478D01*
X603447Y692455D02*
X604572Y693580D01*
X634478Y686852D02*
X634500Y686875D01*
X604572Y693580D02*
X634145D01*
X608872Y686830D02*
X608895Y686852D01*
X602500Y692455D02*
X603447D01*
X621353Y800122D02*
Y819399D01*
X627100Y795675D02*
X627450Y795325D01*
X634000D01*
X621353Y800122D02*
X625800Y795675D01*
X627100D01*
X634000Y769925D02*
X634500Y769425D01*
X592750Y816500D02*
X609250Y800000D01*
X610000D01*
X587116Y734955D02*
X590822Y731248D01*
X557500Y734955D02*
X587116D01*
X597812Y750687D02*
X634188D01*
X634500Y750375D01*
X610833Y731325D02*
X634500D01*
X590822Y731248D02*
X610756D01*
X597500Y750999D02*
X597812Y750687D01*
X610756Y731248D02*
X610833Y731325D01*
X265682Y546318D02*
X266000Y546000D01*
X238318Y546318D02*
X265682D01*
X232230Y562230D02*
X266554D01*
X234460Y554460D02*
X270000D01*
X268923Y570000D02*
X269461Y570538D01*
X269889Y578690D02*
X270205Y579006D01*
X194690Y578690D02*
X269889D01*
X195757Y570000D02*
X268923D01*
X103500Y670050D02*
Y687000D01*
Y670050D02*
X106550Y667000D01*
X181998Y615498D02*
X202498D01*
X202500Y615500D01*
X202358Y637500D02*
X217500D01*
X201872Y637985D02*
X202358Y637500D01*
X185756Y641500D02*
X189270Y637985D01*
X201872D01*
X113250Y554250D02*
X162000Y603000D01*
Y641500D01*
X120257D02*
X162000D01*
X185756D01*
X122750Y647500D02*
X203500D01*
X203750Y647750D01*
X163500Y565500D02*
X193868Y595868D01*
X194750Y587750D02*
X272250D01*
X170000Y563000D02*
X194750Y587750D01*
X193868Y595868D02*
X269731D01*
X62160Y942500D02*
X76000D01*
X82750Y880500D02*
X83000D01*
X103550Y859950D01*
X610582Y1275432D02*
X611529D01*
X614536Y1272425D01*
X634500D01*
X613675Y1299582D02*
X615432Y1297825D01*
X619000Y1291075D02*
X619200Y1291275D01*
X634300D02*
X634500Y1291475D01*
X613675Y1299582D02*
Y1316175D01*
X615432Y1297825D02*
X634500D01*
X619200Y1291275D02*
X634300D01*
X77000Y543000D02*
X79000Y545000D01*
X64500Y542500D02*
X65000Y543000D01*
X77000D01*
X443964Y1071624D02*
X444087Y1071501D01*
X428708Y1074825D02*
Y1083772D01*
Y1074825D02*
X432032Y1071501D01*
X443964D01*
X444087D02*
X461964D01*
X443870Y1040617D02*
Y1051952D01*
X461656Y1040741D02*
Y1052068D01*
X461902Y1052314D01*
X86500Y592000D02*
X97500D01*
X27500Y942500D02*
X27536Y942536D01*
X42876D01*
X639500Y801175D02*
X640000Y801675D01*
X634500Y801175D02*
X639500D01*
X640000Y820000D02*
X650000D01*
X645000Y1364250D02*
Y1374500D01*
X570000Y1359624D02*
X570161Y1359785D01*
Y1374514D01*
X171879Y828379D02*
X172549Y829049D01*
X174125D02*
X179834Y834757D01*
Y844916D01*
X172549Y829049D02*
X174125D01*
X179750Y845000D02*
X179834Y844916D01*
X164184Y275000D02*
X164663Y275479D01*
X146380Y275000D02*
X164184D01*
X85000Y545000D02*
X97500Y557500D01*
X79000Y545000D02*
X85000D01*
X97500Y557500D02*
Y582500D01*
X168417Y243041D02*
Y249580D01*
X167876Y242500D02*
X168417Y243041D01*
X162996Y255000D02*
X168417Y249580D01*
X146380Y255000D02*
X162996D01*
X592000Y816500D02*
X592750D01*
X621525Y788475D02*
X634500D01*
X610000Y800000D02*
X621525Y788475D01*
X605249Y742878D02*
X606749Y744378D01*
X597878Y742878D02*
X605249D01*
X597499Y742498D02*
X597878Y742878D01*
X606749Y744378D02*
X634147D01*
X100400Y433612D02*
X124020D01*
X100212Y433424D02*
X100400Y433612D01*
X66576Y433424D02*
X100212D01*
X65400Y434600D02*
X66576Y433424D01*
X65524Y383424D02*
X123644D01*
X124020Y383800D01*
X119284Y275000D02*
X123620D01*
X110484Y283800D02*
X119284Y275000D01*
X100776Y283800D02*
X110484D01*
X100400Y283424D02*
X100776Y283800D01*
X66624Y283424D02*
X100400D01*
X65400Y282200D02*
X66624Y283424D01*
X66324Y333424D02*
X123644D01*
X65400Y332500D02*
X66324Y333424D01*
X123644D02*
X124020Y333800D01*
X115000Y255000D02*
X123620D01*
X105000Y245000D02*
X115000Y255000D01*
X120500Y554000D02*
X181998Y615498D01*
X116500Y653750D02*
X122750Y647500D01*
X116500Y653750D02*
Y664000D01*
X115750Y664750D02*
X116500Y664000D01*
X115500Y664750D02*
X115750D01*
X115500D02*
X118500Y667750D01*
X116250Y670000D02*
X118500Y667750D01*
X116000Y670250D02*
X116250Y670000D01*
X116000Y670250D02*
Y684500D01*
X106550Y655207D02*
X120257Y641500D01*
X106550Y655207D02*
Y667000D01*
X218670Y548670D02*
X232230Y562230D01*
X176528Y560528D02*
X194690Y578690D01*
X183000Y557243D02*
X195757Y570000D01*
X225000Y533000D02*
X238318Y546318D01*
X189500Y548670D02*
X218670D01*
X198670Y539500D02*
X219500D01*
X230550Y526500D02*
X241516Y537466D01*
X270033D01*
X219500Y539500D02*
X234460Y554460D01*
X198670Y526500D02*
X230550D01*
X198670Y533000D02*
X225000D01*
X163500Y548670D02*
Y565500D01*
X170000Y548670D02*
Y563000D01*
X176528Y548698D02*
Y560528D01*
X176500Y548670D02*
X176528Y548698D01*
X183000Y548670D02*
Y557243D01*
X406796Y461500D02*
X412835Y467539D01*
X400000Y461500D02*
X406796D01*
X412835Y467539D02*
Y467933D01*
X419276Y474374D01*
X426874D01*
X41807Y657596D02*
X87404D01*
X109567Y635433D01*
X40050Y659353D02*
Y670000D01*
X109567Y628895D02*
Y635433D01*
X40050Y659353D02*
X41807Y657596D01*
X97753Y628895D02*
X109567D01*
X152287Y329235D02*
X155832D01*
X156234Y329636D01*
X162234D01*
X165814Y333216D01*
X150530Y330992D02*
X152287Y329235D01*
X150530Y330992D02*
Y332800D01*
X149530Y333800D02*
X150530Y332800D01*
X146780Y333800D02*
X149530D01*
X146380Y305000D02*
X163861D01*
X164793Y304068D01*
X320000Y1359500D02*
X322000Y1361500D01*
X313748Y1315748D02*
X320000Y1322000D01*
Y1359500D01*
X62124Y942536D02*
X62160Y942500D01*
X103550Y845000D02*
Y859950D01*
X72740Y872260D02*
X73235D01*
X90252Y855243D01*
Y845598D02*
X90850Y845000D01*
X90252Y845598D02*
Y855243D01*
X260000Y942500D02*
Y952500D01*
X235000Y767160D02*
Y779980D01*
X234964Y767124D02*
X235000Y767160D01*
X460000Y1182500D02*
X518000D01*
X420502Y1143002D02*
X460000Y1182500D01*
X620752Y820000D02*
X621353Y819399D01*
X634000Y795325D02*
X634500Y794825D01*
X580000Y712455D02*
X580090Y712365D01*
X565045Y727500D02*
X587500D01*
X580090Y712365D02*
X634410D01*
X565000Y727455D02*
X565045Y727500D01*
X595947Y697455D02*
X598067Y699575D01*
X587500Y704955D02*
X587985Y705440D01*
X598067Y699575D02*
X634500D01*
X634410Y712365D02*
X634500Y712275D01*
X587985Y705440D02*
X634015D01*
X587545Y719955D02*
X588875Y718625D01*
X634015Y705440D02*
X634500Y705925D01*
X595000Y697455D02*
X595947D01*
X572500Y719955D02*
X587545D01*
X587500Y727500D02*
X590025Y724975D01*
X124749Y592000D02*
X124999Y591750D01*
X134750D01*
X135000Y591500D01*
X27350Y670000D02*
X28500Y668850D01*
X132248Y1147500D02*
X150000D01*
X605125Y1364500D02*
Y1374375D01*
X605000Y1374500D02*
X605125Y1374375D01*
X420502Y1115500D02*
Y1143002D01*
X605250Y1341757D02*
X607507Y1339500D01*
X640000D01*
X645000Y1344500D01*
Y1352500D01*
X605250Y1341757D02*
Y1352250D01*
X77750Y601750D02*
X97250D01*
X65500Y602000D02*
X77500D01*
X77750Y601750D01*
X97250D02*
X97500Y601500D01*
X109567Y628895D02*
X121381D01*
X109567Y613567D02*
Y628895D01*
X100862Y604862D02*
X109567Y613567D01*
X100862Y602790D02*
Y604862D01*
X99572Y601500D02*
X100862Y602790D01*
X97500Y601500D02*
X99572D01*
X52500Y862500D02*
X52750Y862250D01*
Y845000D02*
Y862250D01*
X65000Y845450D02*
X65450Y845000D01*
X65000Y845450D02*
Y862500D01*
X617000Y1319500D02*
X631000D01*
X613675Y1316175D02*
X617000Y1319500D01*
X612500Y653252D02*
X613252Y652500D01*
X634147Y744378D02*
X634500Y744025D01*
X612500Y672500D02*
X614175Y674175D01*
X590025Y724975D02*
X634500D01*
X588875Y718625D02*
X634500D01*
X464124Y1301500D02*
Y1318624D01*
X467000Y1321500D01*
X504500D01*
X522000Y1339000D01*
Y1361500D01*
X426624Y1301500D02*
Y1323624D01*
X432000Y1329000D01*
X459500D01*
X472000Y1341500D01*
Y1361500D01*
X389124Y1301500D02*
Y1308624D01*
X422000Y1341500D01*
Y1361500D01*
X351000Y1301500D02*
Y1315500D01*
X372000Y1336500D01*
Y1361500D01*
X181376Y1301500D02*
Y1329624D01*
X172000Y1339000D02*
X181376Y1329624D01*
X172000Y1339000D02*
Y1361500D01*
X219500Y1301500D02*
Y1324000D01*
X222000Y1326500D01*
Y1361500D01*
X276248Y1301500D02*
Y1324752D01*
X272000Y1329000D02*
X276248Y1324752D01*
X272000Y1329000D02*
Y1361500D01*
X313748Y1301500D02*
Y1315748D01*
X426874Y474374D02*
X427500Y475000D01*
D155*
X196000Y1179500D02*
X196454Y1179046D01*
X209546D02*
X210000Y1179500D01*
X196454Y1179046D02*
X209546D01*
D156*
X754154Y1284411D02*
X815589D01*
X820000Y1280000D01*
X790013Y1259987D02*
X820000Y1230000D01*
X768189Y1259987D02*
X790013D01*
X768139Y1259938D02*
X768189Y1259987D01*
X754285Y1259938D02*
X768139D01*
X754154Y1220413D02*
X779587D01*
X820000Y1180000D01*
Y1130000D02*
Y1145000D01*
X754309Y1196402D02*
X768598D01*
X820000Y1145000D01*
X754595Y717845D02*
X797845D01*
X754250Y717500D02*
X754595Y717845D01*
X797845D02*
X820000Y740000D01*
X764565Y693341D02*
X816659D01*
X820000Y690000D01*
X754000Y693500D02*
X764407D01*
X764486Y693421D01*
X779197Y781500D02*
X820000Y822303D01*
X754250Y781500D02*
X779197D01*
X820000Y822303D02*
Y840000D01*
X786070Y756070D02*
X820000Y790000D01*
X754429Y756070D02*
X786070D01*
X754000Y756500D02*
X754429Y756070D01*
D157*
X204500Y202125D02*
D03*
D158*
X400000Y45000D02*
D03*
X450000D02*
D03*
X45810Y1222500D02*
D03*
Y1272500D02*
D03*
X820000Y375000D02*
D03*
Y425000D02*
D03*
X819999Y525001D02*
D03*
Y475001D02*
D03*
X820000Y1130000D02*
D03*
Y1180000D02*
D03*
Y740000D02*
D03*
Y690000D02*
D03*
Y1230000D02*
D03*
Y1280000D02*
D03*
Y840000D02*
D03*
Y790000D02*
D03*
X221855Y1360626D02*
D03*
X171855D02*
D03*
X271855D02*
D03*
X321855D02*
D03*
X421855D02*
D03*
X371855D02*
D03*
X471855D02*
D03*
X521855D02*
D03*
X820000Y275000D02*
D03*
Y325000D02*
D03*
D159*
X615000Y145000D02*
D03*
Y195000D02*
D03*
X675000Y1020000D02*
D03*
Y1070000D02*
D03*
X790000Y960000D02*
D03*
Y910000D02*
D03*
Y1020000D02*
D03*
Y1070000D02*
D03*
X675000Y960000D02*
D03*
Y910000D02*
D03*
X66141Y152500D02*
D03*
Y202500D02*
D03*
D160*
X65621Y434151D02*
D03*
Y408751D02*
D03*
Y383351D02*
D03*
Y357951D02*
D03*
Y332551D02*
D03*
Y307151D02*
D03*
Y281751D02*
D03*
X40221Y434151D02*
D03*
Y408751D02*
D03*
Y383351D02*
D03*
Y357951D02*
D03*
Y332551D02*
D03*
Y307151D02*
D03*
Y281751D02*
D03*
X14821Y434151D02*
D03*
Y408751D02*
D03*
Y383351D02*
D03*
Y357951D02*
D03*
Y332551D02*
D03*
Y307151D02*
D03*
Y281751D02*
D03*
X270000Y851600D02*
D03*
Y826200D02*
D03*
Y800800D02*
D03*
Y775400D02*
D03*
Y750000D02*
D03*
Y724600D02*
D03*
Y699200D02*
D03*
X15000Y957900D02*
D03*
Y932500D02*
D03*
Y907100D02*
D03*
Y1080000D02*
D03*
Y1054600D02*
D03*
Y1029200D02*
D03*
X80000Y1054600D02*
D03*
Y1080000D02*
D03*
Y1105400D02*
D03*
D161*
X65621Y256351D02*
D03*
X40221D02*
D03*
X14821D02*
D03*
X270000Y673800D02*
D03*
X15000Y983300D02*
D03*
Y1105400D02*
D03*
X80000Y1029200D02*
D03*
D162*
X607000Y47000D02*
D03*
D163*
X206325Y32721D02*
D03*
Y74521D02*
D03*
X119925D02*
D03*
D164*
Y32721D02*
D03*
D165*
X535000Y47000D02*
D03*
D166*
X575680Y904640D02*
D03*
X595021Y1064409D02*
D03*
X288933Y961442D02*
D03*
X292000Y826000D02*
D03*
X292250Y800750D02*
D03*
X300892Y777500D02*
D03*
X317000Y912750D02*
D03*
X597453Y759953D02*
D03*
X588000Y1215257D02*
D03*
X226250Y505000D02*
D03*
X196698Y139811D02*
D03*
X188250Y140750D02*
D03*
X533250Y155000D02*
D03*
X577695Y438371D02*
D03*
X568534Y430244D02*
D03*
X209000Y58000D02*
D03*
X196000Y60000D02*
D03*
X128000Y61000D02*
D03*
X98000Y253846D02*
D03*
X111000Y307000D02*
D03*
X100400Y303800D02*
D03*
X328391Y439424D02*
D03*
X404000Y423020D02*
D03*
X540584Y211747D02*
D03*
X443739Y153116D02*
D03*
X494926Y152722D02*
D03*
X444991Y170266D02*
D03*
X497503Y144622D02*
D03*
X492000Y107000D02*
D03*
X473000D02*
D03*
X208000Y102405D02*
D03*
X638341Y418750D02*
D03*
X613348Y417343D02*
D03*
X605596Y420830D02*
D03*
X359014Y419871D02*
D03*
X400193Y154759D02*
D03*
X399000Y146000D02*
D03*
X400600Y163249D02*
D03*
X434418Y149750D02*
D03*
X532725Y163484D02*
D03*
X257000Y125750D02*
D03*
X266000Y138250D02*
D03*
X239000Y159189D02*
D03*
X127250Y548262D02*
D03*
X608872Y686830D02*
D03*
X610000Y800000D02*
D03*
X597499Y742498D02*
D03*
X597500Y750999D02*
D03*
X266000Y546000D02*
D03*
X270000Y554460D02*
D03*
X266554Y562230D02*
D03*
X270205Y579006D02*
D03*
X269461Y570538D02*
D03*
X284734Y437266D02*
D03*
X293750Y436733D02*
D03*
X415646Y454000D02*
D03*
X380000Y471500D02*
D03*
X456352Y459570D02*
D03*
X467134Y459117D02*
D03*
X619500Y389116D02*
D03*
Y396627D02*
D03*
X655136Y440409D02*
D03*
X618985Y470250D02*
D03*
X520202Y516405D02*
D03*
X561000Y950000D02*
D03*
X538000Y926250D02*
D03*
X542198Y902126D02*
D03*
X544833Y914167D02*
D03*
X333750Y900500D02*
D03*
X103500Y687000D02*
D03*
X195750Y631235D02*
D03*
X202500Y615500D02*
D03*
X269731Y595868D02*
D03*
X272250Y587750D02*
D03*
X332500Y725046D02*
D03*
X179500Y819250D02*
D03*
X76000Y942500D02*
D03*
X198294Y964206D02*
D03*
X587500Y1227757D02*
D03*
X541595Y1073959D02*
D03*
X565454Y1067818D02*
D03*
X563150Y1076000D02*
D03*
X544614Y1084250D02*
D03*
X410000Y937250D02*
D03*
X409791Y949750D02*
D03*
X335730Y984395D02*
D03*
X270000Y983000D02*
D03*
X233894Y957525D02*
D03*
X298169Y1029331D02*
D03*
X292159Y1023320D02*
D03*
X360000Y1084500D02*
D03*
X385000Y1084000D02*
D03*
X312590Y1014898D02*
D03*
X306630Y1008838D02*
D03*
X371770Y1254250D02*
D03*
X214622Y1214225D02*
D03*
X214899Y1205730D02*
D03*
X82750Y880500D02*
D03*
X363169Y1207331D02*
D03*
X557963Y1121500D02*
D03*
X542337Y1250163D02*
D03*
X610582Y1275432D02*
D03*
X619000Y1291075D02*
D03*
X361494Y824701D02*
D03*
X432653Y837653D02*
D03*
X362347Y887347D02*
D03*
X192500Y180000D02*
D03*
X519750Y117000D02*
D03*
Y125000D02*
D03*
Y133000D02*
D03*
Y141000D02*
D03*
X520000Y175750D02*
D03*
Y183000D02*
D03*
X178231Y657555D02*
D03*
X169639Y658508D02*
D03*
X375000Y1101000D02*
D03*
X498000Y1158000D02*
D03*
X431585Y1132305D02*
D03*
X456000Y1114000D02*
D03*
X443870Y1040617D02*
D03*
X461656Y1040741D02*
D03*
X373000Y858500D02*
D03*
X162543Y117578D02*
D03*
X237752Y63752D02*
D03*
X227686Y127683D02*
D03*
X259000Y168000D02*
D03*
X272986Y182600D02*
D03*
X100400Y343800D02*
D03*
Y353800D02*
D03*
Y293800D02*
D03*
Y393800D02*
D03*
Y403800D02*
D03*
Y443800D02*
D03*
X210000Y266629D02*
D03*
X210520Y427506D02*
D03*
X317500Y430000D02*
D03*
X378898Y392445D02*
D03*
X378556Y400993D02*
D03*
X375285Y420302D02*
D03*
X379354Y412275D02*
D03*
X379945Y425890D02*
D03*
X385161Y420388D02*
D03*
X380000Y488500D02*
D03*
X86500Y592000D02*
D03*
X70000Y721500D02*
D03*
X85000Y720500D02*
D03*
X155000Y520000D02*
D03*
X184335D02*
D03*
X99000Y720500D02*
D03*
X113000Y721500D02*
D03*
X70000Y763500D02*
D03*
Y735500D02*
D03*
Y749500D02*
D03*
X27500Y942500D02*
D03*
X32500Y1193223D02*
D03*
X85000Y735500D02*
D03*
Y749500D02*
D03*
X99000Y764500D02*
D03*
Y735500D02*
D03*
X113000D02*
D03*
X99000Y749500D02*
D03*
X113000D02*
D03*
X114000Y763500D02*
D03*
X85000Y764500D02*
D03*
X135000Y1052500D02*
D03*
X192000Y1256500D02*
D03*
Y1275500D02*
D03*
X296000Y904748D02*
D03*
X311009Y980244D02*
D03*
X335000Y945000D02*
D03*
Y960000D02*
D03*
X336000Y1001500D02*
D03*
X349480Y945000D02*
D03*
Y960000D02*
D03*
X408000Y1086500D02*
D03*
X418000D02*
D03*
X413000Y1091500D02*
D03*
X210000Y1188500D02*
D03*
X210000Y1179500D02*
D03*
X219250Y1188500D02*
D03*
X219500Y1179000D02*
D03*
X237000Y1197500D02*
D03*
Y1207500D02*
D03*
X232376Y1265464D02*
D03*
X247000Y1197500D02*
D03*
X242000Y1202500D02*
D03*
X247000Y1207500D02*
D03*
X313500Y1254000D02*
D03*
X408000Y1096500D02*
D03*
X418000D02*
D03*
X314252Y1276500D02*
D03*
X353000Y1264500D02*
D03*
X489415Y169338D02*
D03*
X560000Y185000D02*
D03*
X552500Y322500D02*
D03*
X569000Y451980D02*
D03*
X618857Y404407D02*
D03*
X618422Y422813D02*
D03*
X619000Y412500D02*
D03*
X623768Y417500D02*
D03*
X655000Y455000D02*
D03*
X618985Y486501D02*
D03*
X696500Y453000D02*
D03*
X711098Y456592D02*
D03*
X475000Y746500D02*
D03*
X559500Y905500D02*
D03*
X463000Y1104500D02*
D03*
X474000Y1130500D02*
D03*
X442500Y1256500D02*
D03*
Y1274000D02*
D03*
X522500Y1250000D02*
D03*
X502500D02*
D03*
X562500D02*
D03*
X645000Y1374500D02*
D03*
X238511Y82685D02*
D03*
X126972Y89159D02*
D03*
X250000Y875000D02*
D03*
X437500Y762750D02*
D03*
X570161Y1374514D02*
D03*
X576194Y885029D02*
D03*
X538733D02*
D03*
X528562Y885228D02*
D03*
X528294Y926081D02*
D03*
X574677Y926081D02*
D03*
X427030Y961567D02*
D03*
X582500Y1175000D02*
D03*
X597420Y769533D02*
D03*
X440000Y940000D02*
D03*
X380000Y915000D02*
D03*
X512500Y520000D02*
D03*
X192500Y920000D02*
D03*
X210000Y1117500D02*
D03*
Y1105000D02*
D03*
X223058Y1232130D02*
D03*
X239649Y1231848D02*
D03*
X140000Y895000D02*
D03*
X152500D02*
D03*
X171879Y828379D02*
D03*
X172500Y927500D02*
D03*
X110250Y1179250D02*
D03*
X134393Y1100821D02*
D03*
X50000Y460000D02*
D03*
X112000Y413500D02*
D03*
X112324Y364176D02*
D03*
X105000Y245000D02*
D03*
X125000Y615000D02*
D03*
X252500Y612500D02*
D03*
X334847Y454847D02*
D03*
X535000Y527500D02*
D03*
X255000Y505000D02*
D03*
X270033Y537466D02*
D03*
X233000Y490000D02*
D03*
X530000Y437500D02*
D03*
X561000Y444750D02*
D03*
X330000Y447770D02*
D03*
X409963Y431671D02*
D03*
X582500Y272500D02*
D03*
X653541Y432060D02*
D03*
X652752Y422679D02*
D03*
X412835Y467933D02*
D03*
X532951Y217997D02*
D03*
X515000Y205000D02*
D03*
X511000Y117000D02*
D03*
Y125000D02*
D03*
Y176000D02*
D03*
Y184000D02*
D03*
Y133000D02*
D03*
Y141000D02*
D03*
X422000Y196000D02*
D03*
Y204000D02*
D03*
X422500Y175000D02*
D03*
Y183000D02*
D03*
Y117000D02*
D03*
Y141000D02*
D03*
Y125000D02*
D03*
Y133000D02*
D03*
X369000Y986500D02*
D03*
X633764Y449381D02*
D03*
Y441373D02*
D03*
X604189Y448835D02*
D03*
X604098Y441373D02*
D03*
X116000Y684500D02*
D03*
X651500Y465500D02*
D03*
X575000Y1046500D02*
D03*
X575658Y935446D02*
D03*
X538000Y1046500D02*
D03*
X538909Y935446D02*
D03*
X394857Y443158D02*
D03*
X399293Y415849D02*
D03*
X404286Y393684D02*
D03*
X404774Y369936D02*
D03*
X404652Y345580D02*
D03*
X394676Y451448D02*
D03*
X498597Y169688D02*
D03*
X200000Y220000D02*
D03*
X150000Y720000D02*
D03*
X65412Y489750D02*
D03*
X110036Y520036D02*
D03*
X210520Y380423D02*
D03*
X210000Y314131D02*
D03*
X540750Y148250D02*
D03*
X413500Y175000D02*
D03*
Y183000D02*
D03*
Y141000D02*
D03*
Y133000D02*
D03*
Y125000D02*
D03*
Y117000D02*
D03*
X400000Y127000D02*
D03*
X434411Y170183D02*
D03*
X273000Y132000D02*
D03*
X180339Y68854D02*
D03*
X205000Y177500D02*
D03*
X178105Y102099D02*
D03*
X169000Y96000D02*
D03*
X155925Y94924D02*
D03*
X365185Y443610D02*
D03*
X276248Y70049D02*
D03*
X315520Y680473D02*
D03*
X326000Y910500D02*
D03*
X110000Y1168500D02*
D03*
X167000Y1237500D02*
D03*
X197000Y1219500D02*
D03*
X158000Y1284500D02*
D03*
Y828500D02*
D03*
X14000Y1005500D02*
D03*
Y1121500D02*
D03*
X68000Y699500D02*
D03*
X139000Y830500D02*
D03*
X276000Y975500D02*
D03*
X285000D02*
D03*
X276000Y907500D02*
D03*
X239376Y645000D02*
D03*
X539000Y1106500D02*
D03*
X575000D02*
D03*
Y1096500D02*
D03*
X540000D02*
D03*
X538000Y1055500D02*
D03*
X574000D02*
D03*
X576663Y875312D02*
D03*
X490000Y939500D02*
D03*
X483263Y921500D02*
D03*
X427000Y979500D02*
D03*
Y952730D02*
D03*
Y970500D02*
D03*
X365145Y451316D02*
D03*
X587500Y704955D02*
D03*
X565000Y727455D02*
D03*
X557500Y734955D02*
D03*
X572500Y719955D02*
D03*
X580000Y712455D02*
D03*
X595000Y697455D02*
D03*
X602500Y692455D02*
D03*
X135000Y591500D02*
D03*
X164000Y731020D02*
D03*
X108670Y788500D02*
D03*
X283500Y934748D02*
D03*
X277376Y1265464D02*
D03*
X332500Y767500D02*
D03*
X377000Y1002500D02*
D03*
X399000Y1264500D02*
D03*
X605000Y1374500D02*
D03*
X332500Y681473D02*
D03*
X166000Y709500D02*
D03*
X363000Y1216000D02*
D03*
Y1189500D02*
D03*
X59000Y698500D02*
D03*
X44000Y697500D02*
D03*
X29000Y698500D02*
D03*
X363000Y1198500D02*
D03*
X117000Y905500D02*
D03*
X125000Y895500D02*
D03*
X212500Y797500D02*
D03*
Y807500D02*
D03*
Y822500D02*
D03*
X205000Y847500D02*
D03*
X381000Y928500D02*
D03*
X563761Y1023361D02*
D03*
X565916Y898390D02*
D03*
X552053Y954480D02*
D03*
X625000Y1339500D02*
D03*
X547000Y1319500D02*
D03*
X566000Y1190500D02*
D03*
X588000Y1202500D02*
D03*
X597000Y1208500D02*
D03*
Y1195750D02*
D03*
X596997Y1221507D02*
D03*
X597000Y1234500D02*
D03*
X72740Y872260D02*
D03*
X52500Y862500D02*
D03*
X65000D02*
D03*
X355011Y992511D02*
D03*
X570000Y1325000D02*
D03*
X157500Y1247500D02*
D03*
X372500Y1275000D02*
D03*
X399000Y1274500D02*
D03*
X209000Y1287500D02*
D03*
X232000D02*
D03*
X453000Y1083500D02*
D03*
X372000Y764500D02*
D03*
X555000Y857000D02*
D03*
X563861Y852861D02*
D03*
X554900Y1027500D02*
D03*
X552900Y1128500D02*
D03*
X440000Y690500D02*
D03*
X286000Y1265500D02*
D03*
X257000Y1287500D02*
D03*
X399000Y1255500D02*
D03*
D167*
X480000Y688000D02*
D03*
X489000D02*
D03*
X402500Y712500D02*
D03*
Y722500D02*
D03*
X402000Y745000D02*
D03*
X402500Y732500D02*
D03*
X410000Y755000D02*
D03*
X410500Y712500D02*
D03*
X425000Y706500D02*
D03*
X410500Y732500D02*
D03*
X410000Y745000D02*
D03*
X410500Y722500D02*
D03*
X402000Y755000D02*
D03*
Y764230D02*
D03*
X410000D02*
D03*
X493000Y699000D02*
D03*
Y706500D02*
D03*
Y714000D02*
D03*
X500500Y706500D02*
D03*
Y714000D02*
D03*
Y699000D02*
D03*
X508000Y714000D02*
D03*
Y699000D02*
D03*
Y706500D02*
D03*
X475000Y736500D02*
D03*
D168*
X383664Y196766D02*
D03*
X350000D02*
D03*
X365000D02*
D03*
X464000Y151722D02*
D03*
X109000Y580000D02*
D03*
X547459Y357459D02*
D03*
X595750Y362500D02*
D03*
X600000Y902500D02*
D03*
X371250Y832000D02*
D03*
X203625Y647625D02*
D03*
X234750Y735250D02*
D03*
X600000Y1072500D02*
D03*
X497497Y1075750D02*
D03*
X317500Y1229500D02*
D03*
X577686Y478424D02*
D03*
X336436Y474413D02*
D03*
X92598Y551842D02*
D03*
X217500Y637500D02*
D03*
X550000Y135000D02*
D03*
Y120000D02*
D03*
X565000D02*
D03*
Y135000D02*
D03*
X555000Y150000D02*
D03*
X569500Y151000D02*
D03*
X580000Y120000D02*
D03*
Y135000D02*
D03*
X550000Y105000D02*
D03*
X540000Y95000D02*
D03*
X525000D02*
D03*
X535000Y105000D02*
D03*
X555000Y95000D02*
D03*
X520000Y105000D02*
D03*
X505000Y100000D02*
D03*
X485000D02*
D03*
X460000D02*
D03*
X440000D02*
D03*
X420000D02*
D03*
X564000Y170750D02*
D03*
X460000Y770000D02*
D03*
X370000Y795000D02*
D03*
X360000D02*
D03*
X370000Y805000D02*
D03*
X850000Y385000D02*
D03*
X14000Y489750D02*
D03*
X52500Y507500D02*
D03*
X325000Y174000D02*
D03*
X337500Y192500D02*
D03*
Y177500D02*
D03*
X340000Y162500D02*
D03*
X347500Y172500D02*
D03*
Y185000D02*
D03*
X342500Y237500D02*
D03*
X320000Y275000D02*
D03*
X330000Y267500D02*
D03*
Y282500D02*
D03*
X320000Y290000D02*
D03*
Y305000D02*
D03*
X330000Y297500D02*
D03*
X340000Y305000D02*
D03*
Y275000D02*
D03*
X350000Y282500D02*
D03*
Y267500D02*
D03*
X360000Y275000D02*
D03*
X340000Y290000D02*
D03*
X350000Y297500D02*
D03*
X360000Y290000D02*
D03*
Y305000D02*
D03*
X370000Y267500D02*
D03*
X380000Y237500D02*
D03*
Y275000D02*
D03*
X370000Y282500D02*
D03*
Y297500D02*
D03*
X380000Y290000D02*
D03*
Y305000D02*
D03*
X407500Y200000D02*
D03*
X422500Y267500D02*
D03*
X434000Y217000D02*
D03*
X390000Y282500D02*
D03*
Y297500D02*
D03*
Y267500D02*
D03*
X330000Y312500D02*
D03*
X350000D02*
D03*
X340000Y320000D02*
D03*
X320000D02*
D03*
X330000Y327500D02*
D03*
X350000D02*
D03*
X340000Y335000D02*
D03*
X360000Y320000D02*
D03*
X370000Y312500D02*
D03*
Y327500D02*
D03*
X360000Y335000D02*
D03*
X372500Y340000D02*
D03*
X373541Y362473D02*
D03*
X352500Y365000D02*
D03*
X364994Y370678D02*
D03*
X365000Y382500D02*
D03*
X374795Y378542D02*
D03*
X380000Y320000D02*
D03*
X390000Y327500D02*
D03*
Y312500D02*
D03*
X17500Y520000D02*
D03*
Y577500D02*
D03*
X50000Y567500D02*
D03*
X14650Y688615D02*
D03*
X60000Y627500D02*
D03*
X59964Y647464D02*
D03*
X152386Y628273D02*
D03*
X15000Y827500D02*
D03*
X133031Y1135000D02*
D03*
X445000Y290000D02*
D03*
Y267500D02*
D03*
X450000Y217000D02*
D03*
X467500Y267500D02*
D03*
X492500D02*
D03*
X510000D02*
D03*
Y297500D02*
D03*
Y282500D02*
D03*
X600000Y287500D02*
D03*
Y297500D02*
D03*
X610000Y287500D02*
D03*
Y297500D02*
D03*
X602500Y372500D02*
D03*
X615000Y352500D02*
D03*
X607500Y362500D02*
D03*
X617500Y260000D02*
D03*
X632500D02*
D03*
X615000Y340000D02*
D03*
X625000Y325000D02*
D03*
X615000Y372500D02*
D03*
X655000Y672500D02*
D03*
Y692500D02*
D03*
X665000Y702500D02*
D03*
X675000Y672500D02*
D03*
Y692500D02*
D03*
X685000Y702500D02*
D03*
X598791Y851148D02*
D03*
X650000Y820000D02*
D03*
X596041Y955647D02*
D03*
X596000Y1025500D02*
D03*
X599827Y1130021D02*
D03*
X665000Y722500D02*
D03*
Y742500D02*
D03*
Y762500D02*
D03*
Y782500D02*
D03*
X675000Y792500D02*
D03*
X685000Y742500D02*
D03*
Y722500D02*
D03*
Y762500D02*
D03*
Y782500D02*
D03*
X655000Y1195500D02*
D03*
Y1175500D02*
D03*
Y1215500D02*
D03*
X665000Y1245500D02*
D03*
Y1225500D02*
D03*
X675000Y1175500D02*
D03*
X665000Y1265500D02*
D03*
Y1285500D02*
D03*
X675000Y1195500D02*
D03*
X685000Y1205500D02*
D03*
Y1225500D02*
D03*
Y1245500D02*
D03*
Y1265500D02*
D03*
Y1285500D02*
D03*
X260000Y230000D02*
D03*
Y250000D02*
D03*
Y270000D02*
D03*
Y290000D02*
D03*
Y310000D02*
D03*
Y330000D02*
D03*
Y350000D02*
D03*
Y370000D02*
D03*
Y390000D02*
D03*
Y405000D02*
D03*
Y420000D02*
D03*
X275000D02*
D03*
X290000D02*
D03*
X285000Y405000D02*
D03*
X275000Y395000D02*
D03*
X850000Y225000D02*
D03*
Y245000D02*
D03*
Y265000D02*
D03*
Y285000D02*
D03*
Y365000D02*
D03*
Y345000D02*
D03*
Y325000D02*
D03*
Y305000D02*
D03*
Y445000D02*
D03*
Y425000D02*
D03*
Y405000D02*
D03*
Y525000D02*
D03*
Y505000D02*
D03*
Y485000D02*
D03*
Y465000D02*
D03*
Y605000D02*
D03*
Y585000D02*
D03*
Y565000D02*
D03*
Y545000D02*
D03*
Y685000D02*
D03*
Y665000D02*
D03*
Y645000D02*
D03*
Y625000D02*
D03*
Y765000D02*
D03*
Y745000D02*
D03*
Y725000D02*
D03*
Y705000D02*
D03*
Y845000D02*
D03*
Y825000D02*
D03*
Y805000D02*
D03*
Y785000D02*
D03*
Y925000D02*
D03*
Y905000D02*
D03*
Y885000D02*
D03*
Y865000D02*
D03*
Y1005000D02*
D03*
Y985000D02*
D03*
Y965000D02*
D03*
Y945000D02*
D03*
Y1085000D02*
D03*
Y1065000D02*
D03*
Y1045000D02*
D03*
Y1025000D02*
D03*
Y1165000D02*
D03*
Y1145000D02*
D03*
Y1125000D02*
D03*
Y1105000D02*
D03*
Y1245000D02*
D03*
Y1225000D02*
D03*
Y1205000D02*
D03*
Y1185000D02*
D03*
Y1305000D02*
D03*
Y1285000D02*
D03*
Y1265000D02*
D03*
Y205000D02*
D03*
Y185000D02*
D03*
Y165000D02*
D03*
Y145000D02*
D03*
Y125000D02*
D03*
Y105000D02*
D03*
X700000Y15000D02*
D03*
X720000D02*
D03*
X740000D02*
D03*
X760000D02*
D03*
X660000D02*
D03*
X680000D02*
D03*
X315000D02*
D03*
X335000D02*
D03*
X355000D02*
D03*
X375000D02*
D03*
X255000D02*
D03*
X275000D02*
D03*
X295000D02*
D03*
X135000D02*
D03*
X155000D02*
D03*
X175000D02*
D03*
X195000D02*
D03*
X95000D02*
D03*
X115000D02*
D03*
X10000Y95000D02*
D03*
Y115000D02*
D03*
Y135000D02*
D03*
Y155000D02*
D03*
Y175000D02*
D03*
Y195000D02*
D03*
Y215000D02*
D03*
Y235000D02*
D03*
Y1140000D02*
D03*
Y1160000D02*
D03*
Y1180000D02*
D03*
Y1200000D02*
D03*
Y1220000D02*
D03*
Y1240000D02*
D03*
Y1260000D02*
D03*
Y1280000D02*
D03*
Y1300000D02*
D03*
X155000Y1390000D02*
D03*
X135000D02*
D03*
X115000D02*
D03*
X95000D02*
D03*
X235000D02*
D03*
X215000D02*
D03*
X195000D02*
D03*
X175000D02*
D03*
X315000D02*
D03*
X295000D02*
D03*
X275000D02*
D03*
X255000D02*
D03*
X395000D02*
D03*
X375000D02*
D03*
X355000D02*
D03*
X335000D02*
D03*
X475000D02*
D03*
X455000D02*
D03*
X435000D02*
D03*
X415000D02*
D03*
X555000D02*
D03*
X535000D02*
D03*
X515000D02*
D03*
X495000D02*
D03*
X635000D02*
D03*
X615000D02*
D03*
X595000D02*
D03*
X575000D02*
D03*
X715000D02*
D03*
X695000D02*
D03*
X675000D02*
D03*
X655000D02*
D03*
X755000D02*
D03*
X735000D02*
D03*
X690000Y30000D02*
D03*
X670000D02*
D03*
X770000D02*
D03*
X750000D02*
D03*
X730000D02*
D03*
X710000D02*
D03*
X680000Y45000D02*
D03*
X660000D02*
D03*
X760000D02*
D03*
X740000D02*
D03*
X720000D02*
D03*
X700000D02*
D03*
X690000Y60000D02*
D03*
X670000D02*
D03*
X770000D02*
D03*
X750000D02*
D03*
X730000D02*
D03*
X710000D02*
D03*
X680000Y75000D02*
D03*
X660000D02*
D03*
X760000D02*
D03*
X740000D02*
D03*
X720000D02*
D03*
X700000D02*
D03*
X690000Y90000D02*
D03*
X670000D02*
D03*
X770000D02*
D03*
X750000D02*
D03*
X730000D02*
D03*
X710000D02*
D03*
X680000Y105000D02*
D03*
X660000D02*
D03*
X760000D02*
D03*
X740000D02*
D03*
X720000D02*
D03*
X700000D02*
D03*
X690000Y120000D02*
D03*
X670000D02*
D03*
X770000D02*
D03*
X750000D02*
D03*
X730000D02*
D03*
X710000D02*
D03*
X680000Y135000D02*
D03*
X660000D02*
D03*
X760000D02*
D03*
X740000D02*
D03*
X720000D02*
D03*
X700000D02*
D03*
X690000Y150000D02*
D03*
X670000D02*
D03*
X770000D02*
D03*
X750000D02*
D03*
X730000D02*
D03*
X710000D02*
D03*
X680000Y165000D02*
D03*
X660000D02*
D03*
X760000D02*
D03*
X740000D02*
D03*
X720000D02*
D03*
X700000D02*
D03*
X710000Y180000D02*
D03*
X690000D02*
D03*
X790000D02*
D03*
X770000D02*
D03*
X750000D02*
D03*
X730000D02*
D03*
X700000Y195000D02*
D03*
X680000D02*
D03*
X780000D02*
D03*
X760000D02*
D03*
X740000D02*
D03*
X720000D02*
D03*
X710000Y210000D02*
D03*
X690000D02*
D03*
X790000D02*
D03*
X770000D02*
D03*
X750000D02*
D03*
X730000D02*
D03*
X790000Y150000D02*
D03*
X810000D02*
D03*
X800000Y135000D02*
D03*
X790000Y120000D02*
D03*
X810000D02*
D03*
X810000Y210000D02*
D03*
X830000D02*
D03*
X820000Y195000D02*
D03*
X810000Y180000D02*
D03*
X830000D02*
D03*
X800000Y195000D02*
D03*
X780000Y165000D02*
D03*
X800000D02*
D03*
X820000D02*
D03*
X780000Y135000D02*
D03*
X820000D02*
D03*
X830000Y150000D02*
D03*
X835000Y165000D02*
D03*
Y195000D02*
D03*
X830000Y120000D02*
D03*
X780000Y105000D02*
D03*
X800000D02*
D03*
X790000Y90000D02*
D03*
X820000Y105000D02*
D03*
X835000D02*
D03*
X665000Y270000D02*
D03*
X680000D02*
D03*
X695000D02*
D03*
X765000Y300000D02*
D03*
Y270000D02*
D03*
X785000D02*
D03*
X775000Y285000D02*
D03*
X785000Y300000D02*
D03*
X755000Y285000D02*
D03*
X745000Y270000D02*
D03*
Y300000D02*
D03*
X755000Y315000D02*
D03*
X775000D02*
D03*
X785000Y330000D02*
D03*
X765000D02*
D03*
X745000D02*
D03*
Y1375000D02*
D03*
X685000D02*
D03*
X705000D02*
D03*
X725000D02*
D03*
X735000Y1360000D02*
D03*
X755000D02*
D03*
X675000D02*
D03*
X695000D02*
D03*
X715000D02*
D03*
X745000Y1345000D02*
D03*
X685000D02*
D03*
X705000D02*
D03*
X725000D02*
D03*
X735000Y1330000D02*
D03*
X755000D02*
D03*
X675000D02*
D03*
X695000D02*
D03*
X715000D02*
D03*
X500000Y730000D02*
D03*
Y750000D02*
D03*
X495000Y765000D02*
D03*
X475000Y770000D02*
D03*
X160000Y449000D02*
D03*
Y390000D02*
D03*
X149976Y347193D02*
D03*
X150000Y320000D02*
D03*
Y290000D02*
D03*
Y265000D02*
D03*
Y245000D02*
D03*
X160000Y230000D02*
D03*
X185000D02*
D03*
X210000Y245000D02*
D03*
Y235000D02*
D03*
X195000Y265000D02*
D03*
X200000Y370000D02*
D03*
X185000Y390000D02*
D03*
X140000Y475000D02*
D03*
Y490000D02*
D03*
X120000Y475000D02*
D03*
Y490000D02*
D03*
X235000Y625000D02*
D03*
X210000Y665000D02*
D03*
X365000Y640000D02*
D03*
X430000Y1020000D02*
D03*
X420000Y1010000D02*
D03*
X410000Y1000000D02*
D03*
X400000Y990000D02*
D03*
X390000Y980000D02*
D03*
X405000Y1060000D02*
D03*
Y1125000D02*
D03*
X375000Y1060000D02*
D03*
X390000Y1045000D02*
D03*
X355000D02*
D03*
X470000Y1275000D02*
D03*
Y1255000D02*
D03*
X490000Y1305000D02*
D03*
X625000Y1045000D02*
D03*
X635000Y1035000D02*
D03*
X645000Y1025000D02*
D03*
X655000Y1020000D02*
D03*
X645000Y1035000D02*
D03*
Y1045000D02*
D03*
X635000D02*
D03*
X655000D02*
D03*
Y965000D02*
D03*
X645000Y960000D02*
D03*
X635000Y950000D02*
D03*
X625000Y940000D02*
D03*
X635000D02*
D03*
X645000D02*
D03*
X655000D02*
D03*
X645000Y950000D02*
D03*
X625000Y990000D02*
D03*
X640000D02*
D03*
X840000D02*
D03*
X830000Y1000000D02*
D03*
X820000Y990000D02*
D03*
X830000Y980000D02*
D03*
X700000Y630000D02*
D03*
Y615000D02*
D03*
Y600000D02*
D03*
X730000Y585000D02*
D03*
Y600000D02*
D03*
Y615000D02*
D03*
Y630000D02*
D03*
X715000D02*
D03*
Y615000D02*
D03*
Y600000D02*
D03*
X565000Y590000D02*
D03*
X580000D02*
D03*
X579748Y605156D02*
D03*
X465000Y565000D02*
D03*
Y540000D02*
D03*
Y515000D02*
D03*
X800000Y635000D02*
D03*
Y620000D02*
D03*
Y605000D02*
D03*
Y590000D02*
D03*
X25000Y125000D02*
D03*
Y105000D02*
D03*
X40000Y115000D02*
D03*
Y95000D02*
D03*
X55000Y125000D02*
D03*
Y105000D02*
D03*
X70000Y115000D02*
D03*
Y95000D02*
D03*
X85000Y125000D02*
D03*
Y105000D02*
D03*
X100000Y115000D02*
D03*
Y95000D02*
D03*
X365000Y30000D02*
D03*
X345000D02*
D03*
X325000D02*
D03*
X305000D02*
D03*
X375000Y45000D02*
D03*
X355000D02*
D03*
X335000D02*
D03*
X315000D02*
D03*
X365000Y60000D02*
D03*
X345000D02*
D03*
X325000D02*
D03*
X305000D02*
D03*
X375000Y75000D02*
D03*
X355000D02*
D03*
X335000D02*
D03*
X315000D02*
D03*
X365000Y90000D02*
D03*
X345000D02*
D03*
X325000D02*
D03*
X305000D02*
D03*
X725000Y340000D02*
D03*
X675000Y305000D02*
D03*
Y330000D02*
D03*
X685000Y315000D02*
D03*
Y340000D02*
D03*
X762500Y850000D02*
D03*
X752500D02*
D03*
Y860000D02*
D03*
X762500D02*
D03*
X712500Y910000D02*
D03*
X727500D02*
D03*
X722000Y735500D02*
D03*
X725000Y795000D02*
D03*
X600000Y922500D02*
D03*
X610000Y912500D02*
D03*
Y892500D02*
D03*
X620000Y902500D02*
D03*
Y922500D02*
D03*
X510000D02*
D03*
X520000Y912500D02*
D03*
X510000Y902500D02*
D03*
X520000Y892500D02*
D03*
X500000Y912500D02*
D03*
Y892500D02*
D03*
X730250Y677250D02*
D03*
X730750Y667250D02*
D03*
X728132Y741516D02*
D03*
X731000Y731000D02*
D03*
X501732Y849961D02*
D03*
X500000Y872500D02*
D03*
X505000Y862500D02*
D03*
X515000Y872500D02*
D03*
Y852500D02*
D03*
X520000Y840000D02*
D03*
X535000Y1117500D02*
D03*
Y1130000D02*
D03*
X452500Y877500D02*
D03*
X485794Y400799D02*
D03*
X270000Y1167500D02*
D03*
X317500Y1212500D02*
D03*
X377500Y1232500D02*
D03*
X287500Y1205000D02*
D03*
X302500Y1195000D02*
D03*
X257500Y1155000D02*
D03*
X681000Y365000D02*
D03*
Y356000D02*
D03*
X572500Y327500D02*
D03*
X10000Y460000D02*
D03*
X495000Y435000D02*
D03*
X630000Y1082500D02*
D03*
X650000Y1130000D02*
D03*
X670000D02*
D03*
X690000D02*
D03*
X710000D02*
D03*
X740000Y364000D02*
D03*
Y355000D02*
D03*
X750000D02*
D03*
Y364000D02*
D03*
X671000Y356000D02*
D03*
Y365000D02*
D03*
X625000Y250000D02*
D03*
X550750Y228500D02*
D03*
X15371Y890289D02*
D03*
X90000Y1125500D02*
D03*
X207330Y775480D02*
D03*
X207041Y739814D02*
D03*
X206752Y751088D02*
D03*
X207041Y764194D02*
D03*
X499250Y533750D02*
D03*
X657500Y315000D02*
D03*
X595000Y200000D02*
D03*
X575000D02*
D03*
X559999Y200000D02*
D03*
X463000Y191000D02*
D03*
Y203000D02*
D03*
Y177000D02*
D03*
X550750Y238500D02*
D03*
X520000Y239000D02*
D03*
X570000Y400000D02*
D03*
X645000Y397500D02*
D03*
Y387500D02*
D03*
Y365000D02*
D03*
Y375000D02*
D03*
X657500Y305000D02*
D03*
X645000Y340000D02*
D03*
X657500Y325000D02*
D03*
X645000Y352500D02*
D03*
X550000Y385000D02*
D03*
X570000D02*
D03*
X530000Y280000D02*
D03*
X542500D02*
D03*
X560000Y342500D02*
D03*
X530000Y357500D02*
D03*
X720000Y490000D02*
D03*
X710000D02*
D03*
X720000Y500000D02*
D03*
X710000D02*
D03*
X497000Y347000D02*
D03*
X497500Y337500D02*
D03*
X496854Y412236D02*
D03*
X520000Y249000D02*
D03*
Y229000D02*
D03*
X295000Y370000D02*
D03*
X310000Y375000D02*
D03*
X320000Y390000D02*
D03*
X335000Y380000D02*
D03*
Y400000D02*
D03*
X300000Y325000D02*
D03*
X285000D02*
D03*
X300000Y310000D02*
D03*
X285000D02*
D03*
Y295000D02*
D03*
X300000D02*
D03*
X285000Y280000D02*
D03*
X300000D02*
D03*
X485000Y347000D02*
D03*
X496841Y401149D02*
D03*
X290000Y230000D02*
D03*
Y240000D02*
D03*
X600000Y1012500D02*
D03*
X580000D02*
D03*
X600000Y992500D02*
D03*
X580000Y995000D02*
D03*
X527500Y1002500D02*
D03*
X590000Y1002500D02*
D03*
Y985000D02*
D03*
X580000Y975000D02*
D03*
X600000Y970000D02*
D03*
X570000Y985000D02*
D03*
X555000Y1012500D02*
D03*
X547500Y1000000D02*
D03*
X536523Y1025525D02*
D03*
X537500Y1012500D02*
D03*
X550000Y982500D02*
D03*
X540000Y972500D02*
D03*
X530000Y982500D02*
D03*
X520000Y972500D02*
D03*
Y942500D02*
D03*
X505000Y644000D02*
D03*
X467500D02*
D03*
X550750Y248500D02*
D03*
X505000Y631500D02*
D03*
X492500Y644000D02*
D03*
X480000D02*
D03*
X492500Y631500D02*
D03*
X480000D02*
D03*
X455000D02*
D03*
Y644000D02*
D03*
X467500Y631500D02*
D03*
X300000Y230000D02*
D03*
Y240000D02*
D03*
X485000Y337500D02*
D03*
X473000Y338000D02*
D03*
Y353000D02*
D03*
X460000Y362500D02*
D03*
X440000D02*
D03*
Y342500D02*
D03*
X462000Y345000D02*
D03*
X450000Y352500D02*
D03*
X433000Y379000D02*
D03*
X449000Y332000D02*
D03*
X28764Y613645D02*
D03*
X405000Y135000D02*
D03*
X365000Y120000D02*
D03*
Y135000D02*
D03*
X335000Y120000D02*
D03*
X350000D02*
D03*
Y135000D02*
D03*
X335000D02*
D03*
Y150000D02*
D03*
X350000D02*
D03*
X365000D02*
D03*
Y165000D02*
D03*
X370000Y180000D02*
D03*
X404502Y179570D02*
D03*
X360000Y805000D02*
D03*
X729981Y1234184D02*
D03*
X728452Y1244234D02*
D03*
X592000Y816500D02*
D03*
X260000Y952500D02*
D03*
X235000Y779980D02*
D03*
X600000Y1142500D02*
D03*
X580000D02*
D03*
X565000D02*
D03*
X550000D02*
D03*
X537500Y1142500D02*
D03*
X630000Y1130000D02*
D03*
X640000Y1140000D02*
D03*
X615000D02*
D03*
X635000Y1115000D02*
D03*
X615000D02*
D03*
X517500Y1057500D02*
D03*
X760000Y1125000D02*
D03*
X750000D02*
D03*
X760000Y1135000D02*
D03*
X750000D02*
D03*
X610000Y862500D02*
D03*
X535000Y832500D02*
D03*
X530000Y847500D02*
D03*
X525000Y862500D02*
D03*
X535000Y872500D02*
D03*
Y857500D02*
D03*
X550000Y837500D02*
D03*
X565000D02*
D03*
X580000D02*
D03*
X600000Y872500D02*
D03*
X615000D02*
D03*
X664458Y852462D02*
D03*
X649458D02*
D03*
X664458Y867462D02*
D03*
X80980Y618505D02*
D03*
X132248Y1147500D02*
D03*
X650000Y867500D02*
D03*
X730750Y1170250D02*
D03*
X730250Y1180250D02*
D03*
X722000Y1238500D02*
D03*
X725000Y1298000D02*
D03*
X640000Y1092500D02*
D03*
X630000Y1062500D02*
D03*
X620000Y1072500D02*
D03*
Y1092500D02*
D03*
X600000D02*
D03*
X610000Y1082500D02*
D03*
Y1062500D02*
D03*
X64500Y542500D02*
D03*
X65500Y602000D02*
D03*
X365000Y1242500D02*
D03*
X486000Y412500D02*
D03*
X585000Y777500D02*
D03*
D169*
X95000Y650000D02*
D03*
D170*
X810000Y52500D02*
D03*
X50000Y52500D02*
D03*
Y1352500D02*
D03*
X810000D02*
D03*
M02*
