G04*
G04 #@! TF.GenerationSoftware,Altium Limited,Altium Designer,26.3.0 (6)*
G04*
G04 Layer_Physical_Order=3*
G04 Layer_Color=7949734*
%FSLAX44Y44*%
%MOMM*%
G71*
G04*
G04 #@! TF.SameCoordinates,C73D5564-9998-425E-B212-E170596909CB*
G04*
G04*
G04 #@! TF.FilePolarity,Positive*
G04*
G01*
G75*
%ADD84C,0.6604*%
%ADD158C,1.9500*%
%ADD160C,1.6510*%
%ADD161R,1.6510X1.6510*%
%ADD162C,6.0000*%
%ADD163O,0.9906X2.1082*%
%ADD164O,0.9906X1.8034*%
%ADD166C,0.6500*%
%ADD167C,0.7000*%
%ADD168C,0.8500*%
%ADD169C,0.8000*%
%ADD170C,5.0000*%
%ADD171C,1.5240*%
G36*
X627500Y1346366D02*
X625500Y1344753D01*
X625000Y1344853D01*
X622952Y1344445D01*
X621215Y1343285D01*
X620055Y1341548D01*
X619647Y1339500D01*
X620055Y1337452D01*
X621215Y1335715D01*
X622952Y1334555D01*
X625000Y1334147D01*
X625500Y1334247D01*
X627500Y1332634D01*
Y1155000D01*
X475000D01*
Y1136674D01*
X474000Y1135853D01*
X471952Y1135445D01*
X470215Y1134285D01*
X469055Y1132549D01*
X468647Y1130500D01*
X469055Y1128452D01*
X470215Y1126715D01*
X471952Y1125555D01*
X474000Y1125147D01*
X475000Y1124326D01*
Y1035000D01*
X466114D01*
X465522Y1036721D01*
X465471Y1037000D01*
X466602Y1038693D01*
X467009Y1040741D01*
X466602Y1042790D01*
X465441Y1044526D01*
X463705Y1045687D01*
X461656Y1046094D01*
X459608Y1045687D01*
X457871Y1044526D01*
X456711Y1042790D01*
X456303Y1040741D01*
X456711Y1038693D01*
X457842Y1037000D01*
X457790Y1036721D01*
X457199Y1035000D01*
X448513D01*
X447961Y1036179D01*
X447767Y1037000D01*
X448816Y1038569D01*
X449223Y1040617D01*
X448816Y1042666D01*
X447655Y1044402D01*
X445919Y1045563D01*
X443870Y1045970D01*
X441822Y1045563D01*
X440085Y1044402D01*
X438925Y1042666D01*
X438517Y1040617D01*
X438925Y1038569D01*
X439973Y1037000D01*
X439779Y1036179D01*
X439227Y1035000D01*
X425000D01*
X382500Y992500D01*
Y935084D01*
X381000Y933853D01*
X378952Y933445D01*
X377215Y932285D01*
X376055Y930548D01*
X375647Y928500D01*
X376055Y926452D01*
X377215Y924715D01*
X378952Y923555D01*
X380922Y923163D01*
X380998Y923043D01*
X380977Y922157D01*
X380000Y920353D01*
X377952Y919945D01*
X376215Y918785D01*
X375055Y917048D01*
X374647Y915000D01*
X375055Y912952D01*
X376215Y911215D01*
X377952Y910055D01*
X380000Y909647D01*
X380500Y909747D01*
X382500Y908134D01*
Y590000D01*
X277061D01*
X276035Y591535D01*
X275703Y591757D01*
X274676Y593820D01*
X275083Y595868D01*
X274676Y597916D01*
X273516Y599653D01*
X271779Y600813D01*
X269731Y601221D01*
X267682Y600813D01*
X265945Y599653D01*
X264785Y597916D01*
X264378Y595868D01*
X264785Y593820D01*
X265945Y592083D01*
X266070Y592000D01*
X265463Y590000D01*
X195000D01*
Y459500D01*
X55763D01*
X55353Y460000D01*
X54945Y462048D01*
X53785Y463785D01*
X52048Y464945D01*
X50000Y465353D01*
X47952Y464945D01*
X46215Y463785D01*
X45055Y462048D01*
X44647Y460000D01*
X44237Y459500D01*
X4078D01*
Y885000D01*
X12036D01*
X12932Y884401D01*
X15371Y883916D01*
X17809Y884401D01*
X18705Y885000D01*
X62500D01*
Y1328494D01*
X65919Y1330589D01*
X69151Y1333349D01*
X71911Y1336581D01*
X74132Y1340204D01*
X75758Y1344131D01*
X76750Y1348263D01*
X77084Y1352500D01*
X76750Y1356737D01*
X75758Y1360869D01*
X74132Y1364796D01*
X71911Y1368419D01*
X69151Y1371651D01*
X65919Y1374411D01*
X62500Y1376506D01*
Y1398422D01*
X627500D01*
Y1346366D01*
D02*
G37*
G36*
X60000Y887500D02*
X4078D01*
Y901507D01*
X6078Y902043D01*
X6794Y900803D01*
X8703Y898894D01*
X11042Y897544D01*
X13650Y896845D01*
X16350D01*
X18958Y897544D01*
X21297Y898894D01*
X23206Y900803D01*
X24556Y903142D01*
X25255Y905750D01*
Y908450D01*
X24556Y911058D01*
X23206Y913397D01*
X21297Y915306D01*
X18958Y916656D01*
X16350Y917355D01*
X13650D01*
X11042Y916656D01*
X8703Y915306D01*
X6794Y913397D01*
X6078Y912157D01*
X4078Y912693D01*
Y926907D01*
X6078Y927443D01*
X6794Y926203D01*
X8703Y924294D01*
X11042Y922944D01*
X13650Y922245D01*
X16350D01*
X18958Y922944D01*
X21297Y924294D01*
X23206Y926203D01*
X24556Y928542D01*
X25255Y931150D01*
Y933850D01*
X24733Y935799D01*
X26019Y937171D01*
X26307Y937311D01*
X26456Y937250D01*
X28544D01*
X30474Y938049D01*
X31951Y939526D01*
X32750Y941456D01*
Y943544D01*
X31951Y945474D01*
X30474Y946951D01*
X28544Y947750D01*
X26456D01*
X24526Y946951D01*
X23049Y945474D01*
X22250Y943544D01*
Y942465D01*
X20329Y941265D01*
X18958Y942056D01*
X16350Y942755D01*
X13650D01*
X11042Y942056D01*
X8703Y940706D01*
X6794Y938797D01*
X6078Y937557D01*
X4078Y938093D01*
Y952307D01*
X6078Y952843D01*
X6794Y951603D01*
X8703Y949694D01*
X11042Y948344D01*
X13650Y947645D01*
X16350D01*
X18958Y948344D01*
X21297Y949694D01*
X23206Y951603D01*
X24556Y953942D01*
X25255Y956550D01*
Y959250D01*
X24556Y961858D01*
X23206Y964197D01*
X21297Y966106D01*
X18958Y967456D01*
X16350Y968155D01*
X13650D01*
X11042Y967456D01*
X8703Y966106D01*
X6794Y964197D01*
X6078Y962957D01*
X4078Y963493D01*
Y972028D01*
X5245Y973545D01*
X6078Y973545D01*
X13000D01*
Y983300D01*
Y993055D01*
X6078D01*
X5245Y993055D01*
X4078Y994572D01*
Y1023607D01*
X6078Y1024143D01*
X6794Y1022903D01*
X8703Y1020994D01*
X11042Y1019644D01*
X13650Y1018945D01*
X16350D01*
X18958Y1019644D01*
X21297Y1020994D01*
X23206Y1022903D01*
X24556Y1025242D01*
X25255Y1027850D01*
Y1030550D01*
X24556Y1033158D01*
X23206Y1035497D01*
X21297Y1037406D01*
X18958Y1038756D01*
X16350Y1039455D01*
X13650D01*
X11042Y1038756D01*
X8703Y1037406D01*
X6794Y1035497D01*
X6078Y1034257D01*
X4078Y1034793D01*
Y1049007D01*
X6078Y1049543D01*
X6794Y1048303D01*
X8703Y1046394D01*
X11042Y1045044D01*
X13650Y1044345D01*
X16350D01*
X18958Y1045044D01*
X21297Y1046394D01*
X23206Y1048303D01*
X24556Y1050642D01*
X25255Y1053250D01*
Y1055950D01*
X24556Y1058558D01*
X23206Y1060897D01*
X21297Y1062806D01*
X18958Y1064156D01*
X16350Y1064855D01*
X13650D01*
X11042Y1064156D01*
X8703Y1062806D01*
X6794Y1060897D01*
X6078Y1059657D01*
X4078Y1060193D01*
Y1074407D01*
X6078Y1074943D01*
X6794Y1073703D01*
X8703Y1071794D01*
X11042Y1070444D01*
X13650Y1069745D01*
X16350D01*
X18958Y1070444D01*
X21297Y1071794D01*
X23206Y1073703D01*
X24556Y1076042D01*
X25255Y1078650D01*
Y1081350D01*
X24556Y1083958D01*
X23206Y1086297D01*
X21297Y1088206D01*
X18958Y1089556D01*
X16350Y1090255D01*
X13650D01*
X11042Y1089556D01*
X8703Y1088206D01*
X6794Y1086297D01*
X6078Y1085057D01*
X4078Y1085593D01*
Y1094128D01*
X5245Y1095645D01*
X6078Y1095645D01*
X13000D01*
Y1105400D01*
Y1115155D01*
X6078D01*
X5245Y1115155D01*
X4078Y1116672D01*
Y1134254D01*
X6078Y1135083D01*
X6460Y1134702D01*
X8757Y1133750D01*
X11243D01*
X13540Y1134702D01*
X15299Y1136460D01*
X16250Y1138757D01*
Y1141243D01*
X15299Y1143540D01*
X13540Y1145298D01*
X11243Y1146250D01*
X8757D01*
X6460Y1145298D01*
X6078Y1144917D01*
X4078Y1145746D01*
Y1154254D01*
X6078Y1155083D01*
X6460Y1154702D01*
X8757Y1153750D01*
X11243D01*
X13540Y1154702D01*
X15299Y1156460D01*
X16250Y1158757D01*
Y1161243D01*
X15299Y1163540D01*
X13540Y1165298D01*
X11243Y1166250D01*
X8757D01*
X6460Y1165298D01*
X6078Y1164917D01*
X4078Y1165746D01*
Y1174254D01*
X6078Y1175083D01*
X6460Y1174702D01*
X8757Y1173750D01*
X11243D01*
X13540Y1174702D01*
X15299Y1176460D01*
X16250Y1178757D01*
Y1181243D01*
X15299Y1183540D01*
X13540Y1185298D01*
X11243Y1186250D01*
X8757D01*
X6460Y1185298D01*
X6078Y1184917D01*
X4078Y1185746D01*
Y1194254D01*
X6078Y1195083D01*
X6460Y1194702D01*
X8757Y1193750D01*
X11243D01*
X13540Y1194702D01*
X15299Y1196460D01*
X16250Y1198757D01*
Y1201243D01*
X15299Y1203540D01*
X13540Y1205298D01*
X11243Y1206250D01*
X8757D01*
X6460Y1205298D01*
X6078Y1204917D01*
X4078Y1205746D01*
Y1214254D01*
X6078Y1215083D01*
X6460Y1214702D01*
X8757Y1213750D01*
X11243D01*
X13540Y1214702D01*
X15299Y1216460D01*
X16250Y1218757D01*
Y1221243D01*
X15299Y1223540D01*
X13540Y1225298D01*
X11243Y1226250D01*
X8757D01*
X6460Y1225298D01*
X6078Y1224917D01*
X4078Y1225746D01*
Y1234254D01*
X6078Y1235083D01*
X6460Y1234702D01*
X8757Y1233750D01*
X11243D01*
X13540Y1234702D01*
X15299Y1236460D01*
X16250Y1238757D01*
Y1241243D01*
X15299Y1243540D01*
X13540Y1245298D01*
X11243Y1246250D01*
X8757D01*
X6460Y1245298D01*
X6078Y1244917D01*
X4078Y1245746D01*
Y1254254D01*
X6078Y1255083D01*
X6460Y1254702D01*
X8757Y1253750D01*
X11243D01*
X13540Y1254702D01*
X15299Y1256460D01*
X16250Y1258757D01*
Y1261243D01*
X15299Y1263540D01*
X13540Y1265298D01*
X11243Y1266250D01*
X8757D01*
X6460Y1265298D01*
X6078Y1264917D01*
X4078Y1265746D01*
Y1274254D01*
X6078Y1275083D01*
X6460Y1274702D01*
X8757Y1273750D01*
X11243D01*
X13540Y1274702D01*
X15299Y1276460D01*
X16250Y1278757D01*
Y1281243D01*
X15299Y1283540D01*
X13540Y1285298D01*
X11243Y1286250D01*
X8757D01*
X6460Y1285298D01*
X6078Y1284917D01*
X4078Y1285746D01*
Y1294500D01*
X6946D01*
X8757Y1293750D01*
X11243D01*
X13054Y1294500D01*
X60000D01*
Y887500D01*
D02*
G37*
G36*
X726768Y1102500D02*
X675197D01*
X675000Y1102539D01*
X477500D01*
Y1126575D01*
X478451Y1127526D01*
X479250Y1129456D01*
Y1131544D01*
X478451Y1133474D01*
X477500Y1134425D01*
Y1150000D01*
X726768D01*
Y1102500D01*
D02*
G37*
G36*
X745000Y1302500D02*
Y1185000D01*
X805000Y1125000D01*
Y1051500D01*
X576648D01*
X576044Y1051750D01*
X573956D01*
X573352Y1051500D01*
X539648D01*
X539044Y1051750D01*
X536956D01*
X536352Y1051500D01*
X477500D01*
Y1100500D01*
X675000D01*
X675500Y1100000D01*
X730000D01*
X730000Y1155000D01*
X710000D01*
Y1305000D01*
X745000D01*
Y1302500D01*
D02*
G37*
G36*
X575868Y1049616D02*
X576648Y1049461D01*
X605616D01*
X649869Y1010739D01*
X672219D01*
X672489Y1010628D01*
X675000Y1010297D01*
X677511Y1010628D01*
X677781Y1010739D01*
X787219D01*
X787489Y1010628D01*
X790000Y1010297D01*
X792511Y1010628D01*
X792781Y1010739D01*
X844014D01*
X844982Y1008739D01*
X844113Y1007439D01*
X843627Y1005000D01*
X844113Y1002561D01*
X845494Y1000494D01*
X847561Y999113D01*
X850000Y998627D01*
X852439Y999113D01*
X854506Y1000494D01*
X855887Y1002561D01*
X856373Y1005000D01*
X855887Y1007439D01*
X855018Y1008739D01*
X855986Y1010739D01*
X858422D01*
X858422Y212750D01*
X835679D01*
X834506Y214506D01*
X832439Y215887D01*
X830000Y216373D01*
X827561Y215887D01*
X825494Y214506D01*
X824321Y212750D01*
X815679D01*
X814506Y214506D01*
X812439Y215887D01*
X810000Y216373D01*
X807561Y215887D01*
X805494Y214506D01*
X804321Y212750D01*
X795679D01*
X794506Y214506D01*
X792439Y215887D01*
X790000Y216373D01*
X787561Y215887D01*
X785494Y214506D01*
X784321Y212750D01*
X775679D01*
X774506Y214506D01*
X772439Y215887D01*
X770000Y216373D01*
X767561Y215887D01*
X765494Y214506D01*
X764321Y212750D01*
X755679D01*
X754506Y214506D01*
X752439Y215887D01*
X750000Y216373D01*
X747561Y215887D01*
X745494Y214506D01*
X744321Y212750D01*
X735679D01*
X734506Y214506D01*
X732439Y215887D01*
X730000Y216373D01*
X727561Y215887D01*
X725494Y214506D01*
X724321Y212750D01*
X715679D01*
X714506Y214506D01*
X712439Y215887D01*
X710000Y216373D01*
X707561Y215887D01*
X705494Y214506D01*
X704321Y212750D01*
X695679D01*
X694506Y214506D01*
X692439Y215887D01*
X690000Y216373D01*
X687561Y215887D01*
X685494Y214506D01*
X684321Y212750D01*
X545737D01*
X545529Y213796D01*
X544750Y214962D01*
Y221750D01*
X525250D01*
Y212750D01*
X456798D01*
X456011Y214223D01*
X455925Y214750D01*
X456372Y217000D01*
X455887Y219439D01*
X454506Y221506D01*
X452439Y222887D01*
X450000Y223372D01*
X447561Y222887D01*
X445494Y221506D01*
X444113Y219439D01*
X443628Y217000D01*
X444075Y214750D01*
X443989Y214223D01*
X443202Y212750D01*
X440798D01*
X440011Y214223D01*
X439925Y214750D01*
X440372Y217000D01*
X439887Y219439D01*
X438506Y221506D01*
X436439Y222887D01*
X434000Y223372D01*
X431561Y222887D01*
X429494Y221506D01*
X428113Y219439D01*
X427627Y217000D01*
X428075Y214750D01*
X427989Y214223D01*
X427202Y212750D01*
X275000D01*
Y258250D01*
X611476D01*
X611613Y257561D01*
X612994Y255494D01*
X615061Y254113D01*
X617500Y253627D01*
X617502Y253628D01*
X618021Y253245D01*
X619003Y251887D01*
X618628Y250000D01*
X619113Y247561D01*
X620494Y245494D01*
X622561Y244113D01*
X625000Y243628D01*
X627439Y244113D01*
X629506Y245494D01*
X630887Y247561D01*
X631372Y250000D01*
X630997Y251887D01*
X631979Y253245D01*
X632498Y253628D01*
X632500Y253627D01*
X634939Y254113D01*
X637006Y255494D01*
X638387Y257561D01*
X638524Y258250D01*
X795000D01*
Y583419D01*
X797000Y584488D01*
X797561Y584113D01*
X800000Y583628D01*
X802439Y584113D01*
X804506Y585494D01*
X805887Y587561D01*
X806373Y590000D01*
X805887Y592439D01*
X804506Y594506D01*
X802439Y595887D01*
X800000Y596372D01*
X797561Y595887D01*
X797000Y595512D01*
X795031Y596565D01*
Y598435D01*
X797000Y599488D01*
X797561Y599113D01*
X800000Y598628D01*
X802439Y599113D01*
X804506Y600494D01*
X805887Y602561D01*
X806373Y605000D01*
X805887Y607439D01*
X804506Y609506D01*
X802439Y610887D01*
X800000Y611372D01*
X797561Y610887D01*
X797000Y610512D01*
X795031Y611565D01*
Y613435D01*
X797000Y614488D01*
X797561Y614113D01*
X800000Y613628D01*
X802439Y614113D01*
X804506Y615494D01*
X805887Y617561D01*
X806373Y620000D01*
X805887Y622439D01*
X804506Y624506D01*
X802439Y625887D01*
X800000Y626372D01*
X797561Y625887D01*
X797000Y625512D01*
X795031Y626565D01*
Y628435D01*
X797000Y629488D01*
X797561Y629113D01*
X800000Y628628D01*
X802439Y629113D01*
X804506Y630494D01*
X805887Y632561D01*
X806373Y635000D01*
X805887Y637439D01*
X804506Y639506D01*
X802439Y640887D01*
X800000Y641373D01*
X797561Y640887D01*
X797000Y640512D01*
X795000Y641581D01*
Y901711D01*
X796861Y903139D01*
X798403Y905148D01*
X799372Y907489D01*
X799703Y910000D01*
X799372Y912511D01*
X798403Y914852D01*
X796861Y916861D01*
X795000Y918289D01*
Y951711D01*
X796861Y953139D01*
X798403Y955148D01*
X799372Y957489D01*
X799703Y960000D01*
X799372Y962511D01*
X798403Y964852D01*
X796861Y966861D01*
X795000Y968289D01*
Y970000D01*
X658767D01*
X657439Y970887D01*
X655000Y971373D01*
X652561Y970887D01*
X651233Y970000D01*
X645000D01*
X605000Y931500D01*
X538517D01*
X538000Y931603D01*
X537483Y931500D01*
X485000D01*
Y928084D01*
X483454Y926815D01*
X483263Y926853D01*
X481214Y926445D01*
X479478Y925285D01*
X478317Y923548D01*
X477910Y921500D01*
X478317Y919452D01*
X479478Y917715D01*
X481214Y916555D01*
X483263Y916147D01*
X483454Y916185D01*
X485000Y914916D01*
Y693679D01*
X483000Y692610D01*
X482146Y693181D01*
X480000Y693608D01*
X477854Y693181D01*
X476035Y691965D01*
X474819Y690146D01*
X474392Y688000D01*
X474819Y685854D01*
X476035Y684035D01*
X477854Y682819D01*
X480000Y682392D01*
X482146Y682819D01*
X483000Y683390D01*
X485000Y682321D01*
Y667500D01*
X502500Y650000D01*
X512500D01*
Y622500D01*
X446250D01*
Y872004D01*
X447178Y872531D01*
X448250Y872823D01*
X450061Y871613D01*
X452500Y871127D01*
X454939Y871613D01*
X457006Y872994D01*
X458387Y875061D01*
X458872Y877500D01*
X458387Y879939D01*
X457006Y882006D01*
X454939Y883387D01*
X452500Y883873D01*
X450061Y883387D01*
X448250Y882177D01*
X447178Y882469D01*
X446250Y882996D01*
Y1000000D01*
X495711Y1049461D01*
X536352D01*
X537132Y1049616D01*
X537361Y1049711D01*
X538639D01*
X538867Y1049616D01*
X539648Y1049461D01*
X573352D01*
X574132Y1049616D01*
X574361Y1049711D01*
X575639D01*
X575868Y1049616D01*
D02*
G37*
G36*
X792961Y920809D02*
X791374Y919591D01*
X791266Y919620D01*
X788734D01*
X786287Y918964D01*
X784093Y917698D01*
X782302Y915907D01*
X781778Y915000D01*
X790000D01*
Y905000D01*
X781778D01*
X782302Y904093D01*
X784093Y902302D01*
X784616Y902000D01*
X784081Y900000D01*
X740000D01*
Y887039D01*
X739220Y886884D01*
X738558Y886442D01*
X738116Y885780D01*
X737961Y885000D01*
X737961Y645000D01*
X702500D01*
Y881690D01*
X626071D01*
X625780Y881884D01*
X625000Y882039D01*
X577772D01*
X576992Y881884D01*
X576833Y881818D01*
X575556D01*
X575397Y881884D01*
X574617Y882039D01*
X540310D01*
X539530Y881884D01*
X539371Y881818D01*
X538094D01*
X537935Y881884D01*
X537155Y882039D01*
X529658D01*
X529658Y882039D01*
X529658Y882039D01*
X529549Y882018D01*
X527574D01*
X527465Y882039D01*
X527465Y882039D01*
X527465Y882039D01*
X492500D01*
Y929461D01*
X537483D01*
X537680Y929500D01*
X537881D01*
X538000Y929524D01*
X538119Y929500D01*
X538320D01*
X538517Y929461D01*
X605000D01*
X605371Y929535D01*
X605744Y929602D01*
X605761Y929612D01*
X605780Y929616D01*
X606096Y929827D01*
X606366Y930000D01*
X792961D01*
Y920809D01*
D02*
G37*
G36*
X625000Y822500D02*
X593847D01*
X593243Y822750D01*
X590757D01*
X590153Y822500D01*
X492477D01*
Y880000D01*
X527465D01*
X527517Y879978D01*
X529606D01*
X529658Y880000D01*
X537155D01*
X537688Y879779D01*
X539777D01*
X540310Y880000D01*
X574617D01*
X575150Y879779D01*
X577239D01*
X577772Y880000D01*
X625000D01*
Y822500D01*
D02*
G37*
G36*
X685000Y788873D02*
X685000Y788873D01*
X682561Y788387D01*
X681862Y787920D01*
X680420Y789362D01*
X680887Y790061D01*
X681372Y792500D01*
X680887Y794939D01*
X679506Y797006D01*
X677439Y798387D01*
X675000Y798873D01*
X672561Y798387D01*
X670494Y797006D01*
X669113Y794939D01*
X668627Y792500D01*
X669113Y790061D01*
X669580Y789362D01*
X668138Y787920D01*
X667439Y788387D01*
X665000Y788873D01*
X662561Y788387D01*
X660494Y787006D01*
X659113Y784939D01*
X658627Y782500D01*
X659113Y780061D01*
X660494Y777994D01*
X662561Y776613D01*
X665000Y776128D01*
X667439Y776613D01*
X669506Y777994D01*
X670887Y780061D01*
X671372Y782500D01*
X670887Y784939D01*
X670420Y785638D01*
X671862Y787080D01*
X672561Y786613D01*
X675000Y786128D01*
X677439Y786613D01*
X678138Y787080D01*
X679580Y785638D01*
X679113Y784939D01*
X678627Y782500D01*
X679113Y780061D01*
X680494Y777994D01*
X682561Y776613D01*
X685000Y776128D01*
X685000Y776127D01*
Y768873D01*
X685000Y768873D01*
X682561Y768387D01*
X680494Y767006D01*
X679113Y764939D01*
X678627Y762500D01*
X679113Y760061D01*
X680494Y757994D01*
X682561Y756613D01*
X685000Y756128D01*
X685000Y756127D01*
Y748873D01*
X685000Y748873D01*
X682561Y748387D01*
X680494Y747006D01*
X679113Y744939D01*
X678627Y742500D01*
X679113Y740061D01*
X680494Y737994D01*
X682561Y736613D01*
X685000Y736128D01*
X685000Y736127D01*
Y728873D01*
X685000Y728873D01*
X682561Y728387D01*
X680494Y727006D01*
X679113Y724939D01*
X678627Y722500D01*
X679113Y720061D01*
X680494Y717994D01*
X682561Y716613D01*
X685000Y716128D01*
X685000Y716127D01*
Y708873D01*
X685000Y708873D01*
X682561Y708387D01*
X680494Y707006D01*
X679113Y704939D01*
X678627Y702500D01*
X679113Y700061D01*
X679580Y699362D01*
X678138Y697920D01*
X677439Y698387D01*
X675000Y698873D01*
X672561Y698387D01*
X671862Y697920D01*
X670420Y699362D01*
X670887Y700061D01*
X671372Y702500D01*
X670887Y704939D01*
X669506Y707006D01*
X667439Y708387D01*
X665000Y708873D01*
X662561Y708387D01*
X660494Y707006D01*
X659113Y704939D01*
X658627Y702500D01*
X659113Y700061D01*
X659580Y699362D01*
X658138Y697920D01*
X657439Y698387D01*
X655000Y698873D01*
X652561Y698387D01*
X650494Y697006D01*
X649113Y694939D01*
X648628Y692500D01*
X649113Y690061D01*
X650494Y687994D01*
X652561Y686613D01*
X655000Y686128D01*
X657439Y686613D01*
X659506Y687994D01*
X660887Y690061D01*
X661373Y692500D01*
X660887Y694939D01*
X660420Y695638D01*
X661862Y697080D01*
X662561Y696613D01*
X665000Y696128D01*
X667439Y696613D01*
X668138Y697080D01*
X669580Y695638D01*
X669113Y694939D01*
X668627Y692500D01*
X669113Y690061D01*
X670494Y687994D01*
X672561Y686613D01*
X675000Y686128D01*
X677439Y686613D01*
X679506Y687994D01*
X680887Y690061D01*
X681372Y692500D01*
X680887Y694939D01*
X680420Y695638D01*
X681862Y697080D01*
X682561Y696613D01*
X685000Y696128D01*
X685000Y696127D01*
Y602500D01*
X695482Y595512D01*
X695494Y595494D01*
X697561Y594113D01*
X697589Y594107D01*
X727500Y574167D01*
Y477500D01*
X700000D01*
Y492500D01*
X690000Y502500D01*
X516000D01*
Y382500D01*
X479000D01*
Y502500D01*
X265000D01*
Y426581D01*
X263000Y425512D01*
X262439Y425887D01*
X260000Y426372D01*
X257561Y425887D01*
X255494Y424506D01*
X254113Y422439D01*
X253627Y420000D01*
X254113Y417561D01*
X255494Y415494D01*
X256796Y414624D01*
X257284Y412284D01*
X240000Y395000D01*
X188767D01*
X187439Y395887D01*
X185000Y396372D01*
X182561Y395887D01*
X181233Y395000D01*
X163767D01*
X162439Y395887D01*
X160000Y396372D01*
X157561Y395887D01*
X156233Y395000D01*
X105514D01*
X105345Y395849D01*
X104185Y397585D01*
X104167Y397597D01*
Y400003D01*
X104185Y400015D01*
X105345Y401752D01*
X105753Y403800D01*
X105345Y405848D01*
X104185Y407585D01*
X102448Y408745D01*
X100400Y409153D01*
X98351Y408745D01*
X96615Y407585D01*
X95455Y405848D01*
X95047Y403800D01*
X95455Y401752D01*
X96615Y400015D01*
X96633Y400003D01*
Y397597D01*
X96615Y397585D01*
X95455Y395849D01*
X95286Y395000D01*
X85000D01*
Y185000D01*
X25000D01*
Y246096D01*
X25076D01*
Y266606D01*
X25000D01*
Y280500D01*
X25165Y281751D01*
X25000Y283001D01*
Y305900D01*
X25165Y307151D01*
X25000Y308401D01*
Y331300D01*
X25165Y332551D01*
X25000Y333801D01*
Y356700D01*
X25165Y357951D01*
X25000Y359201D01*
Y382100D01*
X25165Y383351D01*
X25000Y384601D01*
Y407500D01*
X25165Y408751D01*
X25000Y410001D01*
Y432900D01*
X25165Y434151D01*
X25000Y435401D01*
Y450000D01*
X96629D01*
X97236Y448000D01*
X96615Y447585D01*
X95455Y445849D01*
X95047Y443800D01*
X95455Y441752D01*
X96615Y440015D01*
X98351Y438855D01*
X100400Y438447D01*
X102448Y438855D01*
X104185Y440015D01*
X105345Y441752D01*
X105753Y443800D01*
X105345Y445849D01*
X104185Y447585D01*
X103564Y448000D01*
X104171Y450000D01*
X152807D01*
X153628Y449000D01*
X154113Y446561D01*
X155494Y444494D01*
X157561Y443113D01*
X160000Y442627D01*
X162439Y443113D01*
X164506Y444494D01*
X165887Y446561D01*
X166373Y449000D01*
X167193Y450000D01*
X205000D01*
Y580000D01*
X264036D01*
X264852Y579006D01*
X265259Y576958D01*
X266420Y575221D01*
X265800Y574406D01*
X265676Y574324D01*
X264516Y572587D01*
X264109Y570538D01*
X264377Y569189D01*
X264432Y568330D01*
X263457Y566475D01*
X262769Y566015D01*
X261608Y564278D01*
X261201Y562230D01*
X261608Y560182D01*
X262769Y558445D01*
X264505Y557285D01*
X264792Y555188D01*
X264647Y554460D01*
X265055Y552412D01*
X263729Y550796D01*
X262215Y549785D01*
X261055Y548048D01*
X260647Y546000D01*
X261055Y543952D01*
X262215Y542215D01*
X263786Y541166D01*
X264908Y539949D01*
X265088Y539515D01*
X264681Y537466D01*
X265088Y535418D01*
X266248Y533681D01*
X267985Y532521D01*
X270033Y532114D01*
X272082Y532521D01*
X273819Y533681D01*
X274979Y535418D01*
X275386Y537466D01*
X274979Y539515D01*
X273819Y541251D01*
X272248Y542301D01*
X271125Y543517D01*
X270945Y543952D01*
X271353Y546000D01*
X270945Y548048D01*
X272271Y549664D01*
X273785Y550675D01*
X274945Y552411D01*
X275353Y554460D01*
X274945Y556508D01*
X273785Y558245D01*
X272048Y559405D01*
X271762Y561502D01*
X271907Y562230D01*
X271638Y563579D01*
X271583Y564439D01*
X272558Y566293D01*
X273246Y566753D01*
X274407Y568490D01*
X274814Y570538D01*
X274407Y572587D01*
X274172Y572938D01*
X273990Y575221D01*
X275150Y576958D01*
X275557Y579006D01*
X276373Y580000D01*
X612500Y580000D01*
X635000Y602500D01*
Y867500D01*
X685000D01*
Y788873D01*
D02*
G37*
G36*
X791000Y340000D02*
X740000Y340000D01*
X740000Y885000D01*
X791000Y885000D01*
Y340000D01*
D02*
G37*
G36*
X405000Y433407D02*
X404713Y432715D01*
Y430626D01*
X404861Y430270D01*
X403525Y428270D01*
X402956D01*
X401026Y427471D01*
X399549Y425994D01*
X398750Y424064D01*
Y421976D01*
X399549Y420046D01*
X401026Y418569D01*
X402956Y417770D01*
X405044D01*
X406974Y418569D01*
X408451Y420046D01*
X409250Y421976D01*
Y422922D01*
X411250Y423750D01*
X457000Y378000D01*
X506000D01*
Y322500D01*
X396000D01*
Y325653D01*
X396250Y326257D01*
Y328743D01*
X396000Y329347D01*
Y415000D01*
X390295Y421711D01*
X389612Y423362D01*
X388135Y424838D01*
X387500Y425102D01*
Y465000D01*
X405000D01*
Y433407D01*
D02*
G37*
G36*
X641000Y428500D02*
X647502Y421998D01*
Y421635D01*
X648301Y419705D01*
X649778Y418228D01*
X651708Y417429D01*
X652071D01*
X669000Y400500D01*
X732000D01*
Y346500D01*
Y291500D01*
X635000D01*
Y415500D01*
X633000D01*
X628354Y420146D01*
X628218Y420474D01*
X626741Y421951D01*
X626413Y422087D01*
X622985Y425515D01*
X622873Y425787D01*
X622000Y426659D01*
Y464500D01*
X641000D01*
Y428500D01*
D02*
G37*
G36*
X611000Y423500D02*
X605000Y417500D01*
X602000Y415500D01*
Y385500D01*
X573000Y347500D01*
Y333750D01*
X571257D01*
X568960Y332799D01*
X567201Y331040D01*
X566250Y328743D01*
Y326257D01*
X567201Y323960D01*
X568960Y322201D01*
X571257Y321250D01*
X573000D01*
Y260289D01*
X521000D01*
Y405500D01*
X569000D01*
X575000Y415500D01*
X581000Y425500D01*
X592000D01*
Y464500D01*
X611000D01*
Y423500D01*
D02*
G37*
G36*
X373000Y426000D02*
X364500Y416000D01*
X359000Y388000D01*
X312000Y335750D01*
Y260289D01*
X275000D01*
X274000Y262129D01*
Y364000D01*
X316926Y406926D01*
X355500Y438000D01*
Y466000D01*
X373000D01*
Y426000D01*
D02*
G37*
G36*
X670000Y176000D02*
X590000D01*
X578000Y188000D01*
X576657Y188657D01*
X563870D01*
X563785Y188785D01*
X562048Y189945D01*
X560000Y190353D01*
X557952Y189945D01*
X556215Y188785D01*
X556130Y188657D01*
X514422D01*
Y167177D01*
X511500Y167136D01*
X514422D01*
Y141127D01*
X514397Y141000D01*
X514422Y140873D01*
Y133127D01*
X514397Y133000D01*
X514422Y132873D01*
Y125127D01*
X514397Y125000D01*
X514422Y124873D01*
Y117127D01*
X514397Y117000D01*
X514422Y116873D01*
Y109138D01*
X496886D01*
X495785Y110785D01*
X494048Y111945D01*
X492000Y112353D01*
X489952Y111945D01*
X488215Y110785D01*
X487114Y109138D01*
X477886D01*
X476785Y110785D01*
X475048Y111945D01*
X473000Y112353D01*
X470952Y111945D01*
X469215Y110785D01*
X468114Y109138D01*
X419039D01*
Y149000D01*
X419000Y149197D01*
Y163154D01*
X419000Y165154D01*
X419074Y166090D01*
X420325Y166486D01*
X421995Y165123D01*
X421967Y146046D01*
X424000Y144138D01*
X443500D01*
X448000Y148638D01*
Y150043D01*
X448685Y151067D01*
X449092Y153116D01*
X448685Y155164D01*
X448000Y156189D01*
Y165962D01*
X448777Y166481D01*
X449937Y168218D01*
X450344Y170266D01*
X449937Y172314D01*
X448777Y174051D01*
X447040Y175211D01*
X444991Y175619D01*
X442943Y175211D01*
X441333Y174136D01*
X438006Y174095D01*
X436459Y175128D01*
X434411Y175536D01*
X432362Y175128D01*
X430680Y174004D01*
X425806Y173944D01*
X421967Y170000D01*
X421968Y169266D01*
X420242Y167894D01*
X419209Y168247D01*
D01*
X419039Y168305D01*
Y187000D01*
X419000Y187197D01*
Y210138D01*
X670000D01*
Y176000D01*
D02*
G37*
G36*
X417000Y167000D02*
X414000D01*
X414000Y170000D01*
X412000Y172000D01*
X395000D01*
X392000Y169000D01*
Y147000D01*
X393808Y145192D01*
X394055Y143952D01*
X395215Y142215D01*
X396952Y141055D01*
X399000Y140647D01*
X401048Y141055D01*
X402463Y142000D01*
X410000D01*
X414000Y146000D01*
X414000Y149000D01*
X417000D01*
Y109000D01*
X317250D01*
Y155000D01*
X351000D01*
X355000Y159000D01*
Y176000D01*
X366000Y187000D01*
X417000D01*
Y167000D01*
D02*
G37*
G36*
X276000Y75299D02*
X275204D01*
X273274Y74499D01*
X271797Y73022D01*
X270998Y71093D01*
Y69004D01*
X271797Y67075D01*
X273274Y65598D01*
X275204Y64799D01*
X276000D01*
Y21250D01*
X273757D01*
X271460Y20299D01*
X269701Y18540D01*
X268750Y16243D01*
Y13757D01*
X269701Y11460D01*
X271460Y9701D01*
X273757Y8750D01*
X276000D01*
Y6578D01*
X162000D01*
Y93954D01*
X164000Y94352D01*
X164549Y93026D01*
X166026Y91549D01*
X167956Y90750D01*
X170044D01*
X171974Y91549D01*
X173451Y93026D01*
X174250Y94956D01*
Y95916D01*
X176180Y97213D01*
X177061Y96848D01*
X179149D01*
X181079Y97648D01*
X182556Y99125D01*
X183355Y101054D01*
Y103143D01*
X182556Y105072D01*
X181079Y106549D01*
X179149Y107348D01*
X177061D01*
X175131Y106549D01*
X173654Y105072D01*
X172855Y103143D01*
Y102183D01*
X170925Y100885D01*
X170044Y101250D01*
X167956D01*
X166026Y100451D01*
X164549Y98974D01*
X164000Y97648D01*
X162000Y98046D01*
Y112328D01*
X163588D01*
X165517Y113127D01*
X166994Y114604D01*
X167793Y116534D01*
Y118622D01*
X167430Y119500D01*
X168659Y121500D01*
X253825D01*
X254026Y121299D01*
X255956Y120500D01*
X258044D01*
X259974Y121299D01*
X260175Y121500D01*
X276000D01*
Y75299D01*
D02*
G37*
G36*
X554661Y185072D02*
X554647Y185000D01*
X555055Y182952D01*
X556215Y181215D01*
X557952Y180055D01*
X560000Y179647D01*
X562048Y180055D01*
X563785Y181215D01*
X564945Y182952D01*
X565353Y185000D01*
X566811Y186194D01*
X568427Y186250D01*
X578500Y176177D01*
Y159177D01*
X582500Y155177D01*
X609309D01*
X609729Y154290D01*
X609854Y153177D01*
X608139Y151861D01*
X606597Y149852D01*
X605628Y147511D01*
X605297Y145000D01*
X605628Y142489D01*
X606597Y140148D01*
X608139Y138139D01*
X610149Y136597D01*
X612489Y135628D01*
X615000Y135297D01*
X616250Y134201D01*
Y89000D01*
X382000D01*
Y106961D01*
X417000D01*
X417780Y107116D01*
X418123Y107345D01*
X418259Y107254D01*
X419039Y107099D01*
X467566D01*
X467647Y107000D01*
X468055Y104952D01*
X469215Y103215D01*
X470952Y102055D01*
X473000Y101647D01*
X475048Y102055D01*
X476785Y103215D01*
X477945Y104952D01*
X478353Y107000D01*
X478434Y107099D01*
X486566D01*
X486647Y107000D01*
X487055Y104952D01*
X488215Y103215D01*
X489952Y102055D01*
X492000Y101647D01*
X494048Y102055D01*
X495785Y103215D01*
X496945Y104952D01*
X497353Y107000D01*
X497434Y107099D01*
X514422D01*
X515203Y107254D01*
X515864Y107696D01*
X516068Y108000D01*
X516500D01*
Y167177D01*
X516500D01*
Y186618D01*
X553393D01*
X554661Y185072D01*
D02*
G37*
%LPC*%
G36*
X615000Y1396372D02*
X612561Y1395887D01*
X610494Y1394506D01*
X609113Y1392439D01*
X608628Y1390000D01*
X609113Y1387561D01*
X610494Y1385494D01*
X612561Y1384113D01*
X615000Y1383627D01*
X617439Y1384113D01*
X619506Y1385494D01*
X620887Y1387561D01*
X621372Y1390000D01*
X620887Y1392439D01*
X619506Y1394506D01*
X617439Y1395887D01*
X615000Y1396372D01*
D02*
G37*
G36*
X595000D02*
X592561Y1395887D01*
X590494Y1394506D01*
X589113Y1392439D01*
X588628Y1390000D01*
X589113Y1387561D01*
X590494Y1385494D01*
X592561Y1384113D01*
X595000Y1383627D01*
X597439Y1384113D01*
X599506Y1385494D01*
X600887Y1387561D01*
X601372Y1390000D01*
X600887Y1392439D01*
X599506Y1394506D01*
X597439Y1395887D01*
X595000Y1396372D01*
D02*
G37*
G36*
X575000D02*
X572561Y1395887D01*
X570494Y1394506D01*
X569113Y1392439D01*
X568628Y1390000D01*
X569113Y1387561D01*
X570494Y1385494D01*
X572561Y1384113D01*
X575000Y1383627D01*
X577439Y1384113D01*
X579506Y1385494D01*
X580887Y1387561D01*
X581372Y1390000D01*
X580887Y1392439D01*
X579506Y1394506D01*
X577439Y1395887D01*
X575000Y1396372D01*
D02*
G37*
G36*
X555000D02*
X552561Y1395887D01*
X550494Y1394506D01*
X549113Y1392439D01*
X548628Y1390000D01*
X549113Y1387561D01*
X550494Y1385494D01*
X552561Y1384113D01*
X555000Y1383627D01*
X557439Y1384113D01*
X559506Y1385494D01*
X560887Y1387561D01*
X561372Y1390000D01*
X560887Y1392439D01*
X559506Y1394506D01*
X557439Y1395887D01*
X555000Y1396372D01*
D02*
G37*
G36*
X535000D02*
X532561Y1395887D01*
X530494Y1394506D01*
X529113Y1392439D01*
X528628Y1390000D01*
X529113Y1387561D01*
X530494Y1385494D01*
X532561Y1384113D01*
X535000Y1383627D01*
X537439Y1384113D01*
X539506Y1385494D01*
X540887Y1387561D01*
X541372Y1390000D01*
X540887Y1392439D01*
X539506Y1394506D01*
X537439Y1395887D01*
X535000Y1396372D01*
D02*
G37*
G36*
X515000D02*
X512561Y1395887D01*
X510494Y1394506D01*
X509113Y1392439D01*
X508628Y1390000D01*
X509113Y1387561D01*
X510494Y1385494D01*
X512561Y1384113D01*
X515000Y1383627D01*
X517439Y1384113D01*
X519506Y1385494D01*
X520887Y1387561D01*
X521372Y1390000D01*
X520887Y1392439D01*
X519506Y1394506D01*
X517439Y1395887D01*
X515000Y1396372D01*
D02*
G37*
G36*
X495000D02*
X492561Y1395887D01*
X490494Y1394506D01*
X489113Y1392439D01*
X488628Y1390000D01*
X489113Y1387561D01*
X490494Y1385494D01*
X492561Y1384113D01*
X495000Y1383627D01*
X497439Y1384113D01*
X499506Y1385494D01*
X500887Y1387561D01*
X501372Y1390000D01*
X500887Y1392439D01*
X499506Y1394506D01*
X497439Y1395887D01*
X495000Y1396372D01*
D02*
G37*
G36*
X475000D02*
X472561Y1395887D01*
X470494Y1394506D01*
X469113Y1392439D01*
X468628Y1390000D01*
X469113Y1387561D01*
X470494Y1385494D01*
X472561Y1384113D01*
X475000Y1383627D01*
X477439Y1384113D01*
X479506Y1385494D01*
X480887Y1387561D01*
X481372Y1390000D01*
X480887Y1392439D01*
X479506Y1394506D01*
X477439Y1395887D01*
X475000Y1396372D01*
D02*
G37*
G36*
X455000D02*
X452561Y1395887D01*
X450494Y1394506D01*
X449113Y1392439D01*
X448628Y1390000D01*
X449113Y1387561D01*
X450494Y1385494D01*
X452561Y1384113D01*
X455000Y1383627D01*
X457439Y1384113D01*
X459506Y1385494D01*
X460887Y1387561D01*
X461372Y1390000D01*
X460887Y1392439D01*
X459506Y1394506D01*
X457439Y1395887D01*
X455000Y1396372D01*
D02*
G37*
G36*
X435000D02*
X432561Y1395887D01*
X430494Y1394506D01*
X429113Y1392439D01*
X428628Y1390000D01*
X429113Y1387561D01*
X430494Y1385494D01*
X432561Y1384113D01*
X435000Y1383627D01*
X437439Y1384113D01*
X439506Y1385494D01*
X440887Y1387561D01*
X441372Y1390000D01*
X440887Y1392439D01*
X439506Y1394506D01*
X437439Y1395887D01*
X435000Y1396372D01*
D02*
G37*
G36*
X415000D02*
X412561Y1395887D01*
X410494Y1394506D01*
X409113Y1392439D01*
X408628Y1390000D01*
X409113Y1387561D01*
X410494Y1385494D01*
X412561Y1384113D01*
X415000Y1383627D01*
X417439Y1384113D01*
X419506Y1385494D01*
X420887Y1387561D01*
X421372Y1390000D01*
X420887Y1392439D01*
X419506Y1394506D01*
X417439Y1395887D01*
X415000Y1396372D01*
D02*
G37*
G36*
X395000D02*
X392561Y1395887D01*
X390494Y1394506D01*
X389113Y1392439D01*
X388628Y1390000D01*
X389113Y1387561D01*
X390494Y1385494D01*
X392561Y1384113D01*
X395000Y1383627D01*
X397439Y1384113D01*
X399506Y1385494D01*
X400887Y1387561D01*
X401372Y1390000D01*
X400887Y1392439D01*
X399506Y1394506D01*
X397439Y1395887D01*
X395000Y1396372D01*
D02*
G37*
G36*
X375000D02*
X372561Y1395887D01*
X370494Y1394506D01*
X369113Y1392439D01*
X368628Y1390000D01*
X369113Y1387561D01*
X370494Y1385494D01*
X372561Y1384113D01*
X375000Y1383627D01*
X377439Y1384113D01*
X379506Y1385494D01*
X380887Y1387561D01*
X381372Y1390000D01*
X380887Y1392439D01*
X379506Y1394506D01*
X377439Y1395887D01*
X375000Y1396372D01*
D02*
G37*
G36*
X355000D02*
X352561Y1395887D01*
X350494Y1394506D01*
X349113Y1392439D01*
X348628Y1390000D01*
X349113Y1387561D01*
X350494Y1385494D01*
X352561Y1384113D01*
X355000Y1383627D01*
X357439Y1384113D01*
X359506Y1385494D01*
X360887Y1387561D01*
X361372Y1390000D01*
X360887Y1392439D01*
X359506Y1394506D01*
X357439Y1395887D01*
X355000Y1396372D01*
D02*
G37*
G36*
X335000D02*
X332561Y1395887D01*
X330494Y1394506D01*
X329113Y1392439D01*
X328628Y1390000D01*
X329113Y1387561D01*
X330494Y1385494D01*
X332561Y1384113D01*
X335000Y1383627D01*
X337439Y1384113D01*
X339506Y1385494D01*
X340887Y1387561D01*
X341372Y1390000D01*
X340887Y1392439D01*
X339506Y1394506D01*
X337439Y1395887D01*
X335000Y1396372D01*
D02*
G37*
G36*
X315000D02*
X312561Y1395887D01*
X310494Y1394506D01*
X309113Y1392439D01*
X308627Y1390000D01*
X309113Y1387561D01*
X310494Y1385494D01*
X312561Y1384113D01*
X315000Y1383627D01*
X317439Y1384113D01*
X319506Y1385494D01*
X320887Y1387561D01*
X321372Y1390000D01*
X320887Y1392439D01*
X319506Y1394506D01*
X317439Y1395887D01*
X315000Y1396372D01*
D02*
G37*
G36*
X295000D02*
X292561Y1395887D01*
X290494Y1394506D01*
X289113Y1392439D01*
X288627Y1390000D01*
X289113Y1387561D01*
X290494Y1385494D01*
X292561Y1384113D01*
X295000Y1383627D01*
X297439Y1384113D01*
X299506Y1385494D01*
X300887Y1387561D01*
X301372Y1390000D01*
X300887Y1392439D01*
X299506Y1394506D01*
X297439Y1395887D01*
X295000Y1396372D01*
D02*
G37*
G36*
X275000D02*
X272561Y1395887D01*
X270494Y1394506D01*
X269113Y1392439D01*
X268627Y1390000D01*
X269113Y1387561D01*
X270494Y1385494D01*
X272561Y1384113D01*
X275000Y1383627D01*
X277439Y1384113D01*
X279506Y1385494D01*
X280887Y1387561D01*
X281372Y1390000D01*
X280887Y1392439D01*
X279506Y1394506D01*
X277439Y1395887D01*
X275000Y1396372D01*
D02*
G37*
G36*
X255000D02*
X252561Y1395887D01*
X250494Y1394506D01*
X249113Y1392439D01*
X248627Y1390000D01*
X249113Y1387561D01*
X250494Y1385494D01*
X252561Y1384113D01*
X255000Y1383627D01*
X257439Y1384113D01*
X259506Y1385494D01*
X260887Y1387561D01*
X261373Y1390000D01*
X260887Y1392439D01*
X259506Y1394506D01*
X257439Y1395887D01*
X255000Y1396372D01*
D02*
G37*
G36*
X235000D02*
X232561Y1395887D01*
X230494Y1394506D01*
X229113Y1392439D01*
X228627Y1390000D01*
X229113Y1387561D01*
X230494Y1385494D01*
X232561Y1384113D01*
X235000Y1383627D01*
X237439Y1384113D01*
X239506Y1385494D01*
X240887Y1387561D01*
X241372Y1390000D01*
X240887Y1392439D01*
X239506Y1394506D01*
X237439Y1395887D01*
X235000Y1396372D01*
D02*
G37*
G36*
X215000D02*
X212561Y1395887D01*
X210494Y1394506D01*
X209113Y1392439D01*
X208627Y1390000D01*
X209113Y1387561D01*
X210494Y1385494D01*
X212561Y1384113D01*
X215000Y1383627D01*
X217439Y1384113D01*
X219506Y1385494D01*
X220887Y1387561D01*
X221373Y1390000D01*
X220887Y1392439D01*
X219506Y1394506D01*
X217439Y1395887D01*
X215000Y1396372D01*
D02*
G37*
G36*
X195000D02*
X192561Y1395887D01*
X190494Y1394506D01*
X189113Y1392439D01*
X188627Y1390000D01*
X189113Y1387561D01*
X190494Y1385494D01*
X192561Y1384113D01*
X195000Y1383627D01*
X197439Y1384113D01*
X199506Y1385494D01*
X200887Y1387561D01*
X201372Y1390000D01*
X200887Y1392439D01*
X199506Y1394506D01*
X197439Y1395887D01*
X195000Y1396372D01*
D02*
G37*
G36*
X175000D02*
X172561Y1395887D01*
X170494Y1394506D01*
X169113Y1392439D01*
X168628Y1390000D01*
X169113Y1387561D01*
X170494Y1385494D01*
X172561Y1384113D01*
X175000Y1383627D01*
X177439Y1384113D01*
X179506Y1385494D01*
X180887Y1387561D01*
X181373Y1390000D01*
X180887Y1392439D01*
X179506Y1394506D01*
X177439Y1395887D01*
X175000Y1396372D01*
D02*
G37*
G36*
X155000D02*
X152561Y1395887D01*
X150494Y1394506D01*
X149113Y1392439D01*
X148628Y1390000D01*
X149113Y1387561D01*
X150494Y1385494D01*
X152561Y1384113D01*
X155000Y1383627D01*
X157439Y1384113D01*
X159506Y1385494D01*
X160887Y1387561D01*
X161372Y1390000D01*
X160887Y1392439D01*
X159506Y1394506D01*
X157439Y1395887D01*
X155000Y1396372D01*
D02*
G37*
G36*
X135000D02*
X132561Y1395887D01*
X130494Y1394506D01*
X129113Y1392439D01*
X128628Y1390000D01*
X129113Y1387561D01*
X130494Y1385494D01*
X132561Y1384113D01*
X135000Y1383627D01*
X137439Y1384113D01*
X139506Y1385494D01*
X140887Y1387561D01*
X141372Y1390000D01*
X140887Y1392439D01*
X139506Y1394506D01*
X137439Y1395887D01*
X135000Y1396372D01*
D02*
G37*
G36*
X115000D02*
X112561Y1395887D01*
X110494Y1394506D01*
X109113Y1392439D01*
X108628Y1390000D01*
X109113Y1387561D01*
X110494Y1385494D01*
X112561Y1384113D01*
X115000Y1383627D01*
X117439Y1384113D01*
X119506Y1385494D01*
X120887Y1387561D01*
X121372Y1390000D01*
X120887Y1392439D01*
X119506Y1394506D01*
X117439Y1395887D01*
X115000Y1396372D01*
D02*
G37*
G36*
X95000D02*
X92561Y1395887D01*
X90494Y1394506D01*
X89113Y1392439D01*
X88628Y1390000D01*
X89113Y1387561D01*
X90494Y1385494D01*
X92561Y1384113D01*
X95000Y1383627D01*
X97439Y1384113D01*
X99506Y1385494D01*
X100887Y1387561D01*
X101372Y1390000D01*
X100887Y1392439D01*
X99506Y1394506D01*
X97439Y1395887D01*
X95000Y1396372D01*
D02*
G37*
G36*
X521855Y1372478D02*
X518788Y1372074D01*
X515929Y1370890D01*
X513475Y1369007D01*
X511591Y1366552D01*
X510407Y1363694D01*
X510004Y1360626D01*
X510407Y1357559D01*
X511591Y1354701D01*
X513475Y1352246D01*
X515929Y1350363D01*
X518788Y1349179D01*
X521855Y1348775D01*
X524922Y1349179D01*
X527781Y1350363D01*
X530235Y1352246D01*
X532118Y1354701D01*
X533302Y1357559D01*
X533706Y1360626D01*
X533302Y1363694D01*
X532118Y1366552D01*
X530235Y1369007D01*
X527781Y1370890D01*
X524922Y1372074D01*
X521855Y1372478D01*
D02*
G37*
G36*
X471855D02*
X468788Y1372074D01*
X465929Y1370890D01*
X463475Y1369007D01*
X461591Y1366552D01*
X460407Y1363694D01*
X460004Y1360626D01*
X460407Y1357559D01*
X461591Y1354701D01*
X463475Y1352246D01*
X465929Y1350363D01*
X468788Y1349179D01*
X471855Y1348775D01*
X474922Y1349179D01*
X477781Y1350363D01*
X480235Y1352246D01*
X482118Y1354701D01*
X483302Y1357559D01*
X483706Y1360626D01*
X483302Y1363694D01*
X482118Y1366552D01*
X480235Y1369007D01*
X477781Y1370890D01*
X474922Y1372074D01*
X471855Y1372478D01*
D02*
G37*
G36*
X421855D02*
X418788Y1372074D01*
X415929Y1370890D01*
X413475Y1369007D01*
X411591Y1366552D01*
X410407Y1363694D01*
X410004Y1360626D01*
X410407Y1357559D01*
X411591Y1354701D01*
X413475Y1352246D01*
X415929Y1350363D01*
X418788Y1349179D01*
X421855Y1348775D01*
X424922Y1349179D01*
X427781Y1350363D01*
X430235Y1352246D01*
X432118Y1354701D01*
X433302Y1357559D01*
X433706Y1360626D01*
X433302Y1363694D01*
X432118Y1366552D01*
X430235Y1369007D01*
X427781Y1370890D01*
X424922Y1372074D01*
X421855Y1372478D01*
D02*
G37*
G36*
X371855D02*
X368788Y1372074D01*
X365929Y1370890D01*
X363475Y1369007D01*
X361591Y1366552D01*
X360407Y1363694D01*
X360004Y1360626D01*
X360407Y1357559D01*
X361591Y1354701D01*
X363475Y1352246D01*
X365929Y1350363D01*
X368788Y1349179D01*
X371855Y1348775D01*
X374922Y1349179D01*
X377781Y1350363D01*
X380235Y1352246D01*
X382118Y1354701D01*
X383302Y1357559D01*
X383706Y1360626D01*
X383302Y1363694D01*
X382118Y1366552D01*
X380235Y1369007D01*
X377781Y1370890D01*
X374922Y1372074D01*
X371855Y1372478D01*
D02*
G37*
G36*
X321855D02*
X318788Y1372074D01*
X315929Y1370890D01*
X313475Y1369007D01*
X311591Y1366552D01*
X310407Y1363694D01*
X310004Y1360626D01*
X310407Y1357559D01*
X311591Y1354701D01*
X313475Y1352246D01*
X315929Y1350363D01*
X318788Y1349179D01*
X321855Y1348775D01*
X324922Y1349179D01*
X327781Y1350363D01*
X330235Y1352246D01*
X332118Y1354701D01*
X333302Y1357559D01*
X333706Y1360626D01*
X333302Y1363694D01*
X332118Y1366552D01*
X330235Y1369007D01*
X327781Y1370890D01*
X324922Y1372074D01*
X321855Y1372478D01*
D02*
G37*
G36*
X271855D02*
X268788Y1372074D01*
X265929Y1370890D01*
X263475Y1369007D01*
X261591Y1366552D01*
X260407Y1363694D01*
X260004Y1360626D01*
X260407Y1357559D01*
X261591Y1354701D01*
X263475Y1352246D01*
X265929Y1350363D01*
X268788Y1349179D01*
X271855Y1348775D01*
X274922Y1349179D01*
X277781Y1350363D01*
X280235Y1352246D01*
X282118Y1354701D01*
X283302Y1357559D01*
X283706Y1360626D01*
X283302Y1363694D01*
X282118Y1366552D01*
X280235Y1369007D01*
X277781Y1370890D01*
X274922Y1372074D01*
X271855Y1372478D01*
D02*
G37*
G36*
X221855D02*
X218788Y1372074D01*
X215929Y1370890D01*
X213475Y1369007D01*
X211591Y1366552D01*
X210407Y1363694D01*
X210004Y1360626D01*
X210407Y1357559D01*
X211591Y1354701D01*
X213475Y1352246D01*
X215929Y1350363D01*
X218788Y1349179D01*
X221855Y1348775D01*
X224922Y1349179D01*
X227781Y1350363D01*
X230235Y1352246D01*
X232118Y1354701D01*
X233302Y1357559D01*
X233706Y1360626D01*
X233302Y1363694D01*
X232118Y1366552D01*
X230235Y1369007D01*
X227781Y1370890D01*
X224922Y1372074D01*
X221855Y1372478D01*
D02*
G37*
G36*
X171855D02*
X168788Y1372074D01*
X165929Y1370890D01*
X163475Y1369007D01*
X161591Y1366552D01*
X160407Y1363694D01*
X160004Y1360626D01*
X160407Y1357559D01*
X161591Y1354701D01*
X163475Y1352246D01*
X165929Y1350363D01*
X168788Y1349179D01*
X171855Y1348775D01*
X174922Y1349179D01*
X177781Y1350363D01*
X180235Y1352246D01*
X182118Y1354701D01*
X183302Y1357559D01*
X183706Y1360626D01*
X183302Y1363694D01*
X182118Y1366552D01*
X180235Y1369007D01*
X177781Y1370890D01*
X174922Y1372074D01*
X171855Y1372478D01*
D02*
G37*
G36*
X570000Y1330353D02*
X567952Y1329945D01*
X566215Y1328785D01*
X565055Y1327048D01*
X564647Y1325000D01*
X565055Y1322952D01*
X566215Y1321215D01*
X567952Y1320055D01*
X570000Y1319647D01*
X572048Y1320055D01*
X573785Y1321215D01*
X574945Y1322952D01*
X575353Y1325000D01*
X574945Y1327048D01*
X573785Y1328785D01*
X572048Y1329945D01*
X570000Y1330353D01*
D02*
G37*
G36*
X547000Y1324853D02*
X544952Y1324445D01*
X543215Y1323285D01*
X542055Y1321548D01*
X541647Y1319500D01*
X542055Y1317452D01*
X543215Y1315715D01*
X544952Y1314555D01*
X547000Y1314147D01*
X549048Y1314555D01*
X550785Y1315715D01*
X551945Y1317452D01*
X552353Y1319500D01*
X551945Y1321548D01*
X550785Y1323285D01*
X549048Y1324445D01*
X547000Y1324853D01*
D02*
G37*
G36*
X490000Y1311373D02*
X487561Y1310887D01*
X485494Y1309506D01*
X484113Y1307439D01*
X483628Y1305000D01*
X484113Y1302561D01*
X485494Y1300494D01*
X487561Y1299113D01*
X490000Y1298628D01*
X492439Y1299113D01*
X494506Y1300494D01*
X495887Y1302561D01*
X496372Y1305000D01*
X495887Y1307439D01*
X494506Y1309506D01*
X492439Y1310887D01*
X490000Y1311373D01*
D02*
G37*
G36*
X257000Y1292853D02*
X254951Y1292445D01*
X253215Y1291285D01*
X252055Y1289548D01*
X251647Y1287500D01*
X252055Y1285452D01*
X253215Y1283715D01*
X254951Y1282555D01*
X257000Y1282147D01*
X259048Y1282555D01*
X260785Y1283715D01*
X261945Y1285452D01*
X262353Y1287500D01*
X261945Y1289548D01*
X260785Y1291285D01*
X259048Y1292445D01*
X257000Y1292853D01*
D02*
G37*
G36*
X232000D02*
X229952Y1292445D01*
X228215Y1291285D01*
X227055Y1289548D01*
X226647Y1287500D01*
X227055Y1285452D01*
X228215Y1283715D01*
X229952Y1282555D01*
X232000Y1282147D01*
X234048Y1282555D01*
X235785Y1283715D01*
X236945Y1285452D01*
X237353Y1287500D01*
X236945Y1289548D01*
X235785Y1291285D01*
X234048Y1292445D01*
X232000Y1292853D01*
D02*
G37*
G36*
X209000D02*
X206952Y1292445D01*
X205215Y1291285D01*
X204055Y1289548D01*
X203647Y1287500D01*
X204055Y1285452D01*
X205215Y1283715D01*
X206952Y1282555D01*
X209000Y1282147D01*
X211048Y1282555D01*
X212785Y1283715D01*
X213945Y1285452D01*
X214353Y1287500D01*
X213945Y1289548D01*
X212785Y1291285D01*
X211048Y1292445D01*
X209000Y1292853D01*
D02*
G37*
G36*
X158000Y1289853D02*
X155952Y1289445D01*
X154215Y1288285D01*
X153055Y1286548D01*
X152647Y1284500D01*
X153055Y1282452D01*
X154215Y1280715D01*
X155952Y1279555D01*
X158000Y1279147D01*
X160048Y1279555D01*
X161785Y1280715D01*
X162945Y1282452D01*
X163353Y1284500D01*
X162945Y1286548D01*
X161785Y1288285D01*
X160048Y1289445D01*
X158000Y1289853D01*
D02*
G37*
G36*
X314252Y1281853D02*
X312203Y1281445D01*
X310467Y1280285D01*
X309307Y1278548D01*
X308899Y1276500D01*
X309307Y1274452D01*
X310467Y1272715D01*
X312203Y1271555D01*
X314252Y1271147D01*
X316300Y1271555D01*
X318037Y1272715D01*
X319197Y1274452D01*
X319605Y1276500D01*
X319197Y1278548D01*
X318037Y1280285D01*
X316300Y1281445D01*
X314252Y1281853D01*
D02*
G37*
G36*
X192000Y1280853D02*
X189951Y1280445D01*
X188215Y1279285D01*
X187055Y1277548D01*
X186647Y1275500D01*
X187055Y1273452D01*
X188215Y1271715D01*
X189951Y1270555D01*
X192000Y1270147D01*
X194048Y1270555D01*
X195785Y1271715D01*
X196945Y1273452D01*
X197353Y1275500D01*
X196945Y1277548D01*
X195785Y1279285D01*
X194048Y1280445D01*
X192000Y1280853D01*
D02*
G37*
G36*
X610582Y1280785D02*
X608533Y1280377D01*
X606797Y1279217D01*
X605636Y1277480D01*
X605229Y1275432D01*
X605636Y1273383D01*
X606797Y1271647D01*
X608533Y1270486D01*
X610582Y1270079D01*
X612630Y1270486D01*
X614367Y1271647D01*
X615527Y1273383D01*
X615935Y1275432D01*
X615527Y1277480D01*
X614367Y1279217D01*
X612630Y1280377D01*
X610582Y1280785D01*
D02*
G37*
G36*
X372500Y1280353D02*
X370452Y1279945D01*
X368715Y1278785D01*
X367555Y1277048D01*
X367147Y1275000D01*
X367555Y1272952D01*
X368715Y1271215D01*
X370452Y1270055D01*
X372500Y1269647D01*
X374548Y1270055D01*
X376285Y1271215D01*
X377445Y1272952D01*
X377853Y1275000D01*
X377445Y1277048D01*
X376285Y1278785D01*
X374548Y1279945D01*
X372500Y1280353D01*
D02*
G37*
G36*
X399000Y1279853D02*
X396952Y1279445D01*
X395215Y1278285D01*
X394055Y1276548D01*
X393647Y1274500D01*
X394055Y1272452D01*
X395215Y1270715D01*
X396952Y1269555D01*
X399000Y1269147D01*
X401048Y1269555D01*
X402785Y1270715D01*
X403945Y1272452D01*
X404353Y1274500D01*
X403945Y1276548D01*
X402785Y1278285D01*
X401048Y1279445D01*
X399000Y1279853D01*
D02*
G37*
G36*
X442500Y1279353D02*
X440452Y1278945D01*
X438715Y1277785D01*
X437555Y1276049D01*
X437147Y1274000D01*
X437555Y1271952D01*
X438715Y1270215D01*
X440452Y1269055D01*
X442500Y1268647D01*
X444548Y1269055D01*
X446285Y1270215D01*
X447445Y1271952D01*
X447853Y1274000D01*
X447445Y1276049D01*
X446285Y1277785D01*
X444548Y1278945D01*
X442500Y1279353D01*
D02*
G37*
G36*
X470000Y1281372D02*
X467561Y1280887D01*
X465494Y1279506D01*
X464113Y1277439D01*
X463628Y1275000D01*
X464113Y1272561D01*
X465494Y1270494D01*
X467561Y1269113D01*
X470000Y1268627D01*
X472439Y1269113D01*
X474506Y1270494D01*
X475887Y1272561D01*
X476372Y1275000D01*
X475887Y1277439D01*
X474506Y1279506D01*
X472439Y1280887D01*
X470000Y1281372D01*
D02*
G37*
G36*
X286000Y1270853D02*
X283951Y1270445D01*
X282215Y1269285D01*
X281055Y1267548D01*
X280647Y1265500D01*
X281055Y1263452D01*
X282215Y1261715D01*
X283951Y1260555D01*
X286000Y1260147D01*
X288048Y1260555D01*
X289785Y1261715D01*
X290945Y1263452D01*
X291353Y1265500D01*
X290945Y1267548D01*
X289785Y1269285D01*
X288048Y1270445D01*
X286000Y1270853D01*
D02*
G37*
G36*
X232376Y1270817D02*
X230327Y1270409D01*
X228591Y1269249D01*
X227430Y1267512D01*
X227023Y1265464D01*
X227430Y1263416D01*
X228591Y1261679D01*
X230327Y1260519D01*
X232376Y1260111D01*
X234424Y1260519D01*
X236161Y1261679D01*
X237321Y1263416D01*
X237729Y1265464D01*
X237321Y1267512D01*
X236161Y1269249D01*
X234424Y1270409D01*
X232376Y1270817D01*
D02*
G37*
G36*
X353000Y1269853D02*
X350951Y1269445D01*
X349215Y1268285D01*
X348055Y1266548D01*
X347647Y1264500D01*
X348055Y1262452D01*
X349215Y1260715D01*
X350951Y1259555D01*
X353000Y1259147D01*
X355048Y1259555D01*
X356785Y1260715D01*
X357945Y1262452D01*
X358353Y1264500D01*
X357945Y1266548D01*
X356785Y1268285D01*
X355048Y1269445D01*
X353000Y1269853D01*
D02*
G37*
G36*
X442500Y1261853D02*
X440452Y1261445D01*
X438715Y1260285D01*
X437555Y1258548D01*
X437147Y1256500D01*
X437555Y1254452D01*
X438715Y1252715D01*
X440452Y1251555D01*
X442500Y1251147D01*
X444548Y1251555D01*
X446285Y1252715D01*
X447445Y1254452D01*
X447853Y1256500D01*
X447445Y1258548D01*
X446285Y1260285D01*
X444548Y1261445D01*
X442500Y1261853D01*
D02*
G37*
G36*
X192000D02*
X189951Y1261445D01*
X188215Y1260285D01*
X187055Y1258548D01*
X186647Y1256500D01*
X187055Y1254452D01*
X188215Y1252715D01*
X189951Y1251555D01*
X192000Y1251147D01*
X194048Y1251555D01*
X195785Y1252715D01*
X196945Y1254452D01*
X197353Y1256500D01*
X196945Y1258548D01*
X195785Y1260285D01*
X194048Y1261445D01*
X192000Y1261853D01*
D02*
G37*
G36*
X399000Y1260853D02*
X396951Y1260445D01*
X395215Y1259285D01*
X394055Y1257548D01*
X393647Y1255500D01*
X394055Y1253452D01*
X395215Y1251715D01*
X396951Y1250555D01*
X399000Y1250147D01*
X401048Y1250555D01*
X402785Y1251715D01*
X403945Y1253452D01*
X404353Y1255500D01*
X403945Y1257548D01*
X402785Y1259285D01*
X401048Y1260445D01*
X399000Y1260853D01*
D02*
G37*
G36*
X371770Y1259603D02*
X369722Y1259195D01*
X367985Y1258035D01*
X366825Y1256298D01*
X366417Y1254250D01*
X366825Y1252202D01*
X367985Y1250465D01*
X369722Y1249305D01*
X371770Y1248897D01*
X373818Y1249305D01*
X375555Y1250465D01*
X376715Y1252202D01*
X377123Y1254250D01*
X376715Y1256298D01*
X375555Y1258035D01*
X373818Y1259195D01*
X371770Y1259603D01*
D02*
G37*
G36*
X313500Y1259353D02*
X311451Y1258945D01*
X309715Y1257785D01*
X308555Y1256048D01*
X308147Y1254000D01*
X308555Y1251952D01*
X309715Y1250215D01*
X311451Y1249055D01*
X313500Y1248647D01*
X315548Y1249055D01*
X317285Y1250215D01*
X318445Y1251952D01*
X318853Y1254000D01*
X318445Y1256048D01*
X317285Y1257785D01*
X315548Y1258945D01*
X313500Y1259353D01*
D02*
G37*
G36*
X470000Y1261373D02*
X467561Y1260887D01*
X465494Y1259506D01*
X464113Y1257439D01*
X463628Y1255000D01*
X464113Y1252561D01*
X465494Y1250494D01*
X467561Y1249113D01*
X470000Y1248628D01*
X472439Y1249113D01*
X474506Y1250494D01*
X475887Y1252561D01*
X476372Y1255000D01*
X475887Y1257439D01*
X474506Y1259506D01*
X472439Y1260887D01*
X470000Y1261373D01*
D02*
G37*
G36*
X542337Y1255516D02*
X540289Y1255108D01*
X538552Y1253948D01*
X537392Y1252211D01*
X536984Y1250163D01*
X537392Y1248114D01*
X538552Y1246378D01*
X540289Y1245217D01*
X542337Y1244810D01*
X544386Y1245217D01*
X546122Y1246378D01*
X547283Y1248114D01*
X547690Y1250163D01*
X547283Y1252211D01*
X546122Y1253948D01*
X544386Y1255108D01*
X542337Y1255516D01*
D02*
G37*
G36*
X562500Y1255353D02*
X560452Y1254945D01*
X558715Y1253785D01*
X557555Y1252048D01*
X557147Y1250000D01*
X557555Y1247952D01*
X558715Y1246215D01*
X560452Y1245055D01*
X562500Y1244647D01*
X564548Y1245055D01*
X566285Y1246215D01*
X567445Y1247952D01*
X567853Y1250000D01*
X567445Y1252048D01*
X566285Y1253785D01*
X564548Y1254945D01*
X562500Y1255353D01*
D02*
G37*
G36*
X522500D02*
X520452Y1254945D01*
X518715Y1253785D01*
X517555Y1252048D01*
X517147Y1250000D01*
X517555Y1247952D01*
X518715Y1246215D01*
X520452Y1245055D01*
X522500Y1244647D01*
X524548Y1245055D01*
X526285Y1246215D01*
X527445Y1247952D01*
X527853Y1250000D01*
X527445Y1252048D01*
X526285Y1253785D01*
X524548Y1254945D01*
X522500Y1255353D01*
D02*
G37*
G36*
X502500D02*
X500452Y1254945D01*
X498715Y1253785D01*
X497555Y1252048D01*
X497147Y1250000D01*
X497555Y1247952D01*
X498715Y1246215D01*
X500452Y1245055D01*
X502500Y1244647D01*
X504548Y1245055D01*
X506285Y1246215D01*
X507445Y1247952D01*
X507853Y1250000D01*
X507445Y1252048D01*
X506285Y1253785D01*
X504548Y1254945D01*
X502500Y1255353D01*
D02*
G37*
G36*
X157500Y1252853D02*
X155452Y1252445D01*
X153715Y1251285D01*
X152555Y1249548D01*
X152147Y1247500D01*
X152555Y1245452D01*
X153715Y1243715D01*
X155452Y1242555D01*
X157500Y1242147D01*
X159548Y1242555D01*
X161285Y1243715D01*
X162445Y1245452D01*
X162853Y1247500D01*
X162445Y1249548D01*
X161285Y1251285D01*
X159548Y1252445D01*
X157500Y1252853D01*
D02*
G37*
G36*
X365000Y1248873D02*
X362561Y1248387D01*
X360494Y1247006D01*
X359113Y1244939D01*
X358628Y1242500D01*
X359113Y1240061D01*
X360494Y1237994D01*
X362561Y1236613D01*
X365000Y1236128D01*
X367439Y1236613D01*
X369506Y1237994D01*
X370887Y1240061D01*
X371372Y1242500D01*
X370887Y1244939D01*
X369506Y1247006D01*
X367439Y1248387D01*
X365000Y1248873D01*
D02*
G37*
G36*
X597000Y1239853D02*
X594952Y1239445D01*
X593215Y1238285D01*
X592055Y1236548D01*
X591647Y1234500D01*
X591829Y1233583D01*
X590029Y1232381D01*
X589548Y1232702D01*
X587500Y1233110D01*
X585452Y1232702D01*
X583715Y1231542D01*
X582555Y1229805D01*
X582147Y1227757D01*
X582555Y1225708D01*
X583715Y1223972D01*
X585452Y1222811D01*
X587500Y1222404D01*
X587525Y1220515D01*
X585952Y1220202D01*
X584215Y1219042D01*
X583055Y1217305D01*
X582647Y1215257D01*
X583055Y1213208D01*
X584215Y1211472D01*
X585952Y1210311D01*
X588000Y1209904D01*
X588885Y1210080D01*
X590069Y1208643D01*
X589379Y1207579D01*
X588000Y1207853D01*
X585952Y1207445D01*
X584215Y1206285D01*
X583055Y1204548D01*
X582647Y1202500D01*
X583055Y1200452D01*
X584215Y1198715D01*
X585952Y1197555D01*
X588000Y1197147D01*
X590048Y1197555D01*
X591754Y1196289D01*
X591647Y1195750D01*
X592055Y1193701D01*
X593215Y1191965D01*
X594952Y1190805D01*
X597000Y1190397D01*
X599048Y1190805D01*
X600785Y1191965D01*
X601945Y1193701D01*
X602353Y1195750D01*
X601945Y1197798D01*
X600785Y1199535D01*
X599048Y1200695D01*
X597000Y1201103D01*
X596135Y1200931D01*
X594939Y1202368D01*
X595616Y1203422D01*
X597000Y1203147D01*
X599048Y1203555D01*
X600785Y1204715D01*
X601945Y1206452D01*
X602353Y1208500D01*
X601945Y1210548D01*
X600785Y1212285D01*
X599048Y1213445D01*
X597000Y1213853D01*
X596516Y1213757D01*
X594657Y1215032D01*
X595822Y1216388D01*
X596997Y1216154D01*
X599046Y1216561D01*
X600783Y1217722D01*
X601943Y1219458D01*
X602350Y1221507D01*
X601943Y1223555D01*
X600783Y1225292D01*
X599046Y1226452D01*
X596997Y1226860D01*
X595289Y1226520D01*
X593990Y1227338D01*
X593450Y1227837D01*
X593441Y1228158D01*
X594052Y1228723D01*
X595296Y1229486D01*
X597000Y1229147D01*
X599048Y1229555D01*
X600785Y1230715D01*
X601945Y1232452D01*
X602353Y1234500D01*
X601945Y1236548D01*
X600785Y1238285D01*
X599048Y1239445D01*
X597000Y1239853D01*
D02*
G37*
G36*
X223058Y1237482D02*
X221010Y1237075D01*
X219273Y1235915D01*
X218113Y1234178D01*
X217705Y1232130D01*
X218113Y1230081D01*
X219273Y1228344D01*
X221010Y1227184D01*
X223058Y1226777D01*
X225107Y1227184D01*
X226843Y1228344D01*
X228004Y1230081D01*
X228411Y1232130D01*
X228004Y1234178D01*
X226843Y1235915D01*
X225107Y1237075D01*
X223058Y1237482D01*
D02*
G37*
G36*
X239649Y1237201D02*
X237601Y1236793D01*
X235864Y1235633D01*
X234704Y1233896D01*
X234296Y1231848D01*
X234704Y1229799D01*
X235864Y1228063D01*
X237601Y1226902D01*
X239649Y1226495D01*
X241698Y1226902D01*
X243434Y1228063D01*
X244594Y1229799D01*
X245002Y1231848D01*
X244594Y1233896D01*
X243434Y1235633D01*
X241698Y1236793D01*
X239649Y1237201D01*
D02*
G37*
G36*
X377500Y1238873D02*
X375061Y1238387D01*
X372994Y1237006D01*
X371613Y1234939D01*
X371128Y1232500D01*
X371613Y1230061D01*
X372994Y1227994D01*
X375061Y1226613D01*
X377500Y1226127D01*
X379939Y1226613D01*
X382006Y1227994D01*
X383387Y1230061D01*
X383872Y1232500D01*
X383387Y1234939D01*
X382006Y1237006D01*
X379939Y1238387D01*
X377500Y1238873D01*
D02*
G37*
G36*
X317500Y1235872D02*
X315061Y1235387D01*
X312994Y1234006D01*
X311613Y1231939D01*
X311127Y1229500D01*
X311613Y1227061D01*
X312994Y1224994D01*
X315061Y1223613D01*
X317500Y1223128D01*
X319939Y1223613D01*
X322006Y1224994D01*
X323387Y1227061D01*
X323872Y1229500D01*
X323387Y1231939D01*
X322006Y1234006D01*
X319939Y1235387D01*
X317500Y1235872D01*
D02*
G37*
G36*
X197000Y1224853D02*
X194952Y1224445D01*
X193215Y1223285D01*
X192055Y1221548D01*
X191647Y1219500D01*
X192055Y1217452D01*
X193215Y1215715D01*
X194952Y1214555D01*
X197000Y1214147D01*
X199048Y1214555D01*
X200785Y1215715D01*
X201945Y1217452D01*
X202353Y1219500D01*
X201945Y1221548D01*
X200785Y1223285D01*
X199048Y1224445D01*
X197000Y1224853D01*
D02*
G37*
G36*
X214622Y1219578D02*
X212574Y1219171D01*
X210837Y1218010D01*
X209677Y1216274D01*
X209270Y1214225D01*
X209677Y1212177D01*
X210837Y1210441D01*
X212574Y1209280D01*
X214622Y1208873D01*
X216671Y1209280D01*
X218407Y1210441D01*
X219568Y1212177D01*
X219975Y1214225D01*
X219568Y1216274D01*
X218407Y1218010D01*
X216671Y1219171D01*
X214622Y1219578D01*
D02*
G37*
G36*
X317500Y1218872D02*
X315061Y1218387D01*
X312994Y1217006D01*
X311613Y1214939D01*
X311127Y1212500D01*
X311613Y1210061D01*
X312994Y1207994D01*
X315061Y1206613D01*
X317500Y1206127D01*
X319939Y1206613D01*
X322006Y1207994D01*
X323387Y1210061D01*
X323872Y1212500D01*
X323387Y1214939D01*
X322006Y1217006D01*
X319939Y1218387D01*
X317500Y1218872D01*
D02*
G37*
G36*
X287500Y1211373D02*
X285061Y1210887D01*
X282994Y1209506D01*
X281613Y1207439D01*
X281128Y1205000D01*
X281613Y1202561D01*
X282994Y1200494D01*
X285061Y1199113D01*
X287500Y1198627D01*
X289939Y1199113D01*
X292006Y1200494D01*
X293387Y1202561D01*
X293873Y1205000D01*
X293387Y1207439D01*
X292006Y1209506D01*
X289939Y1210887D01*
X287500Y1211373D01*
D02*
G37*
G36*
X219250Y1193853D02*
X217202Y1193445D01*
X215465Y1192285D01*
X213785D01*
X212048Y1193445D01*
X210000Y1193853D01*
X207952Y1193445D01*
X206215Y1192285D01*
X205055Y1190548D01*
X204647Y1188500D01*
X205055Y1186452D01*
X206215Y1184715D01*
X205764Y1182611D01*
X205055Y1181548D01*
X204647Y1179500D01*
X205055Y1177452D01*
X206215Y1175715D01*
X207952Y1174555D01*
X210000Y1174147D01*
X212048Y1174555D01*
X213785Y1175715D01*
X215381D01*
X215715Y1175215D01*
X217451Y1174055D01*
X219500Y1173647D01*
X221548Y1174055D01*
X223285Y1175215D01*
X224445Y1176952D01*
X224853Y1179000D01*
X224445Y1181048D01*
X223285Y1182785D01*
X223332Y1185159D01*
X224195Y1186452D01*
X224603Y1188500D01*
X224195Y1190548D01*
X223035Y1192285D01*
X221298Y1193445D01*
X219250Y1193853D01*
D02*
G37*
G36*
X237000Y1212853D02*
X234951Y1212445D01*
X233215Y1211285D01*
X232055Y1209548D01*
X231647Y1207500D01*
X232055Y1205452D01*
X233215Y1203715D01*
X233233Y1203703D01*
Y1201297D01*
X233215Y1201285D01*
X232055Y1199548D01*
X231647Y1197500D01*
X232055Y1195452D01*
X233215Y1193715D01*
X234951Y1192555D01*
X237000Y1192147D01*
X239048Y1192555D01*
X240785Y1193715D01*
X240797Y1193733D01*
X243203D01*
X243215Y1193715D01*
X244952Y1192555D01*
X247000Y1192147D01*
X249048Y1192555D01*
X250785Y1193715D01*
X251945Y1195452D01*
X252353Y1197500D01*
X251945Y1199548D01*
X250785Y1201285D01*
X250767Y1201297D01*
Y1203703D01*
X250785Y1203715D01*
X251945Y1205452D01*
X252353Y1207500D01*
X251945Y1209548D01*
X250785Y1211285D01*
X249048Y1212445D01*
X247000Y1212853D01*
X244951Y1212445D01*
X243215Y1211285D01*
X243203Y1211267D01*
X240797D01*
X240785Y1211285D01*
X239048Y1212445D01*
X237000Y1212853D01*
D02*
G37*
G36*
X302500Y1201373D02*
X300061Y1200887D01*
X297994Y1199506D01*
X296613Y1197439D01*
X296128Y1195000D01*
X296613Y1192561D01*
X297994Y1190494D01*
X300061Y1189113D01*
X302500Y1188627D01*
X304939Y1189113D01*
X307006Y1190494D01*
X308387Y1192561D01*
X308873Y1195000D01*
X308387Y1197439D01*
X307006Y1199506D01*
X304939Y1200887D01*
X302500Y1201373D01*
D02*
G37*
G36*
X566000Y1195853D02*
X563952Y1195445D01*
X562215Y1194285D01*
X561055Y1192549D01*
X560647Y1190500D01*
X561055Y1188452D01*
X562215Y1186715D01*
X563952Y1185555D01*
X566000Y1185147D01*
X568048Y1185555D01*
X569785Y1186715D01*
X570945Y1188452D01*
X571353Y1190500D01*
X570945Y1192549D01*
X569785Y1194285D01*
X568048Y1195445D01*
X566000Y1195853D01*
D02*
G37*
G36*
X363000Y1221353D02*
X360952Y1220945D01*
X359215Y1219785D01*
X358055Y1218048D01*
X357647Y1216000D01*
X358055Y1213952D01*
X359215Y1212215D01*
X358729Y1210135D01*
X358224Y1209379D01*
X357817Y1207331D01*
X358224Y1205282D01*
X358803Y1204415D01*
X359215Y1202285D01*
X358055Y1200548D01*
X357647Y1198500D01*
X358055Y1196452D01*
X359215Y1194715D01*
Y1193285D01*
X358055Y1191548D01*
X357647Y1189500D01*
X358055Y1187452D01*
X359215Y1185715D01*
X360952Y1184555D01*
X363000Y1184147D01*
X365048Y1184555D01*
X366785Y1185715D01*
X367945Y1187452D01*
X368353Y1189500D01*
X367945Y1191548D01*
X366785Y1193285D01*
Y1194715D01*
X367945Y1196452D01*
X368353Y1198500D01*
X367945Y1200548D01*
X367366Y1201415D01*
X366954Y1203546D01*
X368115Y1205282D01*
X368522Y1207331D01*
X368115Y1209379D01*
X366954Y1211116D01*
X367441Y1213196D01*
X367945Y1213952D01*
X368353Y1216000D01*
X367945Y1218048D01*
X366785Y1219785D01*
X365048Y1220945D01*
X363000Y1221353D01*
D02*
G37*
G36*
X582500Y1180353D02*
X580452Y1179945D01*
X578715Y1178785D01*
X577555Y1177048D01*
X577147Y1175000D01*
X577555Y1172952D01*
X578715Y1171215D01*
X580452Y1170055D01*
X582500Y1169647D01*
X584548Y1170055D01*
X586285Y1171215D01*
X587445Y1172952D01*
X587853Y1175000D01*
X587445Y1177048D01*
X586285Y1178785D01*
X584548Y1179945D01*
X582500Y1180353D01*
D02*
G37*
G36*
X110250Y1184603D02*
X108202Y1184195D01*
X106465Y1183035D01*
X105305Y1181298D01*
X104897Y1179250D01*
X105305Y1177202D01*
X106465Y1175465D01*
X106962Y1175133D01*
X106920Y1172756D01*
X106215Y1172285D01*
X105055Y1170548D01*
X104647Y1168500D01*
X105055Y1166452D01*
X106215Y1164715D01*
X107952Y1163555D01*
X110000Y1163147D01*
X112048Y1163555D01*
X113785Y1164715D01*
X114945Y1166452D01*
X115353Y1168500D01*
X114945Y1170548D01*
X113785Y1172285D01*
X113288Y1172617D01*
X113330Y1174994D01*
X114035Y1175465D01*
X115195Y1177202D01*
X115603Y1179250D01*
X115195Y1181298D01*
X114035Y1183035D01*
X112298Y1184195D01*
X110250Y1184603D01*
D02*
G37*
G36*
X270000Y1173873D02*
X267561Y1173387D01*
X265494Y1172006D01*
X264113Y1169939D01*
X263627Y1167500D01*
X264113Y1165061D01*
X265494Y1162994D01*
X267561Y1161613D01*
X270000Y1161127D01*
X272439Y1161613D01*
X274506Y1162994D01*
X275887Y1165061D01*
X276372Y1167500D01*
X275887Y1169939D01*
X274506Y1172006D01*
X272439Y1173387D01*
X270000Y1173873D01*
D02*
G37*
G36*
X257500Y1161373D02*
X255061Y1160887D01*
X252994Y1159506D01*
X251613Y1157439D01*
X251127Y1155000D01*
X251613Y1152561D01*
X252994Y1150494D01*
X255061Y1149113D01*
X257500Y1148627D01*
X259939Y1149113D01*
X262006Y1150494D01*
X263387Y1152561D01*
X263872Y1155000D01*
X263387Y1157439D01*
X262006Y1159506D01*
X259939Y1160887D01*
X257500Y1161373D01*
D02*
G37*
G36*
X133031Y1141373D02*
X130592Y1140887D01*
X128525Y1139506D01*
X127144Y1137439D01*
X126658Y1135000D01*
X127144Y1132561D01*
X128525Y1130494D01*
X130592Y1129113D01*
X133031Y1128628D01*
X135470Y1129113D01*
X137537Y1130494D01*
X138918Y1132561D01*
X139403Y1135000D01*
X138918Y1137439D01*
X137537Y1139506D01*
X135470Y1140887D01*
X133031Y1141373D01*
D02*
G37*
G36*
X431585Y1137658D02*
X429537Y1137250D01*
X427800Y1136090D01*
X426640Y1134353D01*
X426232Y1132305D01*
X426640Y1130256D01*
X427800Y1128520D01*
X429537Y1127359D01*
X431585Y1126952D01*
X433634Y1127359D01*
X435370Y1128520D01*
X436530Y1130256D01*
X436938Y1132305D01*
X436530Y1134353D01*
X435370Y1136090D01*
X433634Y1137250D01*
X431585Y1137658D01*
D02*
G37*
G36*
X405000Y1131373D02*
X402561Y1130887D01*
X400494Y1129506D01*
X399113Y1127439D01*
X398628Y1125000D01*
X399113Y1122561D01*
X400494Y1120494D01*
X402561Y1119113D01*
X405000Y1118628D01*
X407439Y1119113D01*
X409506Y1120494D01*
X410887Y1122561D01*
X411372Y1125000D01*
X410887Y1127439D01*
X409506Y1129506D01*
X407439Y1130887D01*
X405000Y1131373D01*
D02*
G37*
G36*
X418000Y1101853D02*
X415952Y1101445D01*
X414215Y1100285D01*
X414203Y1100267D01*
X411797D01*
X411785Y1100285D01*
X410048Y1101445D01*
X408000Y1101853D01*
X405952Y1101445D01*
X404215Y1100285D01*
X403055Y1098549D01*
X402647Y1096500D01*
X403055Y1094452D01*
X404215Y1092715D01*
X404233Y1092703D01*
Y1090297D01*
X404215Y1090285D01*
X403055Y1088548D01*
X402647Y1086500D01*
X403055Y1084452D01*
X404215Y1082715D01*
X405952Y1081555D01*
X408000Y1081147D01*
X410048Y1081555D01*
X411785Y1082715D01*
X411797Y1082733D01*
X414203D01*
X414215Y1082715D01*
X415952Y1081555D01*
X418000Y1081147D01*
X420048Y1081555D01*
X421785Y1082715D01*
X422945Y1084452D01*
X423353Y1086500D01*
X422945Y1088548D01*
X421785Y1090285D01*
X421767Y1090297D01*
Y1092703D01*
X421785Y1092715D01*
X422945Y1094452D01*
X423353Y1096500D01*
X422945Y1098549D01*
X421785Y1100285D01*
X420048Y1101445D01*
X418000Y1101853D01*
D02*
G37*
G36*
X210000Y1122853D02*
X207952Y1122445D01*
X206215Y1121285D01*
X205055Y1119548D01*
X204647Y1117500D01*
X205055Y1115452D01*
X206215Y1113715D01*
X207952Y1112555D01*
X209384Y1112270D01*
Y1110230D01*
X207952Y1109945D01*
X206215Y1108785D01*
X205055Y1107048D01*
X204647Y1105000D01*
X205055Y1102952D01*
X206215Y1101215D01*
X207952Y1100055D01*
X210000Y1099647D01*
X212048Y1100055D01*
X213785Y1101215D01*
X214945Y1102952D01*
X215353Y1105000D01*
X214945Y1107048D01*
X213785Y1108785D01*
X212048Y1109945D01*
X210616Y1110230D01*
Y1112270D01*
X212048Y1112555D01*
X213785Y1113715D01*
X214945Y1115452D01*
X215353Y1117500D01*
X214945Y1119548D01*
X213785Y1121285D01*
X212048Y1122445D01*
X210000Y1122853D01*
D02*
G37*
G36*
X456000Y1119353D02*
X453952Y1118945D01*
X452215Y1117785D01*
X451055Y1116048D01*
X450647Y1114000D01*
X451055Y1111952D01*
X452215Y1110215D01*
X453952Y1109055D01*
X456000Y1108647D01*
X457213Y1108888D01*
X458415Y1107088D01*
X458055Y1106548D01*
X457647Y1104500D01*
X458055Y1102452D01*
X459215Y1100715D01*
X460952Y1099555D01*
X463000Y1099147D01*
X465048Y1099555D01*
X466785Y1100715D01*
X467945Y1102452D01*
X468353Y1104500D01*
X467945Y1106548D01*
X466785Y1108285D01*
X465048Y1109445D01*
X463000Y1109853D01*
X461787Y1109612D01*
X460585Y1111412D01*
X460945Y1111952D01*
X461353Y1114000D01*
X460945Y1116048D01*
X459785Y1117785D01*
X458048Y1118945D01*
X456000Y1119353D01*
D02*
G37*
G36*
X375000Y1106353D02*
X372952Y1105945D01*
X371215Y1104785D01*
X370055Y1103048D01*
X369647Y1101000D01*
X370055Y1098952D01*
X371215Y1097215D01*
X372952Y1096055D01*
X375000Y1095647D01*
X377048Y1096055D01*
X378785Y1097215D01*
X379945Y1098952D01*
X380353Y1101000D01*
X379945Y1103048D01*
X378785Y1104785D01*
X377048Y1105945D01*
X375000Y1106353D01*
D02*
G37*
G36*
X80000Y1115743D02*
X77323Y1115391D01*
X74828Y1114358D01*
X72686Y1112714D01*
X71042Y1110572D01*
X70009Y1108077D01*
X69657Y1105400D01*
X70009Y1102723D01*
X71042Y1100228D01*
X72686Y1098086D01*
X74828Y1096442D01*
X77323Y1095409D01*
X80000Y1095057D01*
X82677Y1095409D01*
X85172Y1096442D01*
X87314Y1098086D01*
X88958Y1100228D01*
X89991Y1102723D01*
X90344Y1105400D01*
X89991Y1108077D01*
X88958Y1110572D01*
X87314Y1112714D01*
X85172Y1114358D01*
X82677Y1115391D01*
X80000Y1115743D01*
D02*
G37*
G36*
X360000Y1089853D02*
X357952Y1089445D01*
X356215Y1088285D01*
X355055Y1086548D01*
X354647Y1084500D01*
X355055Y1082452D01*
X356215Y1080715D01*
X357952Y1079555D01*
X360000Y1079147D01*
X362048Y1079555D01*
X363785Y1080715D01*
X364945Y1082452D01*
X365353Y1084500D01*
X364945Y1086548D01*
X363785Y1088285D01*
X362048Y1089445D01*
X360000Y1089853D01*
D02*
G37*
G36*
X385000Y1089353D02*
X382952Y1088945D01*
X381215Y1087785D01*
X380055Y1086048D01*
X379647Y1084000D01*
X380055Y1081952D01*
X381215Y1080215D01*
X382952Y1079055D01*
X385000Y1078647D01*
X387048Y1079055D01*
X388785Y1080215D01*
X389945Y1081952D01*
X390353Y1084000D01*
X389945Y1086048D01*
X388785Y1087785D01*
X387048Y1088945D01*
X385000Y1089353D01*
D02*
G37*
G36*
X453000Y1088853D02*
X450952Y1088445D01*
X449215Y1087285D01*
X448055Y1085548D01*
X447647Y1083500D01*
X448055Y1081452D01*
X449215Y1079715D01*
X450952Y1078555D01*
X453000Y1078147D01*
X455048Y1078555D01*
X456785Y1079715D01*
X457945Y1081452D01*
X458353Y1083500D01*
X457945Y1085548D01*
X456785Y1087285D01*
X455048Y1088445D01*
X453000Y1088853D01*
D02*
G37*
G36*
X80000Y1090343D02*
X77323Y1089991D01*
X74828Y1088958D01*
X72686Y1087314D01*
X71042Y1085172D01*
X70009Y1082677D01*
X69657Y1080000D01*
X70009Y1077323D01*
X71042Y1074828D01*
X72686Y1072686D01*
X74828Y1071042D01*
X77323Y1070009D01*
X80000Y1069657D01*
X82677Y1070009D01*
X85172Y1071042D01*
X87314Y1072686D01*
X88958Y1074828D01*
X89991Y1077323D01*
X90344Y1080000D01*
X89991Y1082677D01*
X88958Y1085172D01*
X87314Y1087314D01*
X85172Y1088958D01*
X82677Y1089991D01*
X80000Y1090343D01*
D02*
G37*
G36*
X405000Y1066372D02*
X402561Y1065887D01*
X400494Y1064506D01*
X399113Y1062439D01*
X398628Y1060000D01*
X399113Y1057561D01*
X400494Y1055494D01*
X402561Y1054113D01*
X405000Y1053627D01*
X407439Y1054113D01*
X409506Y1055494D01*
X410887Y1057561D01*
X411372Y1060000D01*
X410887Y1062439D01*
X409506Y1064506D01*
X407439Y1065887D01*
X405000Y1066372D01*
D02*
G37*
G36*
X375000D02*
X372561Y1065887D01*
X370494Y1064506D01*
X369113Y1062439D01*
X368628Y1060000D01*
X369113Y1057561D01*
X370494Y1055494D01*
X372561Y1054113D01*
X375000Y1053627D01*
X377439Y1054113D01*
X379506Y1055494D01*
X380887Y1057561D01*
X381372Y1060000D01*
X380887Y1062439D01*
X379506Y1064506D01*
X377439Y1065887D01*
X375000Y1066372D01*
D02*
G37*
G36*
X135000Y1057853D02*
X132952Y1057445D01*
X131215Y1056285D01*
X130055Y1054548D01*
X129647Y1052500D01*
X130055Y1050452D01*
X131215Y1048715D01*
X132952Y1047555D01*
X135000Y1047147D01*
X137048Y1047555D01*
X138785Y1048715D01*
X139945Y1050452D01*
X140353Y1052500D01*
X139945Y1054548D01*
X138785Y1056285D01*
X137048Y1057445D01*
X135000Y1057853D01*
D02*
G37*
G36*
X80000Y1064943D02*
X77323Y1064591D01*
X74828Y1063558D01*
X72686Y1061914D01*
X71042Y1059772D01*
X70009Y1057277D01*
X69657Y1054600D01*
X70009Y1051923D01*
X71042Y1049428D01*
X72686Y1047286D01*
X74828Y1045642D01*
X77323Y1044609D01*
X80000Y1044257D01*
X82677Y1044609D01*
X85172Y1045642D01*
X87314Y1047286D01*
X88958Y1049428D01*
X89991Y1051923D01*
X90344Y1054600D01*
X89991Y1057277D01*
X88958Y1059772D01*
X87314Y1061914D01*
X85172Y1063558D01*
X82677Y1064591D01*
X80000Y1064943D01*
D02*
G37*
G36*
X390000Y1051372D02*
X387561Y1050887D01*
X385494Y1049506D01*
X384113Y1047439D01*
X383628Y1045000D01*
X384113Y1042561D01*
X385494Y1040494D01*
X387561Y1039113D01*
X390000Y1038627D01*
X392439Y1039113D01*
X394506Y1040494D01*
X395887Y1042561D01*
X396372Y1045000D01*
X395887Y1047439D01*
X394506Y1049506D01*
X392439Y1050887D01*
X390000Y1051372D01*
D02*
G37*
G36*
X355000D02*
X352561Y1050887D01*
X350494Y1049506D01*
X349113Y1047439D01*
X348628Y1045000D01*
X349113Y1042561D01*
X350494Y1040494D01*
X352561Y1039113D01*
X355000Y1038627D01*
X357439Y1039113D01*
X359506Y1040494D01*
X360887Y1042561D01*
X361372Y1045000D01*
X360887Y1047439D01*
X359506Y1049506D01*
X357439Y1050887D01*
X355000Y1051372D01*
D02*
G37*
G36*
X90255Y1039455D02*
X69745D01*
Y1018945D01*
X90255D01*
Y1039455D01*
D02*
G37*
G36*
X298169Y1034684D02*
X296121Y1034276D01*
X294384Y1033116D01*
X293224Y1031379D01*
X292817Y1029331D01*
X290956Y1028434D01*
X290110Y1028266D01*
X288374Y1027105D01*
X287214Y1025369D01*
X286806Y1023320D01*
X287214Y1021272D01*
X288374Y1019535D01*
X290110Y1018375D01*
X292159Y1017967D01*
X294207Y1018375D01*
X295944Y1019535D01*
X297104Y1021272D01*
X297512Y1023320D01*
X299373Y1024217D01*
X300218Y1024385D01*
X301954Y1025546D01*
X303115Y1027282D01*
X303522Y1029331D01*
X303115Y1031379D01*
X301954Y1033116D01*
X300218Y1034276D01*
X298169Y1034684D01*
D02*
G37*
G36*
X312590Y1020251D02*
X310542Y1019843D01*
X308805Y1018683D01*
X307645Y1016946D01*
X307238Y1014898D01*
X305388Y1013944D01*
X304581Y1013784D01*
X302845Y1012623D01*
X301684Y1010887D01*
X301277Y1008838D01*
X301684Y1006790D01*
X302845Y1005053D01*
X304581Y1003893D01*
X306630Y1003485D01*
X308678Y1003893D01*
X310415Y1005053D01*
X311575Y1006790D01*
X311983Y1008838D01*
X313832Y1009792D01*
X314639Y1009953D01*
X316375Y1011113D01*
X317536Y1012850D01*
X317943Y1014898D01*
X317536Y1016946D01*
X316375Y1018683D01*
X314639Y1019843D01*
X312590Y1020251D01*
D02*
G37*
G36*
X336000Y1006853D02*
X333952Y1006445D01*
X332215Y1005285D01*
X331055Y1003549D01*
X330647Y1001500D01*
X331055Y999452D01*
X332215Y997715D01*
X333952Y996555D01*
X336000Y996147D01*
X338048Y996555D01*
X339785Y997715D01*
X340945Y999452D01*
X341353Y1001500D01*
X340945Y1003549D01*
X339785Y1005285D01*
X338048Y1006445D01*
X336000Y1006853D01*
D02*
G37*
G36*
X355011Y997864D02*
X352963Y997457D01*
X351226Y996296D01*
X350066Y994560D01*
X349658Y992511D01*
X350066Y990463D01*
X351226Y988726D01*
X352963Y987566D01*
X355011Y987158D01*
X357060Y987566D01*
X358796Y988726D01*
X359957Y990463D01*
X360364Y992511D01*
X359957Y994560D01*
X358796Y996296D01*
X357060Y997457D01*
X355011Y997864D01*
D02*
G37*
G36*
X369000Y991853D02*
X366952Y991445D01*
X365215Y990285D01*
X364055Y988548D01*
X363647Y986500D01*
X364055Y984452D01*
X365215Y982715D01*
X366952Y981555D01*
X369000Y981147D01*
X371048Y981555D01*
X372785Y982715D01*
X373945Y984452D01*
X374353Y986500D01*
X373945Y988548D01*
X372785Y990285D01*
X371048Y991445D01*
X369000Y991853D01*
D02*
G37*
G36*
X335730Y989747D02*
X333682Y989340D01*
X331945Y988180D01*
X330785Y986443D01*
X330377Y984395D01*
X330785Y982346D01*
X331945Y980610D01*
X333682Y979449D01*
X335730Y979042D01*
X337778Y979449D01*
X339515Y980610D01*
X340675Y982346D01*
X341083Y984395D01*
X340675Y986443D01*
X339515Y988180D01*
X337778Y989340D01*
X335730Y989747D01*
D02*
G37*
G36*
X311009Y985597D02*
X308961Y985190D01*
X307224Y984029D01*
X306064Y982293D01*
X305656Y980244D01*
X306064Y978196D01*
X307224Y976459D01*
X308961Y975299D01*
X311009Y974891D01*
X313058Y975299D01*
X314794Y976459D01*
X315955Y978196D01*
X316362Y980244D01*
X315955Y982293D01*
X314794Y984029D01*
X313058Y985190D01*
X311009Y985597D01*
D02*
G37*
G36*
X270000Y988353D02*
X267952Y987945D01*
X266215Y986785D01*
X265055Y985048D01*
X264647Y983000D01*
X265055Y980952D01*
X266215Y979215D01*
X267952Y978055D01*
X270000Y977647D01*
X270696Y975746D01*
X270647Y975500D01*
X271055Y973452D01*
X272215Y971715D01*
X273952Y970555D01*
X276000Y970147D01*
X278048Y970555D01*
X279111Y971264D01*
X280500Y971562D01*
X281889Y971264D01*
X282952Y970555D01*
X285000Y970147D01*
X287048Y970555D01*
X288785Y971715D01*
X289945Y973452D01*
X290353Y975500D01*
X289945Y977549D01*
X288785Y979285D01*
X287048Y980445D01*
X285000Y980853D01*
X282952Y980445D01*
X281889Y979736D01*
X280500Y979438D01*
X279111Y979736D01*
X278048Y980445D01*
X276000Y980853D01*
X275304Y982754D01*
X275353Y983000D01*
X274945Y985048D01*
X273785Y986785D01*
X272048Y987945D01*
X270000Y988353D01*
D02*
G37*
G36*
X198294Y969558D02*
X196246Y969151D01*
X194509Y967991D01*
X193349Y966254D01*
X192942Y964206D01*
X193349Y962157D01*
X194509Y960421D01*
X196246Y959260D01*
X198294Y958853D01*
X200343Y959260D01*
X202080Y960421D01*
X203240Y962157D01*
X203647Y964206D01*
X203240Y966254D01*
X202080Y967991D01*
X200343Y969151D01*
X198294Y969558D01*
D02*
G37*
G36*
X349480Y965353D02*
X347432Y964945D01*
X345695Y963785D01*
X344535Y962048D01*
X344127Y960000D01*
X344535Y957952D01*
X345695Y956215D01*
X347432Y955055D01*
X349480Y954647D01*
X351528Y955055D01*
X353265Y956215D01*
X354425Y957952D01*
X354833Y960000D01*
X354425Y962048D01*
X353265Y963785D01*
X351528Y964945D01*
X349480Y965353D01*
D02*
G37*
G36*
X335000D02*
X332952Y964945D01*
X331215Y963785D01*
X330055Y962048D01*
X329647Y960000D01*
X330055Y957952D01*
X331215Y956215D01*
X332952Y955055D01*
X335000Y954647D01*
X337048Y955055D01*
X338785Y956215D01*
X339945Y957952D01*
X340353Y960000D01*
X339945Y962048D01*
X338785Y963785D01*
X337048Y964945D01*
X335000Y965353D01*
D02*
G37*
G36*
X233894Y962878D02*
X231845Y962471D01*
X230109Y961310D01*
X228948Y959574D01*
X228541Y957525D01*
X228948Y955477D01*
X230109Y953740D01*
X231845Y952580D01*
X233894Y952172D01*
X235942Y952580D01*
X237679Y953740D01*
X238839Y955477D01*
X239247Y957525D01*
X238839Y959574D01*
X237679Y961310D01*
X235942Y962471D01*
X233894Y962878D01*
D02*
G37*
G36*
X349480Y950353D02*
X347432Y949945D01*
X345695Y948785D01*
X344535Y947048D01*
X344127Y945000D01*
X344535Y942952D01*
X345695Y941215D01*
X347432Y940055D01*
X349480Y939647D01*
X351528Y940055D01*
X353265Y941215D01*
X354425Y942952D01*
X354833Y945000D01*
X354425Y947048D01*
X353265Y948785D01*
X351528Y949945D01*
X349480Y950353D01*
D02*
G37*
G36*
X335000D02*
X332952Y949945D01*
X331215Y948785D01*
X330055Y947048D01*
X329647Y945000D01*
X330055Y942952D01*
X331215Y941215D01*
X332952Y940055D01*
X335000Y939647D01*
X337048Y940055D01*
X338785Y941215D01*
X339945Y942952D01*
X340353Y945000D01*
X339945Y947048D01*
X338785Y948785D01*
X337048Y949945D01*
X335000Y950353D01*
D02*
G37*
G36*
X172500Y932853D02*
X170452Y932445D01*
X168715Y931285D01*
X167555Y929548D01*
X167147Y927500D01*
X167555Y925452D01*
X168715Y923715D01*
X170452Y922555D01*
X172500Y922147D01*
X174548Y922555D01*
X176285Y923715D01*
X177445Y925452D01*
X177853Y927500D01*
X177445Y929548D01*
X176285Y931285D01*
X174548Y932445D01*
X172500Y932853D01*
D02*
G37*
G36*
X192500Y925353D02*
X190452Y924945D01*
X188715Y923785D01*
X187555Y922048D01*
X187147Y920000D01*
X187555Y917952D01*
X188715Y916215D01*
X190452Y915055D01*
X192500Y914647D01*
X194548Y915055D01*
X196285Y916215D01*
X197445Y917952D01*
X197853Y920000D01*
X197445Y922048D01*
X196285Y923785D01*
X194548Y924945D01*
X192500Y925353D01*
D02*
G37*
G36*
X317000Y918103D02*
X314952Y917695D01*
X313215Y916535D01*
X312055Y914798D01*
X311647Y912750D01*
X312055Y910702D01*
X313215Y908965D01*
X314952Y907805D01*
X317000Y907397D01*
X319048Y907805D01*
X319198Y907905D01*
X321055Y908452D01*
X322215Y906715D01*
X323952Y905555D01*
X326000Y905147D01*
X328048Y905555D01*
X329785Y906715D01*
X330945Y908452D01*
X331353Y910500D01*
X330945Y912548D01*
X329785Y914285D01*
X328048Y915445D01*
X326000Y915853D01*
X323952Y915445D01*
X323802Y915346D01*
X321945Y914798D01*
X320785Y916535D01*
X319048Y917695D01*
X317000Y918103D01*
D02*
G37*
G36*
X276000Y912853D02*
X273952Y912445D01*
X272215Y911285D01*
X271055Y909548D01*
X270647Y907500D01*
X271055Y905452D01*
X272215Y903715D01*
X273952Y902555D01*
X276000Y902147D01*
X278048Y902555D01*
X279785Y903715D01*
X280945Y905452D01*
X281353Y907500D01*
X280945Y909548D01*
X279785Y911285D01*
X278048Y912445D01*
X276000Y912853D01*
D02*
G37*
G36*
X117000Y910853D02*
X114952Y910445D01*
X113215Y909285D01*
X112055Y907549D01*
X111647Y905500D01*
X112055Y903452D01*
X113215Y901715D01*
X114952Y900555D01*
X117000Y900147D01*
X119048Y900555D01*
X120785Y901715D01*
X121945Y903452D01*
X122353Y905500D01*
X121945Y907549D01*
X120785Y909285D01*
X119048Y910445D01*
X117000Y910853D01*
D02*
G37*
G36*
X296000Y910101D02*
X293952Y909694D01*
X292215Y908533D01*
X291055Y906797D01*
X290647Y904748D01*
X291055Y902700D01*
X292215Y900963D01*
X293952Y899803D01*
X296000Y899395D01*
X298048Y899803D01*
X299785Y900963D01*
X300945Y902700D01*
X301353Y904748D01*
X300945Y906797D01*
X299785Y908533D01*
X298048Y909694D01*
X296000Y910101D01*
D02*
G37*
G36*
X152500Y900353D02*
X150452Y899945D01*
X148715Y898785D01*
X147555Y897048D01*
X147270Y895616D01*
X145230D01*
X144945Y897048D01*
X143785Y898785D01*
X142048Y899945D01*
X140000Y900353D01*
X137952Y899945D01*
X136215Y898785D01*
X135055Y897048D01*
X134647Y895000D01*
X135055Y892952D01*
X136215Y891215D01*
X137952Y890055D01*
X140000Y889647D01*
X142048Y890055D01*
X143785Y891215D01*
X144945Y892952D01*
X145230Y894384D01*
X147270D01*
X147555Y892952D01*
X148715Y891215D01*
X150452Y890055D01*
X152500Y889647D01*
X154548Y890055D01*
X156285Y891215D01*
X157445Y892952D01*
X157853Y895000D01*
X157445Y897048D01*
X156285Y898785D01*
X154548Y899945D01*
X152500Y900353D01*
D02*
G37*
G36*
X333750Y905853D02*
X331702Y905445D01*
X329965Y904285D01*
X328805Y902548D01*
X328397Y900500D01*
X328805Y898452D01*
X329965Y896715D01*
X331702Y895555D01*
X333750Y895147D01*
X335798Y895555D01*
X337535Y896715D01*
X338695Y898452D01*
X339103Y900500D01*
X338695Y902548D01*
X337535Y904285D01*
X335798Y905445D01*
X333750Y905853D01*
D02*
G37*
G36*
X125000Y900853D02*
X122952Y900445D01*
X121215Y899285D01*
X120055Y897548D01*
X119647Y895500D01*
X120055Y893452D01*
X121215Y891715D01*
X122952Y890555D01*
X125000Y890147D01*
X127048Y890555D01*
X128785Y891715D01*
X129945Y893452D01*
X130353Y895500D01*
X129945Y897548D01*
X128785Y899285D01*
X127048Y900445D01*
X125000Y900853D01*
D02*
G37*
G36*
X362347Y892700D02*
X360298Y892292D01*
X358562Y891132D01*
X357401Y889395D01*
X356994Y887347D01*
X357401Y885298D01*
X358562Y883562D01*
X360298Y882401D01*
X362347Y881994D01*
X364395Y882401D01*
X366132Y883562D01*
X367292Y885298D01*
X367700Y887347D01*
X367292Y889395D01*
X366132Y891132D01*
X364395Y892292D01*
X362347Y892700D01*
D02*
G37*
G36*
X82750Y885853D02*
X80702Y885445D01*
X78965Y884285D01*
X77805Y882549D01*
X77397Y880500D01*
X77805Y878452D01*
X78965Y876715D01*
X80702Y875555D01*
X82750Y875147D01*
X84798Y875555D01*
X86535Y876715D01*
X87695Y878452D01*
X88103Y880500D01*
X87695Y882549D01*
X86535Y884285D01*
X84798Y885445D01*
X82750Y885853D01*
D02*
G37*
G36*
X250000Y880353D02*
X247952Y879945D01*
X246215Y878785D01*
X245055Y877048D01*
X244647Y875000D01*
X245055Y872952D01*
X246215Y871215D01*
X247952Y870055D01*
X250000Y869647D01*
X252048Y870055D01*
X253785Y871215D01*
X254945Y872952D01*
X255353Y875000D01*
X254945Y877048D01*
X253785Y878785D01*
X252048Y879945D01*
X250000Y880353D01*
D02*
G37*
G36*
X72740Y877613D02*
X70692Y877205D01*
X68955Y876045D01*
X67795Y874308D01*
X67387Y872260D01*
X67795Y870211D01*
X68551Y869080D01*
X68955Y868475D01*
X67721Y866996D01*
X67048Y867445D01*
X65000Y867853D01*
X62952Y867445D01*
X61215Y866285D01*
X60055Y864548D01*
X59770Y863116D01*
X57730D01*
X57445Y864548D01*
X56285Y866285D01*
X54548Y867445D01*
X52500Y867853D01*
X50452Y867445D01*
X48715Y866285D01*
X47555Y864548D01*
X47147Y862500D01*
X47555Y860452D01*
X48715Y858715D01*
X50452Y857555D01*
X52500Y857147D01*
X54548Y857555D01*
X56285Y858715D01*
X57445Y860452D01*
X57730Y861885D01*
X59770D01*
X60055Y860452D01*
X61215Y858715D01*
X62952Y857555D01*
X65000Y857147D01*
X67048Y857555D01*
X68785Y858715D01*
X69945Y860452D01*
X70353Y862500D01*
X69945Y864548D01*
X69190Y865679D01*
X68785Y866285D01*
X70019Y867764D01*
X70692Y867314D01*
X72740Y866907D01*
X74789Y867314D01*
X76525Y868475D01*
X77686Y870211D01*
X78093Y872260D01*
X77686Y874308D01*
X76525Y876045D01*
X74789Y877205D01*
X72740Y877613D01*
D02*
G37*
G36*
X373000Y863853D02*
X370952Y863445D01*
X369215Y862285D01*
X368055Y860548D01*
X367647Y858500D01*
X368055Y856452D01*
X369215Y854715D01*
X370952Y853555D01*
X373000Y853147D01*
X375048Y853555D01*
X376785Y854715D01*
X377945Y856452D01*
X378353Y858500D01*
X377945Y860548D01*
X376785Y862285D01*
X375048Y863445D01*
X373000Y863853D01*
D02*
G37*
G36*
X205000Y852853D02*
X202952Y852445D01*
X201215Y851285D01*
X200055Y849548D01*
X199647Y847500D01*
X200055Y845452D01*
X201215Y843715D01*
X202952Y842555D01*
X205000Y842147D01*
X207048Y842555D01*
X208785Y843715D01*
X209945Y845452D01*
X210353Y847500D01*
X209945Y849548D01*
X208785Y851285D01*
X207048Y852445D01*
X205000Y852853D01*
D02*
G37*
G36*
X270000Y861944D02*
X267323Y861591D01*
X264828Y860558D01*
X262686Y858914D01*
X261042Y856772D01*
X260009Y854277D01*
X259657Y851600D01*
X260009Y848923D01*
X261042Y846428D01*
X262686Y844286D01*
X264828Y842642D01*
X267323Y841609D01*
X270000Y841256D01*
X272677Y841609D01*
X275172Y842642D01*
X277314Y844286D01*
X278958Y846428D01*
X279991Y848923D01*
X280343Y851600D01*
X279991Y854277D01*
X278958Y856772D01*
X277314Y858914D01*
X275172Y860558D01*
X272677Y861591D01*
X270000Y861944D01*
D02*
G37*
G36*
X371250Y838372D02*
X368811Y837887D01*
X366744Y836506D01*
X365363Y834439D01*
X364878Y832000D01*
X365363Y829561D01*
X366744Y827494D01*
X368811Y826113D01*
X371250Y825628D01*
X373689Y826113D01*
X375756Y827494D01*
X377137Y829561D01*
X377622Y832000D01*
X377137Y834439D01*
X375756Y836506D01*
X373689Y837887D01*
X371250Y838372D01*
D02*
G37*
G36*
X139000Y835853D02*
X136952Y835445D01*
X135215Y834285D01*
X134055Y832548D01*
X133647Y830500D01*
X134055Y828452D01*
X135215Y826715D01*
X136952Y825555D01*
X139000Y825147D01*
X141048Y825555D01*
X142785Y826715D01*
X143945Y828452D01*
X144353Y830500D01*
X143945Y832548D01*
X142785Y834285D01*
X141048Y835445D01*
X139000Y835853D01*
D02*
G37*
G36*
X158000Y833853D02*
X155952Y833445D01*
X154215Y832285D01*
X153055Y830548D01*
X152647Y828500D01*
X153055Y826452D01*
X154215Y824715D01*
X155952Y823555D01*
X158000Y823147D01*
X160048Y823555D01*
X161785Y824715D01*
X162945Y826452D01*
X163353Y828500D01*
X162945Y830548D01*
X161785Y832285D01*
X160048Y833445D01*
X158000Y833853D01*
D02*
G37*
G36*
X15000Y833873D02*
X12561Y833387D01*
X10494Y832006D01*
X9113Y829939D01*
X8627Y827500D01*
X9113Y825061D01*
X10494Y822994D01*
X12561Y821613D01*
X15000Y821128D01*
X17439Y821613D01*
X19506Y822994D01*
X20887Y825061D01*
X21372Y827500D01*
X20887Y829939D01*
X19506Y832006D01*
X17439Y833387D01*
X15000Y833873D01*
D02*
G37*
G36*
X292000Y831353D02*
X289952Y830945D01*
X288215Y829785D01*
X287055Y828048D01*
X286647Y826000D01*
X287055Y823952D01*
X288215Y822215D01*
X289952Y821055D01*
X292000Y820647D01*
X294048Y821055D01*
X295785Y822215D01*
X296945Y823952D01*
X297353Y826000D01*
X296945Y828048D01*
X295785Y829785D01*
X294048Y830945D01*
X292000Y831353D01*
D02*
G37*
G36*
X212500Y827853D02*
X210452Y827445D01*
X208715Y826285D01*
X207555Y824548D01*
X207147Y822500D01*
X207555Y820452D01*
X208715Y818715D01*
X210452Y817555D01*
X212500Y817147D01*
X214548Y817555D01*
X216285Y818715D01*
X217445Y820452D01*
X217853Y822500D01*
X217445Y824548D01*
X216285Y826285D01*
X214548Y827445D01*
X212500Y827853D01*
D02*
G37*
G36*
X270000Y836544D02*
X267323Y836191D01*
X264828Y835158D01*
X262686Y833514D01*
X261042Y831372D01*
X260009Y828877D01*
X259657Y826200D01*
X260009Y823523D01*
X261042Y821028D01*
X262686Y818886D01*
X264828Y817242D01*
X267323Y816209D01*
X270000Y815856D01*
X272677Y816209D01*
X275172Y817242D01*
X277314Y818886D01*
X278958Y821028D01*
X279991Y823523D01*
X280343Y826200D01*
X279991Y828877D01*
X278958Y831372D01*
X277314Y833514D01*
X275172Y835158D01*
X272677Y836191D01*
X270000Y836544D01*
D02*
G37*
G36*
X171879Y833732D02*
X169830Y833324D01*
X168094Y832164D01*
X166933Y830427D01*
X166526Y828379D01*
X166933Y826330D01*
X168094Y824594D01*
X169830Y823434D01*
X171879Y823026D01*
X173522Y823353D01*
X174513Y822347D01*
X174844Y821732D01*
X174555Y821298D01*
X174147Y819250D01*
X174555Y817202D01*
X175715Y815465D01*
X177452Y814305D01*
X179500Y813897D01*
X181548Y814305D01*
X183285Y815465D01*
X184445Y817202D01*
X184853Y819250D01*
X184445Y821298D01*
X183285Y823035D01*
X181548Y824195D01*
X179500Y824603D01*
X177857Y824276D01*
X176866Y825281D01*
X176535Y825897D01*
X176824Y826330D01*
X177232Y828379D01*
X176824Y830427D01*
X175664Y832164D01*
X173927Y833324D01*
X171879Y833732D01*
D02*
G37*
G36*
X292250Y806103D02*
X290202Y805695D01*
X288465Y804535D01*
X287305Y802798D01*
X286897Y800750D01*
X287305Y798702D01*
X288465Y796965D01*
X290202Y795805D01*
X292250Y795397D01*
X294298Y795805D01*
X296035Y796965D01*
X297195Y798702D01*
X297603Y800750D01*
X297195Y802798D01*
X296035Y804535D01*
X294298Y805695D01*
X292250Y806103D01*
D02*
G37*
G36*
X212500Y812853D02*
X210452Y812445D01*
X208715Y811285D01*
X207555Y809548D01*
X207147Y807500D01*
X207555Y805452D01*
X208715Y803715D01*
X208733Y803703D01*
Y801297D01*
X208715Y801285D01*
X207555Y799548D01*
X207147Y797500D01*
X207555Y795452D01*
X208715Y793715D01*
X210452Y792555D01*
X212500Y792147D01*
X214548Y792555D01*
X216285Y793715D01*
X217445Y795452D01*
X217853Y797500D01*
X217445Y799548D01*
X216285Y801285D01*
X216267Y801297D01*
Y803703D01*
X216285Y803715D01*
X217445Y805452D01*
X217853Y807500D01*
X217445Y809548D01*
X216285Y811285D01*
X214548Y812445D01*
X212500Y812853D01*
D02*
G37*
G36*
X270000Y811143D02*
X267323Y810791D01*
X264828Y809758D01*
X262686Y808114D01*
X261042Y805972D01*
X260009Y803477D01*
X259657Y800800D01*
X260009Y798123D01*
X261042Y795628D01*
X262686Y793486D01*
X264828Y791842D01*
X267323Y790809D01*
X270000Y790456D01*
X272677Y790809D01*
X275172Y791842D01*
X277314Y793486D01*
X278958Y795628D01*
X279991Y798123D01*
X280343Y800800D01*
X279991Y803477D01*
X278958Y805972D01*
X277314Y808114D01*
X275172Y809758D01*
X272677Y810791D01*
X270000Y811143D01*
D02*
G37*
G36*
X300892Y782853D02*
X298844Y782445D01*
X297107Y781285D01*
X295947Y779548D01*
X295539Y777500D01*
X295947Y775452D01*
X297107Y773715D01*
X298844Y772555D01*
X300892Y772147D01*
X302941Y772555D01*
X304677Y773715D01*
X305838Y775452D01*
X306245Y777500D01*
X305838Y779548D01*
X304677Y781285D01*
X302941Y782445D01*
X300892Y782853D01*
D02*
G37*
G36*
X270000Y785743D02*
X267323Y785391D01*
X264828Y784358D01*
X262686Y782714D01*
X261042Y780572D01*
X260009Y778077D01*
X259657Y775400D01*
X260009Y772723D01*
X261042Y770228D01*
X262686Y768086D01*
X264828Y766442D01*
X267323Y765409D01*
X270000Y765057D01*
X272677Y765409D01*
X275172Y766442D01*
X277314Y768086D01*
X278958Y770228D01*
X279991Y772723D01*
X280343Y775400D01*
X279991Y778077D01*
X278958Y780572D01*
X277314Y782714D01*
X275172Y784358D01*
X272677Y785391D01*
X270000Y785743D01*
D02*
G37*
G36*
X372000Y769853D02*
X369952Y769445D01*
X368215Y768285D01*
X367055Y766548D01*
X366647Y764500D01*
X367055Y762452D01*
X368215Y760715D01*
X369952Y759555D01*
X372000Y759147D01*
X374049Y759555D01*
X375785Y760715D01*
X376945Y762452D01*
X377353Y764500D01*
X376945Y766548D01*
X375785Y768285D01*
X374049Y769445D01*
X372000Y769853D01*
D02*
G37*
G36*
X99000D02*
X96952Y769445D01*
X95215Y768285D01*
X94055Y766548D01*
X93647Y764500D01*
X94055Y762452D01*
X95215Y760715D01*
X96952Y759555D01*
X99000Y759147D01*
X101048Y759555D01*
X102785Y760715D01*
X103945Y762452D01*
X104353Y764500D01*
X103945Y766548D01*
X102785Y768285D01*
X101048Y769445D01*
X99000Y769853D01*
D02*
G37*
G36*
X85000D02*
X82952Y769445D01*
X81215Y768285D01*
X80055Y766548D01*
X79647Y764500D01*
X80055Y762452D01*
X81215Y760715D01*
X82952Y759555D01*
X85000Y759147D01*
X87048Y759555D01*
X88785Y760715D01*
X89945Y762452D01*
X90353Y764500D01*
X89945Y766548D01*
X88785Y768285D01*
X87048Y769445D01*
X85000Y769853D01*
D02*
G37*
G36*
X114000Y768853D02*
X111952Y768445D01*
X110215Y767285D01*
X109055Y765548D01*
X108647Y763500D01*
X109055Y761452D01*
X110215Y759715D01*
X111952Y758555D01*
X114000Y758147D01*
X116048Y758555D01*
X117785Y759715D01*
X118945Y761452D01*
X119353Y763500D01*
X118945Y765548D01*
X117785Y767285D01*
X116048Y768445D01*
X114000Y768853D01*
D02*
G37*
G36*
X70000D02*
X67952Y768445D01*
X66215Y767285D01*
X65055Y765548D01*
X64647Y763500D01*
X65055Y761452D01*
X66215Y759715D01*
X67952Y758555D01*
X70000Y758147D01*
X72048Y758555D01*
X73785Y759715D01*
X74945Y761452D01*
X75353Y763500D01*
X74945Y765548D01*
X73785Y767285D01*
X72048Y768445D01*
X70000Y768853D01*
D02*
G37*
G36*
X113000Y754853D02*
X110952Y754445D01*
X109215Y753285D01*
X108055Y751548D01*
X107647Y749500D01*
X108055Y747452D01*
X109215Y745715D01*
X110952Y744555D01*
X113000Y744147D01*
X115048Y744555D01*
X116785Y745715D01*
X117945Y747452D01*
X118353Y749500D01*
X117945Y751548D01*
X116785Y753285D01*
X115048Y754445D01*
X113000Y754853D01*
D02*
G37*
G36*
X99000D02*
X96952Y754445D01*
X95215Y753285D01*
X94055Y751548D01*
X93647Y749500D01*
X94055Y747452D01*
X95215Y745715D01*
X96952Y744555D01*
X99000Y744147D01*
X101048Y744555D01*
X102785Y745715D01*
X103945Y747452D01*
X104353Y749500D01*
X103945Y751548D01*
X102785Y753285D01*
X101048Y754445D01*
X99000Y754853D01*
D02*
G37*
G36*
X85000D02*
X82952Y754445D01*
X81215Y753285D01*
X80055Y751548D01*
X79647Y749500D01*
X80055Y747452D01*
X81215Y745715D01*
X82952Y744555D01*
X85000Y744147D01*
X87048Y744555D01*
X88785Y745715D01*
X89945Y747452D01*
X90353Y749500D01*
X89945Y751548D01*
X88785Y753285D01*
X87048Y754445D01*
X85000Y754853D01*
D02*
G37*
G36*
X70000D02*
X67952Y754445D01*
X66215Y753285D01*
X65055Y751548D01*
X64647Y749500D01*
X65055Y747452D01*
X66215Y745715D01*
X67952Y744555D01*
X70000Y744147D01*
X72048Y744555D01*
X73785Y745715D01*
X74945Y747452D01*
X75353Y749500D01*
X74945Y751548D01*
X73785Y753285D01*
X72048Y754445D01*
X70000Y754853D01*
D02*
G37*
G36*
X270000Y760343D02*
X267323Y759991D01*
X264828Y758958D01*
X262686Y757314D01*
X261042Y755172D01*
X260009Y752677D01*
X259657Y750000D01*
X260009Y747323D01*
X261042Y744828D01*
X262686Y742686D01*
X264828Y741042D01*
X267323Y740009D01*
X270000Y739657D01*
X272677Y740009D01*
X275172Y741042D01*
X277314Y742686D01*
X278958Y744828D01*
X279991Y747323D01*
X280343Y750000D01*
X279991Y752677D01*
X278958Y755172D01*
X277314Y757314D01*
X275172Y758958D01*
X272677Y759991D01*
X270000Y760343D01*
D02*
G37*
G36*
X207330Y781852D02*
X204892Y781367D01*
X202824Y779986D01*
X201443Y777919D01*
X200958Y775480D01*
X201443Y773041D01*
X202824Y770974D01*
X202885Y770933D01*
Y768933D01*
X202535Y768700D01*
X201154Y766632D01*
X200669Y764194D01*
X201154Y761755D01*
X202535Y759688D01*
X203791Y758849D01*
X203881Y758528D01*
X203742Y756593D01*
X202246Y755594D01*
X200865Y753527D01*
X200380Y751088D01*
X200865Y748650D01*
X202246Y746582D01*
X202587Y746355D01*
Y744855D01*
X202380Y744088D01*
X201154Y742252D01*
X200669Y739814D01*
X201154Y737375D01*
X202535Y735308D01*
X204603Y733926D01*
X207041Y733441D01*
X209480Y733926D01*
X211547Y735308D01*
X212929Y737375D01*
X213414Y739814D01*
X212929Y742252D01*
X211547Y744320D01*
X211206Y744548D01*
Y746048D01*
X211414Y746815D01*
X212640Y748650D01*
X213125Y751088D01*
X212640Y753527D01*
X211258Y755594D01*
X210003Y756433D01*
X209913Y756754D01*
X210052Y758688D01*
X211547Y759688D01*
X212929Y761755D01*
X213414Y764194D01*
X212929Y766632D01*
X211547Y768700D01*
X211487Y768740D01*
Y770740D01*
X211836Y770974D01*
X213218Y773041D01*
X213703Y775480D01*
X213218Y777919D01*
X211836Y779986D01*
X209769Y781367D01*
X207330Y781852D01*
D02*
G37*
G36*
X113000Y740853D02*
X110952Y740445D01*
X109215Y739285D01*
X108055Y737549D01*
X107647Y735500D01*
X108055Y733452D01*
X109215Y731715D01*
X110952Y730555D01*
X113000Y730147D01*
X115048Y730555D01*
X116785Y731715D01*
X117945Y733452D01*
X118353Y735500D01*
X117945Y737549D01*
X116785Y739285D01*
X115048Y740445D01*
X113000Y740853D01*
D02*
G37*
G36*
X99000D02*
X96952Y740445D01*
X95215Y739285D01*
X94055Y737549D01*
X93647Y735500D01*
X94055Y733452D01*
X95215Y731715D01*
X96952Y730555D01*
X99000Y730147D01*
X101048Y730555D01*
X102785Y731715D01*
X103945Y733452D01*
X104353Y735500D01*
X103945Y737549D01*
X102785Y739285D01*
X101048Y740445D01*
X99000Y740853D01*
D02*
G37*
G36*
X85000D02*
X82952Y740445D01*
X81215Y739285D01*
X80055Y737549D01*
X79647Y735500D01*
X80055Y733452D01*
X81215Y731715D01*
X82952Y730555D01*
X85000Y730147D01*
X87048Y730555D01*
X88785Y731715D01*
X89945Y733452D01*
X90353Y735500D01*
X89945Y737549D01*
X88785Y739285D01*
X87048Y740445D01*
X85000Y740853D01*
D02*
G37*
G36*
X70000D02*
X67952Y740445D01*
X66215Y739285D01*
X65055Y737549D01*
X64647Y735500D01*
X65055Y733452D01*
X66215Y731715D01*
X67952Y730555D01*
X70000Y730147D01*
X72048Y730555D01*
X73785Y731715D01*
X74945Y733452D01*
X75353Y735500D01*
X74945Y737549D01*
X73785Y739285D01*
X72048Y740445D01*
X70000Y740853D01*
D02*
G37*
G36*
X234750Y741622D02*
X232311Y741137D01*
X230244Y739756D01*
X228863Y737689D01*
X228377Y735250D01*
X228863Y732811D01*
X230244Y730744D01*
X232311Y729363D01*
X234750Y728877D01*
X237189Y729363D01*
X239256Y730744D01*
X240637Y732811D01*
X241122Y735250D01*
X240637Y737689D01*
X239256Y739756D01*
X237189Y741137D01*
X234750Y741622D01*
D02*
G37*
G36*
X113000Y726853D02*
X110952Y726445D01*
X109215Y725285D01*
X108055Y723549D01*
X107647Y721500D01*
X108055Y719452D01*
X109215Y717715D01*
X110952Y716555D01*
X113000Y716147D01*
X115048Y716555D01*
X116785Y717715D01*
X117945Y719452D01*
X118353Y721500D01*
X117945Y723549D01*
X116785Y725285D01*
X115048Y726445D01*
X113000Y726853D01*
D02*
G37*
G36*
X70000D02*
X67952Y726445D01*
X66215Y725285D01*
X65055Y723549D01*
X64647Y721500D01*
X65055Y719452D01*
X66215Y717715D01*
X67952Y716555D01*
X70000Y716147D01*
X72048Y716555D01*
X73785Y717715D01*
X74945Y719452D01*
X75353Y721500D01*
X74945Y723549D01*
X73785Y725285D01*
X72048Y726445D01*
X70000Y726853D01*
D02*
G37*
G36*
X99000Y725853D02*
X96952Y725445D01*
X95215Y724285D01*
X94055Y722549D01*
X93647Y720500D01*
X94055Y718452D01*
X95215Y716715D01*
X96952Y715555D01*
X99000Y715147D01*
X101048Y715555D01*
X102785Y716715D01*
X103945Y718452D01*
X104353Y720500D01*
X103945Y722549D01*
X102785Y724285D01*
X101048Y725445D01*
X99000Y725853D01*
D02*
G37*
G36*
X85000D02*
X82952Y725445D01*
X81215Y724285D01*
X80055Y722549D01*
X79647Y720500D01*
X80055Y718452D01*
X81215Y716715D01*
X82952Y715555D01*
X85000Y715147D01*
X87048Y715555D01*
X88785Y716715D01*
X89945Y718452D01*
X90353Y720500D01*
X89945Y722549D01*
X88785Y724285D01*
X87048Y725445D01*
X85000Y725853D01*
D02*
G37*
G36*
X150000Y725353D02*
X147952Y724945D01*
X146215Y723785D01*
X145055Y722048D01*
X144647Y720000D01*
X145055Y717952D01*
X146215Y716215D01*
X147952Y715055D01*
X150000Y714647D01*
X152048Y715055D01*
X153785Y716215D01*
X154945Y717952D01*
X155353Y720000D01*
X154945Y722048D01*
X153785Y723785D01*
X152048Y724945D01*
X150000Y725353D01*
D02*
G37*
G36*
X270000Y734943D02*
X267323Y734591D01*
X264828Y733558D01*
X262686Y731914D01*
X261042Y729772D01*
X260009Y727277D01*
X259657Y724600D01*
X260009Y721923D01*
X261042Y719428D01*
X262686Y717286D01*
X264828Y715642D01*
X267323Y714609D01*
X270000Y714257D01*
X272677Y714609D01*
X275172Y715642D01*
X277314Y717286D01*
X278958Y719428D01*
X279991Y721923D01*
X280343Y724600D01*
X279991Y727277D01*
X278958Y729772D01*
X277314Y731914D01*
X275172Y733558D01*
X272677Y734591D01*
X270000Y734943D01*
D02*
G37*
G36*
X166000Y714853D02*
X163952Y714445D01*
X162215Y713285D01*
X161055Y711548D01*
X160647Y709500D01*
X161055Y707452D01*
X162215Y705715D01*
X163952Y704555D01*
X166000Y704147D01*
X168048Y704555D01*
X169785Y705715D01*
X170945Y707452D01*
X171353Y709500D01*
X170945Y711548D01*
X169785Y713285D01*
X168048Y714445D01*
X166000Y714853D01*
D02*
G37*
G36*
X68000Y704853D02*
X65952Y704445D01*
X64215Y703285D01*
X61649Y703044D01*
X61048Y703445D01*
X59000Y703853D01*
X56952Y703445D01*
X55215Y702285D01*
X54055Y700548D01*
X53647Y698500D01*
X54055Y696452D01*
X55215Y694715D01*
X56952Y693555D01*
X59000Y693147D01*
X61048Y693555D01*
X62785Y694715D01*
X65351Y694956D01*
X65952Y694555D01*
X68000Y694147D01*
X70048Y694555D01*
X71785Y695715D01*
X72945Y697452D01*
X73353Y699500D01*
X72945Y701548D01*
X71785Y703285D01*
X70048Y704445D01*
X68000Y704853D01*
D02*
G37*
G36*
X29000Y703853D02*
X26952Y703445D01*
X25215Y702285D01*
X24055Y700548D01*
X23647Y698500D01*
X24055Y696452D01*
X25215Y694715D01*
X26952Y693555D01*
X29000Y693147D01*
X31048Y693555D01*
X32785Y694715D01*
X33945Y696452D01*
X34353Y698500D01*
X33945Y700548D01*
X32785Y702285D01*
X31048Y703445D01*
X29000Y703853D01*
D02*
G37*
G36*
X44000Y702853D02*
X41952Y702445D01*
X40215Y701285D01*
X39055Y699548D01*
X38647Y697500D01*
X39055Y695452D01*
X40215Y693715D01*
X41952Y692555D01*
X44000Y692147D01*
X46048Y692555D01*
X47785Y693715D01*
X48945Y695452D01*
X49353Y697500D01*
X48945Y699548D01*
X47785Y701285D01*
X46048Y702445D01*
X44000Y702853D01*
D02*
G37*
G36*
X270000Y709544D02*
X267323Y709191D01*
X264828Y708158D01*
X262686Y706514D01*
X261042Y704372D01*
X260009Y701877D01*
X259657Y699200D01*
X260009Y696523D01*
X261042Y694028D01*
X262686Y691886D01*
X264828Y690242D01*
X267323Y689209D01*
X270000Y688857D01*
X272677Y689209D01*
X275172Y690242D01*
X277314Y691886D01*
X278958Y694028D01*
X279991Y696523D01*
X280343Y699200D01*
X279991Y701877D01*
X278958Y704372D01*
X277314Y706514D01*
X275172Y708158D01*
X272677Y709191D01*
X270000Y709544D01*
D02*
G37*
G36*
X14650Y694988D02*
X12211Y694503D01*
X10144Y693121D01*
X8763Y691054D01*
X8278Y688615D01*
X8763Y686177D01*
X10144Y684109D01*
X12211Y682728D01*
X14650Y682243D01*
X17089Y682728D01*
X19156Y684109D01*
X20537Y686177D01*
X21023Y688615D01*
X20537Y691054D01*
X19156Y693121D01*
X17089Y694503D01*
X14650Y694988D01*
D02*
G37*
G36*
X103500Y692353D02*
X101452Y691945D01*
X99715Y690785D01*
X98555Y689048D01*
X98147Y687000D01*
X98555Y684952D01*
X99715Y683215D01*
X101452Y682055D01*
X103500Y681647D01*
X105548Y682055D01*
X107285Y683215D01*
X108445Y684952D01*
X108853Y687000D01*
X108445Y689048D01*
X107285Y690785D01*
X105548Y691945D01*
X103500Y692353D01*
D02*
G37*
G36*
X116000Y689853D02*
X113952Y689445D01*
X112215Y688285D01*
X111055Y686548D01*
X110647Y684500D01*
X111055Y682452D01*
X112215Y680715D01*
X113952Y679555D01*
X116000Y679147D01*
X118048Y679555D01*
X119785Y680715D01*
X120945Y682452D01*
X121353Y684500D01*
X120945Y686548D01*
X119785Y688285D01*
X118048Y689445D01*
X116000Y689853D01*
D02*
G37*
G36*
X332500Y686826D02*
X330452Y686419D01*
X328715Y685258D01*
X327555Y683522D01*
X327147Y681473D01*
X327555Y679425D01*
X328715Y677688D01*
X330452Y676528D01*
X332500Y676120D01*
X334548Y676528D01*
X336285Y677688D01*
X337445Y679425D01*
X337853Y681473D01*
X337445Y683522D01*
X336285Y685258D01*
X334548Y686419D01*
X332500Y686826D01*
D02*
G37*
G36*
X315520Y685826D02*
X313472Y685419D01*
X311735Y684258D01*
X310575Y682522D01*
X310167Y680473D01*
X310575Y678425D01*
X311735Y676688D01*
X313472Y675528D01*
X315520Y675120D01*
X317568Y675528D01*
X319305Y676688D01*
X320465Y678425D01*
X320873Y680473D01*
X320465Y682522D01*
X319305Y684258D01*
X317568Y685419D01*
X315520Y685826D01*
D02*
G37*
G36*
X280255Y684055D02*
X259745D01*
Y663545D01*
X280255D01*
Y684055D01*
D02*
G37*
G36*
X210000Y671372D02*
X207561Y670887D01*
X205494Y669506D01*
X204113Y667439D01*
X203628Y665000D01*
X204113Y662561D01*
X205494Y660494D01*
X207561Y659113D01*
X210000Y658627D01*
X212439Y659113D01*
X214506Y660494D01*
X215887Y662561D01*
X216373Y665000D01*
X215887Y667439D01*
X214506Y669506D01*
X212439Y670887D01*
X210000Y671372D01*
D02*
G37*
G36*
X169639Y663860D02*
X167591Y663453D01*
X165854Y662293D01*
X164694Y660556D01*
X164286Y658508D01*
X164694Y656459D01*
X165854Y654723D01*
X167591Y653562D01*
X169639Y653155D01*
X171688Y653562D01*
X173424Y654723D01*
X173810D01*
X174446Y653770D01*
X176182Y652610D01*
X178231Y652203D01*
X180279Y652610D01*
X182016Y653770D01*
X183176Y655507D01*
X183584Y657555D01*
X183176Y659604D01*
X182016Y661340D01*
X180279Y662501D01*
X178231Y662908D01*
X176182Y662501D01*
X174446Y661340D01*
X174060D01*
X173424Y662293D01*
X171688Y663453D01*
X169639Y663860D01*
D02*
G37*
G36*
X95000Y656117D02*
X92659Y655652D01*
X90674Y654326D01*
X89348Y652341D01*
X88882Y650000D01*
X89348Y647659D01*
X90674Y645674D01*
X92659Y644348D01*
X95000Y643883D01*
X97341Y644348D01*
X99326Y645674D01*
X100652Y647659D01*
X101117Y650000D01*
X100652Y652341D01*
X99326Y654326D01*
X97341Y655652D01*
X95000Y656117D01*
D02*
G37*
G36*
X203625Y653997D02*
X201186Y653512D01*
X199119Y652131D01*
X197738Y650064D01*
X197253Y647625D01*
X197738Y645186D01*
X199119Y643119D01*
X201186Y641738D01*
X203625Y641253D01*
X206064Y641738D01*
X208131Y643119D01*
X209512Y645186D01*
X209998Y647625D01*
X209512Y650064D01*
X208131Y652131D01*
X206064Y653512D01*
X203625Y653997D01*
D02*
G37*
G36*
X59964Y653837D02*
X57525Y653351D01*
X55458Y651970D01*
X54077Y649903D01*
X53591Y647464D01*
X54077Y645025D01*
X55458Y642958D01*
X57525Y641577D01*
X59964Y641092D01*
X62403Y641577D01*
X64470Y642958D01*
X65851Y645025D01*
X66336Y647464D01*
X65851Y649903D01*
X64470Y651970D01*
X62403Y653351D01*
X59964Y653837D01*
D02*
G37*
G36*
X365000Y646372D02*
X362561Y645887D01*
X360494Y644506D01*
X359113Y642439D01*
X358628Y640000D01*
X359113Y637561D01*
X360494Y635494D01*
X362561Y634113D01*
X365000Y633628D01*
X367439Y634113D01*
X369506Y635494D01*
X370887Y637561D01*
X371372Y640000D01*
X370887Y642439D01*
X369506Y644506D01*
X367439Y645887D01*
X365000Y646372D01*
D02*
G37*
G36*
X217500Y643872D02*
X215061Y643387D01*
X212994Y642006D01*
X211613Y639939D01*
X211127Y637500D01*
X211613Y635061D01*
X212994Y632994D01*
X215061Y631613D01*
X217500Y631128D01*
X219939Y631613D01*
X222006Y632994D01*
X223387Y635061D01*
X223873Y637500D01*
X223387Y639939D01*
X222006Y642006D01*
X219939Y643387D01*
X217500Y643872D01*
D02*
G37*
G36*
X152386Y634645D02*
X149947Y634160D01*
X147880Y632779D01*
X146498Y630712D01*
X146013Y628273D01*
X146498Y625834D01*
X147880Y623767D01*
X149947Y622385D01*
X152386Y621900D01*
X154824Y622385D01*
X156892Y623767D01*
X158273Y625834D01*
X158758Y628273D01*
X158273Y630712D01*
X156892Y632779D01*
X154824Y634160D01*
X152386Y634645D01*
D02*
G37*
G36*
X60000Y633872D02*
X57561Y633387D01*
X55494Y632006D01*
X54113Y629939D01*
X53628Y627500D01*
X54113Y625061D01*
X55494Y622994D01*
X57561Y621613D01*
X60000Y621128D01*
X62439Y621613D01*
X64506Y622994D01*
X65887Y625061D01*
X66372Y627500D01*
X65887Y629939D01*
X64506Y632006D01*
X62439Y633387D01*
X60000Y633872D01*
D02*
G37*
G36*
X235000Y631372D02*
X232561Y630887D01*
X230494Y629506D01*
X229113Y627439D01*
X228628Y625000D01*
X229113Y622561D01*
X230494Y620494D01*
X232561Y619113D01*
X235000Y618628D01*
X237439Y619113D01*
X239506Y620494D01*
X240887Y622561D01*
X241373Y625000D01*
X240887Y627439D01*
X239506Y629506D01*
X237439Y630887D01*
X235000Y631372D01*
D02*
G37*
G36*
X202500Y620853D02*
X200452Y620445D01*
X198715Y619285D01*
X197555Y617548D01*
X197147Y615500D01*
X197555Y613452D01*
X198715Y611715D01*
X200452Y610555D01*
X202500Y610147D01*
X204548Y610555D01*
X206285Y611715D01*
X207445Y613452D01*
X207853Y615500D01*
X207445Y617548D01*
X206285Y619285D01*
X204548Y620445D01*
X202500Y620853D01*
D02*
G37*
G36*
X125000Y620353D02*
X122952Y619945D01*
X121215Y618785D01*
X120055Y617048D01*
X119647Y615000D01*
X120055Y612952D01*
X121215Y611215D01*
X122952Y610055D01*
X125000Y609647D01*
X127048Y610055D01*
X128785Y611215D01*
X129945Y612952D01*
X130353Y615000D01*
X129945Y617048D01*
X128785Y618785D01*
X127048Y619945D01*
X125000Y620353D01*
D02*
G37*
G36*
X65500Y608372D02*
X63061Y607887D01*
X60994Y606506D01*
X59613Y604439D01*
X59128Y602000D01*
X59613Y599561D01*
X60994Y597494D01*
X63061Y596113D01*
X65500Y595628D01*
X67939Y596113D01*
X70006Y597494D01*
X71387Y599561D01*
X71873Y602000D01*
X71387Y604439D01*
X70006Y606506D01*
X67939Y607887D01*
X65500Y608372D01*
D02*
G37*
G36*
X86500Y597353D02*
X84452Y596945D01*
X82715Y595785D01*
X81555Y594049D01*
X81147Y592000D01*
X81555Y589952D01*
X82715Y588215D01*
X84452Y587055D01*
X86500Y586647D01*
X88548Y587055D01*
X90285Y588215D01*
X91445Y589952D01*
X91853Y592000D01*
X91445Y594049D01*
X90285Y595785D01*
X88548Y596945D01*
X86500Y597353D01*
D02*
G37*
G36*
X109000Y586372D02*
X106561Y585887D01*
X104494Y584506D01*
X103113Y582439D01*
X102628Y580000D01*
X103113Y577561D01*
X104494Y575494D01*
X106561Y574113D01*
X109000Y573628D01*
X111439Y574113D01*
X113506Y575494D01*
X114887Y577561D01*
X115372Y580000D01*
X114887Y582439D01*
X113506Y584506D01*
X111439Y585887D01*
X109000Y586372D01*
D02*
G37*
G36*
X17500Y583872D02*
X15061Y583387D01*
X12994Y582006D01*
X11613Y579939D01*
X11128Y577500D01*
X11613Y575061D01*
X12994Y572994D01*
X15061Y571613D01*
X17500Y571128D01*
X19939Y571613D01*
X22006Y572994D01*
X23387Y575061D01*
X23872Y577500D01*
X23387Y579939D01*
X22006Y582006D01*
X19939Y583387D01*
X17500Y583872D01*
D02*
G37*
G36*
X50000Y573872D02*
X47561Y573387D01*
X45494Y572006D01*
X44113Y569939D01*
X43628Y567500D01*
X44113Y565061D01*
X45494Y562994D01*
X47561Y561613D01*
X50000Y561128D01*
X52439Y561613D01*
X54506Y562994D01*
X55887Y565061D01*
X56372Y567500D01*
X55887Y569939D01*
X54506Y572006D01*
X52439Y573387D01*
X50000Y573872D01*
D02*
G37*
G36*
X92598Y558214D02*
X90159Y557729D01*
X88092Y556348D01*
X86710Y554281D01*
X86225Y551842D01*
X86710Y549403D01*
X88092Y547336D01*
X90159Y545955D01*
X92598Y545470D01*
X95036Y545955D01*
X97104Y547336D01*
X98485Y549403D01*
X98970Y551842D01*
X98485Y554281D01*
X97104Y556348D01*
X95036Y557729D01*
X92598Y558214D01*
D02*
G37*
G36*
X64500Y548872D02*
X62061Y548387D01*
X59994Y547006D01*
X58613Y544939D01*
X58127Y542500D01*
X58613Y540061D01*
X59994Y537994D01*
X62061Y536613D01*
X64500Y536128D01*
X66939Y536613D01*
X69006Y537994D01*
X70387Y540061D01*
X70872Y542500D01*
X70387Y544939D01*
X69006Y547006D01*
X66939Y548387D01*
X64500Y548872D01*
D02*
G37*
G36*
X110036Y525389D02*
X107988Y524981D01*
X106251Y523821D01*
X105091Y522084D01*
X104683Y520036D01*
X105091Y517988D01*
X106251Y516251D01*
X107988Y515091D01*
X110036Y514683D01*
X112084Y515091D01*
X113821Y516251D01*
X114981Y517988D01*
X115389Y520036D01*
X114981Y522084D01*
X113821Y523821D01*
X112084Y524981D01*
X110036Y525389D01*
D02*
G37*
G36*
X184335Y525353D02*
X182287Y524945D01*
X180550Y523785D01*
X179390Y522048D01*
X178982Y520000D01*
X179390Y517952D01*
X180550Y516215D01*
X182287Y515055D01*
X184335Y514647D01*
X186383Y515055D01*
X188120Y516215D01*
X189280Y517952D01*
X189688Y520000D01*
X189280Y522048D01*
X188120Y523785D01*
X186383Y524945D01*
X184335Y525353D01*
D02*
G37*
G36*
X155000D02*
X152952Y524945D01*
X151215Y523785D01*
X150055Y522048D01*
X149647Y520000D01*
X150055Y517952D01*
X151215Y516215D01*
X152952Y515055D01*
X155000Y514647D01*
X157048Y515055D01*
X158785Y516215D01*
X159945Y517952D01*
X160353Y520000D01*
X159945Y522048D01*
X158785Y523785D01*
X157048Y524945D01*
X155000Y525353D01*
D02*
G37*
G36*
X17500Y526372D02*
X15061Y525887D01*
X12994Y524506D01*
X11613Y522439D01*
X11128Y520000D01*
X11613Y517561D01*
X12994Y515494D01*
X15061Y514113D01*
X17500Y513628D01*
X19939Y514113D01*
X22006Y515494D01*
X23387Y517561D01*
X23872Y520000D01*
X23387Y522439D01*
X22006Y524506D01*
X19939Y525887D01*
X17500Y526372D01*
D02*
G37*
G36*
X52500Y513872D02*
X50061Y513387D01*
X47994Y512006D01*
X46613Y509939D01*
X46128Y507500D01*
X46613Y505061D01*
X47994Y502994D01*
X50061Y501613D01*
X52500Y501128D01*
X54939Y501613D01*
X57006Y502994D01*
X58387Y505061D01*
X58872Y507500D01*
X58387Y509939D01*
X57006Y512006D01*
X54939Y513387D01*
X52500Y513872D01*
D02*
G37*
G36*
X140000Y496372D02*
X137561Y495887D01*
X135494Y494506D01*
X134113Y492439D01*
X133628Y490000D01*
X134113Y487561D01*
X135494Y485494D01*
X137561Y484113D01*
X140000Y483628D01*
X142439Y484113D01*
X144506Y485494D01*
X145887Y487561D01*
X146372Y490000D01*
X145887Y492439D01*
X144506Y494506D01*
X142439Y495887D01*
X140000Y496372D01*
D02*
G37*
G36*
X120000D02*
X117561Y495887D01*
X115494Y494506D01*
X114113Y492439D01*
X113628Y490000D01*
X114113Y487561D01*
X115494Y485494D01*
X117561Y484113D01*
X120000Y483628D01*
X122439Y484113D01*
X124506Y485494D01*
X125887Y487561D01*
X126372Y490000D01*
X125887Y492439D01*
X124506Y494506D01*
X122439Y495887D01*
X120000Y496372D01*
D02*
G37*
G36*
X14000Y496123D02*
X11561Y495637D01*
X9494Y494256D01*
X8113Y492189D01*
X7628Y489750D01*
X8113Y487311D01*
X9494Y485244D01*
X11561Y483863D01*
X14000Y483377D01*
X16439Y483863D01*
X18506Y485244D01*
X19887Y487311D01*
X20373Y489750D01*
X19887Y492189D01*
X18506Y494256D01*
X16439Y495637D01*
X14000Y496123D01*
D02*
G37*
G36*
X140000Y481372D02*
X137561Y480887D01*
X135494Y479506D01*
X134113Y477439D01*
X133628Y475000D01*
X134113Y472561D01*
X135494Y470494D01*
X137561Y469113D01*
X140000Y468628D01*
X142439Y469113D01*
X144506Y470494D01*
X145887Y472561D01*
X146372Y475000D01*
X145887Y477439D01*
X144506Y479506D01*
X142439Y480887D01*
X140000Y481372D01*
D02*
G37*
G36*
X120000D02*
X117561Y480887D01*
X115494Y479506D01*
X114113Y477439D01*
X113628Y475000D01*
X114113Y472561D01*
X115494Y470494D01*
X117561Y469113D01*
X120000Y468628D01*
X122439Y469113D01*
X124506Y470494D01*
X125887Y472561D01*
X126372Y475000D01*
X125887Y477439D01*
X124506Y479506D01*
X122439Y480887D01*
X120000Y481372D01*
D02*
G37*
G36*
X50810Y1283181D02*
Y1277500D01*
X56491D01*
X55213Y1279715D01*
X53025Y1281902D01*
X50810Y1283181D01*
D02*
G37*
G36*
X40810Y1283181D02*
X38596Y1281902D01*
X36408Y1279715D01*
X35129Y1277500D01*
X40810D01*
Y1283181D01*
D02*
G37*
G36*
Y1267500D02*
X35129D01*
X36408Y1265285D01*
X38596Y1263098D01*
X40810Y1261819D01*
Y1267500D01*
D02*
G37*
G36*
X56491D02*
X50810D01*
Y1261819D01*
X53025Y1263098D01*
X55213Y1265285D01*
X56491Y1267500D01*
D02*
G37*
G36*
X47357Y1234250D02*
X44263D01*
X41275Y1233449D01*
X38596Y1231902D01*
X36408Y1229715D01*
X34861Y1227035D01*
X34060Y1224047D01*
Y1220953D01*
X34861Y1217965D01*
X36408Y1215285D01*
X38596Y1213098D01*
X41275Y1211551D01*
X44263Y1210750D01*
X47357D01*
X50346Y1211551D01*
X53025Y1213098D01*
X55213Y1215285D01*
X56760Y1217965D01*
X57560Y1220953D01*
Y1224047D01*
X56760Y1227035D01*
X55213Y1229715D01*
X53025Y1231902D01*
X50346Y1233449D01*
X47357Y1234250D01*
D02*
G37*
G36*
X33544Y1198473D02*
X31456D01*
X29526Y1197673D01*
X28049Y1196197D01*
X27250Y1194267D01*
Y1192178D01*
X28049Y1190249D01*
X29526Y1188772D01*
X31456Y1187973D01*
X33544D01*
X35474Y1188772D01*
X36951Y1190249D01*
X37750Y1192178D01*
Y1194267D01*
X36951Y1196197D01*
X35474Y1197673D01*
X33544Y1198473D01*
D02*
G37*
G36*
X17000Y1115155D02*
Y1107400D01*
X24755D01*
Y1115155D01*
X17000D01*
D02*
G37*
G36*
X24755Y1103400D02*
X17000D01*
Y1095645D01*
X24755D01*
Y1103400D01*
D02*
G37*
G36*
X17000Y993055D02*
Y985300D01*
X24755D01*
Y993055D01*
X17000D01*
D02*
G37*
G36*
X24755Y981300D02*
X17000D01*
Y973545D01*
X24755D01*
Y981300D01*
D02*
G37*
G36*
X601071Y1136271D02*
X598584D01*
X596287Y1135319D01*
X594529Y1133561D01*
X593577Y1131264D01*
Y1128777D01*
X594529Y1126480D01*
X596287Y1124722D01*
X598584Y1123771D01*
X601071D01*
X603368Y1124722D01*
X605126Y1126480D01*
X606077Y1128777D01*
Y1131264D01*
X605126Y1133561D01*
X603368Y1135319D01*
X601071Y1136271D01*
D02*
G37*
G36*
X553945Y1133750D02*
X551856D01*
X549926Y1132951D01*
X548450Y1131474D01*
X547650Y1129544D01*
Y1127456D01*
X548450Y1125526D01*
X549926Y1124049D01*
X550989Y1123609D01*
X552713Y1122544D01*
Y1120456D01*
X553512Y1118526D01*
X554989Y1117049D01*
X556918Y1116250D01*
X559007D01*
X560937Y1117049D01*
X562413Y1118526D01*
X563213Y1120456D01*
Y1122544D01*
X562413Y1124474D01*
X560937Y1125951D01*
X559874Y1126391D01*
X558150Y1127456D01*
Y1129544D01*
X557351Y1131474D01*
X555874Y1132951D01*
X553945Y1133750D01*
D02*
G37*
G36*
X761243Y1141250D02*
X758757D01*
X756460Y1140298D01*
X755000Y1138839D01*
X753540Y1140298D01*
X751243Y1141250D01*
X748757D01*
X746460Y1140298D01*
X744702Y1138540D01*
X743750Y1136243D01*
Y1133757D01*
X744702Y1131460D01*
X746161Y1130000D01*
X744702Y1128540D01*
X743750Y1126243D01*
Y1123757D01*
X744702Y1121460D01*
X746460Y1119702D01*
X748757Y1118750D01*
X751243D01*
X753540Y1119702D01*
X755000Y1121161D01*
X756460Y1119702D01*
X758757Y1118750D01*
X761243D01*
X763540Y1119702D01*
X765298Y1121460D01*
X766250Y1123757D01*
Y1126243D01*
X765298Y1128540D01*
X763839Y1130000D01*
X765298Y1131460D01*
X766250Y1133757D01*
Y1136243D01*
X765298Y1138540D01*
X763540Y1140298D01*
X761243Y1141250D01*
D02*
G37*
G36*
X680000Y1078221D02*
Y1075000D01*
X683221D01*
X682698Y1075907D01*
X680907Y1077698D01*
X680000Y1078221D01*
D02*
G37*
G36*
X670000Y1078222D02*
X669093Y1077698D01*
X667302Y1075907D01*
X666778Y1075000D01*
X670000D01*
Y1078222D01*
D02*
G37*
G36*
X795000Y1078221D02*
Y1075000D01*
X798221D01*
X797698Y1075907D01*
X795907Y1077698D01*
X795000Y1078221D01*
D02*
G37*
G36*
X785000D02*
X784093Y1077698D01*
X782302Y1075907D01*
X781778Y1075000D01*
X785000D01*
Y1078221D01*
D02*
G37*
G36*
X545659Y1089500D02*
X543570D01*
X541640Y1088701D01*
X540163Y1087224D01*
X539364Y1085294D01*
Y1083206D01*
X540163Y1081276D01*
X540325Y1081115D01*
X540347Y1080931D01*
X539739Y1078872D01*
X538622Y1078409D01*
X537145Y1076932D01*
X536345Y1075003D01*
Y1072914D01*
X537145Y1070985D01*
X538622Y1069508D01*
X540551Y1068708D01*
X542640D01*
X544569Y1069508D01*
X546046Y1070985D01*
X546846Y1072914D01*
Y1075003D01*
X546046Y1076932D01*
X545885Y1077094D01*
X545863Y1077277D01*
X546471Y1079336D01*
X547588Y1079799D01*
X549065Y1081276D01*
X549864Y1083206D01*
Y1085294D01*
X549065Y1087224D01*
X547588Y1088701D01*
X545659Y1089500D01*
D02*
G37*
G36*
X564195Y1081250D02*
X562106D01*
X560176Y1080451D01*
X558699Y1078974D01*
X557900Y1077044D01*
Y1074956D01*
X558699Y1073026D01*
X560176Y1071549D01*
X560231Y1071527D01*
X561003Y1070792D01*
X560204Y1068862D01*
Y1066774D01*
X561003Y1064844D01*
X562480Y1063367D01*
X564410Y1062568D01*
X566498D01*
X568428Y1063367D01*
X569905Y1064844D01*
X570704Y1066774D01*
Y1068862D01*
X569905Y1070792D01*
X568428Y1072269D01*
X568373Y1072292D01*
X567601Y1073026D01*
X568400Y1074956D01*
Y1077044D01*
X567601Y1078974D01*
X566124Y1080451D01*
X564195Y1081250D01*
D02*
G37*
G36*
X683222Y1065000D02*
X680000D01*
Y1061778D01*
X680907Y1062302D01*
X682698Y1064093D01*
X683222Y1065000D01*
D02*
G37*
G36*
X798221Y1065000D02*
X795000D01*
Y1061778D01*
X795907Y1062302D01*
X797698Y1064093D01*
X798221Y1065000D01*
D02*
G37*
G36*
X785000D02*
X781778D01*
X782302Y1064093D01*
X784093Y1062302D01*
X785000Y1061778D01*
Y1065000D01*
D02*
G37*
G36*
X670000Y1065000D02*
X666778D01*
X667302Y1064093D01*
X669093Y1062302D01*
X670000Y1061778D01*
Y1065000D01*
D02*
G37*
G36*
X596065Y1069659D02*
X593977D01*
X592047Y1068860D01*
X590570Y1067383D01*
X589771Y1065453D01*
Y1063365D01*
X590570Y1061435D01*
X592047Y1059958D01*
X593977Y1059159D01*
X596065D01*
X597995Y1059958D01*
X599472Y1061435D01*
X600271Y1063365D01*
Y1065453D01*
X599472Y1067383D01*
X597995Y1068860D01*
X596065Y1069659D01*
D02*
G37*
G36*
X596000Y1031872D02*
X593561Y1031387D01*
X591494Y1030006D01*
X590113Y1027939D01*
X589627Y1025500D01*
X590113Y1023061D01*
X591494Y1020994D01*
X593561Y1019613D01*
X596000Y1019128D01*
X598439Y1019613D01*
X600506Y1020994D01*
X601887Y1023061D01*
X602373Y1025500D01*
X601887Y1027939D01*
X600506Y1030006D01*
X598439Y1031387D01*
X596000Y1031872D01*
D02*
G37*
G36*
X554900Y1032853D02*
X552852Y1032445D01*
X551115Y1031285D01*
X549955Y1029548D01*
X549547Y1027500D01*
X549955Y1025452D01*
X551115Y1023715D01*
X552852Y1022555D01*
X554900Y1022147D01*
X556949Y1022555D01*
X558801Y1021387D01*
X558816Y1021313D01*
X559976Y1019576D01*
X561713Y1018416D01*
X563761Y1018008D01*
X565810Y1018416D01*
X567546Y1019576D01*
X568707Y1021313D01*
X569114Y1023361D01*
X568707Y1025409D01*
X567546Y1027146D01*
X565810Y1028307D01*
X563761Y1028714D01*
X561713Y1028307D01*
X559860Y1029474D01*
X559846Y1029548D01*
X558685Y1031285D01*
X556949Y1032445D01*
X554900Y1032853D01*
D02*
G37*
G36*
X830000Y1006373D02*
X827561Y1005887D01*
X825494Y1004506D01*
X824113Y1002439D01*
X823627Y1000000D01*
X824113Y997561D01*
X824580Y996862D01*
X823138Y995420D01*
X822439Y995887D01*
X820000Y996373D01*
X817561Y995887D01*
X815494Y994506D01*
X814113Y992439D01*
X813628Y990000D01*
X814113Y987561D01*
X815494Y985494D01*
X817561Y984113D01*
X820000Y983627D01*
X822439Y984113D01*
X823138Y984580D01*
X824580Y983138D01*
X824113Y982439D01*
X823627Y980000D01*
X824113Y977561D01*
X825494Y975494D01*
X827561Y974113D01*
X830000Y973627D01*
X832439Y974113D01*
X834506Y975494D01*
X835887Y977561D01*
X836372Y980000D01*
X835887Y982439D01*
X835420Y983138D01*
X836862Y984580D01*
X837561Y984113D01*
X840000Y983627D01*
X842154Y984056D01*
X844034Y982956D01*
X844113Y982561D01*
X845494Y980494D01*
X847561Y979113D01*
X850000Y978627D01*
X852439Y979113D01*
X854506Y980494D01*
X855887Y982561D01*
X856373Y985000D01*
X855887Y987439D01*
X854506Y989506D01*
X852439Y990887D01*
X850000Y991372D01*
X847846Y990944D01*
X845966Y992044D01*
X845887Y992439D01*
X844506Y994506D01*
X842439Y995887D01*
X840000Y996373D01*
X837561Y995887D01*
X836862Y995420D01*
X835420Y996862D01*
X835887Y997561D01*
X836372Y1000000D01*
X835887Y1002439D01*
X834506Y1004506D01*
X832439Y1005887D01*
X830000Y1006373D01*
D02*
G37*
G36*
X640000Y996373D02*
X637561Y995887D01*
X635494Y994506D01*
X634113Y992439D01*
X633628Y990000D01*
X634113Y987561D01*
X635494Y985494D01*
X637561Y984113D01*
X640000Y983627D01*
X642439Y984113D01*
X644506Y985494D01*
X645887Y987561D01*
X646372Y990000D01*
X645887Y992439D01*
X644506Y994506D01*
X642439Y995887D01*
X640000Y996373D01*
D02*
G37*
G36*
X625000D02*
X622561Y995887D01*
X620494Y994506D01*
X619113Y992439D01*
X618628Y990000D01*
X619113Y987561D01*
X620494Y985494D01*
X622561Y984113D01*
X625000Y983627D01*
X627439Y984113D01*
X629506Y985494D01*
X630887Y987561D01*
X631372Y990000D01*
X630887Y992439D01*
X629506Y994506D01*
X627439Y995887D01*
X625000Y996373D01*
D02*
G37*
G36*
X850000Y971372D02*
X847561Y970887D01*
X845494Y969506D01*
X844113Y967439D01*
X843627Y965000D01*
X844113Y962561D01*
X845494Y960494D01*
X847561Y959113D01*
X850000Y958627D01*
X852439Y959113D01*
X854506Y960494D01*
X855887Y962561D01*
X856373Y965000D01*
X855887Y967439D01*
X854506Y969506D01*
X852439Y970887D01*
X850000Y971372D01*
D02*
G37*
G36*
X596041Y962019D02*
X593603Y961534D01*
X591535Y960153D01*
X590154Y958085D01*
X589669Y955647D01*
X590154Y953208D01*
X591535Y951141D01*
X593603Y949759D01*
X596041Y949274D01*
X598480Y949759D01*
X600547Y951141D01*
X601929Y953208D01*
X602414Y955647D01*
X601929Y958085D01*
X600547Y960153D01*
X598480Y961534D01*
X596041Y962019D01*
D02*
G37*
G36*
X552053Y959833D02*
X550004Y959425D01*
X548268Y958265D01*
X547108Y956528D01*
X546700Y954480D01*
X547108Y952432D01*
X548268Y950695D01*
X550004Y949535D01*
X552053Y949127D01*
X554101Y949535D01*
X555970Y948378D01*
X556055Y947952D01*
X557215Y946215D01*
X558952Y945055D01*
X561000Y944647D01*
X563048Y945055D01*
X564785Y946215D01*
X565945Y947952D01*
X566353Y950000D01*
X565945Y952048D01*
X564785Y953785D01*
X563048Y954945D01*
X561000Y955353D01*
X558952Y954945D01*
X557083Y956102D01*
X556998Y956528D01*
X555838Y958265D01*
X554101Y959425D01*
X552053Y959833D01*
D02*
G37*
G36*
X850000Y951372D02*
X847561Y950887D01*
X845494Y949506D01*
X844113Y947439D01*
X843627Y945000D01*
X844113Y942561D01*
X845494Y940494D01*
X847561Y939113D01*
X850000Y938627D01*
X852439Y939113D01*
X854506Y940494D01*
X855887Y942561D01*
X856373Y945000D01*
X855887Y947439D01*
X854506Y949506D01*
X852439Y950887D01*
X850000Y951372D01*
D02*
G37*
G36*
X490000Y944853D02*
X487952Y944445D01*
X486215Y943285D01*
X485055Y941548D01*
X484647Y939500D01*
X485055Y937452D01*
X486215Y935715D01*
X487952Y934555D01*
X490000Y934147D01*
X492048Y934555D01*
X493785Y935715D01*
X494945Y937452D01*
X495353Y939500D01*
X494945Y941548D01*
X493785Y943285D01*
X492048Y944445D01*
X490000Y944853D01*
D02*
G37*
G36*
X850000Y931372D02*
X847561Y930887D01*
X845494Y929506D01*
X844113Y927439D01*
X843627Y925000D01*
X844113Y922561D01*
X845494Y920494D01*
X847561Y919113D01*
X850000Y918627D01*
X852439Y919113D01*
X854506Y920494D01*
X855887Y922561D01*
X856373Y925000D01*
X855887Y927439D01*
X854506Y929506D01*
X852439Y930887D01*
X850000Y931372D01*
D02*
G37*
G36*
Y911372D02*
X847561Y910887D01*
X845494Y909506D01*
X844113Y907439D01*
X843627Y905000D01*
X844113Y902561D01*
X845494Y900494D01*
X847561Y899113D01*
X850000Y898627D01*
X852439Y899113D01*
X854506Y900494D01*
X855887Y902561D01*
X856373Y905000D01*
X855887Y907439D01*
X854506Y909506D01*
X852439Y910887D01*
X850000Y911372D01*
D02*
G37*
G36*
Y891372D02*
X847561Y890887D01*
X845494Y889506D01*
X844113Y887439D01*
X843627Y885000D01*
X844113Y882561D01*
X845494Y880494D01*
X847561Y879113D01*
X850000Y878627D01*
X852439Y879113D01*
X854506Y880494D01*
X855887Y882561D01*
X856373Y885000D01*
X855887Y887439D01*
X854506Y889506D01*
X852439Y890887D01*
X850000Y891372D01*
D02*
G37*
G36*
Y871373D02*
X847561Y870887D01*
X845494Y869506D01*
X844113Y867439D01*
X843627Y865000D01*
X844113Y862561D01*
X845494Y860494D01*
X847561Y859113D01*
X850000Y858627D01*
X852439Y859113D01*
X854506Y860494D01*
X855887Y862561D01*
X856373Y865000D01*
X855887Y867439D01*
X854506Y869506D01*
X852439Y870887D01*
X850000Y871373D01*
D02*
G37*
G36*
Y851372D02*
X847561Y850887D01*
X845494Y849506D01*
X844113Y847439D01*
X843627Y845000D01*
X844113Y842561D01*
X845494Y840494D01*
X847561Y839113D01*
X850000Y838627D01*
X852439Y839113D01*
X854506Y840494D01*
X855887Y842561D01*
X856373Y845000D01*
X855887Y847439D01*
X854506Y849506D01*
X852439Y850887D01*
X850000Y851372D01*
D02*
G37*
G36*
X820000Y851851D02*
X816933Y851448D01*
X814074Y850264D01*
X811620Y848380D01*
X809736Y845926D01*
X808552Y843067D01*
X808149Y840000D01*
X808552Y836933D01*
X809736Y834074D01*
X811620Y831620D01*
X814074Y829736D01*
X816933Y828552D01*
X820000Y828149D01*
X823067Y828552D01*
X825926Y829736D01*
X828380Y831620D01*
X830264Y834074D01*
X831448Y836933D01*
X831851Y840000D01*
X831448Y843067D01*
X830264Y845926D01*
X828380Y848380D01*
X825926Y850264D01*
X823067Y851448D01*
X820000Y851851D01*
D02*
G37*
G36*
X850000Y831373D02*
X847561Y830887D01*
X845494Y829506D01*
X844113Y827439D01*
X843627Y825000D01*
X844113Y822561D01*
X845494Y820494D01*
X847561Y819113D01*
X850000Y818627D01*
X852439Y819113D01*
X854506Y820494D01*
X855887Y822561D01*
X856373Y825000D01*
X855887Y827439D01*
X854506Y829506D01*
X852439Y830887D01*
X850000Y831373D01*
D02*
G37*
G36*
Y811372D02*
X847561Y810887D01*
X845494Y809506D01*
X844113Y807439D01*
X843627Y805000D01*
X844113Y802561D01*
X845494Y800494D01*
X847561Y799113D01*
X850000Y798627D01*
X852439Y799113D01*
X854506Y800494D01*
X855887Y802561D01*
X856373Y805000D01*
X855887Y807439D01*
X854506Y809506D01*
X852439Y810887D01*
X850000Y811372D01*
D02*
G37*
G36*
Y791373D02*
X847561Y790887D01*
X845494Y789506D01*
X844113Y787439D01*
X843627Y785000D01*
X844113Y782561D01*
X845494Y780494D01*
X847561Y779113D01*
X850000Y778628D01*
X852439Y779113D01*
X854506Y780494D01*
X855887Y782561D01*
X856373Y785000D01*
X855887Y787439D01*
X854506Y789506D01*
X852439Y790887D01*
X850000Y791373D01*
D02*
G37*
G36*
X820000Y801851D02*
X816933Y801448D01*
X814074Y800264D01*
X811620Y798380D01*
X809736Y795926D01*
X808552Y793067D01*
X808149Y790000D01*
X808552Y786933D01*
X809736Y784074D01*
X811620Y781620D01*
X814074Y779736D01*
X816933Y778552D01*
X820000Y778149D01*
X823067Y778552D01*
X825926Y779736D01*
X828380Y781620D01*
X830264Y784074D01*
X831448Y786933D01*
X831851Y790000D01*
X831448Y793067D01*
X830264Y795926D01*
X828380Y798380D01*
X825926Y800264D01*
X823067Y801448D01*
X820000Y801851D01*
D02*
G37*
G36*
X475000Y776373D02*
X472561Y775887D01*
X470494Y774506D01*
X469113Y772439D01*
X468628Y770000D01*
X469113Y767561D01*
X470494Y765494D01*
X472561Y764113D01*
X475000Y763628D01*
X477439Y764113D01*
X479506Y765494D01*
X480887Y767561D01*
X481372Y770000D01*
X480887Y772439D01*
X479506Y774506D01*
X477439Y775887D01*
X475000Y776373D01*
D02*
G37*
G36*
X460000D02*
X457561Y775887D01*
X455494Y774506D01*
X454113Y772439D01*
X453628Y770000D01*
X454113Y767561D01*
X455494Y765494D01*
X457561Y764113D01*
X460000Y763628D01*
X462439Y764113D01*
X464506Y765494D01*
X465887Y767561D01*
X466372Y770000D01*
X465887Y772439D01*
X464506Y774506D01*
X462439Y775887D01*
X460000Y776373D01*
D02*
G37*
G36*
X850000Y771372D02*
X847561Y770887D01*
X845494Y769506D01*
X844113Y767439D01*
X843627Y765000D01*
X844113Y762561D01*
X845494Y760494D01*
X847561Y759113D01*
X850000Y758627D01*
X852439Y759113D01*
X854506Y760494D01*
X855887Y762561D01*
X856373Y765000D01*
X855887Y767439D01*
X854506Y769506D01*
X852439Y770887D01*
X850000Y771372D01*
D02*
G37*
G36*
Y751373D02*
X847561Y750887D01*
X845494Y749506D01*
X844113Y747439D01*
X843627Y745000D01*
X844113Y742561D01*
X845494Y740494D01*
X847561Y739113D01*
X850000Y738628D01*
X852439Y739113D01*
X854506Y740494D01*
X855887Y742561D01*
X856373Y745000D01*
X855887Y747439D01*
X854506Y749506D01*
X852439Y750887D01*
X850000Y751373D01*
D02*
G37*
G36*
X475000Y751853D02*
X472952Y751445D01*
X471215Y750285D01*
X470055Y748549D01*
X469647Y746500D01*
X470055Y744452D01*
X471215Y742715D01*
X471312Y742650D01*
Y740915D01*
X471018Y740441D01*
X469819Y738646D01*
X469392Y736500D01*
X469819Y734354D01*
X471035Y732535D01*
X472854Y731319D01*
X475000Y730892D01*
X477146Y731319D01*
X478965Y732535D01*
X480181Y734354D01*
X480608Y736500D01*
X480181Y738646D01*
X478982Y740441D01*
X478688Y740915D01*
Y742650D01*
X478785Y742715D01*
X479945Y744452D01*
X480353Y746500D01*
X479945Y748549D01*
X478785Y750285D01*
X477048Y751445D01*
X475000Y751853D01*
D02*
G37*
G36*
X820000Y751851D02*
X816933Y751448D01*
X814074Y750264D01*
X811620Y748380D01*
X809736Y745926D01*
X808552Y743067D01*
X808149Y740000D01*
X808552Y736933D01*
X809736Y734074D01*
X811620Y731620D01*
X814074Y729736D01*
X816933Y728552D01*
X820000Y728149D01*
X823067Y728552D01*
X825926Y729736D01*
X828380Y731620D01*
X830264Y734074D01*
X831448Y736933D01*
X831851Y740000D01*
X831448Y743067D01*
X830264Y745926D01*
X828380Y748380D01*
X825926Y750264D01*
X823067Y751448D01*
X820000Y751851D01*
D02*
G37*
G36*
X850000Y731373D02*
X847561Y730887D01*
X845494Y729506D01*
X844113Y727439D01*
X843627Y725000D01*
X844113Y722561D01*
X845494Y720494D01*
X847561Y719113D01*
X850000Y718627D01*
X852439Y719113D01*
X854506Y720494D01*
X855887Y722561D01*
X856373Y725000D01*
X855887Y727439D01*
X854506Y729506D01*
X852439Y730887D01*
X850000Y731373D01*
D02*
G37*
G36*
Y711373D02*
X847561Y710887D01*
X845494Y709506D01*
X844113Y707439D01*
X843627Y705000D01*
X844113Y702561D01*
X845494Y700494D01*
X847561Y699113D01*
X850000Y698628D01*
X852439Y699113D01*
X854506Y700494D01*
X855887Y702561D01*
X856373Y705000D01*
X855887Y707439D01*
X854506Y709506D01*
X852439Y710887D01*
X850000Y711373D01*
D02*
G37*
G36*
Y691372D02*
X847561Y690887D01*
X845494Y689506D01*
X844113Y687439D01*
X843627Y685000D01*
X844113Y682561D01*
X845494Y680494D01*
X847561Y679113D01*
X850000Y678627D01*
X852439Y679113D01*
X854506Y680494D01*
X855887Y682561D01*
X856373Y685000D01*
X855887Y687439D01*
X854506Y689506D01*
X852439Y690887D01*
X850000Y691372D01*
D02*
G37*
G36*
X820000Y701851D02*
X816933Y701448D01*
X814074Y700264D01*
X811620Y698380D01*
X809736Y695926D01*
X808552Y693067D01*
X808149Y690000D01*
X808552Y686933D01*
X809736Y684074D01*
X811620Y681620D01*
X814074Y679736D01*
X816933Y678552D01*
X820000Y678149D01*
X823067Y678552D01*
X825926Y679736D01*
X828380Y681620D01*
X830264Y684074D01*
X831448Y686933D01*
X831851Y690000D01*
X831448Y693067D01*
X830264Y695926D01*
X828380Y698380D01*
X825926Y700264D01*
X823067Y701448D01*
X820000Y701851D01*
D02*
G37*
G36*
X850000Y671372D02*
X847561Y670887D01*
X845494Y669506D01*
X844113Y667439D01*
X843627Y665000D01*
X844113Y662561D01*
X845494Y660494D01*
X847561Y659113D01*
X850000Y658627D01*
X852439Y659113D01*
X854506Y660494D01*
X855887Y662561D01*
X856373Y665000D01*
X855887Y667439D01*
X854506Y669506D01*
X852439Y670887D01*
X850000Y671372D01*
D02*
G37*
G36*
Y651372D02*
X847561Y650887D01*
X845494Y649506D01*
X844113Y647439D01*
X843627Y645000D01*
X844113Y642561D01*
X845494Y640494D01*
X847561Y639113D01*
X850000Y638628D01*
X852439Y639113D01*
X854506Y640494D01*
X855887Y642561D01*
X856373Y645000D01*
X855887Y647439D01*
X854506Y649506D01*
X852439Y650887D01*
X850000Y651372D01*
D02*
G37*
G36*
Y631372D02*
X847561Y630887D01*
X845494Y629506D01*
X844113Y627439D01*
X843627Y625000D01*
X844113Y622561D01*
X845494Y620494D01*
X847561Y619113D01*
X850000Y618628D01*
X852439Y619113D01*
X854506Y620494D01*
X855887Y622561D01*
X856373Y625000D01*
X855887Y627439D01*
X854506Y629506D01*
X852439Y630887D01*
X850000Y631372D01*
D02*
G37*
G36*
Y611372D02*
X847561Y610887D01*
X845494Y609506D01*
X844113Y607439D01*
X843627Y605000D01*
X844113Y602561D01*
X845494Y600494D01*
X847561Y599113D01*
X850000Y598628D01*
X852439Y599113D01*
X854506Y600494D01*
X855887Y602561D01*
X856373Y605000D01*
X855887Y607439D01*
X854506Y609506D01*
X852439Y610887D01*
X850000Y611372D01*
D02*
G37*
G36*
Y591372D02*
X847561Y590887D01*
X845494Y589506D01*
X844113Y587439D01*
X843627Y585000D01*
X844113Y582561D01*
X845494Y580494D01*
X847561Y579113D01*
X850000Y578628D01*
X852439Y579113D01*
X854506Y580494D01*
X855887Y582561D01*
X856373Y585000D01*
X855887Y587439D01*
X854506Y589506D01*
X852439Y590887D01*
X850000Y591372D01*
D02*
G37*
G36*
Y571372D02*
X847561Y570887D01*
X845494Y569506D01*
X844113Y567439D01*
X843627Y565000D01*
X844113Y562561D01*
X845494Y560494D01*
X847561Y559113D01*
X850000Y558628D01*
X852439Y559113D01*
X854506Y560494D01*
X855887Y562561D01*
X856373Y565000D01*
X855887Y567439D01*
X854506Y569506D01*
X852439Y570887D01*
X850000Y571372D01*
D02*
G37*
G36*
Y551372D02*
X847561Y550887D01*
X845494Y549506D01*
X844113Y547439D01*
X843627Y545000D01*
X844113Y542561D01*
X845494Y540494D01*
X847561Y539113D01*
X850000Y538628D01*
X852439Y539113D01*
X854506Y540494D01*
X855887Y542561D01*
X856373Y545000D01*
X855887Y547439D01*
X854506Y549506D01*
X852439Y550887D01*
X850000Y551372D01*
D02*
G37*
G36*
Y531372D02*
X847561Y530887D01*
X845494Y529506D01*
X844113Y527439D01*
X843627Y525000D01*
X844113Y522561D01*
X845494Y520494D01*
X847561Y519113D01*
X850000Y518628D01*
X852439Y519113D01*
X854506Y520494D01*
X855887Y522561D01*
X856373Y525000D01*
X855887Y527439D01*
X854506Y529506D01*
X852439Y530887D01*
X850000Y531372D01*
D02*
G37*
G36*
X819999Y536852D02*
X816932Y536448D01*
X814074Y535265D01*
X811619Y533381D01*
X809736Y530927D01*
X808552Y528068D01*
X808148Y525001D01*
X808552Y521934D01*
X809736Y519075D01*
X811619Y516621D01*
X814074Y514737D01*
X816932Y513553D01*
X819999Y513149D01*
X823067Y513553D01*
X825925Y514737D01*
X828380Y516621D01*
X830263Y519075D01*
X831447Y521934D01*
X831851Y525001D01*
X831447Y528068D01*
X830263Y530927D01*
X828380Y533381D01*
X825925Y535265D01*
X823067Y536448D01*
X819999Y536852D01*
D02*
G37*
G36*
X850000Y511372D02*
X847561Y510887D01*
X845494Y509506D01*
X844113Y507439D01*
X843627Y505000D01*
X844113Y502561D01*
X845494Y500494D01*
X847561Y499113D01*
X850000Y498628D01*
X852439Y499113D01*
X854506Y500494D01*
X855887Y502561D01*
X856373Y505000D01*
X855887Y507439D01*
X854506Y509506D01*
X852439Y510887D01*
X850000Y511372D01*
D02*
G37*
G36*
Y491372D02*
X847561Y490887D01*
X845494Y489506D01*
X844113Y487439D01*
X843627Y485000D01*
X844113Y482561D01*
X845494Y480494D01*
X847561Y479113D01*
X850000Y478628D01*
X852439Y479113D01*
X854506Y480494D01*
X855887Y482561D01*
X856373Y485000D01*
X855887Y487439D01*
X854506Y489506D01*
X852439Y490887D01*
X850000Y491372D01*
D02*
G37*
G36*
X819999Y486852D02*
X816932Y486448D01*
X814074Y485265D01*
X811619Y483381D01*
X809736Y480927D01*
X808552Y478068D01*
X808148Y475001D01*
X808552Y471934D01*
X809736Y469075D01*
X811619Y466621D01*
X814074Y464737D01*
X816932Y463553D01*
X819999Y463149D01*
X823067Y463553D01*
X825925Y464737D01*
X828380Y466621D01*
X830263Y469075D01*
X831447Y471934D01*
X831851Y475001D01*
X831447Y478068D01*
X830263Y480927D01*
X828380Y483381D01*
X825925Y485265D01*
X823067Y486448D01*
X819999Y486852D01*
D02*
G37*
G36*
X850000Y471372D02*
X847561Y470887D01*
X845494Y469506D01*
X844113Y467439D01*
X843627Y465000D01*
X844113Y462561D01*
X845494Y460494D01*
X847561Y459113D01*
X850000Y458628D01*
X852439Y459113D01*
X854506Y460494D01*
X855887Y462561D01*
X856373Y465000D01*
X855887Y467439D01*
X854506Y469506D01*
X852439Y470887D01*
X850000Y471372D01*
D02*
G37*
G36*
Y451372D02*
X847561Y450887D01*
X845494Y449506D01*
X844113Y447439D01*
X843627Y445000D01*
X844113Y442561D01*
X845494Y440494D01*
X847561Y439113D01*
X850000Y438628D01*
X852439Y439113D01*
X854506Y440494D01*
X855887Y442561D01*
X856373Y445000D01*
X855887Y447439D01*
X854506Y449506D01*
X852439Y450887D01*
X850000Y451372D01*
D02*
G37*
G36*
Y431372D02*
X847561Y430887D01*
X845494Y429506D01*
X844113Y427439D01*
X843627Y425000D01*
X844113Y422561D01*
X845494Y420494D01*
X847561Y419113D01*
X850000Y418628D01*
X852439Y419113D01*
X854506Y420494D01*
X855887Y422561D01*
X856373Y425000D01*
X855887Y427439D01*
X854506Y429506D01*
X852439Y430887D01*
X850000Y431372D01*
D02*
G37*
G36*
X820000Y436851D02*
X816933Y436448D01*
X814074Y435264D01*
X811620Y433380D01*
X809736Y430926D01*
X808552Y428067D01*
X808149Y425000D01*
X808552Y421933D01*
X809736Y419074D01*
X811620Y416620D01*
X814074Y414736D01*
X816933Y413553D01*
X820000Y413149D01*
X823067Y413553D01*
X825926Y414736D01*
X828380Y416620D01*
X830264Y419074D01*
X831448Y421933D01*
X831851Y425000D01*
X831448Y428067D01*
X830264Y430926D01*
X828380Y433380D01*
X825926Y435264D01*
X823067Y436448D01*
X820000Y436851D01*
D02*
G37*
G36*
X850000Y411372D02*
X847561Y410887D01*
X845494Y409506D01*
X844113Y407439D01*
X843627Y405000D01*
X844113Y402561D01*
X845494Y400494D01*
X847561Y399113D01*
X850000Y398628D01*
X852439Y399113D01*
X854506Y400494D01*
X855887Y402561D01*
X856373Y405000D01*
X855887Y407439D01*
X854506Y409506D01*
X852439Y410887D01*
X850000Y411372D01*
D02*
G37*
G36*
Y391372D02*
X847561Y390887D01*
X845494Y389506D01*
X844113Y387439D01*
X843627Y385000D01*
X844113Y382561D01*
X845494Y380494D01*
X847561Y379113D01*
X850000Y378628D01*
X852439Y379113D01*
X854506Y380494D01*
X855887Y382561D01*
X856373Y385000D01*
X855887Y387439D01*
X854506Y389506D01*
X852439Y390887D01*
X850000Y391372D01*
D02*
G37*
G36*
X820000Y386851D02*
X816933Y386448D01*
X814074Y385264D01*
X811620Y383380D01*
X809736Y380926D01*
X808552Y378067D01*
X808149Y375000D01*
X808552Y371933D01*
X809736Y369074D01*
X811620Y366620D01*
X814074Y364736D01*
X816933Y363553D01*
X820000Y363149D01*
X823067Y363553D01*
X825926Y364736D01*
X828380Y366620D01*
X830264Y369074D01*
X831448Y371933D01*
X831851Y375000D01*
X831448Y378067D01*
X830264Y380926D01*
X828380Y383380D01*
X825926Y385264D01*
X823067Y386448D01*
X820000Y386851D01*
D02*
G37*
G36*
X850000Y371372D02*
X847561Y370887D01*
X845494Y369506D01*
X844113Y367439D01*
X843627Y365000D01*
X844113Y362561D01*
X845494Y360494D01*
X847561Y359113D01*
X850000Y358628D01*
X852439Y359113D01*
X854506Y360494D01*
X855887Y362561D01*
X856373Y365000D01*
X855887Y367439D01*
X854506Y369506D01*
X852439Y370887D01*
X850000Y371372D01*
D02*
G37*
G36*
Y351372D02*
X847561Y350887D01*
X845494Y349506D01*
X844113Y347439D01*
X843627Y345000D01*
X844113Y342561D01*
X845494Y340494D01*
X847561Y339113D01*
X850000Y338628D01*
X852439Y339113D01*
X854506Y340494D01*
X855887Y342561D01*
X856373Y345000D01*
X855887Y347439D01*
X854506Y349506D01*
X852439Y350887D01*
X850000Y351372D01*
D02*
G37*
G36*
Y331372D02*
X847561Y330887D01*
X845494Y329506D01*
X844113Y327439D01*
X843627Y325000D01*
X844113Y322561D01*
X845494Y320494D01*
X847561Y319113D01*
X850000Y318627D01*
X852439Y319113D01*
X854506Y320494D01*
X855887Y322561D01*
X856373Y325000D01*
X855887Y327439D01*
X854506Y329506D01*
X852439Y330887D01*
X850000Y331372D01*
D02*
G37*
G36*
X820000Y336851D02*
X816933Y336448D01*
X814074Y335264D01*
X811620Y333380D01*
X809736Y330926D01*
X808552Y328067D01*
X808149Y325000D01*
X808552Y321933D01*
X809736Y319074D01*
X811620Y316620D01*
X814074Y314736D01*
X816933Y313552D01*
X820000Y313149D01*
X823067Y313552D01*
X825926Y314736D01*
X828380Y316620D01*
X830264Y319074D01*
X831448Y321933D01*
X831851Y325000D01*
X831448Y328067D01*
X830264Y330926D01*
X828380Y333380D01*
X825926Y335264D01*
X823067Y336448D01*
X820000Y336851D01*
D02*
G37*
G36*
X850000Y311373D02*
X847561Y310887D01*
X845494Y309506D01*
X844113Y307439D01*
X843627Y305000D01*
X844113Y302561D01*
X845494Y300494D01*
X847561Y299113D01*
X850000Y298627D01*
X852439Y299113D01*
X854506Y300494D01*
X855887Y302561D01*
X856373Y305000D01*
X855887Y307439D01*
X854506Y309506D01*
X852439Y310887D01*
X850000Y311373D01*
D02*
G37*
G36*
X825000Y285647D02*
Y280000D01*
X830647D01*
X830264Y280926D01*
X828380Y283380D01*
X825926Y285264D01*
X825000Y285647D01*
D02*
G37*
G36*
X815000Y285647D02*
X814074Y285264D01*
X811620Y283380D01*
X809736Y280926D01*
X809353Y280000D01*
X815000D01*
Y285647D01*
D02*
G37*
G36*
X850000Y291372D02*
X847561Y290887D01*
X845494Y289506D01*
X844113Y287439D01*
X843627Y285000D01*
X844113Y282561D01*
X845494Y280494D01*
X847561Y279113D01*
X850000Y278627D01*
X852439Y279113D01*
X854506Y280494D01*
X855887Y282561D01*
X856373Y285000D01*
X855887Y287439D01*
X854506Y289506D01*
X852439Y290887D01*
X850000Y291372D01*
D02*
G37*
G36*
X815000Y270000D02*
X809353D01*
X809736Y269074D01*
X811620Y266620D01*
X814074Y264736D01*
X815000Y264353D01*
Y270000D01*
D02*
G37*
G36*
X830647D02*
X825000D01*
Y264353D01*
X825926Y264736D01*
X828380Y266620D01*
X830264Y269074D01*
X830647Y270000D01*
D02*
G37*
G36*
X850000Y271373D02*
X847561Y270887D01*
X845494Y269506D01*
X844113Y267439D01*
X843627Y265000D01*
X844113Y262561D01*
X845494Y260494D01*
X847561Y259113D01*
X850000Y258627D01*
X852439Y259113D01*
X854506Y260494D01*
X855887Y262561D01*
X856373Y265000D01*
X855887Y267439D01*
X854506Y269506D01*
X852439Y270887D01*
X850000Y271373D01*
D02*
G37*
G36*
Y251372D02*
X847561Y250887D01*
X845494Y249506D01*
X844113Y247439D01*
X843627Y245000D01*
X844113Y242561D01*
X845494Y240494D01*
X847561Y239113D01*
X850000Y238627D01*
X852439Y239113D01*
X854506Y240494D01*
X855887Y242561D01*
X856373Y245000D01*
X855887Y247439D01*
X854506Y249506D01*
X852439Y250887D01*
X850000Y251372D01*
D02*
G37*
G36*
X380000Y243873D02*
X377561Y243387D01*
X375494Y242006D01*
X374113Y239939D01*
X373628Y237500D01*
X374113Y235061D01*
X375494Y232994D01*
X377561Y231613D01*
X380000Y231128D01*
X382439Y231613D01*
X384506Y232994D01*
X385887Y235061D01*
X386372Y237500D01*
X385887Y239939D01*
X384506Y242006D01*
X382439Y243387D01*
X380000Y243873D01*
D02*
G37*
G36*
X342500D02*
X340061Y243387D01*
X337994Y242006D01*
X336613Y239939D01*
X336128Y237500D01*
X336613Y235061D01*
X337994Y232994D01*
X340061Y231613D01*
X342500Y231128D01*
X344939Y231613D01*
X347006Y232994D01*
X348387Y235061D01*
X348872Y237500D01*
X348387Y239939D01*
X347006Y242006D01*
X344939Y243387D01*
X342500Y243873D01*
D02*
G37*
G36*
X850000Y231373D02*
X847561Y230887D01*
X845494Y229506D01*
X844113Y227439D01*
X843627Y225000D01*
X844113Y222561D01*
X845494Y220494D01*
X847561Y219113D01*
X850000Y218628D01*
X852439Y219113D01*
X854506Y220494D01*
X855887Y222561D01*
X856373Y225000D01*
X855887Y227439D01*
X854506Y229506D01*
X852439Y230887D01*
X850000Y231373D01*
D02*
G37*
G36*
X680000Y918222D02*
Y915000D01*
X683222D01*
X682698Y915907D01*
X680907Y917698D01*
X680000Y918222D01*
D02*
G37*
G36*
X670000Y918222D02*
X669093Y917698D01*
X667302Y915907D01*
X666778Y915000D01*
X670000D01*
Y918222D01*
D02*
G37*
G36*
X683221Y905000D02*
X680000D01*
Y901779D01*
X680907Y902302D01*
X682698Y904093D01*
X683221Y905000D01*
D02*
G37*
G36*
X670000D02*
X666778D01*
X667302Y904093D01*
X669093Y902302D01*
X670000Y901778D01*
Y905000D01*
D02*
G37*
G36*
X560544Y910750D02*
X558456D01*
X556526Y909951D01*
X555049Y908474D01*
X554250Y906544D01*
Y904456D01*
X555049Y902526D01*
X556526Y901049D01*
X558456Y900250D01*
X558839D01*
X560596Y899466D01*
X560666Y898402D01*
Y897346D01*
X561466Y895416D01*
X562943Y893939D01*
X564872Y893140D01*
X566961D01*
X568890Y893939D01*
X570367Y895416D01*
X571166Y897346D01*
Y898900D01*
X572010Y899606D01*
X572481Y899881D01*
X573014Y900062D01*
X574635Y899390D01*
X576724D01*
X578654Y900189D01*
X580131Y901666D01*
X580930Y903596D01*
Y905684D01*
X580131Y907614D01*
X578654Y909091D01*
X576724Y909890D01*
X574635D01*
X572706Y909091D01*
X571229Y907614D01*
X570430Y905684D01*
Y904130D01*
X569586Y903424D01*
X569115Y903150D01*
X568582Y902969D01*
X566961Y903640D01*
X566577D01*
X564820Y904424D01*
X564750Y905488D01*
Y906544D01*
X563951Y908474D01*
X562474Y909951D01*
X560544Y910750D01*
D02*
G37*
G36*
X545877Y919417D02*
X543788D01*
X541859Y918618D01*
X540382Y917141D01*
X539583Y915212D01*
Y913123D01*
X540382Y911193D01*
X541859Y909717D01*
X542681Y909376D01*
X542284Y907376D01*
X541154D01*
X539224Y906577D01*
X537747Y905100D01*
X536948Y903170D01*
Y901082D01*
X537747Y899152D01*
X539224Y897675D01*
X541154Y896876D01*
X543242D01*
X545172Y897675D01*
X546649Y899152D01*
X547448Y901082D01*
Y903170D01*
X546649Y905100D01*
X545172Y906577D01*
X544350Y906917D01*
X544747Y908917D01*
X545877D01*
X547807Y909717D01*
X549284Y911193D01*
X550083Y913123D01*
Y915212D01*
X549284Y917141D01*
X547807Y918618D01*
X545877Y919417D01*
D02*
G37*
G36*
X556044Y862250D02*
X553956D01*
X552026Y861451D01*
X550549Y859974D01*
X549750Y858044D01*
Y855956D01*
X550549Y854026D01*
X552026Y852549D01*
X553956Y851750D01*
X556044D01*
X556611Y851985D01*
X558421Y851833D01*
X558966Y850960D01*
X559410Y849887D01*
X560887Y848410D01*
X562817Y847611D01*
X564905D01*
X566835Y848410D01*
X568312Y849887D01*
X569111Y851817D01*
Y853905D01*
X568312Y855835D01*
X566835Y857312D01*
X564905Y858111D01*
X562817D01*
X562250Y857876D01*
X560440Y858028D01*
X559895Y858901D01*
X559451Y859974D01*
X557974Y861451D01*
X556044Y862250D01*
D02*
G37*
G36*
X600035Y857398D02*
X597548D01*
X595251Y856447D01*
X593493Y854689D01*
X592541Y852392D01*
Y849905D01*
X593493Y847608D01*
X595251Y845850D01*
X597548Y844898D01*
X600035D01*
X602332Y845850D01*
X604090Y847608D01*
X605041Y849905D01*
Y852392D01*
X604090Y854689D01*
X602332Y856447D01*
X600035Y857398D01*
D02*
G37*
G36*
X650000Y826373D02*
X647561Y825887D01*
X645494Y824506D01*
X644113Y822439D01*
X643627Y820000D01*
X644113Y817561D01*
X645494Y815494D01*
X647561Y814113D01*
X650000Y813628D01*
X652439Y814113D01*
X654506Y815494D01*
X655887Y817561D01*
X656372Y820000D01*
X655887Y822439D01*
X654506Y824506D01*
X652439Y825887D01*
X650000Y826373D01*
D02*
G37*
G36*
X665000Y768873D02*
X662561Y768387D01*
X660494Y767006D01*
X659113Y764939D01*
X658627Y762500D01*
X659113Y760061D01*
X660494Y757994D01*
X662561Y756613D01*
X665000Y756128D01*
X667439Y756613D01*
X669506Y757994D01*
X670887Y760061D01*
X671372Y762500D01*
X670887Y764939D01*
X669506Y767006D01*
X667439Y768387D01*
X665000Y768873D01*
D02*
G37*
G36*
Y748873D02*
X662561Y748387D01*
X660494Y747006D01*
X659113Y744939D01*
X658627Y742500D01*
X659113Y740061D01*
X660494Y737994D01*
X662561Y736613D01*
X665000Y736128D01*
X667439Y736613D01*
X669506Y737994D01*
X670887Y740061D01*
X671372Y742500D01*
X670887Y744939D01*
X669506Y747006D01*
X667439Y748387D01*
X665000Y748873D01*
D02*
G37*
G36*
Y728873D02*
X662561Y728387D01*
X660494Y727006D01*
X659113Y724939D01*
X658627Y722500D01*
X659113Y720061D01*
X660494Y717994D01*
X662561Y716613D01*
X665000Y716128D01*
X667439Y716613D01*
X669506Y717994D01*
X670887Y720061D01*
X671372Y722500D01*
X670887Y724939D01*
X669506Y727006D01*
X667439Y728387D01*
X665000Y728873D01*
D02*
G37*
G36*
X675000Y678873D02*
X672561Y678387D01*
X670494Y677006D01*
X669113Y674939D01*
X668627Y672500D01*
X669113Y670061D01*
X670494Y667994D01*
X672561Y666613D01*
X675000Y666128D01*
X677439Y666613D01*
X679506Y667994D01*
X680887Y670061D01*
X681372Y672500D01*
X680887Y674939D01*
X679506Y677006D01*
X677439Y678387D01*
X675000Y678873D01*
D02*
G37*
G36*
X655000D02*
X652561Y678387D01*
X650494Y677006D01*
X649113Y674939D01*
X648628Y672500D01*
X649113Y670061D01*
X650494Y667994D01*
X652561Y666613D01*
X655000Y666128D01*
X657439Y666613D01*
X659506Y667994D01*
X660887Y670061D01*
X661373Y672500D01*
X660887Y674939D01*
X659506Y677006D01*
X657439Y678387D01*
X655000Y678873D01*
D02*
G37*
G36*
X465000Y571372D02*
X462561Y570887D01*
X460494Y569506D01*
X459113Y567439D01*
X458628Y565000D01*
X459113Y562561D01*
X460494Y560494D01*
X462561Y559113D01*
X465000Y558628D01*
X467439Y559113D01*
X469506Y560494D01*
X470887Y562561D01*
X471372Y565000D01*
X470887Y567439D01*
X469506Y569506D01*
X467439Y570887D01*
X465000Y571372D01*
D02*
G37*
G36*
Y546372D02*
X462561Y545887D01*
X460494Y544506D01*
X459113Y542439D01*
X458628Y540000D01*
X459113Y537561D01*
X460494Y535494D01*
X462561Y534113D01*
X465000Y533628D01*
X467439Y534113D01*
X469506Y535494D01*
X470887Y537561D01*
X471372Y540000D01*
X470887Y542439D01*
X469506Y544506D01*
X467439Y545887D01*
X465000Y546372D01*
D02*
G37*
G36*
X499250Y540122D02*
X496811Y539637D01*
X494744Y538256D01*
X493363Y536189D01*
X492878Y533750D01*
X493363Y531311D01*
X494744Y529244D01*
X496811Y527863D01*
X499250Y527378D01*
X501689Y527863D01*
X503756Y529244D01*
X505137Y531311D01*
X505622Y533750D01*
X505137Y536189D01*
X503756Y538256D01*
X501689Y539637D01*
X499250Y540122D01*
D02*
G37*
G36*
X535000Y532853D02*
X532952Y532445D01*
X531215Y531285D01*
X530055Y529548D01*
X529647Y527500D01*
X530055Y525452D01*
X531215Y523715D01*
X532952Y522555D01*
X535000Y522147D01*
X537048Y522555D01*
X538785Y523715D01*
X539945Y525452D01*
X540353Y527500D01*
X539945Y529548D01*
X538785Y531285D01*
X537048Y532445D01*
X535000Y532853D01*
D02*
G37*
G36*
X512500Y525353D02*
X510452Y524945D01*
X508715Y523785D01*
X507555Y522048D01*
X507147Y520000D01*
X507555Y517952D01*
X508715Y516215D01*
X510452Y515055D01*
X512500Y514647D01*
X513135Y514773D01*
X515257Y514357D01*
X516418Y512620D01*
X518154Y511460D01*
X520202Y511053D01*
X522251Y511460D01*
X523988Y512620D01*
X525148Y514357D01*
X525555Y516405D01*
X525148Y518454D01*
X523988Y520191D01*
X522251Y521351D01*
X520202Y521758D01*
X519567Y521632D01*
X517445Y522048D01*
X516285Y523785D01*
X514548Y524945D01*
X512500Y525353D01*
D02*
G37*
G36*
X465000Y521372D02*
X462561Y520887D01*
X460494Y519506D01*
X459113Y517439D01*
X458628Y515000D01*
X459113Y512561D01*
X460494Y510494D01*
X462561Y509113D01*
X465000Y508628D01*
X467439Y509113D01*
X469506Y510494D01*
X470887Y512561D01*
X471372Y515000D01*
X470887Y517439D01*
X469506Y519506D01*
X467439Y520887D01*
X465000Y521372D01*
D02*
G37*
G36*
X255000Y510353D02*
X252952Y509945D01*
X251215Y508785D01*
X250055Y507048D01*
X249647Y505000D01*
X250055Y502952D01*
X251215Y501215D01*
X252952Y500055D01*
X255000Y499647D01*
X257048Y500055D01*
X258785Y501215D01*
X259945Y502952D01*
X260353Y505000D01*
X259945Y507048D01*
X258785Y508785D01*
X257048Y509945D01*
X255000Y510353D01*
D02*
G37*
G36*
X226250D02*
X224202Y509945D01*
X222465Y508785D01*
X221305Y507048D01*
X220897Y505000D01*
X221305Y502952D01*
X222465Y501215D01*
X224202Y500055D01*
X226250Y499647D01*
X228298Y500055D01*
X230035Y501215D01*
X231195Y502952D01*
X231603Y505000D01*
X231195Y507048D01*
X230035Y508785D01*
X228298Y509945D01*
X226250Y510353D01*
D02*
G37*
G36*
X233000Y495353D02*
X230952Y494945D01*
X229215Y493785D01*
X228055Y492048D01*
X227647Y490000D01*
X228055Y487952D01*
X229215Y486215D01*
X230952Y485055D01*
X233000Y484647D01*
X235048Y485055D01*
X236785Y486215D01*
X237945Y487952D01*
X238353Y490000D01*
X237945Y492048D01*
X236785Y493785D01*
X235048Y494945D01*
X233000Y495353D01*
D02*
G37*
G36*
X42221Y443727D02*
Y436151D01*
X49797D01*
X49725Y436697D01*
X48742Y439070D01*
X47179Y441108D01*
X45141Y442672D01*
X42768Y443655D01*
X42221Y443727D01*
D02*
G37*
G36*
X38221D02*
X37675Y443655D01*
X35302Y442672D01*
X33264Y441108D01*
X31700Y439070D01*
X30717Y436697D01*
X30645Y436151D01*
X38221D01*
Y443727D01*
D02*
G37*
G36*
X495000Y441372D02*
X492561Y440887D01*
X490494Y439506D01*
X489113Y437439D01*
X488628Y435000D01*
X489113Y432561D01*
X490494Y430494D01*
X492561Y429113D01*
X495000Y428628D01*
X497439Y429113D01*
X499506Y430494D01*
X500887Y432561D01*
X501372Y435000D01*
X500887Y437439D01*
X499506Y439506D01*
X497439Y440887D01*
X495000Y441372D01*
D02*
G37*
G36*
X49797Y432151D02*
X42221D01*
Y424575D01*
X42768Y424647D01*
X45141Y425630D01*
X47179Y427193D01*
X48742Y429231D01*
X49725Y431604D01*
X49797Y432151D01*
D02*
G37*
G36*
X38221D02*
X30645D01*
X30717Y431604D01*
X31700Y429231D01*
X33264Y427193D01*
X35302Y425630D01*
X37675Y424647D01*
X38221Y424575D01*
Y432151D01*
D02*
G37*
G36*
X65621Y444494D02*
X62944Y444142D01*
X60449Y443108D01*
X58307Y441465D01*
X56663Y439322D01*
X55630Y436828D01*
X55278Y434151D01*
X55630Y431474D01*
X56663Y428979D01*
X58307Y426837D01*
X60449Y425193D01*
X62944Y424160D01*
X65621Y423807D01*
X68298Y424160D01*
X70793Y425193D01*
X72935Y426837D01*
X74579Y428979D01*
X75612Y431474D01*
X75965Y434151D01*
X75612Y436828D01*
X74579Y439322D01*
X72935Y441465D01*
X70793Y443108D01*
X68298Y444142D01*
X65621Y444494D01*
D02*
G37*
G36*
X210520Y432859D02*
X208472Y432451D01*
X206735Y431291D01*
X205575Y429554D01*
X205168Y427506D01*
X205575Y425458D01*
X206735Y423721D01*
X208472Y422561D01*
X210520Y422153D01*
X212569Y422561D01*
X214306Y423721D01*
X215466Y425458D01*
X215873Y427506D01*
X215466Y429554D01*
X214306Y431291D01*
X212569Y432451D01*
X210520Y432859D01*
D02*
G37*
G36*
X42221Y418326D02*
Y410751D01*
X49797D01*
X49725Y411297D01*
X48742Y413670D01*
X47179Y415708D01*
X45141Y417272D01*
X42768Y418255D01*
X42221Y418326D01*
D02*
G37*
G36*
X38221D02*
X37675Y418255D01*
X35302Y417272D01*
X33264Y415708D01*
X31700Y413670D01*
X30717Y411297D01*
X30645Y410751D01*
X38221D01*
Y418326D01*
D02*
G37*
G36*
X112000Y418853D02*
X109952Y418445D01*
X108215Y417285D01*
X107055Y415548D01*
X106647Y413500D01*
X107055Y411452D01*
X108215Y409715D01*
X109952Y408555D01*
X112000Y408147D01*
X114048Y408555D01*
X115785Y409715D01*
X116945Y411452D01*
X117353Y413500D01*
X116945Y415548D01*
X115785Y417285D01*
X114048Y418445D01*
X112000Y418853D01*
D02*
G37*
G36*
X49797Y406751D02*
X42221D01*
Y399175D01*
X42768Y399247D01*
X45141Y400230D01*
X47179Y401793D01*
X48742Y403831D01*
X49725Y406204D01*
X49797Y406751D01*
D02*
G37*
G36*
X38221D02*
X30645D01*
X30717Y406204D01*
X31700Y403831D01*
X33264Y401793D01*
X35302Y400230D01*
X37675Y399247D01*
X38221Y399175D01*
Y406751D01*
D02*
G37*
G36*
X65621Y419094D02*
X62944Y418742D01*
X60449Y417708D01*
X58307Y416065D01*
X56663Y413922D01*
X55630Y411428D01*
X55278Y408751D01*
X55630Y406073D01*
X56663Y403579D01*
X58307Y401437D01*
X60449Y399793D01*
X62944Y398760D01*
X65621Y398407D01*
X68298Y398760D01*
X70793Y399793D01*
X72935Y401437D01*
X74579Y403579D01*
X75612Y406073D01*
X75965Y408751D01*
X75612Y411428D01*
X74579Y413922D01*
X72935Y416065D01*
X70793Y417708D01*
X68298Y418742D01*
X65621Y419094D01*
D02*
G37*
G36*
X42221Y392926D02*
Y385351D01*
X49797D01*
X49725Y385897D01*
X48742Y388270D01*
X47179Y390308D01*
X45141Y391872D01*
X42768Y392854D01*
X42221Y392926D01*
D02*
G37*
G36*
X38221D02*
X37675Y392854D01*
X35302Y391872D01*
X33264Y390308D01*
X31700Y388270D01*
X30717Y385897D01*
X30645Y385351D01*
X38221D01*
Y392926D01*
D02*
G37*
G36*
X49797Y381351D02*
X42221D01*
Y373775D01*
X42768Y373847D01*
X45141Y374830D01*
X47179Y376393D01*
X48742Y378431D01*
X49725Y380804D01*
X49797Y381351D01*
D02*
G37*
G36*
X38221D02*
X30645D01*
X30717Y380804D01*
X31700Y378431D01*
X33264Y376393D01*
X35302Y374830D01*
X37675Y373847D01*
X38221Y373775D01*
Y381351D01*
D02*
G37*
G36*
X65621Y393694D02*
X62944Y393342D01*
X60449Y392308D01*
X58307Y390665D01*
X56663Y388522D01*
X55630Y386028D01*
X55278Y383351D01*
X55630Y380673D01*
X56663Y378179D01*
X58307Y376037D01*
X60449Y374393D01*
X62944Y373360D01*
X65621Y373007D01*
X68298Y373360D01*
X70793Y374393D01*
X72935Y376037D01*
X74579Y378179D01*
X75612Y380673D01*
X75965Y383351D01*
X75612Y386028D01*
X74579Y388522D01*
X72935Y390665D01*
X70793Y392308D01*
X68298Y393342D01*
X65621Y393694D01*
D02*
G37*
G36*
X42221Y367527D02*
Y359951D01*
X49797D01*
X49725Y360497D01*
X48742Y362870D01*
X47179Y364908D01*
X45141Y366472D01*
X42768Y367454D01*
X42221Y367527D01*
D02*
G37*
G36*
X38221D02*
X37675Y367454D01*
X35302Y366472D01*
X33264Y364908D01*
X31700Y362870D01*
X30717Y360497D01*
X30645Y359951D01*
X38221D01*
Y367527D01*
D02*
G37*
G36*
X49797Y355951D02*
X42221D01*
Y348375D01*
X42768Y348447D01*
X45141Y349430D01*
X47179Y350993D01*
X48742Y353031D01*
X49725Y355404D01*
X49797Y355951D01*
D02*
G37*
G36*
X38221D02*
X30645D01*
X30717Y355404D01*
X31700Y353031D01*
X33264Y350993D01*
X35302Y349430D01*
X37675Y348447D01*
X38221Y348375D01*
Y355951D01*
D02*
G37*
G36*
X65621Y368294D02*
X62944Y367942D01*
X60449Y366908D01*
X58307Y365265D01*
X56663Y363122D01*
X55630Y360628D01*
X55278Y357951D01*
X55630Y355274D01*
X56663Y352779D01*
X58307Y350637D01*
X60449Y348993D01*
X62944Y347960D01*
X65621Y347607D01*
X68298Y347960D01*
X70793Y348993D01*
X72935Y350637D01*
X74579Y352779D01*
X75612Y355274D01*
X75965Y357951D01*
X75612Y360628D01*
X74579Y363122D01*
X72935Y365265D01*
X70793Y366908D01*
X68298Y367942D01*
X65621Y368294D01*
D02*
G37*
G36*
X42221Y342127D02*
Y334551D01*
X49797D01*
X49725Y335097D01*
X48742Y337470D01*
X47179Y339508D01*
X45141Y341072D01*
X42768Y342054D01*
X42221Y342127D01*
D02*
G37*
G36*
X38221D02*
X37675Y342054D01*
X35302Y341072D01*
X33264Y339508D01*
X31700Y337470D01*
X30717Y335097D01*
X30645Y334551D01*
X38221D01*
Y342127D01*
D02*
G37*
G36*
X49797Y330551D02*
X42221D01*
Y322975D01*
X42768Y323047D01*
X45141Y324030D01*
X47179Y325593D01*
X48742Y327631D01*
X49725Y330004D01*
X49797Y330551D01*
D02*
G37*
G36*
X38221D02*
X30645D01*
X30717Y330004D01*
X31700Y327631D01*
X33264Y325593D01*
X35302Y324030D01*
X37675Y323047D01*
X38221Y322975D01*
Y330551D01*
D02*
G37*
G36*
X65621Y342894D02*
X62944Y342542D01*
X60449Y341508D01*
X58307Y339865D01*
X56663Y337722D01*
X55630Y335228D01*
X55278Y332551D01*
X55630Y329874D01*
X56663Y327379D01*
X58307Y325237D01*
X60449Y323593D01*
X62944Y322560D01*
X65621Y322207D01*
X68298Y322560D01*
X70793Y323593D01*
X72935Y325237D01*
X74579Y327379D01*
X75612Y329874D01*
X75965Y332551D01*
X75612Y335228D01*
X74579Y337722D01*
X72935Y339865D01*
X70793Y341508D01*
X68298Y342542D01*
X65621Y342894D01*
D02*
G37*
G36*
X42221Y316726D02*
Y309151D01*
X49797D01*
X49725Y309697D01*
X48742Y312070D01*
X47179Y314108D01*
X45141Y315672D01*
X42768Y316654D01*
X42221Y316726D01*
D02*
G37*
G36*
X38221D02*
X37675Y316654D01*
X35302Y315672D01*
X33264Y314108D01*
X31700Y312070D01*
X30717Y309697D01*
X30645Y309151D01*
X38221D01*
Y316726D01*
D02*
G37*
G36*
X49797Y305151D02*
X42221D01*
Y297575D01*
X42768Y297647D01*
X45141Y298630D01*
X47179Y300193D01*
X48742Y302231D01*
X49725Y304604D01*
X49797Y305151D01*
D02*
G37*
G36*
X38221D02*
X30645D01*
X30717Y304604D01*
X31700Y302231D01*
X33264Y300193D01*
X35302Y298630D01*
X37675Y297647D01*
X38221Y297575D01*
Y305151D01*
D02*
G37*
G36*
X65621Y317494D02*
X62944Y317142D01*
X60449Y316108D01*
X58307Y314465D01*
X56663Y312322D01*
X55630Y309828D01*
X55278Y307151D01*
X55630Y304473D01*
X56663Y301979D01*
X58307Y299837D01*
X60449Y298193D01*
X62944Y297160D01*
X65621Y296807D01*
X68298Y297160D01*
X70793Y298193D01*
X72935Y299837D01*
X74579Y301979D01*
X75612Y304473D01*
X75965Y307151D01*
X75612Y309828D01*
X74579Y312322D01*
X72935Y314465D01*
X70793Y316108D01*
X68298Y317142D01*
X65621Y317494D01*
D02*
G37*
G36*
X42221Y291327D02*
Y283751D01*
X49797D01*
X49725Y284297D01*
X48742Y286670D01*
X47179Y288708D01*
X45141Y290272D01*
X42768Y291255D01*
X42221Y291327D01*
D02*
G37*
G36*
X38221D02*
X37675Y291255D01*
X35302Y290272D01*
X33264Y288708D01*
X31700Y286670D01*
X30717Y284297D01*
X30645Y283751D01*
X38221D01*
Y291327D01*
D02*
G37*
G36*
X49797Y279751D02*
X42221D01*
Y272175D01*
X42768Y272247D01*
X45141Y273230D01*
X47179Y274793D01*
X48742Y276831D01*
X49725Y279204D01*
X49797Y279751D01*
D02*
G37*
G36*
X38221D02*
X30645D01*
X30717Y279204D01*
X31700Y276831D01*
X33264Y274793D01*
X35302Y273230D01*
X37675Y272247D01*
X38221Y272175D01*
Y279751D01*
D02*
G37*
G36*
X65621Y292094D02*
X62944Y291742D01*
X60449Y290708D01*
X58307Y289065D01*
X56663Y286922D01*
X55630Y284428D01*
X55278Y281751D01*
X55630Y279074D01*
X56663Y276579D01*
X58307Y274437D01*
X60449Y272793D01*
X62944Y271760D01*
X65621Y271407D01*
X68298Y271760D01*
X70793Y272793D01*
X72935Y274437D01*
X74579Y276579D01*
X75612Y279074D01*
X75965Y281751D01*
X75612Y284428D01*
X74579Y286922D01*
X72935Y289065D01*
X70793Y290708D01*
X68298Y291742D01*
X65621Y292094D01*
D02*
G37*
G36*
X49976Y266106D02*
X42221D01*
Y258351D01*
X49976D01*
Y266106D01*
D02*
G37*
G36*
X38221D02*
X30466D01*
Y258351D01*
X38221D01*
Y266106D01*
D02*
G37*
G36*
X49976Y254351D02*
X42221D01*
Y246596D01*
X49976D01*
Y254351D01*
D02*
G37*
G36*
X38221D02*
X30466D01*
Y246596D01*
X38221D01*
Y254351D01*
D02*
G37*
G36*
X75876Y266606D02*
X55366D01*
Y246096D01*
X75876D01*
Y266606D01*
D02*
G37*
G36*
X68141Y211435D02*
Y204500D01*
X75076D01*
X75026Y204881D01*
X74107Y207099D01*
X72645Y209004D01*
X70740Y210466D01*
X68522Y211385D01*
X68141Y211435D01*
D02*
G37*
G36*
X64141D02*
X63760Y211385D01*
X61542Y210466D01*
X59636Y209004D01*
X58175Y207099D01*
X57256Y204881D01*
X57205Y204500D01*
X64141D01*
Y211435D01*
D02*
G37*
G36*
X75076Y200500D02*
X68141D01*
Y193565D01*
X68522Y193615D01*
X70740Y194534D01*
X72645Y195996D01*
X74107Y197901D01*
X75026Y200119D01*
X75076Y200500D01*
D02*
G37*
G36*
X64141D02*
X57205D01*
X57256Y200119D01*
X58175Y197901D01*
X59636Y195996D01*
X61542Y194534D01*
X63760Y193615D01*
X64141Y193565D01*
Y200500D01*
D02*
G37*
G36*
X553544Y327750D02*
X551456D01*
X549526Y326951D01*
X548049Y325474D01*
X547250Y323544D01*
Y321456D01*
X548049Y319526D01*
X549526Y318049D01*
X551456Y317250D01*
X553544D01*
X555474Y318049D01*
X556951Y319526D01*
X557750Y321456D01*
Y323544D01*
X556951Y325474D01*
X555474Y326951D01*
X553544Y327750D01*
D02*
G37*
G36*
X498597Y175041D02*
X496549Y174633D01*
X494866Y173509D01*
X492619Y173511D01*
X491464Y174283D01*
X489415Y174691D01*
X487367Y174283D01*
X486223Y173519D01*
X484500Y173521D01*
Y171432D01*
X484470Y171387D01*
X484062Y169338D01*
X484470Y167290D01*
X484500Y167244D01*
Y144177D01*
X492241Y144164D01*
X492558Y142573D01*
X493718Y140837D01*
X495455Y139676D01*
X497503Y139269D01*
X499552Y139676D01*
X501288Y140837D01*
X502449Y142573D01*
X502762Y144147D01*
X508500Y144138D01*
X511500Y146138D01*
Y167136D01*
Y170000D01*
X508969Y173491D01*
X502343Y173499D01*
X500646Y174633D01*
X498597Y175041D01*
D02*
G37*
G36*
X209044Y107655D02*
X206956D01*
X205026Y106855D01*
X203549Y105379D01*
X202750Y103449D01*
Y101361D01*
X203549Y99431D01*
X205026Y97954D01*
X206956Y97155D01*
X209044D01*
X210974Y97954D01*
X212451Y99431D01*
X213250Y101361D01*
Y103449D01*
X212451Y105379D01*
X210974Y106855D01*
X209044Y107655D01*
D02*
G37*
G36*
X239555Y87935D02*
X237466D01*
X235537Y87136D01*
X234060Y85659D01*
X233261Y83730D01*
Y81641D01*
X234060Y79711D01*
X235537Y78235D01*
X237466Y77435D01*
X239555D01*
X241485Y78235D01*
X242961Y79711D01*
X243761Y81641D01*
Y83730D01*
X242961Y85659D01*
X241485Y87136D01*
X239555Y87935D01*
D02*
G37*
G36*
X206325Y87122D02*
X204510Y86883D01*
X202819Y86183D01*
X201366Y85068D01*
X200252Y83616D01*
X199551Y81924D01*
X199312Y80109D01*
Y70050D01*
X199312Y69851D01*
X197427Y69573D01*
X197284Y69919D01*
X196620Y71522D01*
X195128Y73013D01*
X193180Y73820D01*
X191071D01*
X189122Y73013D01*
X187630Y71522D01*
X187356Y70859D01*
X185191D01*
X184790Y71828D01*
X183313Y73305D01*
X181384Y74104D01*
X179295D01*
X177365Y73305D01*
X175889Y71828D01*
X175089Y69898D01*
Y67810D01*
X175889Y65880D01*
X177365Y64403D01*
X179295Y63604D01*
X181384D01*
X183313Y64403D01*
X184790Y65880D01*
X185052Y66513D01*
X187217D01*
X187630Y65515D01*
X189122Y64023D01*
X189858Y63719D01*
X191067Y63186D01*
X190858Y61304D01*
X190750Y61044D01*
Y58956D01*
X191549Y57026D01*
X193026Y55549D01*
X194956Y54750D01*
X197044D01*
X198974Y55549D01*
X200451Y57026D01*
X201250Y58956D01*
Y60274D01*
X202629Y61747D01*
X203038Y61955D01*
X203319Y61898D01*
X204106Y59903D01*
X203750Y59044D01*
Y56956D01*
X204549Y55026D01*
X206026Y53549D01*
X207956Y52750D01*
X210044D01*
X211974Y53549D01*
X213451Y55026D01*
X214250Y56956D01*
Y59044D01*
X213451Y60974D01*
X212239Y62186D01*
X211956Y62716D01*
X211824Y64678D01*
X212399Y65427D01*
X213099Y67118D01*
X213338Y68933D01*
Y80109D01*
X213099Y81924D01*
X212399Y83616D01*
X211284Y85068D01*
X209832Y86183D01*
X208140Y86883D01*
X206325Y87122D01*
D02*
G37*
G36*
X238796Y69002D02*
X236708D01*
X234778Y68203D01*
X233301Y66726D01*
X232502Y64796D01*
Y62708D01*
X233301Y60778D01*
X234778Y59301D01*
X236708Y58502D01*
X238796D01*
X240726Y59301D01*
X242203Y60778D01*
X243002Y62708D01*
Y64796D01*
X242203Y66726D01*
X240726Y68203D01*
X238796Y69002D01*
D02*
G37*
G36*
X206325Y45322D02*
X204510Y45083D01*
X202819Y44383D01*
X201366Y43268D01*
X200252Y41816D01*
X199551Y40124D01*
X199312Y38309D01*
Y27133D01*
X199551Y25318D01*
X200252Y23627D01*
X201366Y22174D01*
X202819Y21060D01*
X204510Y20359D01*
X206325Y20120D01*
X208140Y20359D01*
X209832Y21060D01*
X211284Y22174D01*
X212399Y23627D01*
X213099Y25318D01*
X213338Y27133D01*
Y38309D01*
X213099Y40124D01*
X212399Y41816D01*
X211284Y43268D01*
X209832Y44383D01*
X208140Y45083D01*
X206325Y45322D01*
D02*
G37*
G36*
X256243Y21250D02*
X253757D01*
X251460Y20299D01*
X249701Y18540D01*
X248750Y16243D01*
Y13757D01*
X249701Y11460D01*
X251460Y9701D01*
X253757Y8750D01*
X256243D01*
X258540Y9701D01*
X260299Y11460D01*
X261250Y13757D01*
Y16243D01*
X260299Y18540D01*
X258540Y20299D01*
X256243Y21250D01*
D02*
G37*
G36*
X196243D02*
X193757D01*
X191460Y20299D01*
X189701Y18540D01*
X188750Y16243D01*
Y13757D01*
X189701Y11460D01*
X191460Y9701D01*
X193757Y8750D01*
X196243D01*
X198540Y9701D01*
X200299Y11460D01*
X201250Y13757D01*
Y16243D01*
X200299Y18540D01*
X198540Y20299D01*
X196243Y21250D01*
D02*
G37*
G36*
X176243D02*
X173757D01*
X171460Y20299D01*
X169701Y18540D01*
X168750Y16243D01*
Y13757D01*
X169701Y11460D01*
X171460Y9701D01*
X173757Y8750D01*
X176243D01*
X178540Y9701D01*
X180299Y11460D01*
X181250Y13757D01*
Y16243D01*
X180299Y18540D01*
X178540Y20299D01*
X176243Y21250D01*
D02*
G37*
G36*
X538500Y172177D02*
X521500D01*
X519500Y170177D01*
X519500Y167177D01*
X519500Y146177D01*
X523500Y142177D01*
X536500D01*
X538058Y143735D01*
X538702Y143305D01*
X540750Y142897D01*
X542798Y143305D01*
X544535Y144465D01*
X545695Y146202D01*
X546103Y148250D01*
X545695Y150298D01*
X544535Y152035D01*
X543000Y153061D01*
Y167677D01*
X538500Y172177D01*
D02*
G37*
%LPD*%
D84*
X192125Y68518D02*
D03*
X134325D02*
D03*
D158*
X400000Y45000D02*
D03*
X450000D02*
D03*
X45810Y1222500D02*
D03*
Y1272500D02*
D03*
X820000Y375000D02*
D03*
Y425000D02*
D03*
X819999Y525001D02*
D03*
Y475001D02*
D03*
X820000Y1130000D02*
D03*
Y1180000D02*
D03*
Y740000D02*
D03*
Y690000D02*
D03*
Y1230000D02*
D03*
Y1280000D02*
D03*
Y840000D02*
D03*
Y790000D02*
D03*
X221855Y1360626D02*
D03*
X171855D02*
D03*
X271855D02*
D03*
X321855D02*
D03*
X421855D02*
D03*
X371855D02*
D03*
X471855D02*
D03*
X521855D02*
D03*
X820000Y275000D02*
D03*
Y325000D02*
D03*
D160*
X65621Y434151D02*
D03*
Y408751D02*
D03*
Y383351D02*
D03*
Y357951D02*
D03*
Y332551D02*
D03*
Y307151D02*
D03*
Y281751D02*
D03*
X40221Y434151D02*
D03*
Y408751D02*
D03*
Y383351D02*
D03*
Y357951D02*
D03*
Y332551D02*
D03*
Y307151D02*
D03*
Y281751D02*
D03*
X14821Y434151D02*
D03*
Y408751D02*
D03*
Y383351D02*
D03*
Y357951D02*
D03*
Y332551D02*
D03*
Y307151D02*
D03*
Y281751D02*
D03*
X270000Y851600D02*
D03*
Y826200D02*
D03*
Y800800D02*
D03*
Y775400D02*
D03*
Y750000D02*
D03*
Y724600D02*
D03*
Y699200D02*
D03*
X15000Y957900D02*
D03*
Y932500D02*
D03*
Y907100D02*
D03*
Y1080000D02*
D03*
Y1054600D02*
D03*
Y1029200D02*
D03*
X80000Y1054600D02*
D03*
Y1080000D02*
D03*
Y1105400D02*
D03*
D161*
X65621Y256351D02*
D03*
X40221D02*
D03*
X14821D02*
D03*
X270000Y673800D02*
D03*
X15000Y983300D02*
D03*
Y1105400D02*
D03*
X80000Y1029200D02*
D03*
D162*
X607000Y47000D02*
D03*
X535000D02*
D03*
D163*
X206325Y32721D02*
D03*
Y74521D02*
D03*
X119925D02*
D03*
D164*
Y32721D02*
D03*
D166*
X575680Y904640D02*
D03*
X595021Y1064409D02*
D03*
X288933Y961442D02*
D03*
X292000Y826000D02*
D03*
X292250Y800750D02*
D03*
X300892Y777500D02*
D03*
X317000Y912750D02*
D03*
X597453Y759953D02*
D03*
X588000Y1215257D02*
D03*
X226250Y505000D02*
D03*
X196698Y139811D02*
D03*
X188250Y140750D02*
D03*
X533250Y155000D02*
D03*
X577695Y438371D02*
D03*
X568534Y430244D02*
D03*
X209000Y58000D02*
D03*
X196000Y60000D02*
D03*
X128000Y61000D02*
D03*
X98000Y253846D02*
D03*
X111000Y307000D02*
D03*
X100400Y303800D02*
D03*
X328391Y439424D02*
D03*
X404000Y423020D02*
D03*
X540584Y211747D02*
D03*
X443739Y153116D02*
D03*
X494926Y152722D02*
D03*
X444991Y170266D02*
D03*
X497503Y144622D02*
D03*
X492000Y107000D02*
D03*
X473000D02*
D03*
X208000Y102405D02*
D03*
X638341Y418750D02*
D03*
X613348Y417343D02*
D03*
X605596Y420830D02*
D03*
X359014Y419871D02*
D03*
X400193Y154759D02*
D03*
X399000Y146000D02*
D03*
X400600Y163249D02*
D03*
X434418Y149750D02*
D03*
X532725Y163484D02*
D03*
X257000Y125750D02*
D03*
X266000Y138250D02*
D03*
X239000Y159189D02*
D03*
X127250Y548262D02*
D03*
X608872Y686830D02*
D03*
X610000Y800000D02*
D03*
X597499Y742498D02*
D03*
X597500Y750999D02*
D03*
X266000Y546000D02*
D03*
X270000Y554460D02*
D03*
X266554Y562230D02*
D03*
X270205Y579006D02*
D03*
X269461Y570538D02*
D03*
X284734Y437266D02*
D03*
X293750Y436733D02*
D03*
X415646Y454000D02*
D03*
X380000Y471500D02*
D03*
X456352Y459570D02*
D03*
X467134Y459117D02*
D03*
X619500Y389116D02*
D03*
Y396627D02*
D03*
X655136Y440409D02*
D03*
X618985Y470250D02*
D03*
X520202Y516405D02*
D03*
X561000Y950000D02*
D03*
X538000Y926250D02*
D03*
X542198Y902126D02*
D03*
X544833Y914167D02*
D03*
X333750Y900500D02*
D03*
X103500Y687000D02*
D03*
X195750Y631235D02*
D03*
X202500Y615500D02*
D03*
X269731Y595868D02*
D03*
X272250Y587750D02*
D03*
X332500Y725046D02*
D03*
X179500Y819250D02*
D03*
X76000Y942500D02*
D03*
X198294Y964206D02*
D03*
X587500Y1227757D02*
D03*
X541595Y1073959D02*
D03*
X565454Y1067818D02*
D03*
X563150Y1076000D02*
D03*
X544614Y1084250D02*
D03*
X410000Y937250D02*
D03*
X409791Y949750D02*
D03*
X335730Y984395D02*
D03*
X270000Y983000D02*
D03*
X233894Y957525D02*
D03*
X298169Y1029331D02*
D03*
X292159Y1023320D02*
D03*
X360000Y1084500D02*
D03*
X385000Y1084000D02*
D03*
X312590Y1014898D02*
D03*
X306630Y1008838D02*
D03*
X371770Y1254250D02*
D03*
X214622Y1214225D02*
D03*
X214899Y1205730D02*
D03*
X82750Y880500D02*
D03*
X363169Y1207331D02*
D03*
X557963Y1121500D02*
D03*
X542337Y1250163D02*
D03*
X610582Y1275432D02*
D03*
X619000Y1291075D02*
D03*
X361494Y824701D02*
D03*
X432653Y837653D02*
D03*
X362347Y887347D02*
D03*
X192500Y180000D02*
D03*
X519750Y117000D02*
D03*
Y125000D02*
D03*
Y133000D02*
D03*
Y141000D02*
D03*
X520000Y175750D02*
D03*
Y183000D02*
D03*
X178231Y657555D02*
D03*
X169639Y658508D02*
D03*
X375000Y1101000D02*
D03*
X498000Y1158000D02*
D03*
X431585Y1132305D02*
D03*
X456000Y1114000D02*
D03*
X443870Y1040617D02*
D03*
X461656Y1040741D02*
D03*
X373000Y858500D02*
D03*
X162543Y117578D02*
D03*
X237752Y63752D02*
D03*
X227686Y127683D02*
D03*
X259000Y168000D02*
D03*
X272986Y182600D02*
D03*
X100400Y343800D02*
D03*
Y353800D02*
D03*
Y293800D02*
D03*
Y393800D02*
D03*
Y403800D02*
D03*
Y443800D02*
D03*
X210000Y266629D02*
D03*
X210520Y427506D02*
D03*
X317500Y430000D02*
D03*
X378898Y392445D02*
D03*
X378556Y400993D02*
D03*
X375285Y420302D02*
D03*
X379354Y412275D02*
D03*
X379945Y425890D02*
D03*
X385161Y420388D02*
D03*
X380000Y488500D02*
D03*
X86500Y592000D02*
D03*
X70000Y721500D02*
D03*
X85000Y720500D02*
D03*
X155000Y520000D02*
D03*
X184335D02*
D03*
X99000Y720500D02*
D03*
X113000Y721500D02*
D03*
X70000Y763500D02*
D03*
Y735500D02*
D03*
Y749500D02*
D03*
X27500Y942500D02*
D03*
X32500Y1193223D02*
D03*
X85000Y735500D02*
D03*
Y749500D02*
D03*
X99000Y764500D02*
D03*
Y735500D02*
D03*
X113000D02*
D03*
X99000Y749500D02*
D03*
X113000D02*
D03*
X114000Y763500D02*
D03*
X85000Y764500D02*
D03*
X135000Y1052500D02*
D03*
X192000Y1256500D02*
D03*
Y1275500D02*
D03*
X296000Y904748D02*
D03*
X311009Y980244D02*
D03*
X335000Y945000D02*
D03*
Y960000D02*
D03*
X336000Y1001500D02*
D03*
X349480Y945000D02*
D03*
Y960000D02*
D03*
X408000Y1086500D02*
D03*
X418000D02*
D03*
X413000Y1091500D02*
D03*
X210000Y1188500D02*
D03*
X210000Y1179500D02*
D03*
X219250Y1188500D02*
D03*
X219500Y1179000D02*
D03*
X237000Y1197500D02*
D03*
Y1207500D02*
D03*
X232376Y1265464D02*
D03*
X247000Y1197500D02*
D03*
X242000Y1202500D02*
D03*
X247000Y1207500D02*
D03*
X313500Y1254000D02*
D03*
X408000Y1096500D02*
D03*
X418000D02*
D03*
X314252Y1276500D02*
D03*
X353000Y1264500D02*
D03*
X489415Y169338D02*
D03*
X560000Y185000D02*
D03*
X552500Y322500D02*
D03*
X569000Y451980D02*
D03*
X618857Y404407D02*
D03*
X618422Y422813D02*
D03*
X619000Y412500D02*
D03*
X623768Y417500D02*
D03*
X655000Y455000D02*
D03*
X618985Y486501D02*
D03*
X696500Y453000D02*
D03*
X711098Y456592D02*
D03*
X475000Y746500D02*
D03*
X559500Y905500D02*
D03*
X463000Y1104500D02*
D03*
X474000Y1130500D02*
D03*
X442500Y1256500D02*
D03*
Y1274000D02*
D03*
X522500Y1250000D02*
D03*
X502500D02*
D03*
X562500D02*
D03*
X645000Y1374500D02*
D03*
X238511Y82685D02*
D03*
X126972Y89159D02*
D03*
X250000Y875000D02*
D03*
X437500Y762750D02*
D03*
X570161Y1374514D02*
D03*
X576194Y885029D02*
D03*
X538733D02*
D03*
X528562Y885228D02*
D03*
X528294Y926081D02*
D03*
X574677Y926081D02*
D03*
X427030Y961567D02*
D03*
X582500Y1175000D02*
D03*
X597420Y769533D02*
D03*
X440000Y940000D02*
D03*
X380000Y915000D02*
D03*
X512500Y520000D02*
D03*
X192500Y920000D02*
D03*
X210000Y1117500D02*
D03*
Y1105000D02*
D03*
X223058Y1232130D02*
D03*
X239649Y1231848D02*
D03*
X140000Y895000D02*
D03*
X152500D02*
D03*
X171879Y828379D02*
D03*
X172500Y927500D02*
D03*
X110250Y1179250D02*
D03*
X134393Y1100821D02*
D03*
X50000Y460000D02*
D03*
X112000Y413500D02*
D03*
X112324Y364176D02*
D03*
X105000Y245000D02*
D03*
X125000Y615000D02*
D03*
X252500Y612500D02*
D03*
X334847Y454847D02*
D03*
X535000Y527500D02*
D03*
X255000Y505000D02*
D03*
X270033Y537466D02*
D03*
X233000Y490000D02*
D03*
X530000Y437500D02*
D03*
X561000Y444750D02*
D03*
X330000Y447770D02*
D03*
X409963Y431671D02*
D03*
X582500Y272500D02*
D03*
X653541Y432060D02*
D03*
X652752Y422679D02*
D03*
X412835Y467933D02*
D03*
X532951Y217997D02*
D03*
X515000Y205000D02*
D03*
X511000Y117000D02*
D03*
Y125000D02*
D03*
Y176000D02*
D03*
Y184000D02*
D03*
Y133000D02*
D03*
Y141000D02*
D03*
X422000Y196000D02*
D03*
Y204000D02*
D03*
X422500Y175000D02*
D03*
Y183000D02*
D03*
Y117000D02*
D03*
Y141000D02*
D03*
Y125000D02*
D03*
Y133000D02*
D03*
X369000Y986500D02*
D03*
X633764Y449381D02*
D03*
Y441373D02*
D03*
X604189Y448835D02*
D03*
X604098Y441373D02*
D03*
X116000Y684500D02*
D03*
X651500Y465500D02*
D03*
X575000Y1046500D02*
D03*
X575658Y935446D02*
D03*
X538000Y1046500D02*
D03*
X538909Y935446D02*
D03*
X394857Y443158D02*
D03*
X399293Y415849D02*
D03*
X404286Y393684D02*
D03*
X404774Y369936D02*
D03*
X404652Y345580D02*
D03*
X394676Y451448D02*
D03*
X498597Y169688D02*
D03*
X200000Y220000D02*
D03*
X150000Y720000D02*
D03*
X65412Y489750D02*
D03*
X110036Y520036D02*
D03*
X210520Y380423D02*
D03*
X210000Y314131D02*
D03*
X540750Y148250D02*
D03*
X413500Y175000D02*
D03*
Y183000D02*
D03*
Y141000D02*
D03*
Y133000D02*
D03*
Y125000D02*
D03*
Y117000D02*
D03*
X400000Y127000D02*
D03*
X434411Y170183D02*
D03*
X273000Y132000D02*
D03*
X180339Y68854D02*
D03*
X205000Y177500D02*
D03*
X178105Y102099D02*
D03*
X169000Y96000D02*
D03*
X155925Y94924D02*
D03*
X365185Y443610D02*
D03*
X276248Y70049D02*
D03*
X315520Y680473D02*
D03*
X326000Y910500D02*
D03*
X110000Y1168500D02*
D03*
X167000Y1237500D02*
D03*
X197000Y1219500D02*
D03*
X158000Y1284500D02*
D03*
Y828500D02*
D03*
X14000Y1005500D02*
D03*
Y1121500D02*
D03*
X68000Y699500D02*
D03*
X139000Y830500D02*
D03*
X276000Y975500D02*
D03*
X285000D02*
D03*
X276000Y907500D02*
D03*
X239376Y645000D02*
D03*
X539000Y1106500D02*
D03*
X575000D02*
D03*
Y1096500D02*
D03*
X540000D02*
D03*
X538000Y1055500D02*
D03*
X574000D02*
D03*
X576663Y875312D02*
D03*
X490000Y939500D02*
D03*
X483263Y921500D02*
D03*
X427000Y979500D02*
D03*
Y952730D02*
D03*
Y970500D02*
D03*
X365145Y451316D02*
D03*
X587500Y704955D02*
D03*
X565000Y727455D02*
D03*
X557500Y734955D02*
D03*
X572500Y719955D02*
D03*
X580000Y712455D02*
D03*
X595000Y697455D02*
D03*
X602500Y692455D02*
D03*
X135000Y591500D02*
D03*
X164000Y731020D02*
D03*
X108670Y788500D02*
D03*
X283500Y934748D02*
D03*
X277376Y1265464D02*
D03*
X332500Y767500D02*
D03*
X377000Y1002500D02*
D03*
X399000Y1264500D02*
D03*
X605000Y1374500D02*
D03*
X332500Y681473D02*
D03*
X166000Y709500D02*
D03*
X363000Y1216000D02*
D03*
Y1189500D02*
D03*
X59000Y698500D02*
D03*
X44000Y697500D02*
D03*
X29000Y698500D02*
D03*
X363000Y1198500D02*
D03*
X117000Y905500D02*
D03*
X125000Y895500D02*
D03*
X212500Y797500D02*
D03*
Y807500D02*
D03*
Y822500D02*
D03*
X205000Y847500D02*
D03*
X381000Y928500D02*
D03*
X563761Y1023361D02*
D03*
X565916Y898390D02*
D03*
X552053Y954480D02*
D03*
X625000Y1339500D02*
D03*
X547000Y1319500D02*
D03*
X566000Y1190500D02*
D03*
X588000Y1202500D02*
D03*
X597000Y1208500D02*
D03*
Y1195750D02*
D03*
X596997Y1221507D02*
D03*
X597000Y1234500D02*
D03*
X72740Y872260D02*
D03*
X52500Y862500D02*
D03*
X65000D02*
D03*
X355011Y992511D02*
D03*
X570000Y1325000D02*
D03*
X157500Y1247500D02*
D03*
X372500Y1275000D02*
D03*
X399000Y1274500D02*
D03*
X209000Y1287500D02*
D03*
X232000D02*
D03*
X453000Y1083500D02*
D03*
X372000Y764500D02*
D03*
X555000Y857000D02*
D03*
X563861Y852861D02*
D03*
X554900Y1027500D02*
D03*
X552900Y1128500D02*
D03*
X440000Y690500D02*
D03*
X286000Y1265500D02*
D03*
X257000Y1287500D02*
D03*
X399000Y1255500D02*
D03*
D167*
X480000Y688000D02*
D03*
X489000D02*
D03*
X402500Y712500D02*
D03*
Y722500D02*
D03*
X402000Y745000D02*
D03*
X402500Y732500D02*
D03*
X410000Y755000D02*
D03*
X410500Y712500D02*
D03*
X425000Y706500D02*
D03*
X410500Y732500D02*
D03*
X410000Y745000D02*
D03*
X410500Y722500D02*
D03*
X402000Y755000D02*
D03*
Y764230D02*
D03*
X410000D02*
D03*
X493000Y699000D02*
D03*
Y706500D02*
D03*
Y714000D02*
D03*
X500500Y706500D02*
D03*
Y714000D02*
D03*
Y699000D02*
D03*
X508000Y714000D02*
D03*
Y699000D02*
D03*
Y706500D02*
D03*
X475000Y736500D02*
D03*
D168*
X383664Y196766D02*
D03*
X350000D02*
D03*
X365000D02*
D03*
X464000Y151722D02*
D03*
X109000Y580000D02*
D03*
X547459Y357459D02*
D03*
X595750Y362500D02*
D03*
X600000Y902500D02*
D03*
X371250Y832000D02*
D03*
X203625Y647625D02*
D03*
X234750Y735250D02*
D03*
X600000Y1072500D02*
D03*
X497497Y1075750D02*
D03*
X317500Y1229500D02*
D03*
X577686Y478424D02*
D03*
X336436Y474413D02*
D03*
X92598Y551842D02*
D03*
X217500Y637500D02*
D03*
X550000Y135000D02*
D03*
Y120000D02*
D03*
X565000D02*
D03*
Y135000D02*
D03*
X555000Y150000D02*
D03*
X569500Y151000D02*
D03*
X580000Y120000D02*
D03*
Y135000D02*
D03*
X550000Y105000D02*
D03*
X540000Y95000D02*
D03*
X525000D02*
D03*
X535000Y105000D02*
D03*
X555000Y95000D02*
D03*
X520000Y105000D02*
D03*
X505000Y100000D02*
D03*
X485000D02*
D03*
X460000D02*
D03*
X440000D02*
D03*
X420000D02*
D03*
X564000Y170750D02*
D03*
X460000Y770000D02*
D03*
X370000Y795000D02*
D03*
X360000D02*
D03*
X370000Y805000D02*
D03*
X850000Y385000D02*
D03*
X14000Y489750D02*
D03*
X52500Y507500D02*
D03*
X325000Y174000D02*
D03*
X337500Y192500D02*
D03*
Y177500D02*
D03*
X340000Y162500D02*
D03*
X347500Y172500D02*
D03*
Y185000D02*
D03*
X342500Y237500D02*
D03*
X320000Y275000D02*
D03*
X330000Y267500D02*
D03*
Y282500D02*
D03*
X320000Y290000D02*
D03*
Y305000D02*
D03*
X330000Y297500D02*
D03*
X340000Y305000D02*
D03*
Y275000D02*
D03*
X350000Y282500D02*
D03*
Y267500D02*
D03*
X360000Y275000D02*
D03*
X340000Y290000D02*
D03*
X350000Y297500D02*
D03*
X360000Y290000D02*
D03*
Y305000D02*
D03*
X370000Y267500D02*
D03*
X380000Y237500D02*
D03*
Y275000D02*
D03*
X370000Y282500D02*
D03*
Y297500D02*
D03*
X380000Y290000D02*
D03*
Y305000D02*
D03*
X407500Y200000D02*
D03*
X422500Y267500D02*
D03*
X434000Y217000D02*
D03*
X390000Y282500D02*
D03*
Y297500D02*
D03*
Y267500D02*
D03*
X330000Y312500D02*
D03*
X350000D02*
D03*
X340000Y320000D02*
D03*
X320000D02*
D03*
X330000Y327500D02*
D03*
X350000D02*
D03*
X340000Y335000D02*
D03*
X360000Y320000D02*
D03*
X370000Y312500D02*
D03*
Y327500D02*
D03*
X360000Y335000D02*
D03*
X372500Y340000D02*
D03*
X373541Y362473D02*
D03*
X352500Y365000D02*
D03*
X364994Y370678D02*
D03*
X365000Y382500D02*
D03*
X374795Y378542D02*
D03*
X380000Y320000D02*
D03*
X390000Y327500D02*
D03*
Y312500D02*
D03*
X17500Y520000D02*
D03*
Y577500D02*
D03*
X50000Y567500D02*
D03*
X14650Y688615D02*
D03*
X60000Y627500D02*
D03*
X59964Y647464D02*
D03*
X152386Y628273D02*
D03*
X15000Y827500D02*
D03*
X133031Y1135000D02*
D03*
X445000Y290000D02*
D03*
Y267500D02*
D03*
X450000Y217000D02*
D03*
X467500Y267500D02*
D03*
X492500D02*
D03*
X510000D02*
D03*
Y297500D02*
D03*
Y282500D02*
D03*
X600000Y287500D02*
D03*
Y297500D02*
D03*
X610000Y287500D02*
D03*
Y297500D02*
D03*
X602500Y372500D02*
D03*
X615000Y352500D02*
D03*
X607500Y362500D02*
D03*
X617500Y260000D02*
D03*
X632500D02*
D03*
X615000Y340000D02*
D03*
X625000Y325000D02*
D03*
X615000Y372500D02*
D03*
X655000Y672500D02*
D03*
Y692500D02*
D03*
X665000Y702500D02*
D03*
X675000Y672500D02*
D03*
Y692500D02*
D03*
X685000Y702500D02*
D03*
X598791Y851148D02*
D03*
X650000Y820000D02*
D03*
X596041Y955647D02*
D03*
X596000Y1025500D02*
D03*
X599827Y1130021D02*
D03*
X665000Y722500D02*
D03*
Y742500D02*
D03*
Y762500D02*
D03*
Y782500D02*
D03*
X675000Y792500D02*
D03*
X685000Y742500D02*
D03*
Y722500D02*
D03*
Y762500D02*
D03*
Y782500D02*
D03*
X655000Y1195500D02*
D03*
Y1175500D02*
D03*
Y1215500D02*
D03*
X665000Y1245500D02*
D03*
Y1225500D02*
D03*
X675000Y1175500D02*
D03*
X665000Y1265500D02*
D03*
Y1285500D02*
D03*
X675000Y1195500D02*
D03*
X685000Y1205500D02*
D03*
Y1225500D02*
D03*
Y1245500D02*
D03*
Y1265500D02*
D03*
Y1285500D02*
D03*
X260000Y230000D02*
D03*
Y250000D02*
D03*
Y270000D02*
D03*
Y290000D02*
D03*
Y310000D02*
D03*
Y330000D02*
D03*
Y350000D02*
D03*
Y370000D02*
D03*
Y390000D02*
D03*
Y405000D02*
D03*
Y420000D02*
D03*
X275000D02*
D03*
X290000D02*
D03*
X285000Y405000D02*
D03*
X275000Y395000D02*
D03*
X850000Y225000D02*
D03*
Y245000D02*
D03*
Y265000D02*
D03*
Y285000D02*
D03*
Y365000D02*
D03*
Y345000D02*
D03*
Y325000D02*
D03*
Y305000D02*
D03*
Y445000D02*
D03*
Y425000D02*
D03*
Y405000D02*
D03*
Y525000D02*
D03*
Y505000D02*
D03*
Y485000D02*
D03*
Y465000D02*
D03*
Y605000D02*
D03*
Y585000D02*
D03*
Y565000D02*
D03*
Y545000D02*
D03*
Y685000D02*
D03*
Y665000D02*
D03*
Y645000D02*
D03*
Y625000D02*
D03*
Y765000D02*
D03*
Y745000D02*
D03*
Y725000D02*
D03*
Y705000D02*
D03*
Y845000D02*
D03*
Y825000D02*
D03*
Y805000D02*
D03*
Y785000D02*
D03*
Y925000D02*
D03*
Y905000D02*
D03*
Y885000D02*
D03*
Y865000D02*
D03*
Y1005000D02*
D03*
Y985000D02*
D03*
Y965000D02*
D03*
Y945000D02*
D03*
Y1085000D02*
D03*
Y1065000D02*
D03*
Y1045000D02*
D03*
Y1025000D02*
D03*
Y1165000D02*
D03*
Y1145000D02*
D03*
Y1125000D02*
D03*
Y1105000D02*
D03*
Y1245000D02*
D03*
Y1225000D02*
D03*
Y1205000D02*
D03*
Y1185000D02*
D03*
Y1305000D02*
D03*
Y1285000D02*
D03*
Y1265000D02*
D03*
Y205000D02*
D03*
Y185000D02*
D03*
Y165000D02*
D03*
Y145000D02*
D03*
Y125000D02*
D03*
Y105000D02*
D03*
X700000Y15000D02*
D03*
X720000D02*
D03*
X740000D02*
D03*
X760000D02*
D03*
X660000D02*
D03*
X680000D02*
D03*
X315000D02*
D03*
X335000D02*
D03*
X355000D02*
D03*
X375000D02*
D03*
X255000D02*
D03*
X275000D02*
D03*
X295000D02*
D03*
X135000D02*
D03*
X155000D02*
D03*
X175000D02*
D03*
X195000D02*
D03*
X95000D02*
D03*
X115000D02*
D03*
X10000Y95000D02*
D03*
Y115000D02*
D03*
Y135000D02*
D03*
Y155000D02*
D03*
Y175000D02*
D03*
Y195000D02*
D03*
Y215000D02*
D03*
Y235000D02*
D03*
Y1140000D02*
D03*
Y1160000D02*
D03*
Y1180000D02*
D03*
Y1200000D02*
D03*
Y1220000D02*
D03*
Y1240000D02*
D03*
Y1260000D02*
D03*
Y1280000D02*
D03*
Y1300000D02*
D03*
X155000Y1390000D02*
D03*
X135000D02*
D03*
X115000D02*
D03*
X95000D02*
D03*
X235000D02*
D03*
X215000D02*
D03*
X195000D02*
D03*
X175000D02*
D03*
X315000D02*
D03*
X295000D02*
D03*
X275000D02*
D03*
X255000D02*
D03*
X395000D02*
D03*
X375000D02*
D03*
X355000D02*
D03*
X335000D02*
D03*
X475000D02*
D03*
X455000D02*
D03*
X435000D02*
D03*
X415000D02*
D03*
X555000D02*
D03*
X535000D02*
D03*
X515000D02*
D03*
X495000D02*
D03*
X635000D02*
D03*
X615000D02*
D03*
X595000D02*
D03*
X575000D02*
D03*
X715000D02*
D03*
X695000D02*
D03*
X675000D02*
D03*
X655000D02*
D03*
X755000D02*
D03*
X735000D02*
D03*
X690000Y30000D02*
D03*
X670000D02*
D03*
X770000D02*
D03*
X750000D02*
D03*
X730000D02*
D03*
X710000D02*
D03*
X680000Y45000D02*
D03*
X660000D02*
D03*
X760000D02*
D03*
X740000D02*
D03*
X720000D02*
D03*
X700000D02*
D03*
X690000Y60000D02*
D03*
X670000D02*
D03*
X770000D02*
D03*
X750000D02*
D03*
X730000D02*
D03*
X710000D02*
D03*
X680000Y75000D02*
D03*
X660000D02*
D03*
X760000D02*
D03*
X740000D02*
D03*
X720000D02*
D03*
X700000D02*
D03*
X690000Y90000D02*
D03*
X670000D02*
D03*
X770000D02*
D03*
X750000D02*
D03*
X730000D02*
D03*
X710000D02*
D03*
X680000Y105000D02*
D03*
X660000D02*
D03*
X760000D02*
D03*
X740000D02*
D03*
X720000D02*
D03*
X700000D02*
D03*
X690000Y120000D02*
D03*
X670000D02*
D03*
X770000D02*
D03*
X750000D02*
D03*
X730000D02*
D03*
X710000D02*
D03*
X680000Y135000D02*
D03*
X660000D02*
D03*
X760000D02*
D03*
X740000D02*
D03*
X720000D02*
D03*
X700000D02*
D03*
X690000Y150000D02*
D03*
X670000D02*
D03*
X770000D02*
D03*
X750000D02*
D03*
X730000D02*
D03*
X710000D02*
D03*
X680000Y165000D02*
D03*
X660000D02*
D03*
X760000D02*
D03*
X740000D02*
D03*
X720000D02*
D03*
X700000D02*
D03*
X710000Y180000D02*
D03*
X690000D02*
D03*
X790000D02*
D03*
X770000D02*
D03*
X750000D02*
D03*
X730000D02*
D03*
X700000Y195000D02*
D03*
X680000D02*
D03*
X780000D02*
D03*
X760000D02*
D03*
X740000D02*
D03*
X720000D02*
D03*
X710000Y210000D02*
D03*
X690000D02*
D03*
X790000D02*
D03*
X770000D02*
D03*
X750000D02*
D03*
X730000D02*
D03*
X790000Y150000D02*
D03*
X810000D02*
D03*
X800000Y135000D02*
D03*
X790000Y120000D02*
D03*
X810000D02*
D03*
X810000Y210000D02*
D03*
X830000D02*
D03*
X820000Y195000D02*
D03*
X810000Y180000D02*
D03*
X830000D02*
D03*
X800000Y195000D02*
D03*
X780000Y165000D02*
D03*
X800000D02*
D03*
X820000D02*
D03*
X780000Y135000D02*
D03*
X820000D02*
D03*
X830000Y150000D02*
D03*
X835000Y165000D02*
D03*
Y195000D02*
D03*
X830000Y120000D02*
D03*
X780000Y105000D02*
D03*
X800000D02*
D03*
X790000Y90000D02*
D03*
X820000Y105000D02*
D03*
X835000D02*
D03*
X665000Y270000D02*
D03*
X680000D02*
D03*
X695000D02*
D03*
X765000Y300000D02*
D03*
Y270000D02*
D03*
X785000D02*
D03*
X775000Y285000D02*
D03*
X785000Y300000D02*
D03*
X755000Y285000D02*
D03*
X745000Y270000D02*
D03*
Y300000D02*
D03*
X755000Y315000D02*
D03*
X775000D02*
D03*
X785000Y330000D02*
D03*
X765000D02*
D03*
X745000D02*
D03*
Y1375000D02*
D03*
X685000D02*
D03*
X705000D02*
D03*
X725000D02*
D03*
X735000Y1360000D02*
D03*
X755000D02*
D03*
X675000D02*
D03*
X695000D02*
D03*
X715000D02*
D03*
X745000Y1345000D02*
D03*
X685000D02*
D03*
X705000D02*
D03*
X725000D02*
D03*
X735000Y1330000D02*
D03*
X755000D02*
D03*
X675000D02*
D03*
X695000D02*
D03*
X715000D02*
D03*
X500000Y730000D02*
D03*
Y750000D02*
D03*
X495000Y765000D02*
D03*
X475000Y770000D02*
D03*
X160000Y449000D02*
D03*
Y390000D02*
D03*
X149976Y347193D02*
D03*
X150000Y320000D02*
D03*
Y290000D02*
D03*
Y265000D02*
D03*
Y245000D02*
D03*
X160000Y230000D02*
D03*
X185000D02*
D03*
X210000Y245000D02*
D03*
Y235000D02*
D03*
X195000Y265000D02*
D03*
X200000Y370000D02*
D03*
X185000Y390000D02*
D03*
X140000Y475000D02*
D03*
Y490000D02*
D03*
X120000Y475000D02*
D03*
Y490000D02*
D03*
X235000Y625000D02*
D03*
X210000Y665000D02*
D03*
X365000Y640000D02*
D03*
X430000Y1020000D02*
D03*
X420000Y1010000D02*
D03*
X410000Y1000000D02*
D03*
X400000Y990000D02*
D03*
X390000Y980000D02*
D03*
X405000Y1060000D02*
D03*
Y1125000D02*
D03*
X375000Y1060000D02*
D03*
X390000Y1045000D02*
D03*
X355000D02*
D03*
X470000Y1275000D02*
D03*
Y1255000D02*
D03*
X490000Y1305000D02*
D03*
X625000Y1045000D02*
D03*
X635000Y1035000D02*
D03*
X645000Y1025000D02*
D03*
X655000Y1020000D02*
D03*
X645000Y1035000D02*
D03*
Y1045000D02*
D03*
X635000D02*
D03*
X655000D02*
D03*
Y965000D02*
D03*
X645000Y960000D02*
D03*
X635000Y950000D02*
D03*
X625000Y940000D02*
D03*
X635000D02*
D03*
X645000D02*
D03*
X655000D02*
D03*
X645000Y950000D02*
D03*
X625000Y990000D02*
D03*
X640000D02*
D03*
X840000D02*
D03*
X830000Y1000000D02*
D03*
X820000Y990000D02*
D03*
X830000Y980000D02*
D03*
X700000Y630000D02*
D03*
Y615000D02*
D03*
Y600000D02*
D03*
X730000Y585000D02*
D03*
Y600000D02*
D03*
Y615000D02*
D03*
Y630000D02*
D03*
X715000D02*
D03*
Y615000D02*
D03*
Y600000D02*
D03*
X565000Y590000D02*
D03*
X580000D02*
D03*
X579748Y605156D02*
D03*
X465000Y565000D02*
D03*
Y540000D02*
D03*
Y515000D02*
D03*
X800000Y635000D02*
D03*
Y620000D02*
D03*
Y605000D02*
D03*
Y590000D02*
D03*
X25000Y125000D02*
D03*
Y105000D02*
D03*
X40000Y115000D02*
D03*
Y95000D02*
D03*
X55000Y125000D02*
D03*
Y105000D02*
D03*
X70000Y115000D02*
D03*
Y95000D02*
D03*
X85000Y125000D02*
D03*
Y105000D02*
D03*
X100000Y115000D02*
D03*
Y95000D02*
D03*
X365000Y30000D02*
D03*
X345000D02*
D03*
X325000D02*
D03*
X305000D02*
D03*
X375000Y45000D02*
D03*
X355000D02*
D03*
X335000D02*
D03*
X315000D02*
D03*
X365000Y60000D02*
D03*
X345000D02*
D03*
X325000D02*
D03*
X305000D02*
D03*
X375000Y75000D02*
D03*
X355000D02*
D03*
X335000D02*
D03*
X315000D02*
D03*
X365000Y90000D02*
D03*
X345000D02*
D03*
X325000D02*
D03*
X305000D02*
D03*
X725000Y340000D02*
D03*
X675000Y305000D02*
D03*
Y330000D02*
D03*
X685000Y315000D02*
D03*
Y340000D02*
D03*
X762500Y850000D02*
D03*
X752500D02*
D03*
Y860000D02*
D03*
X762500D02*
D03*
X712500Y910000D02*
D03*
X727500D02*
D03*
X722000Y735500D02*
D03*
X725000Y795000D02*
D03*
X600000Y922500D02*
D03*
X610000Y912500D02*
D03*
Y892500D02*
D03*
X620000Y902500D02*
D03*
Y922500D02*
D03*
X510000D02*
D03*
X520000Y912500D02*
D03*
X510000Y902500D02*
D03*
X520000Y892500D02*
D03*
X500000Y912500D02*
D03*
Y892500D02*
D03*
X730250Y677250D02*
D03*
X730750Y667250D02*
D03*
X728132Y741516D02*
D03*
X731000Y731000D02*
D03*
X501732Y849961D02*
D03*
X500000Y872500D02*
D03*
X505000Y862500D02*
D03*
X515000Y872500D02*
D03*
Y852500D02*
D03*
X520000Y840000D02*
D03*
X535000Y1117500D02*
D03*
Y1130000D02*
D03*
X452500Y877500D02*
D03*
X485794Y400799D02*
D03*
X270000Y1167500D02*
D03*
X317500Y1212500D02*
D03*
X377500Y1232500D02*
D03*
X287500Y1205000D02*
D03*
X302500Y1195000D02*
D03*
X257500Y1155000D02*
D03*
X681000Y365000D02*
D03*
Y356000D02*
D03*
X572500Y327500D02*
D03*
X10000Y460000D02*
D03*
X495000Y435000D02*
D03*
X630000Y1082500D02*
D03*
X650000Y1130000D02*
D03*
X670000D02*
D03*
X690000D02*
D03*
X710000D02*
D03*
X740000Y364000D02*
D03*
Y355000D02*
D03*
X750000D02*
D03*
Y364000D02*
D03*
X671000Y356000D02*
D03*
Y365000D02*
D03*
X625000Y250000D02*
D03*
X550750Y228500D02*
D03*
X15371Y890289D02*
D03*
X90000Y1125500D02*
D03*
X207330Y775480D02*
D03*
X207041Y739814D02*
D03*
X206752Y751088D02*
D03*
X207041Y764194D02*
D03*
X499250Y533750D02*
D03*
X657500Y315000D02*
D03*
X595000Y200000D02*
D03*
X575000D02*
D03*
X559999Y200000D02*
D03*
X463000Y191000D02*
D03*
Y203000D02*
D03*
Y177000D02*
D03*
X550750Y238500D02*
D03*
X520000Y239000D02*
D03*
X570000Y400000D02*
D03*
X645000Y397500D02*
D03*
Y387500D02*
D03*
Y365000D02*
D03*
Y375000D02*
D03*
X657500Y305000D02*
D03*
X645000Y340000D02*
D03*
X657500Y325000D02*
D03*
X645000Y352500D02*
D03*
X550000Y385000D02*
D03*
X570000D02*
D03*
X530000Y280000D02*
D03*
X542500D02*
D03*
X560000Y342500D02*
D03*
X530000Y357500D02*
D03*
X720000Y490000D02*
D03*
X710000D02*
D03*
X720000Y500000D02*
D03*
X710000D02*
D03*
X497000Y347000D02*
D03*
X497500Y337500D02*
D03*
X496854Y412236D02*
D03*
X520000Y249000D02*
D03*
Y229000D02*
D03*
X295000Y370000D02*
D03*
X310000Y375000D02*
D03*
X320000Y390000D02*
D03*
X335000Y380000D02*
D03*
Y400000D02*
D03*
X300000Y325000D02*
D03*
X285000D02*
D03*
X300000Y310000D02*
D03*
X285000D02*
D03*
Y295000D02*
D03*
X300000D02*
D03*
X285000Y280000D02*
D03*
X300000D02*
D03*
X485000Y347000D02*
D03*
X496841Y401149D02*
D03*
X290000Y230000D02*
D03*
Y240000D02*
D03*
X600000Y1012500D02*
D03*
X580000D02*
D03*
X600000Y992500D02*
D03*
X580000Y995000D02*
D03*
X527500Y1002500D02*
D03*
X590000Y1002500D02*
D03*
Y985000D02*
D03*
X580000Y975000D02*
D03*
X600000Y970000D02*
D03*
X570000Y985000D02*
D03*
X555000Y1012500D02*
D03*
X547500Y1000000D02*
D03*
X536523Y1025525D02*
D03*
X537500Y1012500D02*
D03*
X550000Y982500D02*
D03*
X540000Y972500D02*
D03*
X530000Y982500D02*
D03*
X520000Y972500D02*
D03*
Y942500D02*
D03*
X505000Y644000D02*
D03*
X467500D02*
D03*
X550750Y248500D02*
D03*
X505000Y631500D02*
D03*
X492500Y644000D02*
D03*
X480000D02*
D03*
X492500Y631500D02*
D03*
X480000D02*
D03*
X455000D02*
D03*
Y644000D02*
D03*
X467500Y631500D02*
D03*
X300000Y230000D02*
D03*
Y240000D02*
D03*
X485000Y337500D02*
D03*
X473000Y338000D02*
D03*
Y353000D02*
D03*
X460000Y362500D02*
D03*
X440000D02*
D03*
Y342500D02*
D03*
X462000Y345000D02*
D03*
X450000Y352500D02*
D03*
X433000Y379000D02*
D03*
X449000Y332000D02*
D03*
X28764Y613645D02*
D03*
X405000Y135000D02*
D03*
X365000Y120000D02*
D03*
Y135000D02*
D03*
X335000Y120000D02*
D03*
X350000D02*
D03*
Y135000D02*
D03*
X335000D02*
D03*
Y150000D02*
D03*
X350000D02*
D03*
X365000D02*
D03*
Y165000D02*
D03*
X370000Y180000D02*
D03*
X404502Y179570D02*
D03*
X360000Y805000D02*
D03*
X729981Y1234184D02*
D03*
X728452Y1244234D02*
D03*
X592000Y816500D02*
D03*
X260000Y952500D02*
D03*
X235000Y779980D02*
D03*
X600000Y1142500D02*
D03*
X580000D02*
D03*
X565000D02*
D03*
X550000D02*
D03*
X537500Y1142500D02*
D03*
X630000Y1130000D02*
D03*
X640000Y1140000D02*
D03*
X615000D02*
D03*
X635000Y1115000D02*
D03*
X615000D02*
D03*
X517500Y1057500D02*
D03*
X760000Y1125000D02*
D03*
X750000D02*
D03*
X760000Y1135000D02*
D03*
X750000D02*
D03*
X610000Y862500D02*
D03*
X535000Y832500D02*
D03*
X530000Y847500D02*
D03*
X525000Y862500D02*
D03*
X535000Y872500D02*
D03*
Y857500D02*
D03*
X550000Y837500D02*
D03*
X565000D02*
D03*
X580000D02*
D03*
X600000Y872500D02*
D03*
X615000D02*
D03*
X664458Y852462D02*
D03*
X649458D02*
D03*
X664458Y867462D02*
D03*
X80980Y618505D02*
D03*
X132248Y1147500D02*
D03*
X650000Y867500D02*
D03*
X730750Y1170250D02*
D03*
X730250Y1180250D02*
D03*
X722000Y1238500D02*
D03*
X725000Y1298000D02*
D03*
X640000Y1092500D02*
D03*
X630000Y1062500D02*
D03*
X620000Y1072500D02*
D03*
Y1092500D02*
D03*
X600000D02*
D03*
X610000Y1082500D02*
D03*
Y1062500D02*
D03*
X64500Y542500D02*
D03*
X65500Y602000D02*
D03*
X365000Y1242500D02*
D03*
X486000Y412500D02*
D03*
X585000Y777500D02*
D03*
D169*
X95000Y650000D02*
D03*
D170*
X810000Y52500D02*
D03*
X50000Y52500D02*
D03*
Y1352500D02*
D03*
X810000D02*
D03*
D171*
X615000Y145000D02*
D03*
Y195000D02*
D03*
X675000Y1020000D02*
D03*
Y1070000D02*
D03*
X790000Y960000D02*
D03*
Y910000D02*
D03*
Y1020000D02*
D03*
Y1070000D02*
D03*
X675000Y960000D02*
D03*
Y910000D02*
D03*
X66141Y152500D02*
D03*
Y202500D02*
D03*
M02*
