G04*
G04 #@! TF.GenerationSoftware,Altium Limited,Altium Designer,26.3.0 (6)*
G04*
G04 Layer_Color=16711935*
%FSLAX44Y44*%
%MOMM*%
G71*
G04*
G04 #@! TF.SameCoordinates,C73D5564-9998-425E-B212-E170596909CB*
G04*
G04*
G04 #@! TF.FilePolarity,Negative*
G04*
G01*
G75*
%ADD19R,0.8000X0.5000*%
%ADD20R,0.5000X0.8000*%
%ADD23R,1.6986X0.9906*%
%ADD24R,0.9620X0.7620*%
%ADD25R,0.9906X1.6986*%
%ADD26R,0.7620X0.9620*%
%ADD27R,0.8580X1.2723*%
%ADD28R,1.2723X0.8580*%
%ADD32R,1.3160X1.3160*%
%ADD33R,1.3160X1.3160*%
%ADD34R,1.6000X2.1000*%
%ADD35R,2.1000X1.6000*%
%ADD67R,2.2500X2.0000*%
%ADD75R,2.3000X1.3000*%
%ADD77C,2.2500*%
%ADD78C,1.6716*%
%ADD79C,1.9510*%
%ADD80R,1.9510X1.9510*%
%ADD81C,6.3000*%
%ADD82O,1.2906X2.4082*%
%ADD83O,1.2906X2.1034*%
%ADD84C,0.6604*%
%ADD85R,6.3000X6.3000*%
%ADD86C,0.8532*%
%ADD88C,5.3000*%
%ADD181R,1.8500X2.5000*%
%ADD182R,1.2500X0.7000*%
%ADD183R,0.7000X1.2500*%
%ADD184R,0.6050X1.0500*%
%ADD185R,1.0500X0.6050*%
%ADD186R,2.4600X2.4600*%
%ADD187R,2.0000X2.2500*%
%ADD188R,3.8000X1.3500*%
G36*
X352668Y1026243D02*
X352834Y1026215D01*
X352996Y1026168D01*
X353152Y1026104D01*
X353299Y1026022D01*
X353437Y1025925D01*
X353562Y1025812D01*
X353675Y1025687D01*
X353772Y1025549D01*
X353854Y1025402D01*
X353918Y1025246D01*
X353965Y1025084D01*
X353993Y1024918D01*
X354002Y1024750D01*
Y1009750D01*
X353993Y1009582D01*
X353965Y1009416D01*
X353918Y1009254D01*
X353854Y1009098D01*
X353772Y1008951D01*
X353675Y1008813D01*
X353562Y1008688D01*
X353437Y1008575D01*
X353299Y1008478D01*
X353152Y1008396D01*
X352996Y1008332D01*
X352834Y1008285D01*
X352668Y1008257D01*
X352500Y1008248D01*
X345000D01*
X344989Y1008248D01*
X344978Y1008248D01*
X344905Y1008253D01*
X344832Y1008257D01*
X344821Y1008259D01*
X344810Y1008260D01*
X344737Y1008273D01*
X344666Y1008285D01*
X344655Y1008288D01*
X344644Y1008290D01*
X344574Y1008312D01*
X344504Y1008332D01*
X344493Y1008336D01*
X344483Y1008339D01*
X344416Y1008368D01*
X344348Y1008396D01*
X344338Y1008402D01*
X344328Y1008406D01*
X344265Y1008442D01*
X344201Y1008478D01*
X344192Y1008484D01*
X344182Y1008490D01*
X344123Y1008533D01*
X344063Y1008575D01*
X344055Y1008583D01*
X344046Y1008589D01*
X343992Y1008639D01*
X343938Y1008688D01*
X343930Y1008696D01*
X343922Y1008704D01*
X343874Y1008759D01*
X343825Y1008813D01*
X343819Y1008822D01*
X343812Y1008831D01*
X343770Y1008891D01*
X343750Y1008919D01*
X343717Y1008873D01*
X343675Y1008813D01*
X343667Y1008805D01*
X343661Y1008796D01*
X343611Y1008742D01*
X343562Y1008688D01*
X343554Y1008680D01*
X343546Y1008672D01*
X343491Y1008624D01*
X343437Y1008575D01*
X343428Y1008569D01*
X343419Y1008562D01*
X343358Y1008520D01*
X343299Y1008478D01*
X343290Y1008473D01*
X343280Y1008466D01*
X343216Y1008432D01*
X343152Y1008396D01*
X343142Y1008392D01*
X343132Y1008387D01*
X343064Y1008360D01*
X342996Y1008332D01*
X342985Y1008329D01*
X342975Y1008325D01*
X342905Y1008306D01*
X342834Y1008285D01*
X342823Y1008283D01*
X342812Y1008280D01*
X342740Y1008269D01*
X342668Y1008257D01*
X342657Y1008257D01*
X342646Y1008255D01*
X342572Y1008252D01*
X342500Y1008248D01*
X331500D01*
X331332Y1008257D01*
X331166Y1008285D01*
X331004Y1008332D01*
X330848Y1008396D01*
X330701Y1008478D01*
X330563Y1008575D01*
X330438Y1008688D01*
X330325Y1008813D01*
X330228Y1008951D01*
X330146Y1009098D01*
X330082Y1009254D01*
X330035Y1009416D01*
X330007Y1009582D01*
X329998Y1009750D01*
Y1024750D01*
X330007Y1024918D01*
X330035Y1025084D01*
X330082Y1025246D01*
X330146Y1025402D01*
X330228Y1025549D01*
X330325Y1025687D01*
X330438Y1025812D01*
X330563Y1025925D01*
X330701Y1026022D01*
X330848Y1026104D01*
X331004Y1026168D01*
X331166Y1026215D01*
X331332Y1026243D01*
X331500Y1026252D01*
X342500D01*
X342573Y1026248D01*
X342646Y1026245D01*
X342657Y1026244D01*
X342668Y1026243D01*
X342740Y1026231D01*
X342812Y1026219D01*
X342823Y1026217D01*
X342834Y1026215D01*
X342905Y1026195D01*
X342975Y1026175D01*
X342985Y1026171D01*
X342996Y1026168D01*
X343064Y1026140D01*
X343132Y1026113D01*
X343142Y1026108D01*
X343152Y1026104D01*
X343216Y1026068D01*
X343280Y1026034D01*
X343290Y1026028D01*
X343299Y1026022D01*
X343359Y1025980D01*
X343419Y1025938D01*
X343428Y1025931D01*
X343437Y1025925D01*
X343491Y1025876D01*
X343546Y1025828D01*
X343554Y1025820D01*
X343562Y1025812D01*
X343611Y1025758D01*
X343661Y1025704D01*
X343667Y1025695D01*
X343675Y1025687D01*
X343717Y1025627D01*
X343750Y1025581D01*
X343770Y1025609D01*
X343812Y1025669D01*
X343819Y1025678D01*
X343825Y1025687D01*
X343874Y1025741D01*
X343922Y1025796D01*
X343930Y1025804D01*
X343938Y1025812D01*
X343992Y1025861D01*
X344046Y1025911D01*
X344055Y1025917D01*
X344063Y1025925D01*
X344123Y1025967D01*
X344182Y1026010D01*
X344192Y1026016D01*
X344201Y1026022D01*
X344265Y1026058D01*
X344328Y1026094D01*
X344338Y1026098D01*
X344348Y1026104D01*
X344415Y1026132D01*
X344483Y1026161D01*
X344493Y1026164D01*
X344504Y1026168D01*
X344574Y1026188D01*
X344644Y1026210D01*
X344655Y1026212D01*
X344666Y1026215D01*
X344737Y1026227D01*
X344810Y1026240D01*
X344821Y1026241D01*
X344832Y1026243D01*
X344904Y1026247D01*
X344978Y1026252D01*
X344989Y1026252D01*
X345000Y1026252D01*
X352500D01*
X352668Y1026243D01*
D02*
G37*
G36*
X382168Y1026493D02*
X382334Y1026465D01*
X382496Y1026418D01*
X382652Y1026354D01*
X382799Y1026272D01*
X382937Y1026175D01*
X383062Y1026062D01*
X383175Y1025937D01*
X383272Y1025799D01*
X383354Y1025652D01*
X383418Y1025496D01*
X383465Y1025334D01*
X383493Y1025168D01*
X383502Y1025000D01*
Y1010000D01*
X383493Y1009832D01*
X383465Y1009666D01*
X383418Y1009504D01*
X383354Y1009348D01*
X383272Y1009201D01*
X383175Y1009063D01*
X383062Y1008938D01*
X382937Y1008825D01*
X382799Y1008728D01*
X382652Y1008646D01*
X382496Y1008582D01*
X382334Y1008535D01*
X382168Y1008507D01*
X382000Y1008498D01*
X371000D01*
X370927Y1008502D01*
X370854Y1008505D01*
X370843Y1008506D01*
X370832Y1008507D01*
X370760Y1008519D01*
X370687Y1008531D01*
X370677Y1008533D01*
X370666Y1008535D01*
X370595Y1008556D01*
X370525Y1008575D01*
X370514Y1008579D01*
X370504Y1008582D01*
X370436Y1008610D01*
X370368Y1008637D01*
X370359Y1008642D01*
X370348Y1008646D01*
X370284Y1008682D01*
X370220Y1008716D01*
X370210Y1008723D01*
X370201Y1008728D01*
X370141Y1008770D01*
X370081Y1008812D01*
X370073Y1008819D01*
X370063Y1008825D01*
X370009Y1008874D01*
X369954Y1008922D01*
X369946Y1008930D01*
X369938Y1008938D01*
X369889Y1008992D01*
X369839Y1009046D01*
X369833Y1009055D01*
X369825Y1009063D01*
X369783Y1009123D01*
X369749Y1009169D01*
X369730Y1009141D01*
X369688Y1009081D01*
X369681Y1009072D01*
X369675Y1009063D01*
X369626Y1009009D01*
X369578Y1008954D01*
X369570Y1008946D01*
X369562Y1008938D01*
X369508Y1008889D01*
X369454Y1008839D01*
X369445Y1008833D01*
X369437Y1008825D01*
X369377Y1008783D01*
X369318Y1008740D01*
X369309Y1008734D01*
X369299Y1008728D01*
X369235Y1008693D01*
X369172Y1008656D01*
X369162Y1008652D01*
X369152Y1008646D01*
X369085Y1008619D01*
X369017Y1008589D01*
X369007Y1008586D01*
X368996Y1008582D01*
X368926Y1008562D01*
X368856Y1008540D01*
X368845Y1008538D01*
X368834Y1008535D01*
X368763Y1008523D01*
X368690Y1008510D01*
X368679Y1008509D01*
X368668Y1008507D01*
X368596Y1008503D01*
X368522Y1008498D01*
X368511Y1008498D01*
X368500Y1008498D01*
X361000D01*
X360832Y1008507D01*
X360666Y1008535D01*
X360504Y1008582D01*
X360348Y1008646D01*
X360201Y1008728D01*
X360063Y1008825D01*
X359938Y1008938D01*
X359825Y1009063D01*
X359728Y1009201D01*
X359646Y1009348D01*
X359582Y1009504D01*
X359535Y1009666D01*
X359507Y1009832D01*
X359498Y1010000D01*
Y1025000D01*
X359507Y1025168D01*
X359535Y1025334D01*
X359582Y1025496D01*
X359646Y1025652D01*
X359728Y1025799D01*
X359825Y1025937D01*
X359938Y1026062D01*
X360063Y1026175D01*
X360201Y1026272D01*
X360348Y1026354D01*
X360504Y1026418D01*
X360666Y1026465D01*
X360832Y1026493D01*
X361000Y1026502D01*
X368500D01*
X368511Y1026502D01*
X368522Y1026502D01*
X368595Y1026497D01*
X368668Y1026493D01*
X368679Y1026491D01*
X368690Y1026490D01*
X368763Y1026477D01*
X368834Y1026465D01*
X368845Y1026462D01*
X368856Y1026460D01*
X368926Y1026438D01*
X368996Y1026418D01*
X369007Y1026414D01*
X369017Y1026411D01*
X369084Y1026382D01*
X369152Y1026354D01*
X369162Y1026348D01*
X369172Y1026344D01*
X369235Y1026308D01*
X369299Y1026272D01*
X369309Y1026266D01*
X369318Y1026260D01*
X369377Y1026217D01*
X369437Y1026175D01*
X369445Y1026167D01*
X369454Y1026161D01*
X369508Y1026111D01*
X369562Y1026062D01*
X369570Y1026054D01*
X369578Y1026047D01*
X369626Y1025991D01*
X369675Y1025937D01*
X369681Y1025928D01*
X369688Y1025919D01*
X369730Y1025859D01*
X369749Y1025831D01*
X369783Y1025877D01*
X369825Y1025937D01*
X369833Y1025945D01*
X369839Y1025954D01*
X369889Y1026008D01*
X369938Y1026062D01*
X369946Y1026070D01*
X369954Y1026078D01*
X370009Y1026126D01*
X370063Y1026175D01*
X370072Y1026181D01*
X370081Y1026188D01*
X370141Y1026230D01*
X370201Y1026272D01*
X370210Y1026277D01*
X370220Y1026284D01*
X370284Y1026318D01*
X370348Y1026354D01*
X370359Y1026358D01*
X370368Y1026363D01*
X370436Y1026390D01*
X370504Y1026418D01*
X370514Y1026421D01*
X370525Y1026425D01*
X370595Y1026444D01*
X370666Y1026465D01*
X370677Y1026467D01*
X370687Y1026469D01*
X370760Y1026481D01*
X370832Y1026493D01*
X370843Y1026494D01*
X370854Y1026495D01*
X370928Y1026498D01*
X371000Y1026502D01*
X382000D01*
X382168Y1026493D01*
D02*
G37*
G36*
X708668Y853993D02*
X708834Y853965D01*
X708996Y853918D01*
X709152Y853854D01*
X709299Y853772D01*
X709437Y853675D01*
X709562Y853562D01*
X709675Y853437D01*
X709772Y853299D01*
X709854Y853152D01*
X709918Y852996D01*
X709965Y852834D01*
X709993Y852668D01*
X710002Y852500D01*
Y845000D01*
X710002Y844989D01*
X710002Y844978D01*
X709997Y844905D01*
X709993Y844832D01*
X709991Y844821D01*
X709990Y844810D01*
X709977Y844737D01*
X709965Y844666D01*
X709962Y844655D01*
X709960Y844644D01*
X709938Y844574D01*
X709918Y844504D01*
X709914Y844494D01*
X709911Y844483D01*
X709882Y844416D01*
X709854Y844348D01*
X709848Y844338D01*
X709844Y844328D01*
X709808Y844265D01*
X709772Y844201D01*
X709766Y844192D01*
X709760Y844182D01*
X709717Y844123D01*
X709675Y844063D01*
X709667Y844055D01*
X709661Y844046D01*
X709611Y843992D01*
X709562Y843938D01*
X709554Y843930D01*
X709546Y843922D01*
X709491Y843874D01*
X709437Y843825D01*
X709428Y843819D01*
X709419Y843812D01*
X709359Y843770D01*
X709331Y843751D01*
X709377Y843717D01*
X709437Y843675D01*
X709445Y843667D01*
X709454Y843661D01*
X709508Y843611D01*
X709562Y843562D01*
X709570Y843554D01*
X709578Y843546D01*
X709626Y843491D01*
X709675Y843437D01*
X709681Y843428D01*
X709688Y843419D01*
X709730Y843359D01*
X709772Y843299D01*
X709777Y843290D01*
X709784Y843280D01*
X709818Y843216D01*
X709854Y843152D01*
X709858Y843141D01*
X709863Y843132D01*
X709890Y843064D01*
X709918Y842996D01*
X709921Y842986D01*
X709925Y842975D01*
X709945Y842905D01*
X709965Y842834D01*
X709967Y842823D01*
X709969Y842812D01*
X709981Y842740D01*
X709993Y842668D01*
X709994Y842657D01*
X709995Y842646D01*
X709998Y842572D01*
X710002Y842500D01*
Y831500D01*
X709993Y831332D01*
X709965Y831166D01*
X709918Y831004D01*
X709854Y830848D01*
X709772Y830701D01*
X709675Y830563D01*
X709562Y830438D01*
X709437Y830325D01*
X709299Y830228D01*
X709152Y830146D01*
X708996Y830082D01*
X708834Y830035D01*
X708668Y830007D01*
X708500Y829998D01*
X693500D01*
X693332Y830007D01*
X693166Y830035D01*
X693004Y830082D01*
X692848Y830146D01*
X692701Y830228D01*
X692563Y830325D01*
X692438Y830438D01*
X692325Y830563D01*
X692228Y830701D01*
X692146Y830848D01*
X692082Y831004D01*
X692035Y831166D01*
X692007Y831332D01*
X691998Y831500D01*
Y842500D01*
X692002Y842573D01*
X692005Y842646D01*
X692006Y842657D01*
X692007Y842668D01*
X692019Y842740D01*
X692030Y842812D01*
X692033Y842823D01*
X692035Y842834D01*
X692056Y842905D01*
X692075Y842975D01*
X692079Y842986D01*
X692082Y842996D01*
X692110Y843064D01*
X692137Y843132D01*
X692142Y843141D01*
X692146Y843152D01*
X692182Y843216D01*
X692216Y843280D01*
X692223Y843290D01*
X692228Y843299D01*
X692270Y843359D01*
X692312Y843419D01*
X692319Y843428D01*
X692325Y843437D01*
X692374Y843491D01*
X692422Y843546D01*
X692430Y843554D01*
X692438Y843562D01*
X692492Y843611D01*
X692546Y843661D01*
X692555Y843667D01*
X692563Y843675D01*
X692623Y843717D01*
X692669Y843751D01*
X692641Y843770D01*
X692581Y843812D01*
X692572Y843819D01*
X692563Y843825D01*
X692509Y843874D01*
X692454Y843922D01*
X692446Y843930D01*
X692438Y843938D01*
X692389Y843992D01*
X692339Y844046D01*
X692333Y844055D01*
X692325Y844063D01*
X692283Y844123D01*
X692240Y844182D01*
X692234Y844192D01*
X692228Y844201D01*
X692193Y844265D01*
X692156Y844328D01*
X692152Y844338D01*
X692146Y844348D01*
X692119Y844415D01*
X692089Y844483D01*
X692086Y844494D01*
X692082Y844504D01*
X692062Y844574D01*
X692040Y844644D01*
X692038Y844655D01*
X692035Y844666D01*
X692023Y844737D01*
X692010Y844810D01*
X692009Y844821D01*
X692007Y844832D01*
X692003Y844904D01*
X691998Y844978D01*
X691998Y844989D01*
X691998Y845000D01*
Y852500D01*
X692007Y852668D01*
X692035Y852834D01*
X692082Y852996D01*
X692146Y853152D01*
X692228Y853299D01*
X692325Y853437D01*
X692438Y853562D01*
X692563Y853675D01*
X692701Y853772D01*
X692848Y853854D01*
X693004Y853918D01*
X693166Y853965D01*
X693332Y853993D01*
X693500Y854002D01*
X708500D01*
X708668Y853993D01*
D02*
G37*
G36*
X737418Y853493D02*
X737584Y853465D01*
X737746Y853418D01*
X737902Y853354D01*
X738049Y853272D01*
X738187Y853175D01*
X738312Y853062D01*
X738425Y852937D01*
X738522Y852799D01*
X738604Y852652D01*
X738668Y852496D01*
X738715Y852334D01*
X738743Y852168D01*
X738752Y852000D01*
Y841000D01*
X738748Y840927D01*
X738745Y840854D01*
X738744Y840843D01*
X738743Y840832D01*
X738731Y840760D01*
X738719Y840687D01*
X738717Y840677D01*
X738715Y840666D01*
X738694Y840595D01*
X738675Y840525D01*
X738671Y840515D01*
X738668Y840504D01*
X738640Y840436D01*
X738613Y840368D01*
X738608Y840359D01*
X738604Y840348D01*
X738568Y840284D01*
X738534Y840220D01*
X738528Y840210D01*
X738522Y840201D01*
X738480Y840141D01*
X738438Y840081D01*
X738431Y840073D01*
X738425Y840063D01*
X738376Y840009D01*
X738328Y839954D01*
X738320Y839946D01*
X738312Y839938D01*
X738258Y839889D01*
X738204Y839839D01*
X738195Y839833D01*
X738187Y839825D01*
X738127Y839783D01*
X738081Y839750D01*
X738109Y839730D01*
X738169Y839688D01*
X738178Y839681D01*
X738187Y839675D01*
X738241Y839626D01*
X738296Y839578D01*
X738304Y839570D01*
X738312Y839562D01*
X738361Y839508D01*
X738410Y839454D01*
X738417Y839445D01*
X738425Y839437D01*
X738467Y839377D01*
X738510Y839318D01*
X738516Y839308D01*
X738522Y839299D01*
X738557Y839235D01*
X738594Y839172D01*
X738598Y839162D01*
X738604Y839152D01*
X738631Y839085D01*
X738661Y839017D01*
X738664Y839007D01*
X738668Y838996D01*
X738688Y838926D01*
X738709Y838856D01*
X738712Y838845D01*
X738715Y838834D01*
X738727Y838763D01*
X738740Y838690D01*
X738741Y838679D01*
X738743Y838668D01*
X738747Y838596D01*
X738752Y838522D01*
X738752Y838511D01*
X738752Y838500D01*
Y831000D01*
X738743Y830832D01*
X738715Y830666D01*
X738668Y830504D01*
X738604Y830348D01*
X738522Y830201D01*
X738425Y830063D01*
X738312Y829938D01*
X738187Y829825D01*
X738049Y829728D01*
X737902Y829646D01*
X737746Y829582D01*
X737584Y829535D01*
X737418Y829507D01*
X737250Y829498D01*
X722250D01*
X722082Y829507D01*
X721916Y829535D01*
X721754Y829582D01*
X721598Y829646D01*
X721451Y829728D01*
X721313Y829825D01*
X721188Y829938D01*
X721075Y830063D01*
X720978Y830201D01*
X720896Y830348D01*
X720832Y830504D01*
X720785Y830666D01*
X720757Y830832D01*
X720748Y831000D01*
Y838500D01*
X720748Y838511D01*
X720748Y838522D01*
X720753Y838595D01*
X720757Y838668D01*
X720759Y838679D01*
X720760Y838690D01*
X720773Y838763D01*
X720785Y838834D01*
X720788Y838845D01*
X720790Y838856D01*
X720812Y838926D01*
X720832Y838996D01*
X720836Y839007D01*
X720839Y839017D01*
X720868Y839084D01*
X720896Y839152D01*
X720902Y839162D01*
X720906Y839172D01*
X720942Y839235D01*
X720978Y839299D01*
X720984Y839308D01*
X720990Y839318D01*
X721033Y839377D01*
X721075Y839437D01*
X721083Y839445D01*
X721089Y839454D01*
X721139Y839508D01*
X721188Y839562D01*
X721196Y839570D01*
X721204Y839578D01*
X721259Y839626D01*
X721313Y839675D01*
X721322Y839681D01*
X721331Y839688D01*
X721391Y839730D01*
X721419Y839750D01*
X721373Y839783D01*
X721313Y839825D01*
X721305Y839833D01*
X721296Y839839D01*
X721242Y839889D01*
X721188Y839938D01*
X721180Y839946D01*
X721172Y839954D01*
X721124Y840009D01*
X721075Y840063D01*
X721069Y840072D01*
X721062Y840081D01*
X721020Y840142D01*
X720978Y840201D01*
X720973Y840210D01*
X720966Y840220D01*
X720932Y840284D01*
X720896Y840348D01*
X720892Y840359D01*
X720887Y840368D01*
X720860Y840436D01*
X720832Y840504D01*
X720829Y840515D01*
X720825Y840525D01*
X720806Y840595D01*
X720785Y840666D01*
X720783Y840677D01*
X720780Y840687D01*
X720769Y840760D01*
X720757Y840832D01*
X720756Y840843D01*
X720755Y840854D01*
X720752Y840928D01*
X720748Y841000D01*
Y852000D01*
X720757Y852168D01*
X720785Y852334D01*
X720832Y852496D01*
X720896Y852652D01*
X720978Y852799D01*
X721075Y852937D01*
X721188Y853062D01*
X721313Y853175D01*
X721451Y853272D01*
X721598Y853354D01*
X721754Y853418D01*
X721916Y853465D01*
X722082Y853493D01*
X722250Y853502D01*
X737250D01*
X737418Y853493D01*
D02*
G37*
G36*
X100168Y498993D02*
X100334Y498965D01*
X100496Y498918D01*
X100652Y498854D01*
X100799Y498772D01*
X100937Y498675D01*
X101062Y498562D01*
X101175Y498437D01*
X101272Y498299D01*
X101354Y498152D01*
X101418Y497996D01*
X101465Y497834D01*
X101493Y497668D01*
X101502Y497500D01*
Y482500D01*
X101493Y482332D01*
X101465Y482166D01*
X101418Y482004D01*
X101354Y481848D01*
X101272Y481701D01*
X101175Y481563D01*
X101062Y481438D01*
X100937Y481325D01*
X100799Y481228D01*
X100652Y481146D01*
X100496Y481082D01*
X100334Y481035D01*
X100168Y481007D01*
X100000Y480998D01*
X89000D01*
X88927Y481002D01*
X88854Y481005D01*
X88843Y481007D01*
X88832Y481007D01*
X88760Y481019D01*
X88687Y481031D01*
X88677Y481033D01*
X88666Y481035D01*
X88596Y481056D01*
X88525Y481075D01*
X88514Y481079D01*
X88504Y481082D01*
X88436Y481110D01*
X88368Y481137D01*
X88358Y481142D01*
X88348Y481146D01*
X88284Y481182D01*
X88220Y481216D01*
X88210Y481222D01*
X88201Y481228D01*
X88141Y481270D01*
X88081Y481312D01*
X88073Y481319D01*
X88063Y481325D01*
X88009Y481374D01*
X87954Y481422D01*
X87946Y481430D01*
X87938Y481438D01*
X87889Y481492D01*
X87839Y481546D01*
X87833Y481555D01*
X87825Y481563D01*
X87783Y481623D01*
X87750Y481669D01*
X87730Y481641D01*
X87688Y481581D01*
X87681Y481572D01*
X87675Y481563D01*
X87626Y481509D01*
X87578Y481454D01*
X87570Y481446D01*
X87562Y481438D01*
X87508Y481389D01*
X87454Y481339D01*
X87445Y481333D01*
X87437Y481325D01*
X87377Y481283D01*
X87318Y481240D01*
X87309Y481234D01*
X87299Y481228D01*
X87235Y481193D01*
X87172Y481156D01*
X87162Y481152D01*
X87152Y481146D01*
X87085Y481119D01*
X87017Y481090D01*
X87007Y481086D01*
X86996Y481082D01*
X86926Y481062D01*
X86856Y481040D01*
X86845Y481038D01*
X86834Y481035D01*
X86763Y481023D01*
X86690Y481010D01*
X86679Y481009D01*
X86668Y481007D01*
X86596Y481003D01*
X86522Y480998D01*
X86511Y480998D01*
X86500Y480998D01*
X79000D01*
X78832Y481007D01*
X78666Y481035D01*
X78504Y481082D01*
X78348Y481146D01*
X78201Y481228D01*
X78063Y481325D01*
X77938Y481438D01*
X77825Y481563D01*
X77728Y481701D01*
X77646Y481848D01*
X77582Y482004D01*
X77535Y482166D01*
X77507Y482332D01*
X77498Y482500D01*
Y497500D01*
X77507Y497668D01*
X77535Y497834D01*
X77582Y497996D01*
X77646Y498152D01*
X77728Y498299D01*
X77825Y498437D01*
X77938Y498562D01*
X78063Y498675D01*
X78201Y498772D01*
X78348Y498854D01*
X78504Y498918D01*
X78666Y498965D01*
X78832Y498993D01*
X79000Y499002D01*
X86500D01*
X86511Y499002D01*
X86522Y499002D01*
X86595Y498997D01*
X86668Y498993D01*
X86679Y498991D01*
X86690Y498990D01*
X86763Y498977D01*
X86834Y498965D01*
X86845Y498962D01*
X86856Y498960D01*
X86926Y498938D01*
X86996Y498918D01*
X87007Y498914D01*
X87017Y498911D01*
X87084Y498882D01*
X87152Y498854D01*
X87162Y498848D01*
X87172Y498844D01*
X87235Y498808D01*
X87299Y498772D01*
X87309Y498766D01*
X87318Y498760D01*
X87377Y498717D01*
X87437Y498675D01*
X87445Y498667D01*
X87454Y498661D01*
X87508Y498611D01*
X87562Y498562D01*
X87570Y498554D01*
X87578Y498546D01*
X87626Y498491D01*
X87675Y498437D01*
X87681Y498428D01*
X87688Y498419D01*
X87730Y498359D01*
X87750Y498331D01*
X87783Y498377D01*
X87825Y498437D01*
X87833Y498445D01*
X87839Y498454D01*
X87889Y498508D01*
X87938Y498562D01*
X87946Y498570D01*
X87954Y498578D01*
X88009Y498626D01*
X88063Y498675D01*
X88072Y498681D01*
X88081Y498688D01*
X88141Y498730D01*
X88201Y498772D01*
X88210Y498778D01*
X88220Y498784D01*
X88284Y498818D01*
X88348Y498854D01*
X88358Y498858D01*
X88368Y498863D01*
X88436Y498890D01*
X88504Y498918D01*
X88514Y498921D01*
X88525Y498925D01*
X88596Y498945D01*
X88666Y498965D01*
X88677Y498967D01*
X88687Y498969D01*
X88760Y498981D01*
X88832Y498993D01*
X88843Y498994D01*
X88854Y498995D01*
X88928Y498998D01*
X89000Y499002D01*
X100000D01*
X100168Y498993D01*
D02*
G37*
G36*
X42668D02*
X42834Y498965D01*
X42996Y498918D01*
X43152Y498854D01*
X43299Y498772D01*
X43437Y498675D01*
X43562Y498562D01*
X43675Y498437D01*
X43772Y498299D01*
X43854Y498152D01*
X43918Y497996D01*
X43965Y497834D01*
X43993Y497668D01*
X44002Y497500D01*
Y482500D01*
X43993Y482332D01*
X43965Y482166D01*
X43918Y482004D01*
X43854Y481848D01*
X43772Y481701D01*
X43675Y481563D01*
X43562Y481438D01*
X43437Y481325D01*
X43299Y481228D01*
X43152Y481146D01*
X42996Y481082D01*
X42834Y481035D01*
X42668Y481007D01*
X42500Y480998D01*
X31500D01*
X31427Y481002D01*
X31354Y481005D01*
X31343Y481007D01*
X31332Y481007D01*
X31260Y481019D01*
X31188Y481031D01*
X31177Y481033D01*
X31166Y481035D01*
X31095Y481056D01*
X31025Y481075D01*
X31014Y481079D01*
X31004Y481082D01*
X30936Y481110D01*
X30868Y481137D01*
X30859Y481142D01*
X30848Y481146D01*
X30784Y481182D01*
X30720Y481216D01*
X30710Y481222D01*
X30701Y481228D01*
X30641Y481270D01*
X30581Y481312D01*
X30573Y481319D01*
X30563Y481325D01*
X30509Y481374D01*
X30454Y481422D01*
X30446Y481430D01*
X30438Y481438D01*
X30389Y481492D01*
X30340Y481546D01*
X30333Y481555D01*
X30325Y481563D01*
X30283Y481623D01*
X30250Y481669D01*
X30230Y481641D01*
X30188Y481581D01*
X30181Y481572D01*
X30175Y481563D01*
X30126Y481509D01*
X30078Y481454D01*
X30070Y481446D01*
X30062Y481438D01*
X30008Y481389D01*
X29954Y481339D01*
X29945Y481333D01*
X29937Y481325D01*
X29877Y481283D01*
X29818Y481240D01*
X29808Y481234D01*
X29799Y481228D01*
X29735Y481193D01*
X29672Y481156D01*
X29662Y481152D01*
X29652Y481146D01*
X29585Y481119D01*
X29517Y481090D01*
X29506Y481086D01*
X29496Y481082D01*
X29426Y481062D01*
X29356Y481040D01*
X29345Y481038D01*
X29334Y481035D01*
X29263Y481023D01*
X29190Y481010D01*
X29179Y481009D01*
X29168Y481007D01*
X29096Y481003D01*
X29022Y480998D01*
X29011Y480998D01*
X29000Y480998D01*
X21500D01*
X21332Y481007D01*
X21166Y481035D01*
X21004Y481082D01*
X20848Y481146D01*
X20701Y481228D01*
X20563Y481325D01*
X20438Y481438D01*
X20325Y481563D01*
X20228Y481701D01*
X20146Y481848D01*
X20082Y482004D01*
X20035Y482166D01*
X20007Y482332D01*
X19998Y482500D01*
Y497500D01*
X20007Y497668D01*
X20035Y497834D01*
X20082Y497996D01*
X20146Y498152D01*
X20228Y498299D01*
X20325Y498437D01*
X20438Y498562D01*
X20563Y498675D01*
X20701Y498772D01*
X20848Y498854D01*
X21004Y498918D01*
X21166Y498965D01*
X21332Y498993D01*
X21500Y499002D01*
X29000D01*
X29011Y499002D01*
X29022Y499002D01*
X29095Y498997D01*
X29168Y498993D01*
X29179Y498991D01*
X29190Y498990D01*
X29263Y498977D01*
X29334Y498965D01*
X29345Y498962D01*
X29356Y498960D01*
X29426Y498938D01*
X29496Y498918D01*
X29506Y498914D01*
X29517Y498911D01*
X29584Y498882D01*
X29652Y498854D01*
X29662Y498848D01*
X29672Y498844D01*
X29735Y498808D01*
X29799Y498772D01*
X29808Y498766D01*
X29818Y498760D01*
X29877Y498717D01*
X29937Y498675D01*
X29945Y498667D01*
X29954Y498661D01*
X30008Y498611D01*
X30062Y498562D01*
X30070Y498554D01*
X30078Y498546D01*
X30126Y498491D01*
X30175Y498437D01*
X30181Y498428D01*
X30188Y498419D01*
X30230Y498359D01*
X30250Y498331D01*
X30283Y498377D01*
X30325Y498437D01*
X30333Y498445D01*
X30340Y498454D01*
X30389Y498508D01*
X30438Y498562D01*
X30446Y498570D01*
X30454Y498578D01*
X30509Y498626D01*
X30563Y498675D01*
X30572Y498681D01*
X30581Y498688D01*
X30641Y498730D01*
X30701Y498772D01*
X30710Y498778D01*
X30720Y498784D01*
X30784Y498818D01*
X30848Y498854D01*
X30859Y498858D01*
X30868Y498863D01*
X30936Y498890D01*
X31004Y498918D01*
X31014Y498921D01*
X31025Y498925D01*
X31095Y498945D01*
X31166Y498965D01*
X31177Y498967D01*
X31188Y498969D01*
X31260Y498981D01*
X31332Y498993D01*
X31343Y498994D01*
X31354Y498995D01*
X31428Y498998D01*
X31500Y499002D01*
X42500D01*
X42668Y498993D01*
D02*
G37*
G36*
X42851Y468993D02*
X43017Y468965D01*
X43179Y468918D01*
X43334Y468854D01*
X43482Y468772D01*
X43619Y468675D01*
X43745Y468562D01*
X43857Y468437D01*
X43954Y468299D01*
X44036Y468152D01*
X44100Y467996D01*
X44147Y467834D01*
X44175Y467668D01*
X44185Y467500D01*
Y452500D01*
X44175Y452332D01*
X44147Y452166D01*
X44100Y452004D01*
X44036Y451848D01*
X43954Y451701D01*
X43857Y451563D01*
X43745Y451438D01*
X43619Y451325D01*
X43482Y451228D01*
X43334Y451146D01*
X43179Y451082D01*
X43017Y451035D01*
X42851Y451007D01*
X42682Y450998D01*
X35182D01*
X35171Y450998D01*
X35160Y450998D01*
X35087Y451003D01*
X35014Y451007D01*
X35003Y451009D01*
X34992Y451010D01*
X34920Y451023D01*
X34848Y451035D01*
X34837Y451038D01*
X34826Y451040D01*
X34756Y451062D01*
X34686Y451082D01*
X34676Y451086D01*
X34665Y451089D01*
X34598Y451118D01*
X34530Y451146D01*
X34521Y451152D01*
X34511Y451156D01*
X34448Y451192D01*
X34383Y451228D01*
X34374Y451234D01*
X34364Y451240D01*
X34306Y451283D01*
X34246Y451325D01*
X34237Y451333D01*
X34228Y451339D01*
X34174Y451389D01*
X34120Y451438D01*
X34113Y451446D01*
X34104Y451454D01*
X34056Y451509D01*
X34008Y451563D01*
X34001Y451572D01*
X33994Y451581D01*
X33952Y451641D01*
X33933Y451669D01*
X33899Y451623D01*
X33857Y451563D01*
X33849Y451555D01*
X33843Y451546D01*
X33793Y451492D01*
X33745Y451438D01*
X33736Y451430D01*
X33729Y451422D01*
X33673Y451374D01*
X33619Y451325D01*
X33610Y451319D01*
X33602Y451312D01*
X33541Y451270D01*
X33482Y451228D01*
X33472Y451222D01*
X33463Y451216D01*
X33398Y451182D01*
X33334Y451146D01*
X33324Y451142D01*
X33314Y451137D01*
X33246Y451110D01*
X33179Y451082D01*
X33168Y451079D01*
X33157Y451075D01*
X33087Y451055D01*
X33017Y451035D01*
X33006Y451033D01*
X32995Y451031D01*
X32922Y451019D01*
X32851Y451007D01*
X32840Y451006D01*
X32828Y451005D01*
X32755Y451002D01*
X32682Y450998D01*
X21682D01*
X21514Y451007D01*
X21348Y451035D01*
X21186Y451082D01*
X21030Y451146D01*
X20883Y451228D01*
X20746Y451325D01*
X20620Y451438D01*
X20508Y451563D01*
X20410Y451701D01*
X20329Y451848D01*
X20264Y452004D01*
X20218Y452166D01*
X20189Y452332D01*
X20180Y452500D01*
Y467500D01*
X20189Y467668D01*
X20218Y467834D01*
X20264Y467996D01*
X20329Y468152D01*
X20410Y468299D01*
X20508Y468437D01*
X20620Y468562D01*
X20746Y468675D01*
X20883Y468772D01*
X21030Y468854D01*
X21186Y468918D01*
X21348Y468965D01*
X21514Y468993D01*
X21682Y469002D01*
X32682D01*
X32756Y468998D01*
X32828Y468995D01*
X32840Y468994D01*
X32851Y468993D01*
X32922Y468981D01*
X32995Y468969D01*
X33006Y468967D01*
X33017Y468965D01*
X33087Y468945D01*
X33157Y468925D01*
X33168Y468921D01*
X33179Y468918D01*
X33246Y468890D01*
X33314Y468863D01*
X33324Y468858D01*
X33334Y468854D01*
X33398Y468818D01*
X33463Y468784D01*
X33472Y468778D01*
X33482Y468772D01*
X33542Y468730D01*
X33602Y468688D01*
X33610Y468681D01*
X33619Y468675D01*
X33674Y468626D01*
X33729Y468578D01*
X33736Y468570D01*
X33745Y468562D01*
X33793Y468508D01*
X33843Y468454D01*
X33849Y468445D01*
X33857Y468437D01*
X33899Y468377D01*
X33933Y468331D01*
X33952Y468359D01*
X33994Y468419D01*
X34001Y468428D01*
X34008Y468437D01*
X34056Y468491D01*
X34104Y468546D01*
X34113Y468554D01*
X34120Y468562D01*
X34174Y468611D01*
X34228Y468661D01*
X34237Y468667D01*
X34246Y468675D01*
X34306Y468717D01*
X34364Y468760D01*
X34374Y468766D01*
X34383Y468772D01*
X34447Y468807D01*
X34511Y468844D01*
X34521Y468848D01*
X34530Y468854D01*
X34598Y468881D01*
X34665Y468910D01*
X34676Y468914D01*
X34686Y468918D01*
X34756Y468938D01*
X34826Y468960D01*
X34837Y468962D01*
X34848Y468965D01*
X34920Y468977D01*
X34992Y468990D01*
X35003Y468991D01*
X35014Y468993D01*
X35086Y468997D01*
X35160Y469002D01*
X35171Y469002D01*
X35182Y469002D01*
X42682D01*
X42851Y468993D01*
D02*
G37*
G36*
X100168D02*
X100334Y468965D01*
X100496Y468918D01*
X100652Y468854D01*
X100799Y468772D01*
X100937Y468675D01*
X101062Y468562D01*
X101175Y468437D01*
X101272Y468299D01*
X101354Y468152D01*
X101418Y467996D01*
X101465Y467834D01*
X101493Y467668D01*
X101502Y467500D01*
Y452500D01*
X101493Y452332D01*
X101465Y452166D01*
X101418Y452004D01*
X101354Y451848D01*
X101272Y451701D01*
X101175Y451563D01*
X101062Y451438D01*
X100937Y451325D01*
X100799Y451228D01*
X100652Y451146D01*
X100496Y451082D01*
X100334Y451035D01*
X100168Y451007D01*
X100000Y450998D01*
X89000D01*
X88927Y451002D01*
X88854Y451005D01*
X88843Y451006D01*
X88832Y451007D01*
X88760Y451019D01*
X88687Y451031D01*
X88677Y451033D01*
X88666Y451035D01*
X88596Y451055D01*
X88525Y451075D01*
X88514Y451079D01*
X88504Y451082D01*
X88436Y451110D01*
X88368Y451137D01*
X88358Y451142D01*
X88348Y451146D01*
X88284Y451182D01*
X88220Y451216D01*
X88210Y451222D01*
X88201Y451228D01*
X88141Y451270D01*
X88081Y451312D01*
X88073Y451319D01*
X88063Y451325D01*
X88009Y451374D01*
X87954Y451422D01*
X87946Y451430D01*
X87938Y451438D01*
X87889Y451492D01*
X87839Y451546D01*
X87833Y451555D01*
X87825Y451563D01*
X87783Y451623D01*
X87750Y451669D01*
X87730Y451641D01*
X87688Y451581D01*
X87681Y451572D01*
X87675Y451563D01*
X87626Y451509D01*
X87578Y451454D01*
X87570Y451446D01*
X87562Y451438D01*
X87508Y451389D01*
X87454Y451339D01*
X87445Y451333D01*
X87437Y451325D01*
X87377Y451283D01*
X87318Y451240D01*
X87309Y451234D01*
X87299Y451228D01*
X87235Y451193D01*
X87172Y451156D01*
X87162Y451152D01*
X87152Y451146D01*
X87085Y451119D01*
X87017Y451089D01*
X87007Y451086D01*
X86996Y451082D01*
X86926Y451062D01*
X86856Y451040D01*
X86845Y451038D01*
X86834Y451035D01*
X86763Y451023D01*
X86690Y451010D01*
X86679Y451009D01*
X86668Y451007D01*
X86596Y451003D01*
X86522Y450998D01*
X86511Y450998D01*
X86500Y450998D01*
X79000D01*
X78832Y451007D01*
X78666Y451035D01*
X78504Y451082D01*
X78348Y451146D01*
X78201Y451228D01*
X78063Y451325D01*
X77938Y451438D01*
X77825Y451563D01*
X77728Y451701D01*
X77646Y451848D01*
X77582Y452004D01*
X77535Y452166D01*
X77507Y452332D01*
X77498Y452500D01*
Y467500D01*
X77507Y467668D01*
X77535Y467834D01*
X77582Y467996D01*
X77646Y468152D01*
X77728Y468299D01*
X77825Y468437D01*
X77938Y468562D01*
X78063Y468675D01*
X78201Y468772D01*
X78348Y468854D01*
X78504Y468918D01*
X78666Y468965D01*
X78832Y468993D01*
X79000Y469002D01*
X86500D01*
X86511Y469002D01*
X86522Y469002D01*
X86595Y468997D01*
X86668Y468993D01*
X86679Y468991D01*
X86690Y468990D01*
X86763Y468977D01*
X86834Y468965D01*
X86845Y468962D01*
X86856Y468960D01*
X86926Y468938D01*
X86996Y468918D01*
X87007Y468914D01*
X87017Y468910D01*
X87084Y468882D01*
X87152Y468854D01*
X87162Y468848D01*
X87172Y468844D01*
X87235Y468808D01*
X87299Y468772D01*
X87309Y468766D01*
X87318Y468760D01*
X87377Y468717D01*
X87437Y468675D01*
X87445Y468667D01*
X87454Y468661D01*
X87508Y468611D01*
X87562Y468562D01*
X87570Y468554D01*
X87578Y468546D01*
X87626Y468491D01*
X87675Y468437D01*
X87681Y468428D01*
X87688Y468419D01*
X87730Y468359D01*
X87750Y468331D01*
X87783Y468377D01*
X87825Y468437D01*
X87833Y468445D01*
X87839Y468454D01*
X87889Y468508D01*
X87938Y468562D01*
X87946Y468570D01*
X87954Y468578D01*
X88009Y468626D01*
X88063Y468675D01*
X88072Y468681D01*
X88081Y468688D01*
X88141Y468730D01*
X88201Y468772D01*
X88210Y468777D01*
X88220Y468784D01*
X88284Y468818D01*
X88348Y468854D01*
X88358Y468858D01*
X88368Y468863D01*
X88436Y468890D01*
X88504Y468918D01*
X88514Y468921D01*
X88525Y468925D01*
X88596Y468945D01*
X88666Y468965D01*
X88677Y468967D01*
X88687Y468969D01*
X88760Y468981D01*
X88832Y468993D01*
X88843Y468994D01*
X88854Y468995D01*
X88928Y468998D01*
X89000Y469002D01*
X100000D01*
X100168Y468993D01*
D02*
G37*
G36*
X616228Y297979D02*
Y293979D01*
Y290105D01*
Y280607D01*
X602291D01*
Y280172D01*
X596793D01*
Y280607D01*
X593358D01*
Y286105D01*
X596793D01*
Y290105D01*
X593358D01*
Y293979D01*
X596793D01*
Y297979D01*
X593358D01*
Y303477D01*
X616228D01*
Y297979D01*
D02*
G37*
%LPC*%
G36*
X610730D02*
X606730D01*
Y293979D01*
X610730D01*
Y297979D01*
D02*
G37*
G36*
X602856D02*
X602291D01*
Y293979D01*
X602856D01*
Y297979D01*
D02*
G37*
G36*
X610730Y290105D02*
X606730D01*
Y286105D01*
X610730D01*
Y290105D01*
D02*
G37*
G36*
X602856D02*
X602291D01*
Y286105D01*
X602856D01*
Y290105D01*
D02*
G37*
%LPD*%
D19*
X700750Y848000D02*
D03*
Y836250D02*
D03*
X730000Y835500D02*
D03*
Y847250D02*
D03*
D20*
X95250Y489750D02*
D03*
X83500D02*
D03*
Y459750D02*
D03*
X95250D02*
D03*
X377250Y1017250D02*
D03*
X365500D02*
D03*
X37750Y489750D02*
D03*
X26000D02*
D03*
X38182Y460250D02*
D03*
X26432D02*
D03*
X336250Y1017500D02*
D03*
X348000D02*
D03*
D23*
X107500Y1135000D02*
D03*
D24*
X89879D02*
D03*
D25*
X800000Y502500D02*
D03*
Y306969D02*
D03*
Y401969D02*
D03*
D26*
Y484879D02*
D03*
Y289348D02*
D03*
Y384348D02*
D03*
D27*
X244500Y742500D02*
D03*
X235000D02*
D03*
X225500D02*
D03*
Y769749D02*
D03*
X235000D02*
D03*
X244500D02*
D03*
D28*
X38876Y933000D02*
D03*
Y942500D02*
D03*
Y952000D02*
D03*
X66125D02*
D03*
Y942500D02*
D03*
Y933000D02*
D03*
X362000Y1255000D02*
D03*
Y1264500D02*
D03*
Y1274000D02*
D03*
X389249D02*
D03*
Y1264500D02*
D03*
Y1255000D02*
D03*
X240751Y1256000D02*
D03*
Y1265500D02*
D03*
Y1275000D02*
D03*
X268000D02*
D03*
Y1265500D02*
D03*
Y1256000D02*
D03*
D32*
X630752Y782500D02*
D03*
X650000D02*
D03*
X630752Y765000D02*
D03*
X650000D02*
D03*
X630752Y747500D02*
D03*
X650000D02*
D03*
X630376Y730000D02*
D03*
X649624D02*
D03*
X303748Y1254000D02*
D03*
X284500D02*
D03*
X304500Y1276500D02*
D03*
X285252D02*
D03*
X200752Y1275500D02*
D03*
X220000D02*
D03*
X200752Y1256500D02*
D03*
X220000D02*
D03*
X431748D02*
D03*
X412500D02*
D03*
X431748Y1274000D02*
D03*
X412500D02*
D03*
X324500Y1276500D02*
D03*
X343748D02*
D03*
X324500Y1254000D02*
D03*
X343748D02*
D03*
X193211Y202250D02*
D03*
X212459D02*
D03*
X118376Y788500D02*
D03*
X137624D02*
D03*
X447876Y837500D02*
D03*
X467124D02*
D03*
X573315Y315219D02*
D03*
X554067D02*
D03*
X650000Y1291500D02*
D03*
X630752D02*
D03*
Y800000D02*
D03*
X650000D02*
D03*
X140303Y520036D02*
D03*
X121055D02*
D03*
X206000Y1204500D02*
D03*
X225248D02*
D03*
X227752Y117000D02*
D03*
X247000D02*
D03*
X102204Y591294D02*
D03*
X121452D02*
D03*
X693760Y681096D02*
D03*
X694000Y1183500D02*
D03*
X693050Y794798D02*
D03*
X692376Y1298536D02*
D03*
X711624D02*
D03*
X712298Y794798D02*
D03*
X713248Y1183500D02*
D03*
X713008Y681096D02*
D03*
D33*
X414000Y839252D02*
D03*
Y858500D02*
D03*
X384000Y163000D02*
D03*
Y182248D02*
D03*
X434000Y136624D02*
D03*
Y117376D02*
D03*
X449734Y183489D02*
D03*
Y202737D02*
D03*
X534250Y117752D02*
D03*
Y137000D02*
D03*
X548992Y164833D02*
D03*
Y184081D02*
D03*
X495000Y183000D02*
D03*
Y202248D02*
D03*
X473000Y136898D02*
D03*
Y117650D02*
D03*
X100400Y414176D02*
D03*
Y433424D02*
D03*
Y364176D02*
D03*
Y383424D02*
D03*
Y314176D02*
D03*
Y333424D02*
D03*
Y264176D02*
D03*
Y283424D02*
D03*
X40000Y1108124D02*
D03*
Y1088876D02*
D03*
X37500Y1005752D02*
D03*
Y1025000D02*
D03*
X430000Y1087876D02*
D03*
Y1107124D02*
D03*
X273349Y152376D02*
D03*
Y171624D02*
D03*
X222000Y83000D02*
D03*
Y63752D02*
D03*
X441000Y414748D02*
D03*
Y395500D02*
D03*
X694938Y409856D02*
D03*
Y390608D02*
D03*
X459000Y414748D02*
D03*
Y395500D02*
D03*
X712663Y409868D02*
D03*
Y390620D02*
D03*
X164000Y741252D02*
D03*
Y760500D02*
D03*
X394000Y838876D02*
D03*
Y858124D02*
D03*
X384000Y119752D02*
D03*
Y139000D02*
D03*
X432943Y183535D02*
D03*
Y202783D02*
D03*
X452146Y136640D02*
D03*
Y117392D02*
D03*
X492500Y136750D02*
D03*
Y117502D02*
D03*
X477000Y183000D02*
D03*
Y202248D02*
D03*
X62536Y527124D02*
D03*
Y507876D02*
D03*
X65000Y568252D02*
D03*
Y587500D02*
D03*
X584400Y1066376D02*
D03*
Y1085624D02*
D03*
X584500Y915124D02*
D03*
Y895876D02*
D03*
X531936Y1085624D02*
D03*
Y1066376D02*
D03*
X532036Y895876D02*
D03*
Y915124D02*
D03*
X241686Y1221498D02*
D03*
Y1240746D02*
D03*
X222948Y1240894D02*
D03*
Y1221646D02*
D03*
X457464Y746124D02*
D03*
Y726876D02*
D03*
X210364Y394176D02*
D03*
Y413424D02*
D03*
X228000Y137752D02*
D03*
Y157000D02*
D03*
X422000Y417252D02*
D03*
Y436500D02*
D03*
X677464Y434624D02*
D03*
Y415376D02*
D03*
X135036Y1067876D02*
D03*
Y1087124D02*
D03*
X210000Y300000D02*
D03*
Y280752D02*
D03*
X407000Y94624D02*
D03*
Y75376D02*
D03*
X575769Y96427D02*
D03*
Y77179D02*
D03*
D34*
X45393Y1249057D02*
D03*
X74393D02*
D03*
D35*
X474000Y1087000D02*
D03*
Y1116000D02*
D03*
D67*
X490000Y358250D02*
D03*
Y386750D02*
D03*
D75*
X498000Y1087000D02*
D03*
Y1112000D02*
D03*
D77*
X400000Y45000D02*
D03*
X450000D02*
D03*
X45810Y1222500D02*
D03*
Y1272500D02*
D03*
X820000Y375000D02*
D03*
Y425000D02*
D03*
X819999Y525001D02*
D03*
Y475001D02*
D03*
X820000Y1130000D02*
D03*
Y1180000D02*
D03*
Y740000D02*
D03*
Y690000D02*
D03*
Y1230000D02*
D03*
Y1280000D02*
D03*
Y840000D02*
D03*
Y790000D02*
D03*
X221855Y1360626D02*
D03*
X171855D02*
D03*
X271855D02*
D03*
X321855D02*
D03*
X421855D02*
D03*
X371855D02*
D03*
X471855D02*
D03*
X521855D02*
D03*
X820000Y275000D02*
D03*
Y325000D02*
D03*
D78*
X615000Y145000D02*
D03*
Y195000D02*
D03*
X675000Y1020000D02*
D03*
Y1070000D02*
D03*
X790000Y960000D02*
D03*
Y910000D02*
D03*
Y1020000D02*
D03*
Y1070000D02*
D03*
X675000Y960000D02*
D03*
Y910000D02*
D03*
X66141Y152500D02*
D03*
Y202500D02*
D03*
D79*
X65621Y434151D02*
D03*
Y408751D02*
D03*
Y383351D02*
D03*
Y357951D02*
D03*
Y332551D02*
D03*
Y307151D02*
D03*
Y281751D02*
D03*
X40221Y434151D02*
D03*
Y408751D02*
D03*
Y383351D02*
D03*
Y357951D02*
D03*
Y332551D02*
D03*
Y307151D02*
D03*
Y281751D02*
D03*
X14821Y434151D02*
D03*
Y408751D02*
D03*
Y383351D02*
D03*
Y357951D02*
D03*
Y332551D02*
D03*
Y307151D02*
D03*
Y281751D02*
D03*
X270000Y851600D02*
D03*
Y826200D02*
D03*
Y800800D02*
D03*
Y775400D02*
D03*
Y750000D02*
D03*
Y724600D02*
D03*
Y699200D02*
D03*
X15000Y957900D02*
D03*
Y932500D02*
D03*
Y907100D02*
D03*
Y1080000D02*
D03*
Y1054600D02*
D03*
Y1029200D02*
D03*
X80000Y1054600D02*
D03*
Y1080000D02*
D03*
Y1105400D02*
D03*
D80*
X65621Y256351D02*
D03*
X40221D02*
D03*
X14821D02*
D03*
X270000Y673800D02*
D03*
X15000Y983300D02*
D03*
Y1105400D02*
D03*
X80000Y1029200D02*
D03*
D81*
X607000Y47000D02*
D03*
D82*
X206325Y32721D02*
D03*
Y74521D02*
D03*
X119925D02*
D03*
D83*
Y32721D02*
D03*
D84*
X192125Y68518D02*
D03*
X134325D02*
D03*
D85*
X535000Y47000D02*
D03*
D86*
X371770Y1254250D02*
D03*
X192000Y1256500D02*
D03*
Y1275500D02*
D03*
X237000Y1197500D02*
D03*
Y1207500D02*
D03*
X232376Y1265464D02*
D03*
X247000Y1197500D02*
D03*
X242000Y1202500D02*
D03*
X247000Y1207500D02*
D03*
X313500Y1254000D02*
D03*
X314252Y1276500D02*
D03*
X353000Y1264500D02*
D03*
X442500Y1256500D02*
D03*
Y1274000D02*
D03*
X223058Y1232130D02*
D03*
X239649Y1231848D02*
D03*
X277376Y1265464D02*
D03*
X209000Y1287500D02*
D03*
X286000Y1265500D02*
D03*
D88*
X810000Y52500D02*
D03*
X50000Y52500D02*
D03*
Y1352500D02*
D03*
X810000D02*
D03*
D181*
X100000Y1231500D02*
D03*
Y1272500D02*
D03*
D182*
X219951Y102655D02*
D03*
X197951Y96155D02*
D03*
Y109155D02*
D03*
D183*
X162500Y127000D02*
D03*
X169000Y105000D02*
D03*
X156000D02*
D03*
D184*
X595043Y310292D02*
D03*
Y273792D02*
D03*
X601543Y310292D02*
D03*
X608043D02*
D03*
X614543D02*
D03*
Y273792D02*
D03*
X601793D02*
D03*
X608043D02*
D03*
D185*
X586543Y295292D02*
D03*
Y301792D02*
D03*
Y288792D02*
D03*
Y282292D02*
D03*
X623043D02*
D03*
Y288792D02*
D03*
Y295292D02*
D03*
Y301792D02*
D03*
D186*
X604793Y292042D02*
D03*
D187*
X694119Y360327D02*
D03*
X722619D02*
D03*
D188*
X102500Y1201500D02*
D03*
Y1153500D02*
D03*
M02*
