M48
;Layer_Color=9474304
;FILE_FORMAT=4:4
METRIC,LZ
;TYPE=PLATED
T01F00S00C0.3500
T02F00S00C0.4000
T03F00S00C0.5000
T04F00S00C0.5500
T06F00S00C0.8636
T07F00S00C1.1430
T08F00S00C1.3000
T09F00S00C4.5000
T10F00S00C4.5500
;TYPE=NON_PLATED
T11F00S00C0.6604
%
T01
X00128Y00061
X00126972Y00089159
X00155925Y00094924
X00169Y00096
X00178105Y00102099
X00208Y00102405
X00209Y00058
X00196Y0006
X00180339Y00068854
X00237752Y00063752
X00238511Y00082685
X00276248Y00070049
X00162543Y00117578
X004135Y00117
X004225
X00473Y00107
X00492
X00511Y00117
X0051975
Y00125
Y00133
Y00141
X00511
Y00133
Y00125
X00497503Y00144622
X00494926Y00152722
X00498597Y00169688
X00489415Y00169338
X00511Y00176
Y00184
X0052Y00183
Y0017575
X00532725Y00163484
X0053325Y00155
X0054075Y0014825
X0056Y00185
X00540584Y00211747
X00532951Y00217997
X00515Y00205
X00422Y00204
Y00196
X004225Y00183
Y00175
X004135
Y00183
X004006Y00163249
X00400193Y00154759
X00399Y00146
X004135Y00141
Y00133
Y00125
X004225
Y00133
Y00141
X00434418Y0014975
X00443739Y00153116
X00444991Y00170266
X00434411Y00170183
X004Y00127
X00404652Y0034558
X00404774Y00369936
X00404286Y00393684
X00399293Y00415849
X00404Y0042302
X00409963Y00431671
X00415646Y00454
X00412835Y00467933
X00456352Y0045957
X00467134Y00459117
X0053Y004375
X00561Y0044475
X00569Y0045198
X00568534Y00430244
X00577695Y00438371
X00604098Y00441373
X00604189Y00448835
X00605596Y0042083
X00613348Y00417343
X00619Y004125
X00618857Y00404407
X006195Y00396627
Y00389116
X00623768Y004175
X00618422Y00422813
X00638341Y0041875
X00652752Y00422679
X00653541Y0043206
X00655136Y00440409
X00655Y00455
X006515Y004655
X00633764Y00449381
Y00441373
X00618985Y0047025
Y00486501
X006965Y00453
X00711098Y00456592
X005525Y003225
X005825Y002725
X00378898Y00392445
X00378556Y00400993
X00379354Y00412275
X00375285Y00420302
X00385161Y00420388
X00379945Y0042589
X00359014Y00419871
X00365185Y0044361
X00365145Y00451316
X00394676Y00451448
X00394857Y00443158
X0038Y004715
Y004885
X00334847Y00454847
X0033Y0044777
X00328391Y00439424
X003175Y0043
X0029375Y00436733
X00284734Y00437266
X0021052Y00427506
Y00380423
X0021Y00314131
Y00266629
X002Y0022
X00205Y001775
X001925Y0018
X0018825Y0014075
X00196698Y00139811
X00227686Y00127683
X00257Y0012575
X00266Y0013825
X00273Y00132
X00259Y00168
X00272986Y001826
X00239Y00159189
X00105Y00245
X00098Y00253846
X001004Y002938
Y003038
X00111Y00307
X001004Y003438
Y003538
X00112324Y00364176
X001004Y003938
Y004038
X00112Y004135
X001004Y004438
X0005Y0046
X00065412Y0048975
X00233Y0049
X0022625Y00505
X00255
X00270033Y00537466
X00266Y00546
X0027Y0055446
X00266554Y0056223
X00269461Y00570538
X00270205Y00579006
X0027225Y0058775
X00269731Y00595868
X002525Y006125
X00239376Y00645
X0019575Y00631235
X002025Y006155
X00178231Y00657555
X00169639Y00658508
X00166Y007095
X00164Y0073102
X0015Y0072
X00113Y007215
Y007355
X00099
X00085
Y007495
X00099
X00113
X00114Y007635
X00099Y007645
X00085
X0007Y007635
Y007495
Y007355
Y007215
X00085Y007205
X00099
X001035Y00687
X00116Y006845
X00068Y006995
X00059Y006985
X00044Y006975
X00029Y006985
X000865Y00592
X00135Y005915
X00125Y00615
X0012725Y00548262
X00110036Y00520036
X00155Y0052
X00184335
X0031552Y00680473
X003325Y00681473
Y00725046
Y007675
X00300892Y007775
X0029225Y0080075
X00292Y00826
X00361494Y00824701
X00373Y008585
X00362347Y00887347
X0033375Y009005
X00326Y009105
X00317Y0091275
X00296Y00904748
X00276Y009075
X0025Y00875
X00205Y008475
X002125Y008225
Y008075
Y007975
X001795Y0081925
X00171879Y00828379
X00158Y008285
X00139Y008305
X0014Y00895
X001525
X00125Y008955
X00117Y009055
X0008275Y008805
X0007274Y0087226
X00065Y008625
X000525
X0010867Y007885
X00372Y007645
X004375Y0076275
X00475Y007465
X0044Y006905
X00432653Y00837653
X00555Y00857
X00563861Y00852861
X00576663Y00875312
X00576194Y00885029
X0057568Y0090464
X00565916Y0089839
X005595Y009055
X00542198Y00902126
X00538733Y00885029
X00528562Y00885228
X0061Y008
X0059742Y00769533
X00597453Y00759953
X005975Y00750999
X00597499Y00742498
X00565Y00727455
X005725Y00719955
X0058Y00712455
X005875Y00704955
X00595Y00697455
X006025Y00692455
X00608872Y0068683
X005575Y00734955
X00535Y005275
X00520202Y00516405
X005125Y0052
X00528294Y00926081
X00538Y0092625
X00538909Y00935446
X00544833Y00914167
X00574677Y00926081
X00575658Y00935446
X00561Y0095
X00552053Y0095448
X005549Y010275
X00563761Y01023361
X00575Y010465
X00574Y010555
X00565454Y01067818
X0056315Y01076
X00541595Y01073959
X00544614Y0108425
X0054Y010965
X00539Y011065
X00557963Y011215
X005529Y011285
X00575Y011065
Y010965
X00595021Y01064409
X00538Y010555
Y010465
X00461656Y01040741
X0044387Y01040617
X00453Y010835
X00463Y011045
X00456Y01114
X00474Y011305
X00431585Y01132305
X00418Y010965
X00413Y010915
X00418Y010865
X00408
Y010965
X00427Y009795
Y009705
X0042703Y00961567
X00427Y0095273
X00409791Y0094975
X0041Y0093725
X0044Y0094
X0049Y009395
X00483263Y009215
X00498Y01158
X005025Y0125
X005225
X00542337Y01250163
X005625Y0125
X005875Y01227757
X00588Y01215257
Y012025
X00597Y012085
Y0119575
X00596997Y01221507
X00597Y012345
X00610582Y01275432
X00619Y01291075
X005825Y01175
X00566Y011905
X004425Y012565
Y01274
X00399Y012745
X00399Y012645
Y012555
X0037177Y0125425
X003725Y01275
X00353Y012645
X003135Y01254
X00314252Y012765
X00286Y012655
X00277376Y01265464
X00257Y012875
X00232
X00232376Y01265464
X00239649Y01231848
X00223058Y0123213
X00214622Y01214225
X00214899Y0120573
X0021925Y011885
X0021
X0021Y011795
X002195Y01179
X00237Y011975
Y012075
X00242Y012025
X00247Y012075
X00247Y011975
X00197Y012195
X00192Y012565
Y012755
X00209Y012875
X00158Y012845
X001575Y012475
X00167Y012375
X0011025Y0117925
X0011Y011685
X00134393Y01100821
X00135Y010525
X0021Y01105
Y011175
X00198294Y00964206
X00233894Y00957525
X00288933Y00961442
X00285Y009755
X00276
X0027Y00983
X00311009Y00980244
X0033573Y00984395
X00336Y010015
X00355011Y00992511
X00369Y009865
X00377Y010025
X0034948Y0096
X00335
Y00945
X0034948
X00381Y009285
X0038Y00915
X002835Y00934748
X0030663Y01008838
X0031259Y01014898
X00298169Y01029331
X00292159Y0102332
X0036Y010845
X00385Y01084
X00375Y01101
X00363Y011895
Y011985
X00363169Y01207331
X00363Y01216
X000325Y01193223
X00014Y011215
Y010055
X000275Y009425
X00076
X001725Y009275
X001925Y0092
X00547Y013195
X0057Y01325
X00570161Y01374514
X00605Y013745
X00645
X00625Y013395
T02
X004025Y007125
X004105
Y007225
X004025
Y007325
X004105
X0041Y00745
X00402
Y00755
X0041
Y0076423
X00402
X00425Y007065
X00493Y007065
Y00699
X005005
Y007065
Y00714
X00493
X00508
Y007065
Y00699
X00489Y00688
X0048
X00475Y007365
T03
X00095Y0065
T04
X0001Y00095
Y00115
X00025Y00105
X0004Y00115
Y00095
X00055Y00105
X0007Y00115
Y00095
X00085Y00105
X001Y00115
Y00095
X00095Y00015
X00115
X00135
X00155
X00175
X00195
X00255
X00275
X00295
X00315
X00335
X00355
X00375
X00365Y0003
X00345
X00325
X00305
X00315Y00045
X00335
X00355
X00375
X00365Y0006
X00345
X00325
X00305
X00315Y00075
X00335
X00355
X00375
X00365Y0009
X00345
X00325
X00305
X0042Y001
X0044
X0046
X00485
X00505
X0052Y00105
X00525Y00095
X0054
X00555
X0055Y00105
X00535
X0066
X0068
X007
X0072
X0074
X0076
X0078
X0077Y0009
X0075
X0073
X0071
X0069
X0067
X0068Y00075
X0066
X0067Y0006
X0069
X0071
X0073
X0075
X0077
X0076Y00045
X0074
X0072
X007
X0068
X0066
X0067Y0003
X0069
X0071
X0073
X0075
X0077
X0076Y00015
X0074
X0072
X007
X0068
X0066
X007Y00075
X0072
X0074
X0076
X0079Y0009
X008Y00105
X0082
X00835
X0085
Y00125
Y00145
Y00165
X00835Y00165
X0082
X008
X0081Y0015
X0083
X0082Y00135
X008
X0081Y0012
X0083
Y0018
X0081
X0082Y00195
X00835Y00195
X0083Y0021
X0081
X008Y00195
X0085Y00205
Y00185
Y00225
Y00245
Y00265
Y00285
Y00305
Y00325
Y00345
Y00365
Y00385
Y00405
Y00425
Y00445
Y00465
Y00485
Y00505
X0072Y005
Y0049
X0071
Y005
X00577686Y00478424
X0057Y004
Y00385
X0055
X00547459Y00357459
X0053Y003575
X00497Y00347
X004975Y003375
X00485
Y00347
X00473Y00353
Y00338
X00462Y00345
X0046Y003625
X0044
X0045Y003525
X0044Y003425
X00449Y00332
X00445Y0029
Y002675
X004225
X004675
X004925
X0051
Y002825
Y002975
X0053Y0028
X005425
X0055075Y002485
Y002385
Y002285
X0052Y00229
Y00239
Y00249
X00559999Y002
X00575Y002
X00595
X00564Y0017075
X005695Y00151
X00555Y0015
X0055Y00135
X00565
Y0012
X0055
X0058
Y00135
X0066
X0068
X007
X0072
X0074
X0076
X0078
X0077Y0015
X0075
X0073
X0071
X0069
X0067
X0068Y00165
X0066
X007
X0072
X0074
X0076
X0078
X0079Y0018
X0077
X0075
X0073
X0071
X0069
X0068Y00195
X007
X0072
X0074
X0076
X0078
X0079Y0021
X0077
X0075
X0073
X0071
X0069
X00695Y0027
X0068
X00665
X006325Y0026
X006175
X00625Y0025
X0061Y002875
Y002975
X006
Y002875
X00625Y00325
X00615Y0034
Y003525
X006075Y003625
X0059575
X006025Y003725
X00615
X00645Y00375
Y00365
Y003525
Y0034
X006575Y00325
Y00315
Y00305
X00675
X00685Y00315
X00675Y0033
X00685Y0034
X00681Y00356
Y00365
X00671
Y00356
X00645Y003875
Y003975
X0074Y00364
Y00355
X0075
Y00364
X00745Y0033
X00765
X00785
X00775Y00315
X00755
X00745Y003
X00765
X00785
X00775Y00285
X00755
X00745Y0027
X00765
X00785
X0079Y0015
Y0012
X0077
X0075
X0073
X0071
X0069
X0067
X00464Y00151722
X00463Y00177
Y00191
Y00203
X0045Y00217
X00434
X004075Y002
X00404502Y0017957
X00405Y00135
X00433Y00379
X00485794Y00400799
X00496841Y00401149
X00496854Y00412236
X00486Y004125
X00495Y00435
X00465Y00515
X0056Y003425
X005725Y003275
X00725Y0034
X0039Y003275
Y003125
Y002975
Y002825
Y002675
X0038Y00275
Y0029
Y00305
Y0032
X0037Y003275
Y003125
Y002975
Y002825
Y002675
X0036Y00275
Y0029
Y00305
Y0032
Y00335
X0035Y003275
Y003125
Y002975
Y002825
Y002675
X0034Y00275
Y0029
Y00305
Y0032
Y00335
X0033Y003275
Y003125
Y002975
Y002825
Y002675
X0032Y00275
Y0029
Y00305
Y0032
X003Y00325
X00285
Y0031
Y00295
Y0028
X003
Y00295
Y0031
X0026
Y0029
Y0027
Y0025
Y0023
X0029
Y0024
X003
Y0023
X003425Y002375
X0038
X00383664Y00196766
X00365
X0035
X003475Y00185
Y001725
X003375Y001775
Y001925
X00325Y00174
X0034Y001625
X00335Y0015
Y00135
Y0012
X0035
X00365
Y00135
X0035
Y0015
X00365
Y00165
X0037Y0018
X003725Y0034
X00373541Y00362473
X00364994Y00370678
X00365Y003825
X00374795Y00378542
X003525Y00365
X00335Y0038
Y004
X0032Y0039
X0031Y00375
X00295Y0037
X0026
Y0035
Y0033
Y0039
Y00405
Y0042
X00275
X0029
X00285Y00405
X00275Y00395
X00185Y0039
X0016
X00149976Y00347193
X0015Y0032
Y0029
Y00265
Y00245
X0016Y0023
X00185
X0021Y00235
Y00245
X00195Y00265
X002Y0037
X0016Y00449
X0014Y00475
Y0049
X0012
Y00475
X000525Y005075
X00014Y0048975
X0001Y0046
Y00235
Y00215
Y00195
Y00175
Y00155
Y00135
X00025Y00125
X00055
X00085
X00336436Y00474413
X00365Y0064
X00235Y00625
X002175Y006375
X00203625Y00647625
X0021Y00665
X00207041Y00739814
X00206752Y00751088
X00207041Y00764194
X0020733Y0077548
X00235Y0077998
X0023475Y0073525
X0036Y00795
X0037
Y00805
X0036
X0037125Y00832
X00015Y008275
X00015371Y00890289
X0001465Y00688615
X00059964Y00647464
X0006Y006275
X0008098Y00618505
X000655Y00602
X00028764Y00613645
X000175Y005775
X0005Y005675
X000645Y005425
X00092598Y00551842
X00109Y0058
X00152386Y00628273
X000175Y0052
X00465Y0054
Y00565
X0049925Y0053375
X00505Y006315
Y00644
X004925
X0048
X004675
X00455
Y006315
X004675
X0048
X004925
X005Y0073
Y0075
X00495Y00765
X00475Y0077
X0046
X004525Y008775
X005Y008725
X00505Y008625
X00501732Y00849961
X00515Y008525
X0052Y0084
X0053Y008475
X00535Y008575
X00525Y008625
X00515Y008725
X00535Y008725
X0052Y008925
Y009125
X0051Y009025
X005Y009125
Y008925
X00535Y008325
X0055Y008375
X00565
X0058
X00598791Y00851148
X0061Y008625
X00615Y008725
X006
Y009025
X0061Y009125
Y008925
X0062Y009025
X0065Y008675
X00664458Y00867462
Y00852462
X00649458
X0065Y0082
X00665Y007825
Y007625
Y007425
Y007225
Y007025
X00655Y006925
Y006725
X00675
Y006925
X00685Y007025
Y007225
Y007425
Y007625
Y007825
X00675Y007925
X00725Y00795
X00728132Y00741516
X00722Y007355
X00731Y00731
X0073025Y0067725
X0073075Y0066725
X0073Y0063
X00715
X007
Y00615
Y006
X00715
X0073
Y00585
Y00615
X00715
X00579748Y00605156
X0058Y0059
X00565
X00585Y007775
X00592Y008165
X007525Y0085
X007625
Y0086
X007525
X007275Y0091
X007125
X0085Y00905
Y00885
Y00865
Y00845
Y00825
Y00805
Y00785
Y00765
Y00745
Y00725
Y00705
Y00685
Y00665
Y00645
Y00625
Y00605
Y00585
Y00565
Y00545
Y00525
X008Y0059
Y00605
Y0062
Y00635
X0085Y00925
Y00945
Y00965
Y00985
X0084Y0099
X0082
X0083Y01
Y0098
X0085Y01005
Y01025
Y01045
Y01065
Y01085
Y01105
Y01125
Y01145
Y01165
Y01185
Y01205
Y01225
Y01245
Y01265
Y01285
Y01305
X00725Y01298
X00685Y012855
Y012655
X00665
Y012855
Y012455
Y012255
X00655Y012155
Y011955
Y011755
X00675
Y011955
X00685Y012055
Y012255
Y012455
X00722Y012385
X00728452Y01244234
X00729981Y01234184
X0073025Y0118025
X0073075Y0117025
X0075Y01135
Y01125
X0076
Y01135
X0071Y0113
X0069
X0067
X0065
X0063
X0064Y0114
X00615
X006Y011425
X00599827Y01130021
X00615Y01115
X00635
X0064Y010925
X0063Y010825
Y010625
X0062Y010725
X006
Y010925
X0062
X0061Y010825
Y010625
X00625Y01045
X00635
Y01035
X00645
Y01025
X00655Y0102
Y01045
X00645
X0064Y0099
X00625
X006Y009925
X0059Y00985
Y010025
X0058Y00995
Y010125
X006
X00596Y010255
X00555Y010125
X005375
X00536523Y01025525
X005275Y010025
X005475Y01
X0055Y009825
X0054Y009725
X0053Y009825
X0052Y009725
Y009425
X0051Y009225
X006
X0062
X00625Y0094
X00635
Y0095
X00645
Y0096
X00655Y00965
Y0094
X00645
X00596041Y00955647
X006Y0097
X0058Y00975
X0057Y00985
X005175Y010575
X00497497Y0107575
X00535Y011175
Y0113
X005375Y011425
X0055Y011425
X00565
X0058
X00405Y01125
Y0106
X0042Y0101
X0043Y0102
X0041Y01
X004Y0099
X0047Y01255
Y01275
X0049Y01305
X003775Y012325
X00365Y012425
X003175Y012295
Y012125
X003025Y01195
X002875Y01205
X0027Y011675
X002575Y01155
X00132248Y011475
X00133031Y01135
X0009Y011255
X0001Y0114
Y0116
Y0118
Y012
Y0122
Y0124
Y0126
Y0128
Y013
X0026Y009525
X0039Y0098
Y01045
X00375Y0106
X00355Y01045
X00355Y0139
X00335
X00315
X00295
X00275
X00255
X00235
X00215
X00195
X00175
X00155
X00135
X00115
X00095
X00375
X00395
X00415
X00435
X00455
X00475
X00495
X00515
X00535
X00555
X00575
X00595
X00615
X00635
X00655
X00675
X00695
X00715
X00735
X00755
X00745Y01375
X00725
X00705
X00685
X00675Y0136
X00695
X00715
X00735
X00755
X00745Y01345
X00725
X00705
X00685
X00675Y0133
X00695
X00715
X00735
X00755
T06
X00615Y00145
Y00195
X00066141Y002025
Y001525
X00675Y0091
X0079
Y0096
Y0102
Y0107
X00675
Y0102
Y0096
T07
X00014821Y00256351
X00040221
X00065621
Y00281751
Y00307151
Y00332551
Y00357951
Y00383351
Y00408751
Y00434151
X00040221
Y00408751
Y00383351
Y00357951
Y00332551
Y00307151
Y00281751
X00014821
Y00307151
Y00332551
Y00357951
Y00383351
Y00408751
Y00434151
X00015Y009071
X0027Y008516
Y008262
Y008008
Y007754
Y0075
Y007246
Y006992
Y006738
X00015Y009325
Y009579
Y009833
Y010292
Y010546
Y0108
Y011054
X0008
Y0108
Y010546
Y010292
T08
X004Y00045
X0045
X0082Y00275
Y00325
Y00375
Y00425
X00819999Y00475001
Y00525001
X0082Y0069
Y0074
Y0079
Y0084
Y0113
Y0118
Y0123
Y0128
X0004581Y012725
Y012225
X00171855Y01360626
X00221855
X00271855
X00321855
X00371855
X00421855
X00471855
X00521855
T09
X0005Y000525
X0081Y000525
X0005Y013525
X0081
T10
X00535Y00047
X00607
T11
X00134325Y00068518
X00192125
M30
